G04 #@! TF.FileFunction,Profile,NP*
%FSLAX46Y46*%
G04 Gerber Fmt 4.6, Leading zero omitted, Abs format (unit mm)*
G04 Created by KiCad (PCBNEW 4.0.6) date Wednesday, 31 January 2018 'PMt' 21:09:23*
%MOMM*%
%LPD*%
G01*
G04 APERTURE LIST*
%ADD10C,0.100000*%
%ADD11C,0.127816*%
G04 APERTURE END LIST*
D10*
D11*
X144397808Y-97440935D02*
X144681921Y-94887440D01*
X144681921Y-94887440D02*
X145202692Y-92168950D01*
X145202692Y-92168950D02*
X145935556Y-89327034D01*
X145935556Y-89327034D02*
X146855944Y-86403257D01*
X146855944Y-86403257D02*
X147939290Y-83439187D01*
X147939290Y-83439187D02*
X149161028Y-80476389D01*
X149161028Y-80476389D02*
X150496591Y-77556432D01*
X150496591Y-77556432D02*
X151921412Y-74720880D01*
X151921412Y-74720880D02*
X153410923Y-72011302D01*
X153410923Y-72011302D02*
X154940559Y-69469263D01*
X154940559Y-69469263D02*
X156485752Y-67136330D01*
X156485752Y-67136330D02*
X158021936Y-65054070D01*
X158021936Y-65054070D02*
X159524543Y-63264050D01*
X159524543Y-63264050D02*
X160969008Y-61807836D01*
X160969008Y-61807836D02*
X162330762Y-60726995D01*
X162330762Y-60726995D02*
X163585241Y-60063093D01*
X163585241Y-60063093D02*
X164707875Y-59857698D01*
X164707875Y-59857698D02*
X166367604Y-60236222D01*
X166367604Y-60236222D02*
X167541036Y-61156064D01*
X167541036Y-61156064D02*
X168333898Y-62503359D01*
X168333898Y-62503359D02*
X168851914Y-64164246D01*
X168851914Y-64164246D02*
X169200808Y-66024860D01*
X169200808Y-66024860D02*
X169486307Y-67971337D01*
X169486307Y-67971337D02*
X169814135Y-69889815D01*
X169814135Y-69889815D02*
X170290018Y-71666429D01*
X170290018Y-71666429D02*
X171019679Y-73187317D01*
X171019679Y-73187317D02*
X172108845Y-74338614D01*
X172108845Y-74338614D02*
X173663239Y-75006457D01*
X173663239Y-75006457D02*
X175143093Y-75100128D01*
X175143093Y-75100128D02*
X176913139Y-75123000D01*
X176913139Y-75123000D02*
X178948662Y-75083449D01*
X178948662Y-75083449D02*
X181224947Y-74989848D01*
X181224947Y-74989848D02*
X183717278Y-74850574D01*
X183717278Y-74850574D02*
X186400940Y-74674000D01*
X186400940Y-74674000D02*
X189251218Y-74468502D01*
X189251218Y-74468502D02*
X192243396Y-74242454D01*
X192243396Y-74242454D02*
X195352757Y-74004232D01*
X195352757Y-74004232D02*
X198554588Y-73762210D01*
X198554588Y-73762210D02*
X201824172Y-73524763D01*
X201824172Y-73524763D02*
X205136795Y-73300266D01*
X205136795Y-73300266D02*
X208467739Y-73097095D01*
X208467739Y-73097095D02*
X211792291Y-72923623D01*
X211792291Y-72923623D02*
X215085734Y-72788225D01*
X215085734Y-72788225D02*
X218323353Y-72699278D01*
X218323353Y-72699278D02*
X221480433Y-72665154D01*
X221480433Y-72665154D02*
X224532257Y-72694230D01*
X224532257Y-72694230D02*
X227454111Y-72794880D01*
X227454111Y-72794880D02*
X230221280Y-72975480D01*
X230221280Y-72975480D02*
X232809047Y-73244403D01*
X232809047Y-73244403D02*
X235192697Y-73610025D01*
X235192697Y-73610025D02*
X237347514Y-74080721D01*
X237347514Y-74080721D02*
X239248784Y-74664865D01*
X239248784Y-74664865D02*
X241011830Y-75489805D01*
X241011830Y-75489805D02*
X242275217Y-76538218D01*
X242275217Y-76538218D02*
X243118097Y-77899934D01*
X243118097Y-77899934D02*
X243619621Y-79664786D01*
X243619621Y-79664786D02*
X243858942Y-81922604D01*
X243858942Y-81922604D02*
X243915210Y-84763219D01*
X243915210Y-84763219D02*
X243867579Y-88276463D01*
X243867579Y-88276463D02*
X243807822Y-91230740D01*
X243807822Y-91230740D02*
X243706876Y-94026359D01*
X243706876Y-94026359D02*
X243511444Y-96614666D01*
X243511444Y-96614666D02*
X243168230Y-98947011D01*
X243168230Y-98947011D02*
X242623937Y-100974743D01*
X242623937Y-100974743D02*
X241825267Y-102649208D01*
X241825267Y-102649208D02*
X240718924Y-103921756D01*
X240718924Y-103921756D02*
X239251611Y-104743736D01*
X239251611Y-104743736D02*
X237370032Y-105066495D01*
X237370032Y-105066495D02*
X236055410Y-105092070D01*
X236055410Y-105092070D02*
X234157060Y-105114955D01*
X234157060Y-105114955D02*
X231749834Y-105135301D01*
X231749834Y-105135301D02*
X228908584Y-105153255D01*
X228908584Y-105153255D02*
X225708163Y-105168969D01*
X225708163Y-105168969D02*
X222223423Y-105182590D01*
X222223423Y-105182590D02*
X218529216Y-105194270D01*
X218529216Y-105194270D02*
X214700395Y-105204156D01*
X214700395Y-105204156D02*
X210811811Y-105212399D01*
X210811811Y-105212399D02*
X206938317Y-105219147D01*
X206938317Y-105219147D02*
X203154766Y-105224551D01*
X203154766Y-105224551D02*
X199536009Y-105228760D01*
X199536009Y-105228760D02*
X196156900Y-105231922D01*
X196156900Y-105231922D02*
X193092289Y-105234189D01*
X193092289Y-105234189D02*
X190417029Y-105235708D01*
X190417029Y-105235708D02*
X188205974Y-105236629D01*
X188205974Y-105236629D02*
X186533974Y-105237102D01*
X186533974Y-105237102D02*
X185475882Y-105237276D01*
X185475882Y-105237276D02*
X185106551Y-105237301D01*
X185106551Y-105237301D02*
X184979802Y-105827940D01*
X184979802Y-105827940D02*
X184598616Y-107432108D01*
X184598616Y-107432108D02*
X183961588Y-109798178D01*
X183961588Y-109798178D02*
X183067312Y-112674527D01*
X183067312Y-112674527D02*
X181914382Y-115809530D01*
X181914382Y-115809530D02*
X180501393Y-118951561D01*
X180501393Y-118951561D02*
X178826939Y-121848996D01*
X178826939Y-121848996D02*
X176889615Y-124250210D01*
X176889615Y-124250210D02*
X174688014Y-125903578D01*
X174688014Y-125903578D02*
X171873621Y-127240564D01*
X171873621Y-127240564D02*
X169384885Y-128171226D01*
X169384885Y-128171226D02*
X167150101Y-128686601D01*
X167150101Y-128686601D02*
X165097565Y-128777725D01*
X165097565Y-128777725D02*
X163155573Y-128435636D01*
X163155573Y-128435636D02*
X161252421Y-127651370D01*
X161252421Y-127651370D02*
X159316404Y-126415965D01*
X159316404Y-126415965D02*
X158301024Y-124954637D01*
X158301024Y-124954637D02*
X157936376Y-122759570D01*
X157936376Y-122759570D02*
X158094362Y-120039820D01*
X158094362Y-120039820D02*
X158646885Y-117004439D01*
X158646885Y-117004439D02*
X159465850Y-113862481D01*
X159465850Y-113862481D02*
X160423159Y-110823001D01*
X160423159Y-110823001D02*
X161390717Y-108095052D01*
X161390717Y-108095052D02*
X162240425Y-105887689D01*
X162240425Y-105887689D02*
X162844187Y-104409965D01*
X162844187Y-104409965D02*
X163073907Y-103870933D01*
X163073907Y-103870933D02*
X159867233Y-105344695D01*
X159867233Y-105344695D02*
X156988452Y-106459118D01*
X156988452Y-106459118D02*
X154429214Y-107212389D01*
X154429214Y-107212389D02*
X152181169Y-107602697D01*
X152181169Y-107602697D02*
X150235968Y-107628228D01*
X150235968Y-107628228D02*
X148585261Y-107287169D01*
X148585261Y-107287169D02*
X147220698Y-106577709D01*
X147220698Y-106577709D02*
X146133929Y-105498034D01*
X146133929Y-105498034D02*
X145316606Y-104046332D01*
X145316606Y-104046332D02*
X144760378Y-102220790D01*
X144760378Y-102220790D02*
X144456895Y-100019595D01*
X144456895Y-100019595D02*
X144397808Y-97440935D01*
M02*
