G04 #@! TF.FileFunction,Legend,Bot*
%FSLAX46Y46*%
G04 Gerber Fmt 4.6, Leading zero omitted, Abs format (unit mm)*
G04 Created by KiCad (PCBNEW 4.0.6) date Wednesday, 31 January 2018 'PMt' 20:49:43*
%MOMM*%
%LPD*%
G01*
G04 APERTURE LIST*
%ADD10C,0.100000*%
%ADD11C,0.500000*%
%ADD12C,0.150000*%
%ADD13C,0.120000*%
G04 APERTURE END LIST*
D10*
D11*
X237437981Y-99306000D02*
G75*
G03X237437981Y-99306000I-283981J0D01*
G01*
D12*
X237300000Y-80400000D02*
X237300000Y-98400000D01*
X243300000Y-98400000D02*
X217800000Y-98400000D01*
X243300000Y-80400000D02*
X217800000Y-80400000D01*
X217800000Y-80400000D02*
X217800000Y-98400000D01*
X243300000Y-80400000D02*
X243300000Y-98400000D01*
X227300000Y-103375000D02*
X229300000Y-103375000D01*
X229300000Y-101225000D02*
X227300000Y-101225000D01*
X171100000Y-76425000D02*
X169100000Y-76425000D01*
X169100000Y-78575000D02*
X171100000Y-78575000D01*
D13*
X173290000Y-111540000D02*
X174550000Y-111540000D01*
X180110000Y-111540000D02*
X178850000Y-111540000D01*
X173290000Y-115300000D02*
X173290000Y-111540000D01*
X180110000Y-117550000D02*
X180110000Y-111540000D01*
D12*
X236800000Y-103325000D02*
X234800000Y-103325000D01*
X234800000Y-101275000D02*
X236800000Y-101275000D01*
X206600000Y-76625000D02*
X204600000Y-76625000D01*
X204600000Y-78775000D02*
X206600000Y-78775000D01*
X190000000Y-75925000D02*
X188000000Y-75925000D01*
X188000000Y-78075000D02*
X190000000Y-78075000D01*
X209575000Y-79720000D02*
X209575000Y-79995000D01*
X201825000Y-79720000D02*
X201825000Y-80085000D01*
X201825000Y-95470000D02*
X201825000Y-95105000D01*
X209575000Y-95470000D02*
X209575000Y-95105000D01*
X209575000Y-79720000D02*
X201825000Y-79720000D01*
X209575000Y-95470000D02*
X201825000Y-95470000D01*
X209575000Y-79995000D02*
X211400000Y-79995000D01*
X193425000Y-79640000D02*
X193425000Y-79915000D01*
X185675000Y-79640000D02*
X185675000Y-80005000D01*
X185675000Y-95390000D02*
X185675000Y-95025000D01*
X193425000Y-95390000D02*
X193425000Y-95025000D01*
X193425000Y-79640000D02*
X185675000Y-79640000D01*
X193425000Y-95390000D02*
X185675000Y-95390000D01*
X193425000Y-79915000D02*
X195250000Y-79915000D01*
X199750640Y-104799180D02*
X192049360Y-104799180D01*
X199750640Y-105799940D02*
X192049360Y-105799940D01*
X192049360Y-105799940D02*
X192049360Y-96600060D01*
X192049360Y-96600060D02*
X199750640Y-96600060D01*
X199750640Y-96600060D02*
X199750640Y-105799940D01*
X176625000Y-79875000D02*
X176625000Y-80150000D01*
X168875000Y-79875000D02*
X168875000Y-80240000D01*
X168875000Y-95625000D02*
X168875000Y-95260000D01*
X176625000Y-95625000D02*
X176625000Y-95260000D01*
X176625000Y-79875000D02*
X168875000Y-79875000D01*
X176625000Y-95625000D02*
X168875000Y-95625000D01*
X176625000Y-80150000D02*
X178450000Y-80150000D01*
X236361905Y-89152381D02*
X236361905Y-89961905D01*
X236314286Y-90057143D01*
X236266667Y-90104762D01*
X236171429Y-90152381D01*
X235980952Y-90152381D01*
X235885714Y-90104762D01*
X235838095Y-90057143D01*
X235790476Y-89961905D01*
X235790476Y-89152381D01*
X235361905Y-89247619D02*
X235314286Y-89200000D01*
X235219048Y-89152381D01*
X234980952Y-89152381D01*
X234885714Y-89200000D01*
X234838095Y-89247619D01*
X234790476Y-89342857D01*
X234790476Y-89438095D01*
X234838095Y-89580952D01*
X235409524Y-90152381D01*
X234790476Y-90152381D01*
X236232430Y-82470571D02*
X235899096Y-82470571D01*
X235756239Y-82994381D02*
X236232430Y-82994381D01*
X236232430Y-81994381D01*
X235756239Y-81994381D01*
X235375287Y-82946762D02*
X235280049Y-82994381D01*
X235089573Y-82994381D01*
X234994334Y-82946762D01*
X234946715Y-82851524D01*
X234946715Y-82803905D01*
X234994334Y-82708667D01*
X235089573Y-82661048D01*
X235232430Y-82661048D01*
X235327668Y-82613429D01*
X235375287Y-82518190D01*
X235375287Y-82470571D01*
X235327668Y-82375333D01*
X235232430Y-82327714D01*
X235089573Y-82327714D01*
X234994334Y-82375333D01*
X234518144Y-82327714D02*
X234518144Y-83327714D01*
X234518144Y-82375333D02*
X234422906Y-82327714D01*
X234232429Y-82327714D01*
X234137191Y-82375333D01*
X234089572Y-82422952D01*
X234041953Y-82518190D01*
X234041953Y-82803905D01*
X234089572Y-82899143D01*
X234137191Y-82946762D01*
X234232429Y-82994381D01*
X234422906Y-82994381D01*
X234518144Y-82946762D01*
X233613382Y-82994381D02*
X233613382Y-82327714D01*
X233613382Y-82518190D02*
X233565763Y-82422952D01*
X233518144Y-82375333D01*
X233422906Y-82327714D01*
X233327667Y-82327714D01*
X232613381Y-82946762D02*
X232708619Y-82994381D01*
X232899096Y-82994381D01*
X232994334Y-82946762D01*
X233041953Y-82851524D01*
X233041953Y-82470571D01*
X232994334Y-82375333D01*
X232899096Y-82327714D01*
X232708619Y-82327714D01*
X232613381Y-82375333D01*
X232565762Y-82470571D01*
X232565762Y-82565810D01*
X233041953Y-82661048D01*
X232184810Y-82946762D02*
X232089572Y-82994381D01*
X231899096Y-82994381D01*
X231803857Y-82946762D01*
X231756238Y-82851524D01*
X231756238Y-82803905D01*
X231803857Y-82708667D01*
X231899096Y-82661048D01*
X232041953Y-82661048D01*
X232137191Y-82613429D01*
X232184810Y-82518190D01*
X232184810Y-82470571D01*
X232137191Y-82375333D01*
X232041953Y-82327714D01*
X231899096Y-82327714D01*
X231803857Y-82375333D01*
X231375286Y-82946762D02*
X231280048Y-82994381D01*
X231089572Y-82994381D01*
X230994333Y-82946762D01*
X230946714Y-82851524D01*
X230946714Y-82803905D01*
X230994333Y-82708667D01*
X231089572Y-82661048D01*
X231232429Y-82661048D01*
X231327667Y-82613429D01*
X231375286Y-82518190D01*
X231375286Y-82470571D01*
X231327667Y-82375333D01*
X231232429Y-82327714D01*
X231089572Y-82327714D01*
X230994333Y-82375333D01*
X230518143Y-82994381D02*
X230518143Y-82327714D01*
X230518143Y-81994381D02*
X230565762Y-82042000D01*
X230518143Y-82089619D01*
X230470524Y-82042000D01*
X230518143Y-81994381D01*
X230518143Y-82089619D01*
X230184810Y-82327714D02*
X229803858Y-82327714D01*
X230041953Y-82994381D02*
X230041953Y-82137238D01*
X229994334Y-82042000D01*
X229899096Y-81994381D01*
X229803858Y-81994381D01*
X228756238Y-82946762D02*
X228613381Y-82994381D01*
X228375285Y-82994381D01*
X228280047Y-82946762D01*
X228232428Y-82899143D01*
X228184809Y-82803905D01*
X228184809Y-82708667D01*
X228232428Y-82613429D01*
X228280047Y-82565810D01*
X228375285Y-82518190D01*
X228565762Y-82470571D01*
X228661000Y-82422952D01*
X228708619Y-82375333D01*
X228756238Y-82280095D01*
X228756238Y-82184857D01*
X228708619Y-82089619D01*
X228661000Y-82042000D01*
X228565762Y-81994381D01*
X228327666Y-81994381D01*
X228184809Y-82042000D01*
X227851476Y-82327714D02*
X227613381Y-82994381D01*
X227375285Y-82327714D02*
X227613381Y-82994381D01*
X227708619Y-83232476D01*
X227756238Y-83280095D01*
X227851476Y-83327714D01*
X227041952Y-82946762D02*
X226946714Y-82994381D01*
X226756238Y-82994381D01*
X226660999Y-82946762D01*
X226613380Y-82851524D01*
X226613380Y-82803905D01*
X226660999Y-82708667D01*
X226756238Y-82661048D01*
X226899095Y-82661048D01*
X226994333Y-82613429D01*
X227041952Y-82518190D01*
X227041952Y-82470571D01*
X226994333Y-82375333D01*
X226899095Y-82327714D01*
X226756238Y-82327714D01*
X226660999Y-82375333D01*
X226327666Y-82327714D02*
X225946714Y-82327714D01*
X226184809Y-81994381D02*
X226184809Y-82851524D01*
X226137190Y-82946762D01*
X226041952Y-82994381D01*
X225946714Y-82994381D01*
X225232427Y-82946762D02*
X225327665Y-82994381D01*
X225518142Y-82994381D01*
X225613380Y-82946762D01*
X225660999Y-82851524D01*
X225660999Y-82470571D01*
X225613380Y-82375333D01*
X225518142Y-82327714D01*
X225327665Y-82327714D01*
X225232427Y-82375333D01*
X225184808Y-82470571D01*
X225184808Y-82565810D01*
X225660999Y-82661048D01*
X224756237Y-82994381D02*
X224756237Y-82327714D01*
X224756237Y-82422952D02*
X224708618Y-82375333D01*
X224613380Y-82327714D01*
X224470522Y-82327714D01*
X224375284Y-82375333D01*
X224327665Y-82470571D01*
X224327665Y-82994381D01*
X224327665Y-82470571D02*
X224280046Y-82375333D01*
X224184808Y-82327714D01*
X224041951Y-82327714D01*
X223946713Y-82375333D01*
X223899094Y-82470571D01*
X223899094Y-82994381D01*
X223470523Y-82946762D02*
X223375285Y-82994381D01*
X223184809Y-82994381D01*
X223089570Y-82946762D01*
X223041951Y-82851524D01*
X223041951Y-82803905D01*
X223089570Y-82708667D01*
X223184809Y-82661048D01*
X223327666Y-82661048D01*
X223422904Y-82613429D01*
X223470523Y-82518190D01*
X223470523Y-82470571D01*
X223422904Y-82375333D01*
X223327666Y-82327714D01*
X223184809Y-82327714D01*
X223089570Y-82375333D01*
X236256381Y-84121571D02*
X235923047Y-84121571D01*
X235780190Y-84645381D02*
X236256381Y-84645381D01*
X236256381Y-83645381D01*
X235780190Y-83645381D01*
X235399238Y-84597762D02*
X235256381Y-84645381D01*
X235018285Y-84645381D01*
X234923047Y-84597762D01*
X234875428Y-84550143D01*
X234827809Y-84454905D01*
X234827809Y-84359667D01*
X234875428Y-84264429D01*
X234923047Y-84216810D01*
X235018285Y-84169190D01*
X235208762Y-84121571D01*
X235304000Y-84073952D01*
X235351619Y-84026333D01*
X235399238Y-83931095D01*
X235399238Y-83835857D01*
X235351619Y-83740619D01*
X235304000Y-83693000D01*
X235208762Y-83645381D01*
X234970666Y-83645381D01*
X234827809Y-83693000D01*
X234399238Y-84645381D02*
X234399238Y-83645381D01*
X234018285Y-83645381D01*
X233923047Y-83693000D01*
X233875428Y-83740619D01*
X233827809Y-83835857D01*
X233827809Y-83978714D01*
X233875428Y-84073952D01*
X233923047Y-84121571D01*
X234018285Y-84169190D01*
X234399238Y-84169190D01*
X233494476Y-83645381D02*
X232875428Y-83645381D01*
X233208762Y-84026333D01*
X233065904Y-84026333D01*
X232970666Y-84073952D01*
X232923047Y-84121571D01*
X232875428Y-84216810D01*
X232875428Y-84454905D01*
X232923047Y-84550143D01*
X232970666Y-84597762D01*
X233065904Y-84645381D01*
X233351619Y-84645381D01*
X233446857Y-84597762D01*
X233494476Y-84550143D01*
X232494476Y-83740619D02*
X232446857Y-83693000D01*
X232351619Y-83645381D01*
X232113523Y-83645381D01*
X232018285Y-83693000D01*
X231970666Y-83740619D01*
X231923047Y-83835857D01*
X231923047Y-83931095D01*
X231970666Y-84073952D01*
X232542095Y-84645381D01*
X231923047Y-84645381D01*
X231494476Y-84264429D02*
X230732571Y-84264429D01*
X230351619Y-83645381D02*
X230113524Y-84645381D01*
X229923047Y-83931095D01*
X229732571Y-84645381D01*
X229494476Y-83645381D01*
X228542095Y-84645381D02*
X228875429Y-84169190D01*
X229113524Y-84645381D02*
X229113524Y-83645381D01*
X228732571Y-83645381D01*
X228637333Y-83693000D01*
X228589714Y-83740619D01*
X228542095Y-83835857D01*
X228542095Y-83978714D01*
X228589714Y-84073952D01*
X228637333Y-84121571D01*
X228732571Y-84169190D01*
X229113524Y-84169190D01*
X227923048Y-83645381D02*
X227732571Y-83645381D01*
X227637333Y-83693000D01*
X227542095Y-83788238D01*
X227494476Y-83978714D01*
X227494476Y-84312048D01*
X227542095Y-84502524D01*
X227637333Y-84597762D01*
X227732571Y-84645381D01*
X227923048Y-84645381D01*
X228018286Y-84597762D01*
X228113524Y-84502524D01*
X228161143Y-84312048D01*
X228161143Y-83978714D01*
X228113524Y-83788238D01*
X228018286Y-83693000D01*
X227923048Y-83645381D01*
X226875429Y-83645381D02*
X226684952Y-83645381D01*
X226589714Y-83693000D01*
X226494476Y-83788238D01*
X226446857Y-83978714D01*
X226446857Y-84312048D01*
X226494476Y-84502524D01*
X226589714Y-84597762D01*
X226684952Y-84645381D01*
X226875429Y-84645381D01*
X226970667Y-84597762D01*
X227065905Y-84502524D01*
X227113524Y-84312048D01*
X227113524Y-83978714D01*
X227065905Y-83788238D01*
X226970667Y-83693000D01*
X226875429Y-83645381D01*
X226018286Y-84645381D02*
X226018286Y-83645381D01*
X225684952Y-84359667D01*
X225351619Y-83645381D01*
X225351619Y-84645381D01*
X228501666Y-102752381D02*
X228835000Y-102276190D01*
X229073095Y-102752381D02*
X229073095Y-101752381D01*
X228692142Y-101752381D01*
X228596904Y-101800000D01*
X228549285Y-101847619D01*
X228501666Y-101942857D01*
X228501666Y-102085714D01*
X228549285Y-102180952D01*
X228596904Y-102228571D01*
X228692142Y-102276190D01*
X229073095Y-102276190D01*
X227549285Y-102752381D02*
X228120714Y-102752381D01*
X227835000Y-102752381D02*
X227835000Y-101752381D01*
X227930238Y-101895238D01*
X228025476Y-101990476D01*
X228120714Y-102038095D01*
X170481666Y-78027381D02*
X170815000Y-77551190D01*
X171053095Y-78027381D02*
X171053095Y-77027381D01*
X170672142Y-77027381D01*
X170576904Y-77075000D01*
X170529285Y-77122619D01*
X170481666Y-77217857D01*
X170481666Y-77360714D01*
X170529285Y-77455952D01*
X170576904Y-77503571D01*
X170672142Y-77551190D01*
X171053095Y-77551190D01*
X170100714Y-77122619D02*
X170053095Y-77075000D01*
X169957857Y-77027381D01*
X169719761Y-77027381D01*
X169624523Y-77075000D01*
X169576904Y-77122619D01*
X169529285Y-77217857D01*
X169529285Y-77313095D01*
X169576904Y-77455952D01*
X170148333Y-78027381D01*
X169529285Y-78027381D01*
X177461905Y-112902381D02*
X177461905Y-113711905D01*
X177414286Y-113807143D01*
X177366667Y-113854762D01*
X177271429Y-113902381D01*
X177080952Y-113902381D01*
X176985714Y-113854762D01*
X176938095Y-113807143D01*
X176890476Y-113711905D01*
X176890476Y-112902381D01*
X175890476Y-113902381D02*
X176461905Y-113902381D01*
X176176191Y-113902381D02*
X176176191Y-112902381D01*
X176271429Y-113045238D01*
X176366667Y-113140476D01*
X176461905Y-113188095D01*
X235966666Y-102657143D02*
X236014285Y-102704762D01*
X236157142Y-102752381D01*
X236252380Y-102752381D01*
X236395238Y-102704762D01*
X236490476Y-102609524D01*
X236538095Y-102514286D01*
X236585714Y-102323810D01*
X236585714Y-102180952D01*
X236538095Y-101990476D01*
X236490476Y-101895238D01*
X236395238Y-101800000D01*
X236252380Y-101752381D01*
X236157142Y-101752381D01*
X236014285Y-101800000D01*
X235966666Y-101847619D01*
X235109523Y-102085714D02*
X235109523Y-102752381D01*
X235347619Y-101704762D02*
X235585714Y-102419048D01*
X234966666Y-102419048D01*
X206242857Y-78152381D02*
X206576191Y-77676190D01*
X206814286Y-78152381D02*
X206814286Y-77152381D01*
X206433333Y-77152381D01*
X206338095Y-77200000D01*
X206290476Y-77247619D01*
X206242857Y-77342857D01*
X206242857Y-77485714D01*
X206290476Y-77580952D01*
X206338095Y-77628571D01*
X206433333Y-77676190D01*
X206814286Y-77676190D01*
X205290476Y-78152381D02*
X205861905Y-78152381D01*
X205576191Y-78152381D02*
X205576191Y-77152381D01*
X205671429Y-77295238D01*
X205766667Y-77390476D01*
X205861905Y-77438095D01*
X204338095Y-78152381D02*
X204909524Y-78152381D01*
X204623810Y-78152381D02*
X204623810Y-77152381D01*
X204719048Y-77295238D01*
X204814286Y-77390476D01*
X204909524Y-77438095D01*
X189642857Y-79752381D02*
X189976191Y-79276190D01*
X190214286Y-79752381D02*
X190214286Y-78752381D01*
X189833333Y-78752381D01*
X189738095Y-78800000D01*
X189690476Y-78847619D01*
X189642857Y-78942857D01*
X189642857Y-79085714D01*
X189690476Y-79180952D01*
X189738095Y-79228571D01*
X189833333Y-79276190D01*
X190214286Y-79276190D01*
X188690476Y-79752381D02*
X189261905Y-79752381D01*
X188976191Y-79752381D02*
X188976191Y-78752381D01*
X189071429Y-78895238D01*
X189166667Y-78990476D01*
X189261905Y-79038095D01*
X188309524Y-78847619D02*
X188261905Y-78800000D01*
X188166667Y-78752381D01*
X187928571Y-78752381D01*
X187833333Y-78800000D01*
X187785714Y-78847619D01*
X187738095Y-78942857D01*
X187738095Y-79038095D01*
X187785714Y-79180952D01*
X188357143Y-79752381D01*
X187738095Y-79752381D01*
X205152381Y-87118095D02*
X205961905Y-87118095D01*
X206057143Y-87165714D01*
X206104762Y-87213333D01*
X206152381Y-87308571D01*
X206152381Y-87499048D01*
X206104762Y-87594286D01*
X206057143Y-87641905D01*
X205961905Y-87689524D01*
X205152381Y-87689524D01*
X205152381Y-88070476D02*
X205152381Y-88689524D01*
X205533333Y-88356190D01*
X205533333Y-88499048D01*
X205580952Y-88594286D01*
X205628571Y-88641905D01*
X205723810Y-88689524D01*
X205961905Y-88689524D01*
X206057143Y-88641905D01*
X206104762Y-88594286D01*
X206152381Y-88499048D01*
X206152381Y-88213333D01*
X206104762Y-88118095D01*
X206057143Y-88070476D01*
X189002381Y-87038095D02*
X189811905Y-87038095D01*
X189907143Y-87085714D01*
X189954762Y-87133333D01*
X190002381Y-87228571D01*
X190002381Y-87419048D01*
X189954762Y-87514286D01*
X189907143Y-87561905D01*
X189811905Y-87609524D01*
X189002381Y-87609524D01*
X189335714Y-88514286D02*
X190002381Y-88514286D01*
X188954762Y-88276190D02*
X189669048Y-88038095D01*
X189669048Y-88657143D01*
X188451201Y-100866667D02*
X189165487Y-100866667D01*
X189308344Y-100819047D01*
X189403582Y-100723809D01*
X189451201Y-100580952D01*
X189451201Y-100485714D01*
X189451201Y-101866667D02*
X189451201Y-101295238D01*
X189451201Y-101580952D02*
X188451201Y-101580952D01*
X188594058Y-101485714D01*
X188689296Y-101390476D01*
X188736915Y-101295238D01*
X173511905Y-87252381D02*
X173511905Y-88061905D01*
X173464286Y-88157143D01*
X173416667Y-88204762D01*
X173321429Y-88252381D01*
X173130952Y-88252381D01*
X173035714Y-88204762D01*
X172988095Y-88157143D01*
X172940476Y-88061905D01*
X172940476Y-87252381D01*
X171988095Y-87252381D02*
X172464286Y-87252381D01*
X172511905Y-87728571D01*
X172464286Y-87680952D01*
X172369048Y-87633333D01*
X172130952Y-87633333D01*
X172035714Y-87680952D01*
X171988095Y-87728571D01*
X171940476Y-87823810D01*
X171940476Y-88061905D01*
X171988095Y-88157143D01*
X172035714Y-88204762D01*
X172130952Y-88252381D01*
X172369048Y-88252381D01*
X172464286Y-88204762D01*
X172511905Y-88157143D01*
X173061905Y-114452381D02*
X172490476Y-114452381D01*
X172776191Y-115452381D02*
X172776191Y-114452381D01*
X172157143Y-115452381D02*
X172157143Y-114452381D01*
X171776190Y-114452381D01*
X171680952Y-114500000D01*
X171633333Y-114547619D01*
X171585714Y-114642857D01*
X171585714Y-114785714D01*
X171633333Y-114880952D01*
X171680952Y-114928571D01*
X171776190Y-114976190D01*
X172157143Y-114976190D01*
X170633333Y-115452381D02*
X171204762Y-115452381D01*
X170919048Y-115452381D02*
X170919048Y-114452381D01*
X171014286Y-114595238D01*
X171109524Y-114690476D01*
X171204762Y-114738095D01*
X240861905Y-78652381D02*
X240290476Y-78652381D01*
X240576191Y-79652381D02*
X240576191Y-78652381D01*
X239957143Y-79652381D02*
X239957143Y-78652381D01*
X239576190Y-78652381D01*
X239480952Y-78700000D01*
X239433333Y-78747619D01*
X239385714Y-78842857D01*
X239385714Y-78985714D01*
X239433333Y-79080952D01*
X239480952Y-79128571D01*
X239576190Y-79176190D01*
X239957143Y-79176190D01*
X239004762Y-78747619D02*
X238957143Y-78700000D01*
X238861905Y-78652381D01*
X238623809Y-78652381D01*
X238528571Y-78700000D01*
X238480952Y-78747619D01*
X238433333Y-78842857D01*
X238433333Y-78938095D01*
X238480952Y-79080952D01*
X239052381Y-79652381D01*
X238433333Y-79652381D01*
X220861905Y-103752381D02*
X220290476Y-103752381D01*
X220576191Y-104752381D02*
X220576191Y-103752381D01*
X219957143Y-104752381D02*
X219957143Y-103752381D01*
X219576190Y-103752381D01*
X219480952Y-103800000D01*
X219433333Y-103847619D01*
X219385714Y-103942857D01*
X219385714Y-104085714D01*
X219433333Y-104180952D01*
X219480952Y-104228571D01*
X219576190Y-104276190D01*
X219957143Y-104276190D01*
X219052381Y-103752381D02*
X218433333Y-103752381D01*
X218766667Y-104133333D01*
X218623809Y-104133333D01*
X218528571Y-104180952D01*
X218480952Y-104228571D01*
X218433333Y-104323810D01*
X218433333Y-104561905D01*
X218480952Y-104657143D01*
X218528571Y-104704762D01*
X218623809Y-104752381D01*
X218909524Y-104752381D01*
X219004762Y-104704762D01*
X219052381Y-104657143D01*
X224161905Y-103752381D02*
X223590476Y-103752381D01*
X223876191Y-104752381D02*
X223876191Y-103752381D01*
X223257143Y-104752381D02*
X223257143Y-103752381D01*
X222876190Y-103752381D01*
X222780952Y-103800000D01*
X222733333Y-103847619D01*
X222685714Y-103942857D01*
X222685714Y-104085714D01*
X222733333Y-104180952D01*
X222780952Y-104228571D01*
X222876190Y-104276190D01*
X223257143Y-104276190D01*
X221828571Y-104085714D02*
X221828571Y-104752381D01*
X222066667Y-103704762D02*
X222304762Y-104419048D01*
X221685714Y-104419048D01*
X237961905Y-78552381D02*
X237390476Y-78552381D01*
X237676191Y-79552381D02*
X237676191Y-78552381D01*
X237057143Y-79552381D02*
X237057143Y-78552381D01*
X236676190Y-78552381D01*
X236580952Y-78600000D01*
X236533333Y-78647619D01*
X236485714Y-78742857D01*
X236485714Y-78885714D01*
X236533333Y-78980952D01*
X236580952Y-79028571D01*
X236676190Y-79076190D01*
X237057143Y-79076190D01*
X235580952Y-78552381D02*
X236057143Y-78552381D01*
X236104762Y-79028571D01*
X236057143Y-78980952D01*
X235961905Y-78933333D01*
X235723809Y-78933333D01*
X235628571Y-78980952D01*
X235580952Y-79028571D01*
X235533333Y-79123810D01*
X235533333Y-79361905D01*
X235580952Y-79457143D01*
X235628571Y-79504762D01*
X235723809Y-79552381D01*
X235961905Y-79552381D01*
X236057143Y-79504762D01*
X236104762Y-79457143D01*
X235361905Y-78552381D02*
X234790476Y-78552381D01*
X235076191Y-79552381D02*
X235076191Y-78552381D01*
X234457143Y-79552381D02*
X234457143Y-78552381D01*
X234076190Y-78552381D01*
X233980952Y-78600000D01*
X233933333Y-78647619D01*
X233885714Y-78742857D01*
X233885714Y-78885714D01*
X233933333Y-78980952D01*
X233980952Y-79028571D01*
X234076190Y-79076190D01*
X234457143Y-79076190D01*
X233028571Y-78552381D02*
X233219048Y-78552381D01*
X233314286Y-78600000D01*
X233361905Y-78647619D01*
X233457143Y-78790476D01*
X233504762Y-78980952D01*
X233504762Y-79361905D01*
X233457143Y-79457143D01*
X233409524Y-79504762D01*
X233314286Y-79552381D01*
X233123809Y-79552381D01*
X233028571Y-79504762D01*
X232980952Y-79457143D01*
X232933333Y-79361905D01*
X232933333Y-79123810D01*
X232980952Y-79028571D01*
X233028571Y-78980952D01*
X233123809Y-78933333D01*
X233314286Y-78933333D01*
X233409524Y-78980952D01*
X233457143Y-79028571D01*
X233504762Y-79123810D01*
X217461905Y-81852381D02*
X216890476Y-81852381D01*
X217176191Y-82852381D02*
X217176191Y-81852381D01*
X216557143Y-82852381D02*
X216557143Y-81852381D01*
X216176190Y-81852381D01*
X216080952Y-81900000D01*
X216033333Y-81947619D01*
X215985714Y-82042857D01*
X215985714Y-82185714D01*
X216033333Y-82280952D01*
X216080952Y-82328571D01*
X216176190Y-82376190D01*
X216557143Y-82376190D01*
X215652381Y-81852381D02*
X214985714Y-81852381D01*
X215414286Y-82852381D01*
M02*
