G04 #@! TF.FileFunction,Copper,L1,Top,Signal*
%FSLAX46Y46*%
G04 Gerber Fmt 4.6, Leading zero omitted, Abs format (unit mm)*
G04 Created by KiCad (PCBNEW 4.0.6) date Wednesday, 31 January 2018 'PMt' 21:09:23*
%MOMM*%
%LPD*%
G01*
G04 APERTURE LIST*
%ADD10C,0.100000*%
%ADD11R,1.800860X2.400000*%
%ADD12R,2.400000X1.800860*%
%ADD13C,0.800000*%
%ADD14C,0.600000*%
%ADD15C,0.700000*%
%ADD16C,0.250000*%
%ADD17C,0.254000*%
G04 APERTURE END LIST*
D10*
D11*
X241250000Y-96050000D03*
X241250000Y-92450000D03*
D12*
X236400000Y-78600000D03*
X232800000Y-78600000D03*
X231200000Y-81300000D03*
X227600000Y-81300000D03*
X236500000Y-84300000D03*
X232900000Y-84300000D03*
X233250000Y-89250000D03*
X229650000Y-89250000D03*
X231200000Y-95400000D03*
X227600000Y-95400000D03*
X222000000Y-89200000D03*
X218400000Y-89200000D03*
X219200000Y-94500000D03*
X215600000Y-94500000D03*
X208400000Y-100900000D03*
X204800000Y-100900000D03*
X216600000Y-100200000D03*
X213000000Y-100200000D03*
X233000000Y-101100000D03*
X229400000Y-101100000D03*
D11*
X237700000Y-100500000D03*
X237700000Y-96900000D03*
D12*
X224900000Y-84700000D03*
X221300000Y-84700000D03*
X227100000Y-78600000D03*
X223500000Y-78600000D03*
X207000000Y-96000000D03*
X203400000Y-96000000D03*
X209250000Y-89750000D03*
X205650000Y-89750000D03*
X199300000Y-85000000D03*
X195700000Y-85000000D03*
X202700000Y-78700000D03*
X199100000Y-78700000D03*
X207000000Y-81500000D03*
X203400000Y-81500000D03*
X212400000Y-78800000D03*
X208800000Y-78800000D03*
X212100000Y-84900000D03*
X208500000Y-84900000D03*
X197500000Y-90250000D03*
X193900000Y-90250000D03*
X194000000Y-96000000D03*
X190400000Y-96000000D03*
X187050000Y-100750000D03*
X183450000Y-100750000D03*
X180300000Y-104000000D03*
X176700000Y-104000000D03*
X172000000Y-107000000D03*
X168400000Y-107000000D03*
X166750000Y-113250000D03*
X163150000Y-113250000D03*
X167250000Y-122500000D03*
X163650000Y-122500000D03*
X173000000Y-117500000D03*
X169400000Y-117500000D03*
X177250000Y-110500000D03*
X173650000Y-110500000D03*
X182500000Y-97250000D03*
X178900000Y-97250000D03*
X185500000Y-91000000D03*
X181900000Y-91000000D03*
X188500000Y-85250000D03*
X184900000Y-85250000D03*
X191000000Y-79250000D03*
X187400000Y-79250000D03*
X174000000Y-100500000D03*
X170400000Y-100500000D03*
X171000000Y-94000000D03*
X167400000Y-94000000D03*
X174500000Y-87750000D03*
X170900000Y-87750000D03*
X178250000Y-80750000D03*
X174650000Y-80750000D03*
X158900000Y-98250000D03*
X162500000Y-98250000D03*
X148900000Y-100000000D03*
X152500000Y-100000000D03*
X147150000Y-93500000D03*
X150750000Y-93500000D03*
X150400000Y-86750000D03*
X154000000Y-86750000D03*
X153650000Y-80750000D03*
X157250000Y-80750000D03*
X157900000Y-74000000D03*
X161500000Y-74000000D03*
X161150000Y-68000000D03*
X164750000Y-68000000D03*
D13*
X173000000Y-114800000D03*
D14*
X197200000Y-95600000D03*
X181200000Y-113000000D03*
X178000000Y-113100000D03*
X213600000Y-103000000D03*
X216600000Y-102900000D03*
X197600000Y-82700000D03*
X196058058Y-83341942D03*
X234700000Y-92500000D03*
X207600000Y-87900000D03*
X207500000Y-91500000D03*
X214500000Y-85900000D03*
X214498392Y-77750307D03*
X232300000Y-76900000D03*
X227500000Y-83700000D03*
X230900000Y-84300000D03*
X231900000Y-90900000D03*
X225600000Y-95500000D03*
X216000000Y-90400000D03*
X213600000Y-94500000D03*
X202800000Y-100900000D03*
X213000000Y-102000000D03*
X227300000Y-100600000D03*
X235800000Y-102700000D03*
X223100000Y-85700000D03*
X215400000Y-84200000D03*
X201200000Y-95900000D03*
X205600000Y-87800000D03*
X196600000Y-86800000D03*
X192400000Y-86700000D03*
X197400000Y-86900000D03*
X206600000Y-79500000D03*
X196200000Y-79100000D03*
X191100000Y-85100000D03*
X205500000Y-86400000D03*
X191750000Y-90250000D03*
X190250000Y-94250000D03*
X184900000Y-99000000D03*
X178000000Y-102250000D03*
X168750000Y-105250000D03*
X165200000Y-111500000D03*
X163750000Y-120750000D03*
X169500000Y-115500000D03*
X173800000Y-108700000D03*
X179750000Y-95500000D03*
X182500000Y-86200000D03*
X179750000Y-85750000D03*
X181150000Y-79600000D03*
X175400000Y-84800000D03*
X185250000Y-79000000D03*
X172750000Y-98500000D03*
X171000000Y-92250000D03*
X171000000Y-89500000D03*
X173750000Y-83500000D03*
X164500000Y-98000000D03*
X155000000Y-100000000D03*
X152750000Y-93500000D03*
X154000000Y-88500000D03*
X159250000Y-80750000D03*
X161500000Y-75750000D03*
X165000000Y-70100000D03*
D15*
X173800430Y-76600000D02*
X170049570Y-76600000D01*
X170049570Y-76600000D02*
X161449570Y-68000000D01*
X161449570Y-68000000D02*
X161150000Y-68000000D01*
X177950430Y-80750000D02*
X173800430Y-76600000D01*
X180300000Y-104000000D02*
X180300000Y-102399570D01*
X180300000Y-102399570D02*
X178400430Y-100500000D01*
X178400430Y-100500000D02*
X175900000Y-100500000D01*
X175900000Y-100500000D02*
X174000000Y-100500000D01*
X191000000Y-79250000D02*
X190700430Y-79250000D01*
X190700430Y-79250000D02*
X189249999Y-77799569D01*
X189249999Y-77799569D02*
X181500001Y-77799569D01*
X181500001Y-77799569D02*
X178549570Y-80750000D01*
X178549570Y-80750000D02*
X178250000Y-80750000D01*
X202700000Y-78700000D02*
X202400430Y-78700000D01*
X192900000Y-79250000D02*
X191000000Y-79250000D01*
X202400430Y-78700000D02*
X200949999Y-77249569D01*
X200949999Y-77249569D02*
X194900431Y-77249569D01*
X194900431Y-77249569D02*
X192900000Y-79250000D01*
X208400000Y-100900000D02*
X208100430Y-100900000D01*
X208100430Y-100900000D02*
X206649999Y-102350431D01*
X187349570Y-100750000D02*
X187050000Y-100750000D01*
X206649999Y-102350431D02*
X188950000Y-102350430D01*
X188950000Y-102350430D02*
X187349570Y-100750000D01*
X216600000Y-100200000D02*
X216899570Y-100200000D01*
X216899570Y-100200000D02*
X217600000Y-99499570D01*
X217600000Y-99499570D02*
X231100000Y-99499570D01*
X231100000Y-99499570D02*
X232700430Y-101100000D01*
X232700430Y-101100000D02*
X233000000Y-101100000D01*
X227100000Y-78600000D02*
X226800430Y-78600000D01*
X226800430Y-78600000D02*
X225100736Y-76900306D01*
X225100736Y-76900306D02*
X212699264Y-76900306D01*
X212699264Y-76900306D02*
X212400000Y-77199570D01*
X212400000Y-77199570D02*
X212400000Y-78800000D01*
X237700000Y-100500000D02*
X241250000Y-96950000D01*
X241250000Y-96950000D02*
X241250000Y-96050000D01*
X233000000Y-101100000D02*
X233000000Y-102700430D01*
X233849571Y-103550001D02*
X236549999Y-103550001D01*
X236549999Y-103550001D02*
X237700000Y-102400000D01*
X233000000Y-102700430D02*
X233849571Y-103550001D01*
X237700000Y-102400000D02*
X237700000Y-100500000D01*
X231200000Y-95400000D02*
X231200000Y-99300000D01*
X231200000Y-99300000D02*
X233000000Y-101100000D01*
X233250000Y-89250000D02*
X233250000Y-93649570D01*
X233250000Y-93649570D02*
X231499570Y-95400000D01*
X231499570Y-95400000D02*
X231200000Y-95400000D01*
X233250000Y-89250000D02*
X233250000Y-87550000D01*
X233250000Y-87550000D02*
X236500000Y-84300000D01*
X231200000Y-81300000D02*
X235100430Y-81300000D01*
X235100430Y-81300000D02*
X236500000Y-82699570D01*
X236500000Y-82699570D02*
X236500000Y-84300000D01*
X231200000Y-81300000D02*
X235300430Y-81300000D01*
X235300430Y-81300000D02*
X236400000Y-80200430D01*
X236400000Y-80200430D02*
X236400000Y-78600000D01*
X227100000Y-78600000D02*
X228500000Y-78600000D01*
X228500000Y-78600000D02*
X231200000Y-81300000D01*
X224900000Y-84700000D02*
X224900000Y-80500430D01*
X224900000Y-80500430D02*
X226800430Y-78600000D01*
X222000000Y-89200000D02*
X224900000Y-86300000D01*
X224900000Y-86300000D02*
X224900000Y-84700000D01*
X219200000Y-94500000D02*
X219200000Y-92000000D01*
X219200000Y-92000000D02*
X222000000Y-89200000D01*
X216600000Y-100200000D02*
X216600000Y-97100000D01*
X216600000Y-97100000D02*
X219200000Y-94500000D01*
X208400000Y-100900000D02*
X208699570Y-100900000D01*
X208699570Y-100900000D02*
X211000000Y-98599570D01*
X211000000Y-98599570D02*
X214700000Y-98599570D01*
X214700000Y-98599570D02*
X216300430Y-100200000D01*
X216300430Y-100200000D02*
X216600000Y-100200000D01*
X207000000Y-96000000D02*
X207000000Y-99500000D01*
X207000000Y-99500000D02*
X208400000Y-100900000D01*
X209250000Y-89750000D02*
X209250000Y-94049570D01*
X209250000Y-94049570D02*
X207299570Y-96000000D01*
X207299570Y-96000000D02*
X207000000Y-96000000D01*
X209250000Y-89750000D02*
X209250000Y-87750000D01*
X209250000Y-87750000D02*
X212100000Y-84900000D01*
X212400000Y-78800000D02*
X212400000Y-84600000D01*
X212400000Y-84600000D02*
X212100000Y-84900000D01*
X207000000Y-81500000D02*
X211300430Y-81500000D01*
X211300430Y-81500000D02*
X212400000Y-80400430D01*
X212400000Y-80400430D02*
X212400000Y-78800000D01*
X207000000Y-81500000D02*
X204200000Y-78700000D01*
X204200000Y-78700000D02*
X202700000Y-78700000D01*
X199300000Y-85000000D02*
X205100430Y-85000000D01*
X205100430Y-85000000D02*
X207000000Y-83100430D01*
X207000000Y-83100430D02*
X207000000Y-81500000D01*
X197500000Y-90250000D02*
X199300000Y-88450000D01*
X199300000Y-88450000D02*
X199300000Y-85000000D01*
X194000000Y-96000000D02*
X194000000Y-93450430D01*
X194000000Y-93450430D02*
X197200430Y-90250000D01*
X197200430Y-90250000D02*
X197500000Y-90250000D01*
X188500000Y-85250000D02*
X188500000Y-81450430D01*
X188500000Y-81450430D02*
X190700430Y-79250000D01*
X185500000Y-91000000D02*
X185500000Y-87950430D01*
X185500000Y-87950430D02*
X188200430Y-85250000D01*
X188200430Y-85250000D02*
X188500000Y-85250000D01*
X182500000Y-97250000D02*
X182500000Y-93700430D01*
X182500000Y-93700430D02*
X185200430Y-91000000D01*
X185200430Y-91000000D02*
X185500000Y-91000000D01*
X180300000Y-104000000D02*
X180300000Y-99150430D01*
X182200430Y-97250000D02*
X182500000Y-97250000D01*
X180300000Y-99150430D02*
X182200430Y-97250000D01*
X187050000Y-100750000D02*
X190850430Y-100750000D01*
X190850430Y-100750000D02*
X194000000Y-97600430D01*
X194000000Y-97600430D02*
X194000000Y-96000000D01*
X180300000Y-104000000D02*
X185400430Y-104000000D01*
X185400430Y-104000000D02*
X187050000Y-102350430D01*
X187050000Y-102350430D02*
X187050000Y-100750000D01*
X177250000Y-110500000D02*
X177250000Y-106750430D01*
X177250000Y-106750430D02*
X180000430Y-104000000D01*
X180000430Y-104000000D02*
X180300000Y-104000000D01*
X177250000Y-110500000D02*
X176950430Y-110500000D01*
X173000000Y-115899570D02*
X173000000Y-117500000D01*
X176950430Y-110500000D02*
X173000000Y-114450430D01*
X173000000Y-114450430D02*
X173000000Y-115899570D01*
X173000000Y-117500000D02*
X173000000Y-114800000D01*
X167250000Y-122500000D02*
X167700430Y-122500000D01*
X167700430Y-122500000D02*
X172700430Y-117500000D01*
X172700430Y-117500000D02*
X173000000Y-117500000D01*
X166750000Y-113250000D02*
X166750000Y-122000000D01*
X166750000Y-122000000D02*
X167250000Y-122500000D01*
X172000000Y-107000000D02*
X171700430Y-107000000D01*
X171700430Y-107000000D02*
X166750000Y-111950430D01*
X166750000Y-111950430D02*
X166750000Y-113250000D01*
X174000000Y-100500000D02*
X174000000Y-105299570D01*
X174000000Y-105299570D02*
X172299570Y-107000000D01*
X172299570Y-107000000D02*
X172000000Y-107000000D01*
X171000000Y-94000000D02*
X171299570Y-94000000D01*
X171299570Y-94000000D02*
X174000000Y-96700430D01*
X174000000Y-96700430D02*
X174000000Y-98899570D01*
X174000000Y-98899570D02*
X174000000Y-100500000D01*
X174500000Y-87750000D02*
X174500000Y-84200430D01*
X174500000Y-84200430D02*
X177950430Y-80750000D01*
X177950430Y-80750000D02*
X178250000Y-80750000D01*
X171299570Y-94000000D02*
X174500000Y-90799570D01*
X174500000Y-90799570D02*
X174500000Y-89350430D01*
X174500000Y-89350430D02*
X174500000Y-87750000D01*
X158900000Y-98250000D02*
X159199570Y-98250000D01*
X159199570Y-98250000D02*
X161849140Y-95600430D01*
X161849140Y-95600430D02*
X169100000Y-95600430D01*
X169100000Y-95600430D02*
X170700430Y-94000000D01*
X170700430Y-94000000D02*
X171000000Y-94000000D01*
X148900000Y-100000000D02*
X149199570Y-100000000D01*
X149199570Y-100000000D02*
X150949570Y-98250000D01*
X150949570Y-98250000D02*
X157000000Y-98250000D01*
X157000000Y-98250000D02*
X158900000Y-98250000D01*
X147150000Y-93500000D02*
X147150000Y-98250000D01*
X147150000Y-98250000D02*
X148900000Y-100000000D01*
X150400000Y-86750000D02*
X150100430Y-86750000D01*
X150100430Y-86750000D02*
X147150000Y-89700430D01*
X147150000Y-89700430D02*
X147150000Y-91899570D01*
X147150000Y-91899570D02*
X147150000Y-93500000D01*
X153650000Y-80750000D02*
X151750000Y-80750000D01*
X151750000Y-80750000D02*
X150400000Y-82100000D01*
X150400000Y-82100000D02*
X150400000Y-85149570D01*
X150400000Y-85149570D02*
X150400000Y-86750000D01*
X157900000Y-74000000D02*
X156000000Y-74000000D01*
X156000000Y-74000000D02*
X153650000Y-76350000D01*
X153650000Y-76350000D02*
X153650000Y-79149570D01*
X153650000Y-79149570D02*
X153650000Y-80750000D01*
X161150000Y-68000000D02*
X160850430Y-68000000D01*
X160850430Y-68000000D02*
X157900000Y-70950430D01*
X157900000Y-70950430D02*
X157900000Y-72399570D01*
X157900000Y-72399570D02*
X157900000Y-74000000D01*
D16*
X202750430Y-78250000D02*
X203050000Y-78250000D01*
X226750000Y-79000000D02*
X227500430Y-79000000D01*
X230500430Y-82000000D02*
X230800000Y-82000000D01*
X216500000Y-101000000D02*
X216500000Y-99849570D01*
X216500000Y-99849570D02*
X215025429Y-98374999D01*
X215025429Y-98374999D02*
X211674571Y-98374999D01*
X211674571Y-98374999D02*
X209049570Y-101000000D01*
X209049570Y-101000000D02*
X208750000Y-101000000D01*
X173000000Y-114800000D02*
X173000000Y-114450430D01*
X197200000Y-95600000D02*
X196800000Y-96000000D01*
X196800000Y-96000000D02*
X194000000Y-96000000D01*
X237300000Y-101000000D02*
X237500000Y-100800000D01*
X231000000Y-95750000D02*
X231000000Y-99449570D01*
X231000000Y-99449570D02*
X232550430Y-101000000D01*
X232550430Y-101000000D02*
X232850000Y-101000000D01*
X233250000Y-89250000D02*
X233250000Y-93799570D01*
X233250000Y-93799570D02*
X231299570Y-95750000D01*
X231299570Y-95750000D02*
X231000000Y-95750000D01*
X233549570Y-89250000D02*
X233250000Y-89250000D01*
X236500000Y-79900430D02*
X236500000Y-78750000D01*
X224750000Y-84500000D02*
X224750000Y-80700430D01*
X224750000Y-80700430D02*
X226450430Y-79000000D01*
X226450430Y-79000000D02*
X226750000Y-79000000D01*
X222250000Y-89250000D02*
X222549570Y-89250000D01*
X222549570Y-89250000D02*
X224750000Y-87049570D01*
X224750000Y-87049570D02*
X224750000Y-85650430D01*
X224750000Y-85650430D02*
X224750000Y-84500000D01*
X218800000Y-95750000D02*
X218800000Y-92400430D01*
X218800000Y-92400430D02*
X221950430Y-89250000D01*
X221950430Y-89250000D02*
X222250000Y-89250000D01*
X216500000Y-101000000D02*
X216500000Y-97750430D01*
X216500000Y-97750430D02*
X218500430Y-95750000D01*
X218500430Y-95750000D02*
X218800000Y-95750000D01*
X207000000Y-96000000D02*
X207000000Y-99549570D01*
X207000000Y-99549570D02*
X208450430Y-101000000D01*
X208450430Y-101000000D02*
X208750000Y-101000000D01*
X209549570Y-89750000D02*
X209250000Y-89750000D01*
X212500000Y-79000000D02*
X212500000Y-84500000D01*
X212500000Y-84500000D02*
X212250000Y-84750000D01*
X203050000Y-78250000D02*
X203349570Y-78250000D01*
X203349570Y-78250000D02*
X206250000Y-81150430D01*
X206250000Y-81150430D02*
X206250000Y-82000000D01*
D15*
X213600000Y-103000000D02*
X216500000Y-103000000D01*
X216500000Y-103000000D02*
X216600000Y-102900000D01*
X181200000Y-113000000D02*
X178100000Y-113000000D01*
X178100000Y-113000000D02*
X178000000Y-113100000D01*
D16*
X196058058Y-83341942D02*
X196958058Y-83341942D01*
X196958058Y-83341942D02*
X197600000Y-82700000D01*
X241250000Y-92450000D02*
X234750000Y-92450000D01*
X234750000Y-92450000D02*
X234700000Y-92500000D01*
X207500000Y-91500000D02*
X207500000Y-88000000D01*
X207500000Y-88000000D02*
X207600000Y-87900000D01*
X241250000Y-92450000D02*
X241250000Y-92749570D01*
X214498392Y-84674128D02*
X214498392Y-85898392D01*
X214498392Y-85898392D02*
X214500000Y-85900000D01*
X214498392Y-84674128D02*
X214498392Y-78174571D01*
X214498392Y-78174571D02*
X214498392Y-77750307D01*
X232800000Y-78600000D02*
X232800000Y-77400000D01*
X232800000Y-77400000D02*
X232300000Y-76900000D01*
X227500000Y-83700000D02*
X227949580Y-83250420D01*
X227949580Y-83250420D02*
X227949580Y-81649580D01*
X227949580Y-81649580D02*
X227600000Y-81300000D01*
X232900000Y-84300000D02*
X230900000Y-84300000D01*
X229650000Y-89250000D02*
X229949570Y-89250000D01*
X229949570Y-89250000D02*
X231599570Y-90900000D01*
X231599570Y-90900000D02*
X231900000Y-90900000D01*
X228400000Y-91600000D02*
X228400000Y-90500000D01*
X228400000Y-90500000D02*
X229650000Y-89250000D01*
X227600000Y-95400000D02*
X225700000Y-95400000D01*
X225700000Y-95400000D02*
X225600000Y-95500000D01*
X218400000Y-89200000D02*
X216950000Y-89200000D01*
X216000000Y-90150000D02*
X216000000Y-90400000D01*
X216950000Y-89200000D02*
X216000000Y-90150000D01*
X215600000Y-94500000D02*
X213600000Y-94500000D01*
X204800000Y-100900000D02*
X202800000Y-100900000D01*
X213000000Y-100200000D02*
X213000000Y-102000000D01*
X229400000Y-101100000D02*
X227800000Y-101100000D01*
X227800000Y-101100000D02*
X227300000Y-100600000D01*
X235800000Y-99714568D02*
X235800000Y-102700000D01*
X237700000Y-96900000D02*
X237700000Y-97199570D01*
X237700000Y-97199570D02*
X235800000Y-99099570D01*
X235800000Y-99099570D02*
X235800000Y-99714568D01*
X221300000Y-84700000D02*
X222750000Y-84700000D01*
X222750000Y-84700000D02*
X223100000Y-85050000D01*
X223100000Y-85050000D02*
X223100000Y-85700000D01*
X223500000Y-78600000D02*
X221000000Y-78600000D01*
X221000000Y-78600000D02*
X215400000Y-84200000D01*
X203400000Y-96000000D02*
X201300000Y-96000000D01*
X201300000Y-96000000D02*
X201200000Y-95900000D01*
X203400000Y-95900000D02*
X203400000Y-96000000D01*
X205650000Y-89750000D02*
X205650000Y-87850000D01*
X205650000Y-87850000D02*
X205600000Y-87800000D01*
X205700000Y-89700000D02*
X205650000Y-89750000D01*
X196600000Y-86800000D02*
X196600000Y-85900000D01*
X196600000Y-85900000D02*
X195700000Y-85000000D01*
X199100000Y-78700000D02*
X198800430Y-78700000D01*
X198800430Y-78700000D02*
X192400000Y-85100430D01*
X192400000Y-85100430D02*
X192400000Y-85400000D01*
X192400000Y-85400000D02*
X192400000Y-86700000D01*
X197400000Y-84214568D02*
X197400000Y-86900000D01*
X203400000Y-81500000D02*
X200114568Y-81500000D01*
X200114568Y-81500000D02*
X197400000Y-84214568D01*
X206600000Y-79500000D02*
X208100000Y-79500000D01*
X208100000Y-79500000D02*
X208800000Y-78800000D01*
X191100000Y-85100000D02*
X191100000Y-84200000D01*
X191100000Y-84200000D02*
X196200000Y-79100000D01*
X208500000Y-84900000D02*
X207000000Y-84900000D01*
X207000000Y-84900000D02*
X205500000Y-86400000D01*
X193900000Y-90250000D02*
X191750000Y-90250000D01*
X190400000Y-96000000D02*
X190400000Y-94400000D01*
X190400000Y-94400000D02*
X190250000Y-94250000D01*
X183450000Y-100750000D02*
X183749570Y-100750000D01*
X183749570Y-100750000D02*
X184900000Y-99599570D01*
X184900000Y-99599570D02*
X184900000Y-99000000D01*
X176700000Y-104000000D02*
X176700000Y-102849570D01*
X176700000Y-102849570D02*
X177299570Y-102250000D01*
X177299570Y-102250000D02*
X178000000Y-102250000D01*
X168400000Y-107000000D02*
X168400000Y-105600000D01*
X168400000Y-105600000D02*
X168750000Y-105250000D01*
X163150000Y-113250000D02*
X163449570Y-113250000D01*
X165199570Y-111500000D02*
X165200000Y-111500000D01*
X163449570Y-113250000D02*
X165199570Y-111500000D01*
X163650000Y-122500000D02*
X163650000Y-120850000D01*
X163650000Y-120850000D02*
X163750000Y-120750000D01*
X169400000Y-117500000D02*
X169400000Y-115600000D01*
X169400000Y-115600000D02*
X169500000Y-115500000D01*
X173800000Y-108700000D02*
X173800000Y-110350000D01*
X173800000Y-110350000D02*
X173650000Y-110500000D01*
X178900000Y-97250000D02*
X178900000Y-96350000D01*
X178900000Y-96350000D02*
X179750000Y-95500000D01*
X181900000Y-91000000D02*
X181900000Y-87700000D01*
X181900000Y-86800000D02*
X181900000Y-87700000D01*
X182500000Y-86200000D02*
X181900000Y-86800000D01*
X184900000Y-85250000D02*
X184600430Y-85250000D01*
X184600430Y-85250000D02*
X183450000Y-84099570D01*
X183450000Y-84099570D02*
X181400430Y-84099570D01*
X181400430Y-84099570D02*
X179750000Y-85750000D01*
X181150000Y-79600000D02*
X181150000Y-80535432D01*
X181150000Y-80535432D02*
X176885432Y-84800000D01*
X176885432Y-84800000D02*
X175824264Y-84800000D01*
X175824264Y-84800000D02*
X175400000Y-84800000D01*
X185250000Y-79000000D02*
X187150000Y-79000000D01*
X187150000Y-79000000D02*
X187400000Y-79250000D01*
X187400000Y-79250000D02*
X187100430Y-79250000D01*
X170400000Y-100500000D02*
X170699570Y-100500000D01*
X170699570Y-100500000D02*
X172699570Y-98500000D01*
X172699570Y-98500000D02*
X172750000Y-98500000D01*
X167400000Y-94000000D02*
X167699570Y-94000000D01*
X167699570Y-94000000D02*
X169449570Y-92250000D01*
X169449570Y-92250000D02*
X171000000Y-92250000D01*
X170900000Y-87750000D02*
X170900000Y-89400000D01*
X170900000Y-89400000D02*
X171000000Y-89500000D01*
X174650000Y-80750000D02*
X174650000Y-82600000D01*
X174650000Y-82600000D02*
X173750000Y-83500000D01*
X162500000Y-98250000D02*
X164250000Y-98250000D01*
X164250000Y-98250000D02*
X164500000Y-98000000D01*
X152500000Y-100000000D02*
X155000000Y-100000000D01*
X150750000Y-93500000D02*
X152750000Y-93500000D01*
X154000000Y-86750000D02*
X154000000Y-88500000D01*
X157250000Y-80750000D02*
X159250000Y-80750000D01*
X161500000Y-74000000D02*
X161500000Y-75750000D01*
X164750000Y-68000000D02*
X164750000Y-69850000D01*
X164750000Y-69850000D02*
X165000000Y-70100000D01*
D17*
G36*
X166059604Y-60882832D02*
X167005767Y-61624521D01*
X167690682Y-62788383D01*
X168172521Y-64333279D01*
X168511313Y-66140021D01*
X168794798Y-68072764D01*
X168797612Y-68080670D01*
X168797385Y-68089059D01*
X169125213Y-70007538D01*
X169136893Y-70038050D01*
X169139027Y-70070649D01*
X169614910Y-71847263D01*
X169643705Y-71905665D01*
X169659877Y-71968745D01*
X170389538Y-73489634D01*
X170454423Y-73576116D01*
X170511967Y-73667630D01*
X171601133Y-74818927D01*
X171605375Y-74821935D01*
X171608209Y-74826299D01*
X171716458Y-74900698D01*
X171823588Y-74976659D01*
X171828661Y-74977815D01*
X171832947Y-74980761D01*
X173387341Y-75648604D01*
X173503902Y-75673381D01*
X173619088Y-75703969D01*
X175098943Y-75797640D01*
X175116617Y-75795273D01*
X175134063Y-75798978D01*
X176904109Y-75821850D01*
X176915407Y-75819754D01*
X176926716Y-75821776D01*
X178962239Y-75782225D01*
X178969764Y-75780576D01*
X178977377Y-75781767D01*
X181253662Y-75688166D01*
X181258755Y-75686933D01*
X181263942Y-75687667D01*
X183756273Y-75548393D01*
X183759677Y-75547516D01*
X183763164Y-75547974D01*
X186446826Y-75371400D01*
X186448982Y-75370822D01*
X186451199Y-75371099D01*
X189301477Y-75165601D01*
X189302656Y-75165277D01*
X189303868Y-75165424D01*
X192296045Y-74939376D01*
X192296409Y-74939275D01*
X192296786Y-74939320D01*
X195405897Y-74701117D01*
X198606361Y-74459198D01*
X201872979Y-74221967D01*
X205181687Y-73997735D01*
X208507330Y-73794888D01*
X211824822Y-73621784D01*
X215109707Y-73486738D01*
X218336715Y-73398082D01*
X221480886Y-73364098D01*
X224516872Y-73393023D01*
X227419329Y-73493005D01*
X230162383Y-73672031D01*
X232719894Y-73937810D01*
X235064997Y-74297519D01*
X237170004Y-74757335D01*
X238996827Y-75318605D01*
X240634467Y-76084867D01*
X241741034Y-77003145D01*
X242472475Y-78184824D01*
X242930930Y-79798119D01*
X243160765Y-81966444D01*
X243216208Y-84765398D01*
X243168766Y-88264703D01*
X243109169Y-91211046D01*
X243008918Y-93987432D01*
X242816383Y-96537374D01*
X242785430Y-96747717D01*
X242785430Y-96335750D01*
X242626680Y-96177000D01*
X241377000Y-96177000D01*
X241377000Y-97726250D01*
X241535750Y-97885000D01*
X242276740Y-97885000D01*
X242510129Y-97788327D01*
X242653380Y-97645075D01*
X242482683Y-98805066D01*
X241965532Y-100731682D01*
X241235400Y-102262451D01*
X240271259Y-103371434D01*
X239014936Y-104075218D01*
X237303781Y-104368743D01*
X236044342Y-104393245D01*
X234149944Y-104416082D01*
X231744667Y-104436412D01*
X228904994Y-104454356D01*
X225704991Y-104470068D01*
X222221159Y-104483685D01*
X218527006Y-104495365D01*
X214698590Y-104505250D01*
X214698587Y-104505251D01*
X210810596Y-104513492D01*
X206937099Y-104520240D01*
X206937097Y-104520240D01*
X203153957Y-104525644D01*
X203153953Y-104525643D01*
X199535196Y-104529852D01*
X199535195Y-104529852D01*
X196156246Y-104533014D01*
X196156245Y-104533014D01*
X193091772Y-104535281D01*
X190416632Y-104536800D01*
X188205683Y-104537721D01*
X186533776Y-104538194D01*
X185475767Y-104538368D01*
X185106504Y-104538393D01*
X185044124Y-104550806D01*
X184980526Y-104549849D01*
X184911683Y-104577159D01*
X184839046Y-104591612D01*
X184786165Y-104626951D01*
X184727042Y-104650405D01*
X184673891Y-104701982D01*
X184612315Y-104743131D01*
X184576982Y-104796019D01*
X184531336Y-104840312D01*
X184501969Y-104908301D01*
X184460826Y-104969884D01*
X184448421Y-105032268D01*
X184423201Y-105090656D01*
X184298066Y-105673774D01*
X183921046Y-107260415D01*
X183290206Y-109603501D01*
X182405205Y-112450018D01*
X182163862Y-113106269D01*
X182185000Y-113000000D01*
X182110021Y-112623057D01*
X181896500Y-112303500D01*
X181576943Y-112089979D01*
X181200000Y-112015000D01*
X178625631Y-112015000D01*
X178809698Y-111938757D01*
X178988327Y-111760129D01*
X179085000Y-111526740D01*
X179085000Y-110785750D01*
X178926250Y-110627000D01*
X177377000Y-110627000D01*
X177377000Y-111876680D01*
X177535750Y-112035430D01*
X177997292Y-112035430D01*
X177723057Y-112089979D01*
X177403500Y-112303500D01*
X177303500Y-112403500D01*
X177089979Y-112723057D01*
X177015000Y-113100000D01*
X177089979Y-113476943D01*
X177303500Y-113796500D01*
X177623057Y-114010021D01*
X178000000Y-114085000D01*
X178376943Y-114010021D01*
X178414390Y-113985000D01*
X181200000Y-113985000D01*
X181576943Y-113910021D01*
X181896500Y-113696500D01*
X182008371Y-113529073D01*
X181266896Y-115545264D01*
X179878521Y-118632561D01*
X178248943Y-121452342D01*
X176400323Y-123743613D01*
X174324571Y-125302470D01*
X171600771Y-126596419D01*
X169183089Y-127500511D01*
X167055286Y-127991214D01*
X165143233Y-128076101D01*
X163351631Y-127760504D01*
X161576078Y-127028820D01*
X159810439Y-125902137D01*
X158964713Y-124684973D01*
X158638638Y-122722108D01*
X158703844Y-121599570D01*
X161802560Y-121599570D01*
X161802560Y-123400430D01*
X161846838Y-123635747D01*
X161985910Y-123851871D01*
X162198110Y-123996861D01*
X162450000Y-124047870D01*
X164850000Y-124047870D01*
X165085317Y-124003592D01*
X165301441Y-123864520D01*
X165446431Y-123652320D01*
X165453191Y-123618940D01*
X165511673Y-123760129D01*
X165690302Y-123938757D01*
X165923691Y-124035430D01*
X166964250Y-124035430D01*
X167123000Y-123876680D01*
X167123000Y-122627000D01*
X167377000Y-122627000D01*
X167377000Y-123876680D01*
X167535750Y-124035430D01*
X168576309Y-124035430D01*
X168809698Y-123938757D01*
X168988327Y-123760129D01*
X169085000Y-123526740D01*
X169085000Y-122785750D01*
X168926250Y-122627000D01*
X167377000Y-122627000D01*
X167123000Y-122627000D01*
X167103000Y-122627000D01*
X167103000Y-122373000D01*
X167123000Y-122373000D01*
X167123000Y-121123320D01*
X167377000Y-121123320D01*
X167377000Y-122373000D01*
X168926250Y-122373000D01*
X169085000Y-122214250D01*
X169085000Y-121473260D01*
X168988327Y-121239871D01*
X168809698Y-121061243D01*
X168576309Y-120964570D01*
X167535750Y-120964570D01*
X167377000Y-121123320D01*
X167123000Y-121123320D01*
X166964250Y-120964570D01*
X165923691Y-120964570D01*
X165690302Y-121061243D01*
X165511673Y-121239871D01*
X165455346Y-121375857D01*
X165453162Y-121364253D01*
X165314090Y-121148129D01*
X165101890Y-121003139D01*
X164850000Y-120952130D01*
X164678472Y-120952130D01*
X164684838Y-120936799D01*
X164685162Y-120564833D01*
X164543117Y-120221057D01*
X164280327Y-119957808D01*
X163936799Y-119815162D01*
X163564833Y-119814838D01*
X163221057Y-119956883D01*
X162957808Y-120219673D01*
X162815162Y-120563201D01*
X162814838Y-120935167D01*
X162821847Y-120952130D01*
X162450000Y-120952130D01*
X162214683Y-120996408D01*
X161998559Y-121135480D01*
X161853569Y-121347680D01*
X161802560Y-121599570D01*
X158703844Y-121599570D01*
X158789618Y-120122974D01*
X159329803Y-117155375D01*
X159474676Y-116599570D01*
X167552560Y-116599570D01*
X167552560Y-118400430D01*
X167596838Y-118635747D01*
X167735910Y-118851871D01*
X167948110Y-118996861D01*
X168200000Y-119047870D01*
X170600000Y-119047870D01*
X170835317Y-119003592D01*
X171051441Y-118864520D01*
X171196431Y-118652320D01*
X171203191Y-118618940D01*
X171261673Y-118760129D01*
X171440302Y-118938757D01*
X171673691Y-119035430D01*
X172714250Y-119035430D01*
X172873000Y-118876680D01*
X172873000Y-117627000D01*
X173127000Y-117627000D01*
X173127000Y-118876680D01*
X173285750Y-119035430D01*
X174326309Y-119035430D01*
X174559698Y-118938757D01*
X174738327Y-118760129D01*
X174835000Y-118526740D01*
X174835000Y-117785750D01*
X174676250Y-117627000D01*
X173127000Y-117627000D01*
X172873000Y-117627000D01*
X172853000Y-117627000D01*
X172853000Y-117373000D01*
X172873000Y-117373000D01*
X172873000Y-116123320D01*
X173127000Y-116123320D01*
X173127000Y-117373000D01*
X174676250Y-117373000D01*
X174835000Y-117214250D01*
X174835000Y-116473260D01*
X174738327Y-116239871D01*
X174559698Y-116061243D01*
X174326309Y-115964570D01*
X173285750Y-115964570D01*
X173127000Y-116123320D01*
X172873000Y-116123320D01*
X172714250Y-115964570D01*
X171673691Y-115964570D01*
X171440302Y-116061243D01*
X171261673Y-116239871D01*
X171205346Y-116375857D01*
X171203162Y-116364253D01*
X171064090Y-116148129D01*
X170851890Y-116003139D01*
X170600000Y-115952130D01*
X170324662Y-115952130D01*
X170434838Y-115686799D01*
X170435162Y-115314833D01*
X170293117Y-114971057D01*
X170030327Y-114707808D01*
X169686799Y-114565162D01*
X169314833Y-114564838D01*
X168971057Y-114706883D01*
X168707808Y-114969673D01*
X168565162Y-115313201D01*
X168564838Y-115685167D01*
X168640000Y-115867073D01*
X168640000Y-115952130D01*
X168200000Y-115952130D01*
X167964683Y-115996408D01*
X167748559Y-116135480D01*
X167603569Y-116347680D01*
X167552560Y-116599570D01*
X159474676Y-116599570D01*
X160137743Y-114055715D01*
X160675106Y-112349570D01*
X161302560Y-112349570D01*
X161302560Y-114150430D01*
X161346838Y-114385747D01*
X161485910Y-114601871D01*
X161698110Y-114746861D01*
X161950000Y-114797870D01*
X164350000Y-114797870D01*
X164585317Y-114753592D01*
X164801441Y-114614520D01*
X164946431Y-114402320D01*
X164953191Y-114368940D01*
X165011673Y-114510129D01*
X165190302Y-114688757D01*
X165423691Y-114785430D01*
X166464250Y-114785430D01*
X166623000Y-114626680D01*
X166623000Y-113377000D01*
X166877000Y-113377000D01*
X166877000Y-114626680D01*
X167035750Y-114785430D01*
X168076309Y-114785430D01*
X168309698Y-114688757D01*
X168488327Y-114510129D01*
X168585000Y-114276740D01*
X168585000Y-113535750D01*
X168426250Y-113377000D01*
X166877000Y-113377000D01*
X166623000Y-113377000D01*
X166603000Y-113377000D01*
X166603000Y-113123000D01*
X166623000Y-113123000D01*
X166623000Y-111873320D01*
X166877000Y-111873320D01*
X166877000Y-113123000D01*
X168426250Y-113123000D01*
X168585000Y-112964250D01*
X168585000Y-112223260D01*
X168488327Y-111989871D01*
X168309698Y-111811243D01*
X168076309Y-111714570D01*
X167035750Y-111714570D01*
X166877000Y-111873320D01*
X166623000Y-111873320D01*
X166464250Y-111714570D01*
X166123306Y-111714570D01*
X166134838Y-111686799D01*
X166135162Y-111314833D01*
X165993117Y-110971057D01*
X165730327Y-110707808D01*
X165386799Y-110565162D01*
X165014833Y-110564838D01*
X164671057Y-110706883D01*
X164407808Y-110969673D01*
X164265162Y-111313201D01*
X164265122Y-111359646D01*
X163922638Y-111702130D01*
X161950000Y-111702130D01*
X161714683Y-111746408D01*
X161498559Y-111885480D01*
X161353569Y-112097680D01*
X161302560Y-112349570D01*
X160675106Y-112349570D01*
X161086025Y-111044894D01*
X161598657Y-109599570D01*
X171802560Y-109599570D01*
X171802560Y-111400430D01*
X171846838Y-111635747D01*
X171985910Y-111851871D01*
X172198110Y-111996861D01*
X172450000Y-112047870D01*
X174850000Y-112047870D01*
X175085317Y-112003592D01*
X175301441Y-111864520D01*
X175446431Y-111652320D01*
X175453191Y-111618940D01*
X175511673Y-111760129D01*
X175690302Y-111938757D01*
X175923691Y-112035430D01*
X176964250Y-112035430D01*
X177123000Y-111876680D01*
X177123000Y-110627000D01*
X177103000Y-110627000D01*
X177103000Y-110373000D01*
X177123000Y-110373000D01*
X177123000Y-109123320D01*
X177377000Y-109123320D01*
X177377000Y-110373000D01*
X178926250Y-110373000D01*
X179085000Y-110214250D01*
X179085000Y-109473260D01*
X178988327Y-109239871D01*
X178809698Y-109061243D01*
X178576309Y-108964570D01*
X177535750Y-108964570D01*
X177377000Y-109123320D01*
X177123000Y-109123320D01*
X176964250Y-108964570D01*
X175923691Y-108964570D01*
X175690302Y-109061243D01*
X175511673Y-109239871D01*
X175455346Y-109375857D01*
X175453162Y-109364253D01*
X175314090Y-109148129D01*
X175101890Y-109003139D01*
X174850000Y-108952130D01*
X174707710Y-108952130D01*
X174734838Y-108886799D01*
X174735162Y-108514833D01*
X174593117Y-108171057D01*
X174330327Y-107907808D01*
X173986799Y-107765162D01*
X173835000Y-107765030D01*
X173835000Y-107285750D01*
X173676250Y-107127000D01*
X172127000Y-107127000D01*
X172127000Y-108376680D01*
X172285750Y-108535430D01*
X172865143Y-108535430D01*
X172864838Y-108885167D01*
X172892506Y-108952130D01*
X172450000Y-108952130D01*
X172214683Y-108996408D01*
X171998559Y-109135480D01*
X171853569Y-109347680D01*
X171802560Y-109599570D01*
X161598657Y-109599570D01*
X162046320Y-108337423D01*
X162890106Y-106145443D01*
X162908848Y-106099570D01*
X166552560Y-106099570D01*
X166552560Y-107900430D01*
X166596838Y-108135747D01*
X166735910Y-108351871D01*
X166948110Y-108496861D01*
X167200000Y-108547870D01*
X169600000Y-108547870D01*
X169835317Y-108503592D01*
X170051441Y-108364520D01*
X170196431Y-108152320D01*
X170203191Y-108118940D01*
X170261673Y-108260129D01*
X170440302Y-108438757D01*
X170673691Y-108535430D01*
X171714250Y-108535430D01*
X171873000Y-108376680D01*
X171873000Y-107127000D01*
X171853000Y-107127000D01*
X171853000Y-106873000D01*
X171873000Y-106873000D01*
X171873000Y-105623320D01*
X172127000Y-105623320D01*
X172127000Y-106873000D01*
X173676250Y-106873000D01*
X173835000Y-106714250D01*
X173835000Y-105973260D01*
X173738327Y-105739871D01*
X173559698Y-105561243D01*
X173326309Y-105464570D01*
X172285750Y-105464570D01*
X172127000Y-105623320D01*
X171873000Y-105623320D01*
X171714250Y-105464570D01*
X170673691Y-105464570D01*
X170440302Y-105561243D01*
X170261673Y-105739871D01*
X170205346Y-105875857D01*
X170203162Y-105864253D01*
X170064090Y-105648129D01*
X169851890Y-105503139D01*
X169672385Y-105466788D01*
X169684838Y-105436799D01*
X169685162Y-105064833D01*
X169543117Y-104721057D01*
X169280327Y-104457808D01*
X168936799Y-104315162D01*
X168564833Y-104314838D01*
X168221057Y-104456883D01*
X167957808Y-104719673D01*
X167815162Y-105063201D01*
X167815101Y-105133686D01*
X167697852Y-105309161D01*
X167669413Y-105452130D01*
X167200000Y-105452130D01*
X166964683Y-105496408D01*
X166748559Y-105635480D01*
X166603569Y-105847680D01*
X166552560Y-106099570D01*
X162908848Y-106099570D01*
X163489204Y-104679137D01*
X163716862Y-104144942D01*
X163720372Y-104128189D01*
X163729334Y-104113602D01*
X163748215Y-103995288D01*
X163772779Y-103878036D01*
X163769610Y-103861214D01*
X163772308Y-103844309D01*
X163744478Y-103727790D01*
X163722299Y-103610048D01*
X163712932Y-103595716D01*
X163708956Y-103579069D01*
X163638655Y-103482070D01*
X163573107Y-103381779D01*
X163558971Y-103372125D01*
X163548925Y-103358263D01*
X163446841Y-103295542D01*
X163347916Y-103227978D01*
X163331163Y-103224468D01*
X163316576Y-103215506D01*
X163198262Y-103196625D01*
X163081010Y-103172061D01*
X163064188Y-103175230D01*
X163047283Y-103172532D01*
X162930761Y-103200363D01*
X162813023Y-103222541D01*
X162798692Y-103231907D01*
X162782043Y-103235884D01*
X159594881Y-104700677D01*
X156763236Y-105796853D01*
X154270243Y-106530626D01*
X152116400Y-106904579D01*
X150302873Y-106928381D01*
X148821636Y-106622338D01*
X147637667Y-106006771D01*
X146695344Y-105070599D01*
X145962977Y-103769794D01*
X145758766Y-103099570D01*
X174852560Y-103099570D01*
X174852560Y-104900430D01*
X174896838Y-105135747D01*
X175035910Y-105351871D01*
X175248110Y-105496861D01*
X175500000Y-105547870D01*
X177900000Y-105547870D01*
X178135317Y-105503592D01*
X178351441Y-105364520D01*
X178496431Y-105152320D01*
X178503191Y-105118940D01*
X178561673Y-105260129D01*
X178740302Y-105438757D01*
X178973691Y-105535430D01*
X180014250Y-105535430D01*
X180173000Y-105376680D01*
X180173000Y-104127000D01*
X180427000Y-104127000D01*
X180427000Y-105376680D01*
X180585750Y-105535430D01*
X181626309Y-105535430D01*
X181859698Y-105438757D01*
X182038327Y-105260129D01*
X182135000Y-105026740D01*
X182135000Y-104285750D01*
X181976250Y-104127000D01*
X180427000Y-104127000D01*
X180173000Y-104127000D01*
X180153000Y-104127000D01*
X180153000Y-103873000D01*
X180173000Y-103873000D01*
X180173000Y-102623320D01*
X180427000Y-102623320D01*
X180427000Y-103873000D01*
X181976250Y-103873000D01*
X182135000Y-103714250D01*
X182135000Y-102973260D01*
X182038327Y-102739871D01*
X181859698Y-102561243D01*
X181626309Y-102464570D01*
X180585750Y-102464570D01*
X180427000Y-102623320D01*
X180173000Y-102623320D01*
X180014250Y-102464570D01*
X178973691Y-102464570D01*
X178912840Y-102489775D01*
X178934838Y-102436799D01*
X178935162Y-102064833D01*
X178793117Y-101721057D01*
X178530327Y-101457808D01*
X178186799Y-101315162D01*
X177814833Y-101314838D01*
X177471057Y-101456883D01*
X177437882Y-101490000D01*
X177299570Y-101490000D01*
X177008731Y-101547852D01*
X176762169Y-101712599D01*
X176162599Y-102312169D01*
X176069080Y-102452130D01*
X175500000Y-102452130D01*
X175264683Y-102496408D01*
X175048559Y-102635480D01*
X174903569Y-102847680D01*
X174852560Y-103099570D01*
X145758766Y-103099570D01*
X145445145Y-102070264D01*
X145199111Y-100285750D01*
X147065000Y-100285750D01*
X147065000Y-101026740D01*
X147161673Y-101260129D01*
X147340302Y-101438757D01*
X147573691Y-101535430D01*
X148614250Y-101535430D01*
X148773000Y-101376680D01*
X148773000Y-100127000D01*
X147223750Y-100127000D01*
X147065000Y-100285750D01*
X145199111Y-100285750D01*
X145154706Y-99963679D01*
X145132012Y-98973260D01*
X147065000Y-98973260D01*
X147065000Y-99714250D01*
X147223750Y-99873000D01*
X148773000Y-99873000D01*
X148773000Y-98623320D01*
X149027000Y-98623320D01*
X149027000Y-99873000D01*
X149047000Y-99873000D01*
X149047000Y-100127000D01*
X149027000Y-100127000D01*
X149027000Y-101376680D01*
X149185750Y-101535430D01*
X150226309Y-101535430D01*
X150459698Y-101438757D01*
X150638327Y-101260129D01*
X150694654Y-101124143D01*
X150696838Y-101135747D01*
X150835910Y-101351871D01*
X151048110Y-101496861D01*
X151300000Y-101547870D01*
X153700000Y-101547870D01*
X153935317Y-101503592D01*
X154151441Y-101364520D01*
X154296431Y-101152320D01*
X154347440Y-100900430D01*
X154347440Y-100760000D01*
X154437537Y-100760000D01*
X154469673Y-100792192D01*
X154813201Y-100934838D01*
X155185167Y-100935162D01*
X155528943Y-100793117D01*
X155792192Y-100530327D01*
X155934838Y-100186799D01*
X155935162Y-99814833D01*
X155793117Y-99471057D01*
X155530327Y-99207808D01*
X155186799Y-99065162D01*
X154814833Y-99064838D01*
X154471057Y-99206883D01*
X154437882Y-99240000D01*
X154347440Y-99240000D01*
X154347440Y-99099570D01*
X154303162Y-98864253D01*
X154164090Y-98648129D01*
X153999618Y-98535750D01*
X157065000Y-98535750D01*
X157065000Y-99276740D01*
X157161673Y-99510129D01*
X157340302Y-99688757D01*
X157573691Y-99785430D01*
X158614250Y-99785430D01*
X158773000Y-99626680D01*
X158773000Y-98377000D01*
X157223750Y-98377000D01*
X157065000Y-98535750D01*
X153999618Y-98535750D01*
X153951890Y-98503139D01*
X153700000Y-98452130D01*
X151300000Y-98452130D01*
X151064683Y-98496408D01*
X150848559Y-98635480D01*
X150703569Y-98847680D01*
X150696809Y-98881060D01*
X150638327Y-98739871D01*
X150459698Y-98561243D01*
X150226309Y-98464570D01*
X149185750Y-98464570D01*
X149027000Y-98623320D01*
X148773000Y-98623320D01*
X148614250Y-98464570D01*
X147573691Y-98464570D01*
X147340302Y-98561243D01*
X147161673Y-98739871D01*
X147065000Y-98973260D01*
X145132012Y-98973260D01*
X145097605Y-97471711D01*
X145125248Y-97223260D01*
X157065000Y-97223260D01*
X157065000Y-97964250D01*
X157223750Y-98123000D01*
X158773000Y-98123000D01*
X158773000Y-96873320D01*
X159027000Y-96873320D01*
X159027000Y-98123000D01*
X159047000Y-98123000D01*
X159047000Y-98377000D01*
X159027000Y-98377000D01*
X159027000Y-99626680D01*
X159185750Y-99785430D01*
X160226309Y-99785430D01*
X160459698Y-99688757D01*
X160638327Y-99510129D01*
X160694654Y-99374143D01*
X160696838Y-99385747D01*
X160835910Y-99601871D01*
X161048110Y-99746861D01*
X161300000Y-99797870D01*
X163700000Y-99797870D01*
X163935317Y-99753592D01*
X164151441Y-99614520D01*
X164161655Y-99599570D01*
X168552560Y-99599570D01*
X168552560Y-101400430D01*
X168596838Y-101635747D01*
X168735910Y-101851871D01*
X168948110Y-101996861D01*
X169200000Y-102047870D01*
X171600000Y-102047870D01*
X171835317Y-102003592D01*
X172051441Y-101864520D01*
X172196431Y-101652320D01*
X172203191Y-101618940D01*
X172261673Y-101760129D01*
X172440302Y-101938757D01*
X172673691Y-102035430D01*
X173714250Y-102035430D01*
X173873000Y-101876680D01*
X173873000Y-100627000D01*
X174127000Y-100627000D01*
X174127000Y-101876680D01*
X174285750Y-102035430D01*
X175326309Y-102035430D01*
X175559698Y-101938757D01*
X175738327Y-101760129D01*
X175835000Y-101526740D01*
X175835000Y-100785750D01*
X175676250Y-100627000D01*
X174127000Y-100627000D01*
X173873000Y-100627000D01*
X173853000Y-100627000D01*
X173853000Y-100373000D01*
X173873000Y-100373000D01*
X173873000Y-99123320D01*
X174127000Y-99123320D01*
X174127000Y-100373000D01*
X175676250Y-100373000D01*
X175835000Y-100214250D01*
X175835000Y-99849570D01*
X181602560Y-99849570D01*
X181602560Y-101650430D01*
X181646838Y-101885747D01*
X181785910Y-102101871D01*
X181998110Y-102246861D01*
X182250000Y-102297870D01*
X184650000Y-102297870D01*
X184885317Y-102253592D01*
X185101441Y-102114520D01*
X185246431Y-101902320D01*
X185253191Y-101868940D01*
X185311673Y-102010129D01*
X185490302Y-102188757D01*
X185723691Y-102285430D01*
X186764250Y-102285430D01*
X186923000Y-102126680D01*
X186923000Y-100877000D01*
X187177000Y-100877000D01*
X187177000Y-102126680D01*
X187335750Y-102285430D01*
X188376309Y-102285430D01*
X188609698Y-102188757D01*
X188788327Y-102010129D01*
X188885000Y-101776740D01*
X188885000Y-101035750D01*
X188726250Y-100877000D01*
X187177000Y-100877000D01*
X186923000Y-100877000D01*
X186903000Y-100877000D01*
X186903000Y-100623000D01*
X186923000Y-100623000D01*
X186923000Y-99373320D01*
X187177000Y-99373320D01*
X187177000Y-100623000D01*
X188726250Y-100623000D01*
X188785360Y-100563890D01*
X192615592Y-100563890D01*
X192780362Y-100962663D01*
X193085193Y-101268026D01*
X193483677Y-101433491D01*
X193915150Y-101433868D01*
X194313923Y-101269098D01*
X194619286Y-100964267D01*
X194784751Y-100565783D01*
X194784752Y-100563890D01*
X197014872Y-100563890D01*
X197179642Y-100962663D01*
X197484473Y-101268026D01*
X197882957Y-101433491D01*
X198314430Y-101433868D01*
X198713203Y-101269098D01*
X198897455Y-101085167D01*
X201864838Y-101085167D01*
X202006883Y-101428943D01*
X202269673Y-101692192D01*
X202613201Y-101834838D01*
X202959091Y-101835139D01*
X202996838Y-102035747D01*
X203135910Y-102251871D01*
X203348110Y-102396861D01*
X203600000Y-102447870D01*
X206000000Y-102447870D01*
X206235317Y-102403592D01*
X206451441Y-102264520D01*
X206596431Y-102052320D01*
X206603191Y-102018940D01*
X206661673Y-102160129D01*
X206840302Y-102338757D01*
X207073691Y-102435430D01*
X208114250Y-102435430D01*
X208273000Y-102276680D01*
X208273000Y-101027000D01*
X208527000Y-101027000D01*
X208527000Y-102276680D01*
X208685750Y-102435430D01*
X209726309Y-102435430D01*
X209959698Y-102338757D01*
X210138327Y-102160129D01*
X210235000Y-101926740D01*
X210235000Y-101185750D01*
X210076250Y-101027000D01*
X208527000Y-101027000D01*
X208273000Y-101027000D01*
X208253000Y-101027000D01*
X208253000Y-100773000D01*
X208273000Y-100773000D01*
X208273000Y-99523320D01*
X208527000Y-99523320D01*
X208527000Y-100773000D01*
X210076250Y-100773000D01*
X210235000Y-100614250D01*
X210235000Y-99873260D01*
X210138327Y-99639871D01*
X209959698Y-99461243D01*
X209726309Y-99364570D01*
X208685750Y-99364570D01*
X208527000Y-99523320D01*
X208273000Y-99523320D01*
X208114250Y-99364570D01*
X207073691Y-99364570D01*
X206840302Y-99461243D01*
X206661673Y-99639871D01*
X206605346Y-99775857D01*
X206603162Y-99764253D01*
X206464090Y-99548129D01*
X206251890Y-99403139D01*
X206000000Y-99352130D01*
X203600000Y-99352130D01*
X203364683Y-99396408D01*
X203148559Y-99535480D01*
X203003569Y-99747680D01*
X202959533Y-99965138D01*
X202614833Y-99964838D01*
X202271057Y-100106883D01*
X202007808Y-100369673D01*
X201865162Y-100713201D01*
X201864838Y-101085167D01*
X198897455Y-101085167D01*
X199018566Y-100964267D01*
X199184031Y-100565783D01*
X199184408Y-100134310D01*
X199019638Y-99735537D01*
X198714807Y-99430174D01*
X198400278Y-99299570D01*
X211152560Y-99299570D01*
X211152560Y-101100430D01*
X211196838Y-101335747D01*
X211335910Y-101551871D01*
X211548110Y-101696861D01*
X211800000Y-101747870D01*
X212092290Y-101747870D01*
X212065162Y-101813201D01*
X212064838Y-102185167D01*
X212206883Y-102528943D01*
X212469673Y-102792192D01*
X212642094Y-102863788D01*
X212615000Y-103000000D01*
X212689979Y-103376943D01*
X212903500Y-103696500D01*
X213223057Y-103910021D01*
X213600000Y-103985000D01*
X216500000Y-103985000D01*
X216876943Y-103910021D01*
X217196500Y-103696500D01*
X217296500Y-103596500D01*
X217510021Y-103276943D01*
X217584999Y-102900000D01*
X217582049Y-102885167D01*
X234864838Y-102885167D01*
X235006883Y-103228943D01*
X235269673Y-103492192D01*
X235613201Y-103634838D01*
X235985167Y-103635162D01*
X236328943Y-103493117D01*
X236592192Y-103230327D01*
X236734838Y-102886799D01*
X236735162Y-102514833D01*
X236658296Y-102328802D01*
X236673260Y-102335000D01*
X237414250Y-102335000D01*
X237573000Y-102176250D01*
X237573000Y-100627000D01*
X237827000Y-100627000D01*
X237827000Y-102176250D01*
X237985750Y-102335000D01*
X238726740Y-102335000D01*
X238960129Y-102238327D01*
X239138757Y-102059698D01*
X239235430Y-101826309D01*
X239235430Y-100785750D01*
X239076680Y-100627000D01*
X237827000Y-100627000D01*
X237573000Y-100627000D01*
X237553000Y-100627000D01*
X237553000Y-100373000D01*
X237573000Y-100373000D01*
X237573000Y-100353000D01*
X237827000Y-100353000D01*
X237827000Y-100373000D01*
X239076680Y-100373000D01*
X239235430Y-100214250D01*
X239235430Y-99173691D01*
X239138757Y-98940302D01*
X238960129Y-98761673D01*
X238824143Y-98705346D01*
X238835747Y-98703162D01*
X239051871Y-98564090D01*
X239196861Y-98351890D01*
X239247870Y-98100000D01*
X239247870Y-96335750D01*
X239714570Y-96335750D01*
X239714570Y-97376309D01*
X239811243Y-97609698D01*
X239989871Y-97788327D01*
X240223260Y-97885000D01*
X240964250Y-97885000D01*
X241123000Y-97726250D01*
X241123000Y-96177000D01*
X239873320Y-96177000D01*
X239714570Y-96335750D01*
X239247870Y-96335750D01*
X239247870Y-95700000D01*
X239203592Y-95464683D01*
X239064520Y-95248559D01*
X238852320Y-95103569D01*
X238600430Y-95052560D01*
X236799570Y-95052560D01*
X236564253Y-95096838D01*
X236348129Y-95235910D01*
X236203139Y-95448110D01*
X236152130Y-95700000D01*
X236152130Y-97672638D01*
X235262599Y-98562169D01*
X235097852Y-98808731D01*
X235040000Y-99099570D01*
X235040000Y-102137537D01*
X235007808Y-102169673D01*
X234865162Y-102513201D01*
X234864838Y-102885167D01*
X217582049Y-102885167D01*
X217510021Y-102523057D01*
X217296500Y-102203500D01*
X216976943Y-101989979D01*
X216600000Y-101915001D01*
X216223057Y-101989979D01*
X216185610Y-102015000D01*
X213934988Y-102015000D01*
X213935162Y-101814833D01*
X213907494Y-101747870D01*
X214200000Y-101747870D01*
X214435317Y-101703592D01*
X214651441Y-101564520D01*
X214796431Y-101352320D01*
X214803191Y-101318940D01*
X214861673Y-101460129D01*
X215040302Y-101638757D01*
X215273691Y-101735430D01*
X216314250Y-101735430D01*
X216473000Y-101576680D01*
X216473000Y-100327000D01*
X216727000Y-100327000D01*
X216727000Y-101576680D01*
X216885750Y-101735430D01*
X217926309Y-101735430D01*
X218159698Y-101638757D01*
X218338327Y-101460129D01*
X218435000Y-101226740D01*
X218435000Y-100785167D01*
X226364838Y-100785167D01*
X226506883Y-101128943D01*
X226769673Y-101392192D01*
X227113201Y-101534838D01*
X227160077Y-101534879D01*
X227262599Y-101637401D01*
X227509161Y-101802148D01*
X227552560Y-101810781D01*
X227552560Y-102000430D01*
X227596838Y-102235747D01*
X227735910Y-102451871D01*
X227948110Y-102596861D01*
X228200000Y-102647870D01*
X230600000Y-102647870D01*
X230835317Y-102603592D01*
X231051441Y-102464520D01*
X231196431Y-102252320D01*
X231203191Y-102218940D01*
X231261673Y-102360129D01*
X231440302Y-102538757D01*
X231673691Y-102635430D01*
X232714250Y-102635430D01*
X232873000Y-102476680D01*
X232873000Y-101227000D01*
X233127000Y-101227000D01*
X233127000Y-102476680D01*
X233285750Y-102635430D01*
X234326309Y-102635430D01*
X234559698Y-102538757D01*
X234738327Y-102360129D01*
X234835000Y-102126740D01*
X234835000Y-101385750D01*
X234676250Y-101227000D01*
X233127000Y-101227000D01*
X232873000Y-101227000D01*
X232853000Y-101227000D01*
X232853000Y-100973000D01*
X232873000Y-100973000D01*
X232873000Y-99723320D01*
X233127000Y-99723320D01*
X233127000Y-100973000D01*
X234676250Y-100973000D01*
X234835000Y-100814250D01*
X234835000Y-100073260D01*
X234738327Y-99839871D01*
X234559698Y-99661243D01*
X234326309Y-99564570D01*
X233285750Y-99564570D01*
X233127000Y-99723320D01*
X232873000Y-99723320D01*
X232714250Y-99564570D01*
X231673691Y-99564570D01*
X231440302Y-99661243D01*
X231261673Y-99839871D01*
X231205346Y-99975857D01*
X231203162Y-99964253D01*
X231064090Y-99748129D01*
X230851890Y-99603139D01*
X230600000Y-99552130D01*
X228200000Y-99552130D01*
X227964683Y-99596408D01*
X227748559Y-99735480D01*
X227728134Y-99765373D01*
X227486799Y-99665162D01*
X227114833Y-99664838D01*
X226771057Y-99806883D01*
X226507808Y-100069673D01*
X226365162Y-100413201D01*
X226364838Y-100785167D01*
X218435000Y-100785167D01*
X218435000Y-100485750D01*
X218276250Y-100327000D01*
X216727000Y-100327000D01*
X216473000Y-100327000D01*
X216453000Y-100327000D01*
X216453000Y-100073000D01*
X216473000Y-100073000D01*
X216473000Y-98823320D01*
X216727000Y-98823320D01*
X216727000Y-100073000D01*
X218276250Y-100073000D01*
X218435000Y-99914250D01*
X218435000Y-99173260D01*
X218338327Y-98939871D01*
X218159698Y-98761243D01*
X217926309Y-98664570D01*
X216885750Y-98664570D01*
X216727000Y-98823320D01*
X216473000Y-98823320D01*
X216314250Y-98664570D01*
X215273691Y-98664570D01*
X215040302Y-98761243D01*
X214861673Y-98939871D01*
X214805346Y-99075857D01*
X214803162Y-99064253D01*
X214664090Y-98848129D01*
X214451890Y-98703139D01*
X214200000Y-98652130D01*
X211800000Y-98652130D01*
X211564683Y-98696408D01*
X211348559Y-98835480D01*
X211203569Y-99047680D01*
X211152560Y-99299570D01*
X198400278Y-99299570D01*
X198316323Y-99264709D01*
X197884850Y-99264332D01*
X197486077Y-99429102D01*
X197180714Y-99733933D01*
X197015249Y-100132417D01*
X197014872Y-100563890D01*
X194784752Y-100563890D01*
X194785128Y-100134310D01*
X194620358Y-99735537D01*
X194315527Y-99430174D01*
X193917043Y-99264709D01*
X193485570Y-99264332D01*
X193086797Y-99429102D01*
X192781434Y-99733933D01*
X192615969Y-100132417D01*
X192615592Y-100563890D01*
X188785360Y-100563890D01*
X188885000Y-100464250D01*
X188885000Y-99723260D01*
X188788327Y-99489871D01*
X188609698Y-99311243D01*
X188376309Y-99214570D01*
X187335750Y-99214570D01*
X187177000Y-99373320D01*
X186923000Y-99373320D01*
X186764250Y-99214570D01*
X185823306Y-99214570D01*
X185834838Y-99186799D01*
X185835162Y-98814833D01*
X185693117Y-98471057D01*
X185430327Y-98207808D01*
X185086799Y-98065162D01*
X184714833Y-98064838D01*
X184371057Y-98206883D01*
X184335000Y-98242877D01*
X184335000Y-97535750D01*
X184176250Y-97377000D01*
X182627000Y-97377000D01*
X182627000Y-98626680D01*
X182785750Y-98785430D01*
X183826309Y-98785430D01*
X184007932Y-98710199D01*
X183965162Y-98813201D01*
X183964838Y-99185167D01*
X183971847Y-99202130D01*
X182250000Y-99202130D01*
X182014683Y-99246408D01*
X181798559Y-99385480D01*
X181653569Y-99597680D01*
X181602560Y-99849570D01*
X175835000Y-99849570D01*
X175835000Y-99473260D01*
X175738327Y-99239871D01*
X175559698Y-99061243D01*
X175326309Y-98964570D01*
X174285750Y-98964570D01*
X174127000Y-99123320D01*
X173873000Y-99123320D01*
X173714250Y-98964570D01*
X173569497Y-98964570D01*
X173684838Y-98686799D01*
X173685162Y-98314833D01*
X173543117Y-97971057D01*
X173280327Y-97707808D01*
X172936799Y-97565162D01*
X172564833Y-97564838D01*
X172221057Y-97706883D01*
X171957808Y-97969673D01*
X171817715Y-98307053D01*
X171172638Y-98952130D01*
X169200000Y-98952130D01*
X168964683Y-98996408D01*
X168748559Y-99135480D01*
X168603569Y-99347680D01*
X168552560Y-99599570D01*
X164161655Y-99599570D01*
X164296431Y-99402320D01*
X164347440Y-99150430D01*
X164347440Y-98990618D01*
X164540839Y-98952148D01*
X164566415Y-98935059D01*
X164685167Y-98935162D01*
X165028943Y-98793117D01*
X165292192Y-98530327D01*
X165434838Y-98186799D01*
X165435162Y-97814833D01*
X165293117Y-97471057D01*
X165030327Y-97207808D01*
X164686799Y-97065162D01*
X164314833Y-97064838D01*
X164280494Y-97079026D01*
X164164090Y-96898129D01*
X163951890Y-96753139D01*
X163700000Y-96702130D01*
X161300000Y-96702130D01*
X161064683Y-96746408D01*
X160848559Y-96885480D01*
X160703569Y-97097680D01*
X160696809Y-97131060D01*
X160638327Y-96989871D01*
X160459698Y-96811243D01*
X160226309Y-96714570D01*
X159185750Y-96714570D01*
X159027000Y-96873320D01*
X158773000Y-96873320D01*
X158614250Y-96714570D01*
X157573691Y-96714570D01*
X157340302Y-96811243D01*
X157161673Y-96989871D01*
X157065000Y-97223260D01*
X145125248Y-97223260D01*
X145222459Y-96349570D01*
X177052560Y-96349570D01*
X177052560Y-98150430D01*
X177096838Y-98385747D01*
X177235910Y-98601871D01*
X177448110Y-98746861D01*
X177700000Y-98797870D01*
X180100000Y-98797870D01*
X180335317Y-98753592D01*
X180551441Y-98614520D01*
X180696431Y-98402320D01*
X180703191Y-98368940D01*
X180761673Y-98510129D01*
X180940302Y-98688757D01*
X181173691Y-98785430D01*
X182214250Y-98785430D01*
X182373000Y-98626680D01*
X182373000Y-97377000D01*
X182353000Y-97377000D01*
X182353000Y-97123000D01*
X182373000Y-97123000D01*
X182373000Y-95873320D01*
X182627000Y-95873320D01*
X182627000Y-97123000D01*
X184176250Y-97123000D01*
X184335000Y-96964250D01*
X184335000Y-96223260D01*
X184238327Y-95989871D01*
X184059698Y-95811243D01*
X183826309Y-95714570D01*
X182785750Y-95714570D01*
X182627000Y-95873320D01*
X182373000Y-95873320D01*
X182214250Y-95714570D01*
X181173691Y-95714570D01*
X180940302Y-95811243D01*
X180761673Y-95989871D01*
X180705346Y-96125857D01*
X180703162Y-96114253D01*
X180584145Y-95929295D01*
X180684838Y-95686799D01*
X180685162Y-95314833D01*
X180596218Y-95099570D01*
X188552560Y-95099570D01*
X188552560Y-96900430D01*
X188596838Y-97135747D01*
X188735910Y-97351871D01*
X188948110Y-97496861D01*
X189200000Y-97547870D01*
X191600000Y-97547870D01*
X191835317Y-97503592D01*
X192051441Y-97364520D01*
X192196431Y-97152320D01*
X192203191Y-97118940D01*
X192261673Y-97260129D01*
X192440302Y-97438757D01*
X192673691Y-97535430D01*
X193714250Y-97535430D01*
X193873000Y-97376680D01*
X193873000Y-96127000D01*
X194127000Y-96127000D01*
X194127000Y-97376680D01*
X194285750Y-97535430D01*
X195326309Y-97535430D01*
X195559698Y-97438757D01*
X195738327Y-97260129D01*
X195835000Y-97026740D01*
X195835000Y-96285750D01*
X195676250Y-96127000D01*
X194127000Y-96127000D01*
X193873000Y-96127000D01*
X193853000Y-96127000D01*
X193853000Y-96085167D01*
X200264838Y-96085167D01*
X200406883Y-96428943D01*
X200669673Y-96692192D01*
X201013201Y-96834838D01*
X201385167Y-96835162D01*
X201552560Y-96765997D01*
X201552560Y-96900430D01*
X201596838Y-97135747D01*
X201735910Y-97351871D01*
X201948110Y-97496861D01*
X202200000Y-97547870D01*
X204600000Y-97547870D01*
X204835317Y-97503592D01*
X205051441Y-97364520D01*
X205196431Y-97152320D01*
X205203191Y-97118940D01*
X205261673Y-97260129D01*
X205440302Y-97438757D01*
X205673691Y-97535430D01*
X206714250Y-97535430D01*
X206873000Y-97376680D01*
X206873000Y-96127000D01*
X207127000Y-96127000D01*
X207127000Y-97376680D01*
X207285750Y-97535430D01*
X208326309Y-97535430D01*
X208559698Y-97438757D01*
X208738327Y-97260129D01*
X208835000Y-97026740D01*
X208835000Y-96285750D01*
X208676250Y-96127000D01*
X207127000Y-96127000D01*
X206873000Y-96127000D01*
X206853000Y-96127000D01*
X206853000Y-95873000D01*
X206873000Y-95873000D01*
X206873000Y-94623320D01*
X207127000Y-94623320D01*
X207127000Y-95873000D01*
X208676250Y-95873000D01*
X208835000Y-95714250D01*
X208835000Y-94973260D01*
X208738327Y-94739871D01*
X208683623Y-94685167D01*
X212664838Y-94685167D01*
X212806883Y-95028943D01*
X213069673Y-95292192D01*
X213413201Y-95434838D01*
X213759091Y-95435139D01*
X213796838Y-95635747D01*
X213935910Y-95851871D01*
X214148110Y-95996861D01*
X214400000Y-96047870D01*
X216800000Y-96047870D01*
X217035317Y-96003592D01*
X217251441Y-95864520D01*
X217396431Y-95652320D01*
X217403191Y-95618940D01*
X217461673Y-95760129D01*
X217640302Y-95938757D01*
X217873691Y-96035430D01*
X218914250Y-96035430D01*
X219073000Y-95876680D01*
X219073000Y-94627000D01*
X219327000Y-94627000D01*
X219327000Y-95876680D01*
X219485750Y-96035430D01*
X220526309Y-96035430D01*
X220759698Y-95938757D01*
X220938327Y-95760129D01*
X220969377Y-95685167D01*
X224664838Y-95685167D01*
X224806883Y-96028943D01*
X225069673Y-96292192D01*
X225413201Y-96434838D01*
X225777910Y-96435156D01*
X225796838Y-96535747D01*
X225935910Y-96751871D01*
X226148110Y-96896861D01*
X226400000Y-96947870D01*
X228800000Y-96947870D01*
X229035317Y-96903592D01*
X229251441Y-96764520D01*
X229396431Y-96552320D01*
X229403191Y-96518940D01*
X229461673Y-96660129D01*
X229640302Y-96838757D01*
X229873691Y-96935430D01*
X230914250Y-96935430D01*
X231073000Y-96776680D01*
X231073000Y-95527000D01*
X231327000Y-95527000D01*
X231327000Y-96776680D01*
X231485750Y-96935430D01*
X232526309Y-96935430D01*
X232759698Y-96838757D01*
X232938327Y-96660129D01*
X233035000Y-96426740D01*
X233035000Y-95685750D01*
X232876250Y-95527000D01*
X231327000Y-95527000D01*
X231073000Y-95527000D01*
X231053000Y-95527000D01*
X231053000Y-95273000D01*
X231073000Y-95273000D01*
X231073000Y-94023320D01*
X231327000Y-94023320D01*
X231327000Y-95273000D01*
X232876250Y-95273000D01*
X233035000Y-95114250D01*
X233035000Y-94373260D01*
X232938327Y-94139871D01*
X232759698Y-93961243D01*
X232526309Y-93864570D01*
X231485750Y-93864570D01*
X231327000Y-94023320D01*
X231073000Y-94023320D01*
X230914250Y-93864570D01*
X229873691Y-93864570D01*
X229640302Y-93961243D01*
X229461673Y-94139871D01*
X229405346Y-94275857D01*
X229403162Y-94264253D01*
X229264090Y-94048129D01*
X229051890Y-93903139D01*
X228800000Y-93852130D01*
X226400000Y-93852130D01*
X226164683Y-93896408D01*
X225948559Y-94035480D01*
X225803569Y-94247680D01*
X225752560Y-94499570D01*
X225752560Y-94565132D01*
X225414833Y-94564838D01*
X225071057Y-94706883D01*
X224807808Y-94969673D01*
X224665162Y-95313201D01*
X224664838Y-95685167D01*
X220969377Y-95685167D01*
X221035000Y-95526740D01*
X221035000Y-94785750D01*
X220876250Y-94627000D01*
X219327000Y-94627000D01*
X219073000Y-94627000D01*
X219053000Y-94627000D01*
X219053000Y-94373000D01*
X219073000Y-94373000D01*
X219073000Y-93123320D01*
X219327000Y-93123320D01*
X219327000Y-94373000D01*
X220876250Y-94373000D01*
X221035000Y-94214250D01*
X221035000Y-93473260D01*
X220938327Y-93239871D01*
X220759698Y-93061243D01*
X220526309Y-92964570D01*
X219485750Y-92964570D01*
X219327000Y-93123320D01*
X219073000Y-93123320D01*
X218914250Y-92964570D01*
X217873691Y-92964570D01*
X217640302Y-93061243D01*
X217461673Y-93239871D01*
X217405346Y-93375857D01*
X217403162Y-93364253D01*
X217264090Y-93148129D01*
X217051890Y-93003139D01*
X216800000Y-92952130D01*
X214400000Y-92952130D01*
X214164683Y-92996408D01*
X213948559Y-93135480D01*
X213803569Y-93347680D01*
X213759533Y-93565138D01*
X213414833Y-93564838D01*
X213071057Y-93706883D01*
X212807808Y-93969673D01*
X212665162Y-94313201D01*
X212664838Y-94685167D01*
X208683623Y-94685167D01*
X208559698Y-94561243D01*
X208326309Y-94464570D01*
X207285750Y-94464570D01*
X207127000Y-94623320D01*
X206873000Y-94623320D01*
X206714250Y-94464570D01*
X205673691Y-94464570D01*
X205440302Y-94561243D01*
X205261673Y-94739871D01*
X205205346Y-94875857D01*
X205203162Y-94864253D01*
X205064090Y-94648129D01*
X204851890Y-94503139D01*
X204600000Y-94452130D01*
X202200000Y-94452130D01*
X201964683Y-94496408D01*
X201748559Y-94635480D01*
X201603569Y-94847680D01*
X201564810Y-95039079D01*
X201386799Y-94965162D01*
X201014833Y-94964838D01*
X200671057Y-95106883D01*
X200407808Y-95369673D01*
X200265162Y-95713201D01*
X200264838Y-96085167D01*
X193853000Y-96085167D01*
X193853000Y-95873000D01*
X193873000Y-95873000D01*
X193873000Y-94623320D01*
X194127000Y-94623320D01*
X194127000Y-95873000D01*
X195676250Y-95873000D01*
X195835000Y-95714250D01*
X195835000Y-94973260D01*
X195738327Y-94739871D01*
X195559698Y-94561243D01*
X195326309Y-94464570D01*
X194285750Y-94464570D01*
X194127000Y-94623320D01*
X193873000Y-94623320D01*
X193714250Y-94464570D01*
X192673691Y-94464570D01*
X192440302Y-94561243D01*
X192261673Y-94739871D01*
X192205346Y-94875857D01*
X192203162Y-94864253D01*
X192064090Y-94648129D01*
X191851890Y-94503139D01*
X191600000Y-94452130D01*
X191178472Y-94452130D01*
X191184838Y-94436799D01*
X191185162Y-94064833D01*
X191043117Y-93721057D01*
X190780327Y-93457808D01*
X190436799Y-93315162D01*
X190064833Y-93314838D01*
X189721057Y-93456883D01*
X189457808Y-93719673D01*
X189315162Y-94063201D01*
X189314838Y-94435167D01*
X189321847Y-94452130D01*
X189200000Y-94452130D01*
X188964683Y-94496408D01*
X188748559Y-94635480D01*
X188603569Y-94847680D01*
X188552560Y-95099570D01*
X180596218Y-95099570D01*
X180543117Y-94971057D01*
X180280327Y-94707808D01*
X179936799Y-94565162D01*
X179564833Y-94564838D01*
X179221057Y-94706883D01*
X178957808Y-94969673D01*
X178815162Y-95313201D01*
X178815121Y-95360077D01*
X178473068Y-95702130D01*
X177700000Y-95702130D01*
X177464683Y-95746408D01*
X177248559Y-95885480D01*
X177103569Y-96097680D01*
X177052560Y-96349570D01*
X145222459Y-96349570D01*
X145373511Y-94991982D01*
X145416920Y-94765376D01*
X145590302Y-94938757D01*
X145823691Y-95035430D01*
X146864250Y-95035430D01*
X147023000Y-94876680D01*
X147023000Y-93627000D01*
X147003000Y-93627000D01*
X147003000Y-93373000D01*
X147023000Y-93373000D01*
X147023000Y-92123320D01*
X147277000Y-92123320D01*
X147277000Y-93373000D01*
X147297000Y-93373000D01*
X147297000Y-93627000D01*
X147277000Y-93627000D01*
X147277000Y-94876680D01*
X147435750Y-95035430D01*
X148476309Y-95035430D01*
X148709698Y-94938757D01*
X148888327Y-94760129D01*
X148944654Y-94624143D01*
X148946838Y-94635747D01*
X149085910Y-94851871D01*
X149298110Y-94996861D01*
X149550000Y-95047870D01*
X151950000Y-95047870D01*
X152185317Y-95003592D01*
X152401441Y-94864520D01*
X152546431Y-94652320D01*
X152590467Y-94434862D01*
X152935167Y-94435162D01*
X153278943Y-94293117D01*
X153542192Y-94030327D01*
X153684838Y-93686799D01*
X153685162Y-93314833D01*
X153596218Y-93099570D01*
X165552560Y-93099570D01*
X165552560Y-94900430D01*
X165596838Y-95135747D01*
X165735910Y-95351871D01*
X165948110Y-95496861D01*
X166200000Y-95547870D01*
X168600000Y-95547870D01*
X168835317Y-95503592D01*
X169051441Y-95364520D01*
X169196431Y-95152320D01*
X169203191Y-95118940D01*
X169261673Y-95260129D01*
X169440302Y-95438757D01*
X169673691Y-95535430D01*
X170714250Y-95535430D01*
X170873000Y-95376680D01*
X170873000Y-94127000D01*
X171127000Y-94127000D01*
X171127000Y-95376680D01*
X171285750Y-95535430D01*
X172326309Y-95535430D01*
X172559698Y-95438757D01*
X172738327Y-95260129D01*
X172835000Y-95026740D01*
X172835000Y-94285750D01*
X172676250Y-94127000D01*
X171127000Y-94127000D01*
X170873000Y-94127000D01*
X170853000Y-94127000D01*
X170853000Y-93873000D01*
X170873000Y-93873000D01*
X170873000Y-93853000D01*
X171127000Y-93853000D01*
X171127000Y-93873000D01*
X172676250Y-93873000D01*
X172835000Y-93714250D01*
X172835000Y-92973260D01*
X172738327Y-92739871D01*
X172683623Y-92685167D01*
X233764838Y-92685167D01*
X233906883Y-93028943D01*
X234169673Y-93292192D01*
X234513201Y-93434838D01*
X234885167Y-93435162D01*
X235228943Y-93293117D01*
X235312205Y-93210000D01*
X239702130Y-93210000D01*
X239702130Y-93650000D01*
X239746408Y-93885317D01*
X239885480Y-94101441D01*
X240097680Y-94246431D01*
X240131060Y-94253191D01*
X239989871Y-94311673D01*
X239811243Y-94490302D01*
X239714570Y-94723691D01*
X239714570Y-95764250D01*
X239873320Y-95923000D01*
X241123000Y-95923000D01*
X241123000Y-95903000D01*
X241377000Y-95903000D01*
X241377000Y-95923000D01*
X242626680Y-95923000D01*
X242785430Y-95764250D01*
X242785430Y-94723691D01*
X242688757Y-94490302D01*
X242510129Y-94311673D01*
X242374143Y-94255346D01*
X242385747Y-94253162D01*
X242601871Y-94114090D01*
X242746861Y-93901890D01*
X242797870Y-93650000D01*
X242797870Y-91250000D01*
X242753592Y-91014683D01*
X242614520Y-90798559D01*
X242402320Y-90653569D01*
X242150430Y-90602560D01*
X240349570Y-90602560D01*
X240114253Y-90646838D01*
X239898129Y-90785910D01*
X239753139Y-90998110D01*
X239702130Y-91250000D01*
X239702130Y-91690000D01*
X235187441Y-91690000D01*
X234886799Y-91565162D01*
X234514833Y-91564838D01*
X234171057Y-91706883D01*
X233907808Y-91969673D01*
X233765162Y-92313201D01*
X233764838Y-92685167D01*
X172683623Y-92685167D01*
X172559698Y-92561243D01*
X172326309Y-92464570D01*
X171923306Y-92464570D01*
X171934838Y-92436799D01*
X171935162Y-92064833D01*
X171793117Y-91721057D01*
X171530327Y-91457808D01*
X171186799Y-91315162D01*
X170814833Y-91314838D01*
X170471057Y-91456883D01*
X170437882Y-91490000D01*
X169449570Y-91490000D01*
X169158731Y-91547852D01*
X168912169Y-91712599D01*
X168172638Y-92452130D01*
X166200000Y-92452130D01*
X165964683Y-92496408D01*
X165748559Y-92635480D01*
X165603569Y-92847680D01*
X165552560Y-93099570D01*
X153596218Y-93099570D01*
X153543117Y-92971057D01*
X153280327Y-92707808D01*
X152936799Y-92565162D01*
X152590909Y-92564861D01*
X152553162Y-92364253D01*
X152414090Y-92148129D01*
X152201890Y-92003139D01*
X151950000Y-91952130D01*
X149550000Y-91952130D01*
X149314683Y-91996408D01*
X149098559Y-92135480D01*
X148953569Y-92347680D01*
X148946809Y-92381060D01*
X148888327Y-92239871D01*
X148709698Y-92061243D01*
X148476309Y-91964570D01*
X147435750Y-91964570D01*
X147277000Y-92123320D01*
X147023000Y-92123320D01*
X146864250Y-91964570D01*
X145977170Y-91964570D01*
X146607729Y-89519370D01*
X147389559Y-87035750D01*
X148565000Y-87035750D01*
X148565000Y-87776740D01*
X148661673Y-88010129D01*
X148840302Y-88188757D01*
X149073691Y-88285430D01*
X150114250Y-88285430D01*
X150273000Y-88126680D01*
X150273000Y-86877000D01*
X148723750Y-86877000D01*
X148565000Y-87035750D01*
X147389559Y-87035750D01*
X147517834Y-86628262D01*
X147848605Y-85723260D01*
X148565000Y-85723260D01*
X148565000Y-86464250D01*
X148723750Y-86623000D01*
X150273000Y-86623000D01*
X150273000Y-85373320D01*
X150527000Y-85373320D01*
X150527000Y-86623000D01*
X150547000Y-86623000D01*
X150547000Y-86877000D01*
X150527000Y-86877000D01*
X150527000Y-88126680D01*
X150685750Y-88285430D01*
X151726309Y-88285430D01*
X151959698Y-88188757D01*
X152138327Y-88010129D01*
X152194654Y-87874143D01*
X152196838Y-87885747D01*
X152335910Y-88101871D01*
X152548110Y-88246861D01*
X152800000Y-88297870D01*
X153071528Y-88297870D01*
X153065162Y-88313201D01*
X153064838Y-88685167D01*
X153206883Y-89028943D01*
X153469673Y-89292192D01*
X153813201Y-89434838D01*
X154185167Y-89435162D01*
X154528943Y-89293117D01*
X154792192Y-89030327D01*
X154934838Y-88686799D01*
X154935162Y-88314833D01*
X154928153Y-88297870D01*
X155200000Y-88297870D01*
X155435317Y-88253592D01*
X155651441Y-88114520D01*
X155796431Y-87902320D01*
X155847440Y-87650430D01*
X155847440Y-86849570D01*
X169052560Y-86849570D01*
X169052560Y-88650430D01*
X169096838Y-88885747D01*
X169235910Y-89101871D01*
X169448110Y-89246861D01*
X169700000Y-89297870D01*
X170071528Y-89297870D01*
X170065162Y-89313201D01*
X170064838Y-89685167D01*
X170206883Y-90028943D01*
X170469673Y-90292192D01*
X170813201Y-90434838D01*
X171185167Y-90435162D01*
X171528943Y-90293117D01*
X171792192Y-90030327D01*
X171934838Y-89686799D01*
X171935162Y-89314833D01*
X171928153Y-89297870D01*
X172100000Y-89297870D01*
X172335317Y-89253592D01*
X172551441Y-89114520D01*
X172696431Y-88902320D01*
X172703191Y-88868940D01*
X172761673Y-89010129D01*
X172940302Y-89188757D01*
X173173691Y-89285430D01*
X174214250Y-89285430D01*
X174373000Y-89126680D01*
X174373000Y-87877000D01*
X174627000Y-87877000D01*
X174627000Y-89126680D01*
X174785750Y-89285430D01*
X175826309Y-89285430D01*
X176059698Y-89188757D01*
X176238327Y-89010129D01*
X176335000Y-88776740D01*
X176335000Y-88035750D01*
X176176250Y-87877000D01*
X174627000Y-87877000D01*
X174373000Y-87877000D01*
X174353000Y-87877000D01*
X174353000Y-87623000D01*
X174373000Y-87623000D01*
X174373000Y-86373320D01*
X174627000Y-86373320D01*
X174627000Y-87623000D01*
X176176250Y-87623000D01*
X176335000Y-87464250D01*
X176335000Y-86723260D01*
X176238327Y-86489871D01*
X176059698Y-86311243D01*
X175826309Y-86214570D01*
X174785750Y-86214570D01*
X174627000Y-86373320D01*
X174373000Y-86373320D01*
X174214250Y-86214570D01*
X173173691Y-86214570D01*
X172940302Y-86311243D01*
X172761673Y-86489871D01*
X172705346Y-86625857D01*
X172703162Y-86614253D01*
X172564090Y-86398129D01*
X172351890Y-86253139D01*
X172100000Y-86202130D01*
X169700000Y-86202130D01*
X169464683Y-86246408D01*
X169248559Y-86385480D01*
X169103569Y-86597680D01*
X169052560Y-86849570D01*
X155847440Y-86849570D01*
X155847440Y-85935167D01*
X178814838Y-85935167D01*
X178956883Y-86278943D01*
X179219673Y-86542192D01*
X179563201Y-86684838D01*
X179935167Y-86685162D01*
X180278943Y-86543117D01*
X180542192Y-86280327D01*
X180684838Y-85936799D01*
X180684879Y-85889923D01*
X181715233Y-84859570D01*
X183052560Y-84859570D01*
X183052560Y-85430080D01*
X183030327Y-85407808D01*
X182686799Y-85265162D01*
X182314833Y-85264838D01*
X181971057Y-85406883D01*
X181707808Y-85669673D01*
X181565162Y-86013201D01*
X181565121Y-86060077D01*
X181362599Y-86262599D01*
X181197852Y-86509161D01*
X181140000Y-86800000D01*
X181140000Y-89452130D01*
X180700000Y-89452130D01*
X180464683Y-89496408D01*
X180248559Y-89635480D01*
X180103569Y-89847680D01*
X180052560Y-90099570D01*
X180052560Y-91900430D01*
X180096838Y-92135747D01*
X180235910Y-92351871D01*
X180448110Y-92496861D01*
X180700000Y-92547870D01*
X183100000Y-92547870D01*
X183335317Y-92503592D01*
X183551441Y-92364520D01*
X183696431Y-92152320D01*
X183703191Y-92118940D01*
X183761673Y-92260129D01*
X183940302Y-92438757D01*
X184173691Y-92535430D01*
X185214250Y-92535430D01*
X185373000Y-92376680D01*
X185373000Y-91127000D01*
X185627000Y-91127000D01*
X185627000Y-92376680D01*
X185785750Y-92535430D01*
X186826309Y-92535430D01*
X187059698Y-92438757D01*
X187238327Y-92260129D01*
X187335000Y-92026740D01*
X187335000Y-91285750D01*
X187176250Y-91127000D01*
X185627000Y-91127000D01*
X185373000Y-91127000D01*
X185353000Y-91127000D01*
X185353000Y-90873000D01*
X185373000Y-90873000D01*
X185373000Y-89623320D01*
X185627000Y-89623320D01*
X185627000Y-90873000D01*
X187176250Y-90873000D01*
X187335000Y-90714250D01*
X187335000Y-90435167D01*
X190814838Y-90435167D01*
X190956883Y-90778943D01*
X191219673Y-91042192D01*
X191563201Y-91184838D01*
X191935167Y-91185162D01*
X192052560Y-91136656D01*
X192052560Y-91150430D01*
X192096838Y-91385747D01*
X192235910Y-91601871D01*
X192448110Y-91746861D01*
X192700000Y-91797870D01*
X195100000Y-91797870D01*
X195335317Y-91753592D01*
X195551441Y-91614520D01*
X195696431Y-91402320D01*
X195703191Y-91368940D01*
X195761673Y-91510129D01*
X195940302Y-91688757D01*
X196173691Y-91785430D01*
X197214250Y-91785430D01*
X197373000Y-91626680D01*
X197373000Y-90377000D01*
X197627000Y-90377000D01*
X197627000Y-91626680D01*
X197785750Y-91785430D01*
X198826309Y-91785430D01*
X199059698Y-91688757D01*
X199238327Y-91510129D01*
X199335000Y-91276740D01*
X199335000Y-90535750D01*
X199176250Y-90377000D01*
X197627000Y-90377000D01*
X197373000Y-90377000D01*
X197353000Y-90377000D01*
X197353000Y-90123000D01*
X197373000Y-90123000D01*
X197373000Y-88873320D01*
X197627000Y-88873320D01*
X197627000Y-90123000D01*
X199176250Y-90123000D01*
X199335000Y-89964250D01*
X199335000Y-89223260D01*
X199238327Y-88989871D01*
X199098026Y-88849570D01*
X203802560Y-88849570D01*
X203802560Y-90650430D01*
X203846838Y-90885747D01*
X203985910Y-91101871D01*
X204198110Y-91246861D01*
X204450000Y-91297870D01*
X206571528Y-91297870D01*
X206565162Y-91313201D01*
X206564838Y-91685167D01*
X206706883Y-92028943D01*
X206969673Y-92292192D01*
X207313201Y-92434838D01*
X207685167Y-92435162D01*
X208028943Y-92293117D01*
X208292192Y-92030327D01*
X208434838Y-91686799D01*
X208435162Y-91314833D01*
X208423013Y-91285430D01*
X208964250Y-91285430D01*
X209123000Y-91126680D01*
X209123000Y-89877000D01*
X209377000Y-89877000D01*
X209377000Y-91126680D01*
X209535750Y-91285430D01*
X210576309Y-91285430D01*
X210809698Y-91188757D01*
X210988327Y-91010129D01*
X211085000Y-90776740D01*
X211085000Y-90585167D01*
X215064838Y-90585167D01*
X215206883Y-90928943D01*
X215469673Y-91192192D01*
X215813201Y-91334838D01*
X216185167Y-91335162D01*
X216528943Y-91193117D01*
X216792192Y-90930327D01*
X216902170Y-90665472D01*
X216948110Y-90696861D01*
X217200000Y-90747870D01*
X219600000Y-90747870D01*
X219835317Y-90703592D01*
X220051441Y-90564520D01*
X220196431Y-90352320D01*
X220203191Y-90318940D01*
X220261673Y-90460129D01*
X220440302Y-90638757D01*
X220673691Y-90735430D01*
X221714250Y-90735430D01*
X221873000Y-90576680D01*
X221873000Y-89327000D01*
X222127000Y-89327000D01*
X222127000Y-90576680D01*
X222285750Y-90735430D01*
X223326309Y-90735430D01*
X223559698Y-90638757D01*
X223698455Y-90500000D01*
X227640000Y-90500000D01*
X227640000Y-91600000D01*
X227697852Y-91890839D01*
X227862599Y-92137401D01*
X228109161Y-92302148D01*
X228400000Y-92360000D01*
X228690839Y-92302148D01*
X228937401Y-92137401D01*
X229102148Y-91890839D01*
X229160000Y-91600000D01*
X229160000Y-90814802D01*
X229176932Y-90797870D01*
X230422638Y-90797870D01*
X231062169Y-91437401D01*
X231221807Y-91544068D01*
X231369673Y-91692192D01*
X231713201Y-91834838D01*
X232085167Y-91835162D01*
X232428943Y-91693117D01*
X232692192Y-91430327D01*
X232834838Y-91086799D01*
X232835101Y-90785430D01*
X232964250Y-90785430D01*
X233123000Y-90626680D01*
X233123000Y-89377000D01*
X233377000Y-89377000D01*
X233377000Y-90626680D01*
X233535750Y-90785430D01*
X234576309Y-90785430D01*
X234809698Y-90688757D01*
X234988327Y-90510129D01*
X235085000Y-90276740D01*
X235085000Y-89535750D01*
X234926250Y-89377000D01*
X233377000Y-89377000D01*
X233123000Y-89377000D01*
X233103000Y-89377000D01*
X233103000Y-89123000D01*
X233123000Y-89123000D01*
X233123000Y-87873320D01*
X233377000Y-87873320D01*
X233377000Y-89123000D01*
X234926250Y-89123000D01*
X235085000Y-88964250D01*
X235085000Y-88223260D01*
X234988327Y-87989871D01*
X234809698Y-87811243D01*
X234576309Y-87714570D01*
X233535750Y-87714570D01*
X233377000Y-87873320D01*
X233123000Y-87873320D01*
X232964250Y-87714570D01*
X231923691Y-87714570D01*
X231690302Y-87811243D01*
X231511673Y-87989871D01*
X231455346Y-88125857D01*
X231453162Y-88114253D01*
X231314090Y-87898129D01*
X231101890Y-87753139D01*
X230850000Y-87702130D01*
X228450000Y-87702130D01*
X228214683Y-87746408D01*
X227998559Y-87885480D01*
X227853569Y-88097680D01*
X227802560Y-88349570D01*
X227802560Y-90052454D01*
X227697852Y-90209161D01*
X227640000Y-90500000D01*
X223698455Y-90500000D01*
X223738327Y-90460129D01*
X223835000Y-90226740D01*
X223835000Y-89485750D01*
X223676250Y-89327000D01*
X222127000Y-89327000D01*
X221873000Y-89327000D01*
X221853000Y-89327000D01*
X221853000Y-89073000D01*
X221873000Y-89073000D01*
X221873000Y-87823320D01*
X222127000Y-87823320D01*
X222127000Y-89073000D01*
X223676250Y-89073000D01*
X223835000Y-88914250D01*
X223835000Y-88173260D01*
X223738327Y-87939871D01*
X223559698Y-87761243D01*
X223326309Y-87664570D01*
X222285750Y-87664570D01*
X222127000Y-87823320D01*
X221873000Y-87823320D01*
X221714250Y-87664570D01*
X220673691Y-87664570D01*
X220440302Y-87761243D01*
X220261673Y-87939871D01*
X220205346Y-88075857D01*
X220203162Y-88064253D01*
X220064090Y-87848129D01*
X219851890Y-87703139D01*
X219600000Y-87652130D01*
X217200000Y-87652130D01*
X216964683Y-87696408D01*
X216748559Y-87835480D01*
X216603569Y-88047680D01*
X216552560Y-88299570D01*
X216552560Y-88569080D01*
X216412599Y-88662599D01*
X215462599Y-89612599D01*
X215457126Y-89620789D01*
X215207808Y-89869673D01*
X215065162Y-90213201D01*
X215064838Y-90585167D01*
X211085000Y-90585167D01*
X211085000Y-90035750D01*
X210926250Y-89877000D01*
X209377000Y-89877000D01*
X209123000Y-89877000D01*
X209103000Y-89877000D01*
X209103000Y-89623000D01*
X209123000Y-89623000D01*
X209123000Y-88373320D01*
X209377000Y-88373320D01*
X209377000Y-89623000D01*
X210926250Y-89623000D01*
X211085000Y-89464250D01*
X211085000Y-88723260D01*
X210988327Y-88489871D01*
X210809698Y-88311243D01*
X210576309Y-88214570D01*
X209535750Y-88214570D01*
X209377000Y-88373320D01*
X209123000Y-88373320D01*
X208964250Y-88214570D01*
X208481783Y-88214570D01*
X208534838Y-88086799D01*
X208535162Y-87714833D01*
X208393117Y-87371057D01*
X208130327Y-87107808D01*
X207786799Y-86965162D01*
X207414833Y-86964838D01*
X207071057Y-87106883D01*
X206807808Y-87369673D01*
X206665162Y-87713201D01*
X206664838Y-88085167D01*
X206713166Y-88202130D01*
X206445424Y-88202130D01*
X206534838Y-87986799D01*
X206535162Y-87614833D01*
X206393117Y-87271057D01*
X206172378Y-87049932D01*
X206292192Y-86930327D01*
X206434838Y-86586799D01*
X206434879Y-86539923D01*
X206791675Y-86183127D01*
X206835910Y-86251871D01*
X207048110Y-86396861D01*
X207300000Y-86447870D01*
X209700000Y-86447870D01*
X209935317Y-86403592D01*
X210151441Y-86264520D01*
X210296431Y-86052320D01*
X210303191Y-86018940D01*
X210361673Y-86160129D01*
X210540302Y-86338757D01*
X210773691Y-86435430D01*
X211814250Y-86435430D01*
X211973000Y-86276680D01*
X211973000Y-85027000D01*
X211953000Y-85027000D01*
X211953000Y-84773000D01*
X211973000Y-84773000D01*
X211973000Y-83523320D01*
X212227000Y-83523320D01*
X212227000Y-84773000D01*
X212247000Y-84773000D01*
X212247000Y-85027000D01*
X212227000Y-85027000D01*
X212227000Y-86276680D01*
X212385750Y-86435430D01*
X213426309Y-86435430D01*
X213659698Y-86338757D01*
X213666718Y-86331737D01*
X213706883Y-86428943D01*
X213969673Y-86692192D01*
X214313201Y-86834838D01*
X214685167Y-86835162D01*
X215028943Y-86693117D01*
X215292192Y-86430327D01*
X215434838Y-86086799D01*
X215435162Y-85714833D01*
X215293117Y-85371057D01*
X215258392Y-85336271D01*
X215258392Y-85134877D01*
X215585167Y-85135162D01*
X215928943Y-84993117D01*
X216192192Y-84730327D01*
X216334838Y-84386799D01*
X216334879Y-84339923D01*
X216875232Y-83799570D01*
X219452560Y-83799570D01*
X219452560Y-85600430D01*
X219496838Y-85835747D01*
X219635910Y-86051871D01*
X219848110Y-86196861D01*
X220100000Y-86247870D01*
X222325777Y-86247870D01*
X222569673Y-86492192D01*
X222913201Y-86634838D01*
X223285167Y-86635162D01*
X223628943Y-86493117D01*
X223887080Y-86235430D01*
X224614250Y-86235430D01*
X224773000Y-86076680D01*
X224773000Y-84827000D01*
X225027000Y-84827000D01*
X225027000Y-86076680D01*
X225185750Y-86235430D01*
X226226309Y-86235430D01*
X226459698Y-86138757D01*
X226638327Y-85960129D01*
X226735000Y-85726740D01*
X226735000Y-84985750D01*
X226576250Y-84827000D01*
X225027000Y-84827000D01*
X224773000Y-84827000D01*
X224753000Y-84827000D01*
X224753000Y-84573000D01*
X224773000Y-84573000D01*
X224773000Y-83323320D01*
X224614250Y-83164570D01*
X223573691Y-83164570D01*
X223340302Y-83261243D01*
X223161673Y-83439871D01*
X223105346Y-83575857D01*
X223103162Y-83564253D01*
X222964090Y-83348129D01*
X222751890Y-83203139D01*
X222500000Y-83152130D01*
X220100000Y-83152130D01*
X219864683Y-83196408D01*
X219648559Y-83335480D01*
X219503569Y-83547680D01*
X219452560Y-83799570D01*
X216875232Y-83799570D01*
X221314802Y-79360000D01*
X221652560Y-79360000D01*
X221652560Y-79500430D01*
X221696838Y-79735747D01*
X221835910Y-79951871D01*
X222048110Y-80096861D01*
X222300000Y-80147870D01*
X224700000Y-80147870D01*
X224935317Y-80103592D01*
X225151441Y-79964520D01*
X225296431Y-79752320D01*
X225303191Y-79718940D01*
X225361673Y-79860129D01*
X225540302Y-80038757D01*
X225773691Y-80135430D01*
X225811939Y-80135430D01*
X225803569Y-80147680D01*
X225752560Y-80399570D01*
X225752560Y-82200430D01*
X225796838Y-82435747D01*
X225935910Y-82651871D01*
X226148110Y-82796861D01*
X226400000Y-82847870D01*
X227113880Y-82847870D01*
X226971057Y-82906883D01*
X226707808Y-83169673D01*
X226608144Y-83409689D01*
X226459698Y-83261243D01*
X226226309Y-83164570D01*
X225185750Y-83164570D01*
X225027000Y-83323320D01*
X225027000Y-84573000D01*
X226576250Y-84573000D01*
X226735000Y-84414250D01*
X226735000Y-84257109D01*
X226969673Y-84492192D01*
X227313201Y-84634838D01*
X227685167Y-84635162D01*
X228028943Y-84493117D01*
X228036906Y-84485167D01*
X229964838Y-84485167D01*
X230106883Y-84828943D01*
X230369673Y-85092192D01*
X230713201Y-85234838D01*
X231059091Y-85235139D01*
X231096838Y-85435747D01*
X231235910Y-85651871D01*
X231448110Y-85796861D01*
X231700000Y-85847870D01*
X234100000Y-85847870D01*
X234335317Y-85803592D01*
X234551441Y-85664520D01*
X234696431Y-85452320D01*
X234703191Y-85418940D01*
X234761673Y-85560129D01*
X234940302Y-85738757D01*
X235173691Y-85835430D01*
X236214250Y-85835430D01*
X236373000Y-85676680D01*
X236373000Y-84427000D01*
X236627000Y-84427000D01*
X236627000Y-85676680D01*
X236785750Y-85835430D01*
X237826309Y-85835430D01*
X238059698Y-85738757D01*
X238238327Y-85560129D01*
X238335000Y-85326740D01*
X238335000Y-84585750D01*
X238176250Y-84427000D01*
X236627000Y-84427000D01*
X236373000Y-84427000D01*
X236353000Y-84427000D01*
X236353000Y-84173000D01*
X236373000Y-84173000D01*
X236373000Y-82923320D01*
X236627000Y-82923320D01*
X236627000Y-84173000D01*
X238176250Y-84173000D01*
X238335000Y-84014250D01*
X238335000Y-83273260D01*
X238238327Y-83039871D01*
X238059698Y-82861243D01*
X237826309Y-82764570D01*
X236785750Y-82764570D01*
X236627000Y-82923320D01*
X236373000Y-82923320D01*
X236214250Y-82764570D01*
X235173691Y-82764570D01*
X234940302Y-82861243D01*
X234761673Y-83039871D01*
X234705346Y-83175857D01*
X234703162Y-83164253D01*
X234564090Y-82948129D01*
X234351890Y-82803139D01*
X234100000Y-82752130D01*
X232727413Y-82752130D01*
X232759698Y-82738757D01*
X232938327Y-82560129D01*
X233035000Y-82326740D01*
X233035000Y-81585750D01*
X232876250Y-81427000D01*
X231327000Y-81427000D01*
X231327000Y-82676680D01*
X231453758Y-82803438D01*
X231248559Y-82935480D01*
X231103569Y-83147680D01*
X231059533Y-83365138D01*
X230714833Y-83364838D01*
X230371057Y-83506883D01*
X230107808Y-83769673D01*
X229965162Y-84113201D01*
X229964838Y-84485167D01*
X228036906Y-84485167D01*
X228292192Y-84230327D01*
X228434838Y-83886799D01*
X228434879Y-83839923D01*
X228486981Y-83787821D01*
X228651728Y-83541259D01*
X228709580Y-83250420D01*
X228709580Y-82847870D01*
X228800000Y-82847870D01*
X229035317Y-82803592D01*
X229251441Y-82664520D01*
X229396431Y-82452320D01*
X229403191Y-82418940D01*
X229461673Y-82560129D01*
X229640302Y-82738757D01*
X229873691Y-82835430D01*
X230914250Y-82835430D01*
X231073000Y-82676680D01*
X231073000Y-81427000D01*
X231053000Y-81427000D01*
X231053000Y-81173000D01*
X231073000Y-81173000D01*
X231073000Y-81153000D01*
X231327000Y-81153000D01*
X231327000Y-81173000D01*
X232876250Y-81173000D01*
X233035000Y-81014250D01*
X233035000Y-80273260D01*
X232983062Y-80147870D01*
X234000000Y-80147870D01*
X234235317Y-80103592D01*
X234451441Y-79964520D01*
X234596431Y-79752320D01*
X234603191Y-79718940D01*
X234661673Y-79860129D01*
X234840302Y-80038757D01*
X235073691Y-80135430D01*
X236114250Y-80135430D01*
X236273000Y-79976680D01*
X236273000Y-78727000D01*
X236527000Y-78727000D01*
X236527000Y-79976680D01*
X236685750Y-80135430D01*
X237726309Y-80135430D01*
X237959698Y-80038757D01*
X238138327Y-79860129D01*
X238235000Y-79626740D01*
X238235000Y-78885750D01*
X238076250Y-78727000D01*
X236527000Y-78727000D01*
X236273000Y-78727000D01*
X236253000Y-78727000D01*
X236253000Y-78473000D01*
X236273000Y-78473000D01*
X236273000Y-77223320D01*
X236527000Y-77223320D01*
X236527000Y-78473000D01*
X238076250Y-78473000D01*
X238235000Y-78314250D01*
X238235000Y-77573260D01*
X238138327Y-77339871D01*
X237959698Y-77161243D01*
X237726309Y-77064570D01*
X236685750Y-77064570D01*
X236527000Y-77223320D01*
X236273000Y-77223320D01*
X236114250Y-77064570D01*
X235073691Y-77064570D01*
X234840302Y-77161243D01*
X234661673Y-77339871D01*
X234605346Y-77475857D01*
X234603162Y-77464253D01*
X234464090Y-77248129D01*
X234251890Y-77103139D01*
X234000000Y-77052130D01*
X233464041Y-77052130D01*
X233337401Y-76862599D01*
X233235122Y-76760320D01*
X233235162Y-76714833D01*
X233093117Y-76371057D01*
X232830327Y-76107808D01*
X232486799Y-75965162D01*
X232114833Y-75964838D01*
X231771057Y-76106883D01*
X231507808Y-76369673D01*
X231365162Y-76713201D01*
X231364838Y-77085167D01*
X231369136Y-77095570D01*
X231364683Y-77096408D01*
X231148559Y-77235480D01*
X231003569Y-77447680D01*
X230952560Y-77699570D01*
X230952560Y-79500430D01*
X230996838Y-79735747D01*
X231072998Y-79854103D01*
X231072998Y-79923318D01*
X230914250Y-79764570D01*
X229873691Y-79764570D01*
X229640302Y-79861243D01*
X229461673Y-80039871D01*
X229405346Y-80175857D01*
X229403162Y-80164253D01*
X229264090Y-79948129D01*
X229051890Y-79803139D01*
X228876634Y-79767649D01*
X228935000Y-79626740D01*
X228935000Y-78885750D01*
X228776250Y-78727000D01*
X227227000Y-78727000D01*
X227227000Y-78747000D01*
X226973000Y-78747000D01*
X226973000Y-78727000D01*
X226953000Y-78727000D01*
X226953000Y-78473000D01*
X226973000Y-78473000D01*
X226973000Y-77223320D01*
X227227000Y-77223320D01*
X227227000Y-78473000D01*
X228776250Y-78473000D01*
X228935000Y-78314250D01*
X228935000Y-77573260D01*
X228838327Y-77339871D01*
X228659698Y-77161243D01*
X228426309Y-77064570D01*
X227385750Y-77064570D01*
X227227000Y-77223320D01*
X226973000Y-77223320D01*
X226814250Y-77064570D01*
X225773691Y-77064570D01*
X225540302Y-77161243D01*
X225361673Y-77339871D01*
X225305346Y-77475857D01*
X225303162Y-77464253D01*
X225164090Y-77248129D01*
X224951890Y-77103139D01*
X224700000Y-77052130D01*
X222300000Y-77052130D01*
X222064683Y-77096408D01*
X221848559Y-77235480D01*
X221703569Y-77447680D01*
X221652560Y-77699570D01*
X221652560Y-77840000D01*
X221000000Y-77840000D01*
X220709161Y-77897852D01*
X220462599Y-78062599D01*
X215260320Y-83264878D01*
X215258392Y-83264876D01*
X215258392Y-78312770D01*
X215290584Y-78280634D01*
X215433230Y-77937106D01*
X215433554Y-77565140D01*
X215291509Y-77221364D01*
X215028719Y-76958115D01*
X214685191Y-76815469D01*
X214313225Y-76815145D01*
X213969449Y-76957190D01*
X213706200Y-77219980D01*
X213687685Y-77264570D01*
X212685750Y-77264570D01*
X212527000Y-77423320D01*
X212527000Y-78673000D01*
X212547000Y-78673000D01*
X212547000Y-78927000D01*
X212527000Y-78927000D01*
X212527000Y-80176680D01*
X212685750Y-80335430D01*
X213726309Y-80335430D01*
X213738392Y-80330425D01*
X213738392Y-83539937D01*
X213659698Y-83461243D01*
X213426309Y-83364570D01*
X212385750Y-83364570D01*
X212227000Y-83523320D01*
X211973000Y-83523320D01*
X211814250Y-83364570D01*
X210773691Y-83364570D01*
X210540302Y-83461243D01*
X210361673Y-83639871D01*
X210305346Y-83775857D01*
X210303162Y-83764253D01*
X210164090Y-83548129D01*
X209951890Y-83403139D01*
X209700000Y-83352130D01*
X207300000Y-83352130D01*
X207064683Y-83396408D01*
X206848559Y-83535480D01*
X206703569Y-83747680D01*
X206652560Y-83999570D01*
X206652560Y-84235671D01*
X206462599Y-84362599D01*
X205360320Y-85464878D01*
X205314833Y-85464838D01*
X204971057Y-85606883D01*
X204707808Y-85869673D01*
X204565162Y-86213201D01*
X204564838Y-86585167D01*
X204706883Y-86928943D01*
X204927622Y-87150068D01*
X204807808Y-87269673D01*
X204665162Y-87613201D01*
X204664838Y-87985167D01*
X204754485Y-88202130D01*
X204450000Y-88202130D01*
X204214683Y-88246408D01*
X203998559Y-88385480D01*
X203853569Y-88597680D01*
X203802560Y-88849570D01*
X199098026Y-88849570D01*
X199059698Y-88811243D01*
X198826309Y-88714570D01*
X197785750Y-88714570D01*
X197627000Y-88873320D01*
X197373000Y-88873320D01*
X197214250Y-88714570D01*
X196173691Y-88714570D01*
X195940302Y-88811243D01*
X195761673Y-88989871D01*
X195705346Y-89125857D01*
X195703162Y-89114253D01*
X195564090Y-88898129D01*
X195351890Y-88753139D01*
X195100000Y-88702130D01*
X192700000Y-88702130D01*
X192464683Y-88746408D01*
X192248559Y-88885480D01*
X192103569Y-89097680D01*
X192052560Y-89349570D01*
X192052560Y-89363230D01*
X191936799Y-89315162D01*
X191564833Y-89314838D01*
X191221057Y-89456883D01*
X190957808Y-89719673D01*
X190815162Y-90063201D01*
X190814838Y-90435167D01*
X187335000Y-90435167D01*
X187335000Y-89973260D01*
X187238327Y-89739871D01*
X187059698Y-89561243D01*
X186826309Y-89464570D01*
X185785750Y-89464570D01*
X185627000Y-89623320D01*
X185373000Y-89623320D01*
X185214250Y-89464570D01*
X184173691Y-89464570D01*
X183940302Y-89561243D01*
X183761673Y-89739871D01*
X183705346Y-89875857D01*
X183703162Y-89864253D01*
X183564090Y-89648129D01*
X183351890Y-89503139D01*
X183100000Y-89452130D01*
X182660000Y-89452130D01*
X182660000Y-87135140D01*
X182685167Y-87135162D01*
X183028943Y-86993117D01*
X183292192Y-86730327D01*
X183321304Y-86660218D01*
X183448110Y-86746861D01*
X183700000Y-86797870D01*
X186100000Y-86797870D01*
X186335317Y-86753592D01*
X186551441Y-86614520D01*
X186696431Y-86402320D01*
X186703191Y-86368940D01*
X186761673Y-86510129D01*
X186940302Y-86688757D01*
X187173691Y-86785430D01*
X188214250Y-86785430D01*
X188373000Y-86626680D01*
X188373000Y-85377000D01*
X188353000Y-85377000D01*
X188353000Y-85123000D01*
X188373000Y-85123000D01*
X188373000Y-83873320D01*
X188627000Y-83873320D01*
X188627000Y-85123000D01*
X188647000Y-85123000D01*
X188647000Y-85377000D01*
X188627000Y-85377000D01*
X188627000Y-86626680D01*
X188785750Y-86785430D01*
X189826309Y-86785430D01*
X190059698Y-86688757D01*
X190238327Y-86510129D01*
X190335000Y-86276740D01*
X190335000Y-85657109D01*
X190569673Y-85892192D01*
X190913201Y-86034838D01*
X191285167Y-86035162D01*
X191628943Y-85893117D01*
X191640000Y-85882079D01*
X191640000Y-86137537D01*
X191607808Y-86169673D01*
X191465162Y-86513201D01*
X191464838Y-86885167D01*
X191606883Y-87228943D01*
X191869673Y-87492192D01*
X192213201Y-87634838D01*
X192585167Y-87635162D01*
X192928943Y-87493117D01*
X193192192Y-87230327D01*
X193334838Y-86886799D01*
X193335162Y-86514833D01*
X193193117Y-86171057D01*
X193160000Y-86137882D01*
X193160000Y-85415232D01*
X193852560Y-84722672D01*
X193852560Y-85900430D01*
X193896838Y-86135747D01*
X194035910Y-86351871D01*
X194248110Y-86496861D01*
X194500000Y-86547870D01*
X195692290Y-86547870D01*
X195665162Y-86613201D01*
X195664838Y-86985167D01*
X195806883Y-87328943D01*
X196069673Y-87592192D01*
X196413201Y-87734838D01*
X196785167Y-87735162D01*
X196879394Y-87696228D01*
X197213201Y-87834838D01*
X197585167Y-87835162D01*
X197928943Y-87693117D01*
X198192192Y-87430327D01*
X198334838Y-87086799D01*
X198335162Y-86714833D01*
X198261034Y-86535430D01*
X199014250Y-86535430D01*
X199173000Y-86376680D01*
X199173000Y-85127000D01*
X199427000Y-85127000D01*
X199427000Y-86376680D01*
X199585750Y-86535430D01*
X200626309Y-86535430D01*
X200859698Y-86438757D01*
X201038327Y-86260129D01*
X201135000Y-86026740D01*
X201135000Y-85285750D01*
X200976250Y-85127000D01*
X199427000Y-85127000D01*
X199173000Y-85127000D01*
X199153000Y-85127000D01*
X199153000Y-84873000D01*
X199173000Y-84873000D01*
X199173000Y-83623320D01*
X199427000Y-83623320D01*
X199427000Y-84873000D01*
X200976250Y-84873000D01*
X201135000Y-84714250D01*
X201135000Y-83973260D01*
X201038327Y-83739871D01*
X200859698Y-83561243D01*
X200626309Y-83464570D01*
X199585750Y-83464570D01*
X199427000Y-83623320D01*
X199173000Y-83623320D01*
X199119525Y-83569845D01*
X200429370Y-82260000D01*
X201552560Y-82260000D01*
X201552560Y-82400430D01*
X201596838Y-82635747D01*
X201735910Y-82851871D01*
X201948110Y-82996861D01*
X202200000Y-83047870D01*
X204600000Y-83047870D01*
X204835317Y-83003592D01*
X205051441Y-82864520D01*
X205196431Y-82652320D01*
X205203191Y-82618940D01*
X205261673Y-82760129D01*
X205440302Y-82938757D01*
X205673691Y-83035430D01*
X206714250Y-83035430D01*
X206873000Y-82876680D01*
X206873000Y-81627000D01*
X207127000Y-81627000D01*
X207127000Y-82876680D01*
X207285750Y-83035430D01*
X208326309Y-83035430D01*
X208559698Y-82938757D01*
X208738327Y-82760129D01*
X208835000Y-82526740D01*
X208835000Y-81785750D01*
X208676250Y-81627000D01*
X207127000Y-81627000D01*
X206873000Y-81627000D01*
X206853000Y-81627000D01*
X206853000Y-81373000D01*
X206873000Y-81373000D01*
X206873000Y-81353000D01*
X207127000Y-81353000D01*
X207127000Y-81373000D01*
X208676250Y-81373000D01*
X208835000Y-81214250D01*
X208835000Y-80473260D01*
X208783062Y-80347870D01*
X210000000Y-80347870D01*
X210235317Y-80303592D01*
X210451441Y-80164520D01*
X210596431Y-79952320D01*
X210603191Y-79918940D01*
X210661673Y-80060129D01*
X210840302Y-80238757D01*
X211073691Y-80335430D01*
X212114250Y-80335430D01*
X212273000Y-80176680D01*
X212273000Y-78927000D01*
X212253000Y-78927000D01*
X212253000Y-78673000D01*
X212273000Y-78673000D01*
X212273000Y-77423320D01*
X212114250Y-77264570D01*
X211073691Y-77264570D01*
X210840302Y-77361243D01*
X210661673Y-77539871D01*
X210605346Y-77675857D01*
X210603162Y-77664253D01*
X210464090Y-77448129D01*
X210251890Y-77303139D01*
X210000000Y-77252130D01*
X207600000Y-77252130D01*
X207364683Y-77296408D01*
X207148559Y-77435480D01*
X207003569Y-77647680D01*
X206952560Y-77899570D01*
X206952560Y-78633992D01*
X206786799Y-78565162D01*
X206414833Y-78564838D01*
X206071057Y-78706883D01*
X205807808Y-78969673D01*
X205665162Y-79313201D01*
X205664838Y-79685167D01*
X205780285Y-79964570D01*
X205673691Y-79964570D01*
X205440302Y-80061243D01*
X205261673Y-80239871D01*
X205205346Y-80375857D01*
X205203162Y-80364253D01*
X205064090Y-80148129D01*
X204851890Y-80003139D01*
X204600000Y-79952130D01*
X204441640Y-79952130D01*
X204535000Y-79726740D01*
X204535000Y-78985750D01*
X204376250Y-78827000D01*
X202827000Y-78827000D01*
X202827000Y-78847000D01*
X202573000Y-78847000D01*
X202573000Y-78827000D01*
X202553000Y-78827000D01*
X202553000Y-78573000D01*
X202573000Y-78573000D01*
X202573000Y-77323320D01*
X202827000Y-77323320D01*
X202827000Y-78573000D01*
X204376250Y-78573000D01*
X204535000Y-78414250D01*
X204535000Y-77673260D01*
X204438327Y-77439871D01*
X204259698Y-77261243D01*
X204026309Y-77164570D01*
X202985750Y-77164570D01*
X202827000Y-77323320D01*
X202573000Y-77323320D01*
X202414250Y-77164570D01*
X201373691Y-77164570D01*
X201140302Y-77261243D01*
X200961673Y-77439871D01*
X200905346Y-77575857D01*
X200903162Y-77564253D01*
X200764090Y-77348129D01*
X200551890Y-77203139D01*
X200300000Y-77152130D01*
X197900000Y-77152130D01*
X197664683Y-77196408D01*
X197448559Y-77335480D01*
X197303569Y-77547680D01*
X197252560Y-77799570D01*
X197252560Y-79173068D01*
X197132004Y-79293624D01*
X197134838Y-79286799D01*
X197135162Y-78914833D01*
X196993117Y-78571057D01*
X196730327Y-78307808D01*
X196386799Y-78165162D01*
X196014833Y-78164838D01*
X195671057Y-78306883D01*
X195407808Y-78569673D01*
X195265162Y-78913201D01*
X195265121Y-78960077D01*
X190562599Y-83662599D01*
X190397852Y-83909161D01*
X190340000Y-84200000D01*
X190340000Y-84537537D01*
X190335000Y-84542528D01*
X190335000Y-84223260D01*
X190238327Y-83989871D01*
X190059698Y-83811243D01*
X189826309Y-83714570D01*
X188785750Y-83714570D01*
X188627000Y-83873320D01*
X188373000Y-83873320D01*
X188214250Y-83714570D01*
X187173691Y-83714570D01*
X186940302Y-83811243D01*
X186761673Y-83989871D01*
X186705346Y-84125857D01*
X186703162Y-84114253D01*
X186564090Y-83898129D01*
X186351890Y-83753139D01*
X186100000Y-83702130D01*
X184127362Y-83702130D01*
X183987401Y-83562169D01*
X183740839Y-83397422D01*
X183450000Y-83339570D01*
X181400430Y-83339570D01*
X181109591Y-83397422D01*
X181045868Y-83440000D01*
X180863028Y-83562169D01*
X179610320Y-84814878D01*
X179564833Y-84814838D01*
X179221057Y-84956883D01*
X178957808Y-85219673D01*
X178815162Y-85563201D01*
X178814838Y-85935167D01*
X155847440Y-85935167D01*
X155847440Y-85849570D01*
X155803162Y-85614253D01*
X155664090Y-85398129D01*
X155451890Y-85253139D01*
X155200000Y-85202130D01*
X152800000Y-85202130D01*
X152564683Y-85246408D01*
X152348559Y-85385480D01*
X152203569Y-85597680D01*
X152196809Y-85631060D01*
X152138327Y-85489871D01*
X151959698Y-85311243D01*
X151726309Y-85214570D01*
X150685750Y-85214570D01*
X150527000Y-85373320D01*
X150273000Y-85373320D01*
X150114250Y-85214570D01*
X149073691Y-85214570D01*
X148840302Y-85311243D01*
X148661673Y-85489871D01*
X148565000Y-85723260D01*
X147848605Y-85723260D01*
X148118372Y-84985167D01*
X174464838Y-84985167D01*
X174606883Y-85328943D01*
X174869673Y-85592192D01*
X175213201Y-85734838D01*
X175585167Y-85735162D01*
X175928943Y-85593117D01*
X175962118Y-85560000D01*
X176885432Y-85560000D01*
X177176271Y-85502148D01*
X177422833Y-85337401D01*
X181687401Y-81072833D01*
X181852148Y-80826271D01*
X181910000Y-80535432D01*
X181910000Y-80162463D01*
X181942192Y-80130327D01*
X182084838Y-79786799D01*
X182085162Y-79414833D01*
X181990267Y-79185167D01*
X184314838Y-79185167D01*
X184456883Y-79528943D01*
X184719673Y-79792192D01*
X185063201Y-79934838D01*
X185435167Y-79935162D01*
X185552560Y-79886656D01*
X185552560Y-80150430D01*
X185596838Y-80385747D01*
X185735910Y-80601871D01*
X185948110Y-80746861D01*
X186200000Y-80797870D01*
X188600000Y-80797870D01*
X188835317Y-80753592D01*
X189051441Y-80614520D01*
X189196431Y-80402320D01*
X189203191Y-80368940D01*
X189261673Y-80510129D01*
X189440302Y-80688757D01*
X189673691Y-80785430D01*
X190714250Y-80785430D01*
X190873000Y-80626680D01*
X190873000Y-79377000D01*
X191127000Y-79377000D01*
X191127000Y-80626680D01*
X191285750Y-80785430D01*
X192326309Y-80785430D01*
X192559698Y-80688757D01*
X192738327Y-80510129D01*
X192835000Y-80276740D01*
X192835000Y-79535750D01*
X192676250Y-79377000D01*
X191127000Y-79377000D01*
X190873000Y-79377000D01*
X190853000Y-79377000D01*
X190853000Y-79123000D01*
X190873000Y-79123000D01*
X190873000Y-77873320D01*
X191127000Y-77873320D01*
X191127000Y-79123000D01*
X192676250Y-79123000D01*
X192835000Y-78964250D01*
X192835000Y-78223260D01*
X192738327Y-77989871D01*
X192559698Y-77811243D01*
X192326309Y-77714570D01*
X191285750Y-77714570D01*
X191127000Y-77873320D01*
X190873000Y-77873320D01*
X190714250Y-77714570D01*
X189673691Y-77714570D01*
X189440302Y-77811243D01*
X189261673Y-77989871D01*
X189205346Y-78125857D01*
X189203162Y-78114253D01*
X189064090Y-77898129D01*
X188851890Y-77753139D01*
X188600000Y-77702130D01*
X186200000Y-77702130D01*
X185964683Y-77746408D01*
X185748559Y-77885480D01*
X185603569Y-78097680D01*
X185596708Y-78131562D01*
X185436799Y-78065162D01*
X185064833Y-78064838D01*
X184721057Y-78206883D01*
X184457808Y-78469673D01*
X184315162Y-78813201D01*
X184314838Y-79185167D01*
X181990267Y-79185167D01*
X181943117Y-79071057D01*
X181680327Y-78807808D01*
X181336799Y-78665162D01*
X180964833Y-78664838D01*
X180621057Y-78806883D01*
X180357808Y-79069673D01*
X180215162Y-79413201D01*
X180214838Y-79785167D01*
X180356883Y-80128943D01*
X180390000Y-80162118D01*
X180390000Y-80220630D01*
X179987632Y-80622998D01*
X179926252Y-80622998D01*
X180085000Y-80464250D01*
X180085000Y-79723260D01*
X179988327Y-79489871D01*
X179809698Y-79311243D01*
X179576309Y-79214570D01*
X178535750Y-79214570D01*
X178377000Y-79373320D01*
X178377000Y-80623000D01*
X178397000Y-80623000D01*
X178397000Y-80877000D01*
X178377000Y-80877000D01*
X178377000Y-82126680D01*
X178430475Y-82180155D01*
X176570630Y-84040000D01*
X175962463Y-84040000D01*
X175930327Y-84007808D01*
X175586799Y-83865162D01*
X175214833Y-83864838D01*
X174871057Y-84006883D01*
X174607808Y-84269673D01*
X174465162Y-84613201D01*
X174464838Y-84985167D01*
X148118372Y-84985167D01*
X148590840Y-83692482D01*
X149686367Y-81035750D01*
X151815000Y-81035750D01*
X151815000Y-81776740D01*
X151911673Y-82010129D01*
X152090302Y-82188757D01*
X152323691Y-82285430D01*
X153364250Y-82285430D01*
X153523000Y-82126680D01*
X153523000Y-80877000D01*
X151973750Y-80877000D01*
X151815000Y-81035750D01*
X149686367Y-81035750D01*
X149802113Y-80755060D01*
X150274049Y-79723260D01*
X151815000Y-79723260D01*
X151815000Y-80464250D01*
X151973750Y-80623000D01*
X153523000Y-80623000D01*
X153523000Y-79373320D01*
X153777000Y-79373320D01*
X153777000Y-80623000D01*
X153797000Y-80623000D01*
X153797000Y-80877000D01*
X153777000Y-80877000D01*
X153777000Y-82126680D01*
X153935750Y-82285430D01*
X154976309Y-82285430D01*
X155209698Y-82188757D01*
X155388327Y-82010129D01*
X155444654Y-81874143D01*
X155446838Y-81885747D01*
X155585910Y-82101871D01*
X155798110Y-82246861D01*
X156050000Y-82297870D01*
X158450000Y-82297870D01*
X158685317Y-82253592D01*
X158901441Y-82114520D01*
X159046431Y-81902320D01*
X159090467Y-81684862D01*
X159435167Y-81685162D01*
X159778943Y-81543117D01*
X160042192Y-81280327D01*
X160184838Y-80936799D01*
X160185162Y-80564833D01*
X160043117Y-80221057D01*
X159780327Y-79957808D01*
X159519663Y-79849570D01*
X172802560Y-79849570D01*
X172802560Y-81650430D01*
X172846838Y-81885747D01*
X172985910Y-82101871D01*
X173198110Y-82246861D01*
X173450000Y-82297870D01*
X173877328Y-82297870D01*
X173610320Y-82564878D01*
X173564833Y-82564838D01*
X173221057Y-82706883D01*
X172957808Y-82969673D01*
X172815162Y-83313201D01*
X172814838Y-83685167D01*
X172956883Y-84028943D01*
X173219673Y-84292192D01*
X173563201Y-84434838D01*
X173935167Y-84435162D01*
X174278943Y-84293117D01*
X174542192Y-84030327D01*
X174684838Y-83686799D01*
X174684879Y-83639923D01*
X175187401Y-83137401D01*
X175352148Y-82890840D01*
X175410000Y-82600000D01*
X175410000Y-82297870D01*
X175850000Y-82297870D01*
X176085317Y-82253592D01*
X176301441Y-82114520D01*
X176446431Y-81902320D01*
X176453191Y-81868940D01*
X176511673Y-82010129D01*
X176690302Y-82188757D01*
X176923691Y-82285430D01*
X177964250Y-82285430D01*
X178123000Y-82126680D01*
X178123000Y-80877000D01*
X178103000Y-80877000D01*
X178103000Y-80623000D01*
X178123000Y-80623000D01*
X178123000Y-79373320D01*
X177964250Y-79214570D01*
X176923691Y-79214570D01*
X176690302Y-79311243D01*
X176511673Y-79489871D01*
X176455346Y-79625857D01*
X176453162Y-79614253D01*
X176314090Y-79398129D01*
X176101890Y-79253139D01*
X175850000Y-79202130D01*
X173450000Y-79202130D01*
X173214683Y-79246408D01*
X172998559Y-79385480D01*
X172853569Y-79597680D01*
X172802560Y-79849570D01*
X159519663Y-79849570D01*
X159436799Y-79815162D01*
X159090909Y-79814861D01*
X159053162Y-79614253D01*
X158914090Y-79398129D01*
X158701890Y-79253139D01*
X158450000Y-79202130D01*
X156050000Y-79202130D01*
X155814683Y-79246408D01*
X155598559Y-79385480D01*
X155453569Y-79597680D01*
X155446809Y-79631060D01*
X155388327Y-79489871D01*
X155209698Y-79311243D01*
X154976309Y-79214570D01*
X153935750Y-79214570D01*
X153777000Y-79373320D01*
X153523000Y-79373320D01*
X153364250Y-79214570D01*
X152323691Y-79214570D01*
X152090302Y-79311243D01*
X151911673Y-79489871D01*
X151815000Y-79723260D01*
X150274049Y-79723260D01*
X151126841Y-77858791D01*
X152540095Y-75046258D01*
X152958161Y-74285750D01*
X156065000Y-74285750D01*
X156065000Y-75026740D01*
X156161673Y-75260129D01*
X156340302Y-75438757D01*
X156573691Y-75535430D01*
X157614250Y-75535430D01*
X157773000Y-75376680D01*
X157773000Y-74127000D01*
X156223750Y-74127000D01*
X156065000Y-74285750D01*
X152958161Y-74285750D01*
X153679663Y-72973260D01*
X156065000Y-72973260D01*
X156065000Y-73714250D01*
X156223750Y-73873000D01*
X157773000Y-73873000D01*
X157773000Y-72623320D01*
X158027000Y-72623320D01*
X158027000Y-73873000D01*
X158047000Y-73873000D01*
X158047000Y-74127000D01*
X158027000Y-74127000D01*
X158027000Y-75376680D01*
X158185750Y-75535430D01*
X159226309Y-75535430D01*
X159459698Y-75438757D01*
X159638327Y-75260129D01*
X159694654Y-75124143D01*
X159696838Y-75135747D01*
X159835910Y-75351871D01*
X160048110Y-75496861D01*
X160300000Y-75547870D01*
X160571528Y-75547870D01*
X160565162Y-75563201D01*
X160564838Y-75935167D01*
X160706883Y-76278943D01*
X160969673Y-76542192D01*
X161313201Y-76684838D01*
X161685167Y-76685162D01*
X162028943Y-76543117D01*
X162292192Y-76280327D01*
X162434838Y-75936799D01*
X162435162Y-75564833D01*
X162428153Y-75547870D01*
X162700000Y-75547870D01*
X162935317Y-75503592D01*
X163151441Y-75364520D01*
X163296431Y-75152320D01*
X163347440Y-74900430D01*
X163347440Y-73099570D01*
X163303162Y-72864253D01*
X163164090Y-72648129D01*
X162951890Y-72503139D01*
X162700000Y-72452130D01*
X160300000Y-72452130D01*
X160064683Y-72496408D01*
X159848559Y-72635480D01*
X159703569Y-72847680D01*
X159696809Y-72881060D01*
X159638327Y-72739871D01*
X159459698Y-72561243D01*
X159226309Y-72464570D01*
X158185750Y-72464570D01*
X158027000Y-72623320D01*
X157773000Y-72623320D01*
X157614250Y-72464570D01*
X156573691Y-72464570D01*
X156340302Y-72561243D01*
X156161673Y-72739871D01*
X156065000Y-72973260D01*
X153679663Y-72973260D01*
X154016811Y-72359954D01*
X155531605Y-69842581D01*
X156562754Y-68285750D01*
X159315000Y-68285750D01*
X159315000Y-69026740D01*
X159411673Y-69260129D01*
X159590302Y-69438757D01*
X159823691Y-69535430D01*
X160864250Y-69535430D01*
X161023000Y-69376680D01*
X161023000Y-68127000D01*
X159473750Y-68127000D01*
X159315000Y-68285750D01*
X156562754Y-68285750D01*
X157058676Y-67537008D01*
X157474580Y-66973260D01*
X159315000Y-66973260D01*
X159315000Y-67714250D01*
X159473750Y-67873000D01*
X161023000Y-67873000D01*
X161023000Y-66623320D01*
X161277000Y-66623320D01*
X161277000Y-67873000D01*
X161297000Y-67873000D01*
X161297000Y-68127000D01*
X161277000Y-68127000D01*
X161277000Y-69376680D01*
X161435750Y-69535430D01*
X162476309Y-69535430D01*
X162709698Y-69438757D01*
X162888327Y-69260129D01*
X162944654Y-69124143D01*
X162946838Y-69135747D01*
X163085910Y-69351871D01*
X163298110Y-69496861D01*
X163550000Y-69547870D01*
X163990000Y-69547870D01*
X163990000Y-69850000D01*
X164047852Y-70140839D01*
X164064941Y-70166415D01*
X164064838Y-70285167D01*
X164206883Y-70628943D01*
X164469673Y-70892192D01*
X164813201Y-71034838D01*
X165185167Y-71035162D01*
X165528943Y-70893117D01*
X165792192Y-70630327D01*
X165934838Y-70286799D01*
X165935162Y-69914833D01*
X165793117Y-69571057D01*
X165769970Y-69547870D01*
X165950000Y-69547870D01*
X166185317Y-69503592D01*
X166401441Y-69364520D01*
X166546431Y-69152320D01*
X166597440Y-68900430D01*
X166597440Y-67099570D01*
X166553162Y-66864253D01*
X166414090Y-66648129D01*
X166201890Y-66503139D01*
X165950000Y-66452130D01*
X163550000Y-66452130D01*
X163314683Y-66496408D01*
X163098559Y-66635480D01*
X162953569Y-66847680D01*
X162946809Y-66881060D01*
X162888327Y-66739871D01*
X162709698Y-66561243D01*
X162476309Y-66464570D01*
X161435750Y-66464570D01*
X161277000Y-66623320D01*
X161023000Y-66623320D01*
X160864250Y-66464570D01*
X159823691Y-66464570D01*
X159590302Y-66561243D01*
X159411673Y-66739871D01*
X159315000Y-66973260D01*
X157474580Y-66973260D01*
X158571342Y-65486627D01*
X160041186Y-63735637D01*
X161436006Y-62329474D01*
X162714721Y-61314542D01*
X163816968Y-60731206D01*
X164692440Y-60571031D01*
X166059604Y-60882832D01*
X166059604Y-60882832D01*
G37*
X166059604Y-60882832D02*
X167005767Y-61624521D01*
X167690682Y-62788383D01*
X168172521Y-64333279D01*
X168511313Y-66140021D01*
X168794798Y-68072764D01*
X168797612Y-68080670D01*
X168797385Y-68089059D01*
X169125213Y-70007538D01*
X169136893Y-70038050D01*
X169139027Y-70070649D01*
X169614910Y-71847263D01*
X169643705Y-71905665D01*
X169659877Y-71968745D01*
X170389538Y-73489634D01*
X170454423Y-73576116D01*
X170511967Y-73667630D01*
X171601133Y-74818927D01*
X171605375Y-74821935D01*
X171608209Y-74826299D01*
X171716458Y-74900698D01*
X171823588Y-74976659D01*
X171828661Y-74977815D01*
X171832947Y-74980761D01*
X173387341Y-75648604D01*
X173503902Y-75673381D01*
X173619088Y-75703969D01*
X175098943Y-75797640D01*
X175116617Y-75795273D01*
X175134063Y-75798978D01*
X176904109Y-75821850D01*
X176915407Y-75819754D01*
X176926716Y-75821776D01*
X178962239Y-75782225D01*
X178969764Y-75780576D01*
X178977377Y-75781767D01*
X181253662Y-75688166D01*
X181258755Y-75686933D01*
X181263942Y-75687667D01*
X183756273Y-75548393D01*
X183759677Y-75547516D01*
X183763164Y-75547974D01*
X186446826Y-75371400D01*
X186448982Y-75370822D01*
X186451199Y-75371099D01*
X189301477Y-75165601D01*
X189302656Y-75165277D01*
X189303868Y-75165424D01*
X192296045Y-74939376D01*
X192296409Y-74939275D01*
X192296786Y-74939320D01*
X195405897Y-74701117D01*
X198606361Y-74459198D01*
X201872979Y-74221967D01*
X205181687Y-73997735D01*
X208507330Y-73794888D01*
X211824822Y-73621784D01*
X215109707Y-73486738D01*
X218336715Y-73398082D01*
X221480886Y-73364098D01*
X224516872Y-73393023D01*
X227419329Y-73493005D01*
X230162383Y-73672031D01*
X232719894Y-73937810D01*
X235064997Y-74297519D01*
X237170004Y-74757335D01*
X238996827Y-75318605D01*
X240634467Y-76084867D01*
X241741034Y-77003145D01*
X242472475Y-78184824D01*
X242930930Y-79798119D01*
X243160765Y-81966444D01*
X243216208Y-84765398D01*
X243168766Y-88264703D01*
X243109169Y-91211046D01*
X243008918Y-93987432D01*
X242816383Y-96537374D01*
X242785430Y-96747717D01*
X242785430Y-96335750D01*
X242626680Y-96177000D01*
X241377000Y-96177000D01*
X241377000Y-97726250D01*
X241535750Y-97885000D01*
X242276740Y-97885000D01*
X242510129Y-97788327D01*
X242653380Y-97645075D01*
X242482683Y-98805066D01*
X241965532Y-100731682D01*
X241235400Y-102262451D01*
X240271259Y-103371434D01*
X239014936Y-104075218D01*
X237303781Y-104368743D01*
X236044342Y-104393245D01*
X234149944Y-104416082D01*
X231744667Y-104436412D01*
X228904994Y-104454356D01*
X225704991Y-104470068D01*
X222221159Y-104483685D01*
X218527006Y-104495365D01*
X214698590Y-104505250D01*
X214698587Y-104505251D01*
X210810596Y-104513492D01*
X206937099Y-104520240D01*
X206937097Y-104520240D01*
X203153957Y-104525644D01*
X203153953Y-104525643D01*
X199535196Y-104529852D01*
X199535195Y-104529852D01*
X196156246Y-104533014D01*
X196156245Y-104533014D01*
X193091772Y-104535281D01*
X190416632Y-104536800D01*
X188205683Y-104537721D01*
X186533776Y-104538194D01*
X185475767Y-104538368D01*
X185106504Y-104538393D01*
X185044124Y-104550806D01*
X184980526Y-104549849D01*
X184911683Y-104577159D01*
X184839046Y-104591612D01*
X184786165Y-104626951D01*
X184727042Y-104650405D01*
X184673891Y-104701982D01*
X184612315Y-104743131D01*
X184576982Y-104796019D01*
X184531336Y-104840312D01*
X184501969Y-104908301D01*
X184460826Y-104969884D01*
X184448421Y-105032268D01*
X184423201Y-105090656D01*
X184298066Y-105673774D01*
X183921046Y-107260415D01*
X183290206Y-109603501D01*
X182405205Y-112450018D01*
X182163862Y-113106269D01*
X182185000Y-113000000D01*
X182110021Y-112623057D01*
X181896500Y-112303500D01*
X181576943Y-112089979D01*
X181200000Y-112015000D01*
X178625631Y-112015000D01*
X178809698Y-111938757D01*
X178988327Y-111760129D01*
X179085000Y-111526740D01*
X179085000Y-110785750D01*
X178926250Y-110627000D01*
X177377000Y-110627000D01*
X177377000Y-111876680D01*
X177535750Y-112035430D01*
X177997292Y-112035430D01*
X177723057Y-112089979D01*
X177403500Y-112303500D01*
X177303500Y-112403500D01*
X177089979Y-112723057D01*
X177015000Y-113100000D01*
X177089979Y-113476943D01*
X177303500Y-113796500D01*
X177623057Y-114010021D01*
X178000000Y-114085000D01*
X178376943Y-114010021D01*
X178414390Y-113985000D01*
X181200000Y-113985000D01*
X181576943Y-113910021D01*
X181896500Y-113696500D01*
X182008371Y-113529073D01*
X181266896Y-115545264D01*
X179878521Y-118632561D01*
X178248943Y-121452342D01*
X176400323Y-123743613D01*
X174324571Y-125302470D01*
X171600771Y-126596419D01*
X169183089Y-127500511D01*
X167055286Y-127991214D01*
X165143233Y-128076101D01*
X163351631Y-127760504D01*
X161576078Y-127028820D01*
X159810439Y-125902137D01*
X158964713Y-124684973D01*
X158638638Y-122722108D01*
X158703844Y-121599570D01*
X161802560Y-121599570D01*
X161802560Y-123400430D01*
X161846838Y-123635747D01*
X161985910Y-123851871D01*
X162198110Y-123996861D01*
X162450000Y-124047870D01*
X164850000Y-124047870D01*
X165085317Y-124003592D01*
X165301441Y-123864520D01*
X165446431Y-123652320D01*
X165453191Y-123618940D01*
X165511673Y-123760129D01*
X165690302Y-123938757D01*
X165923691Y-124035430D01*
X166964250Y-124035430D01*
X167123000Y-123876680D01*
X167123000Y-122627000D01*
X167377000Y-122627000D01*
X167377000Y-123876680D01*
X167535750Y-124035430D01*
X168576309Y-124035430D01*
X168809698Y-123938757D01*
X168988327Y-123760129D01*
X169085000Y-123526740D01*
X169085000Y-122785750D01*
X168926250Y-122627000D01*
X167377000Y-122627000D01*
X167123000Y-122627000D01*
X167103000Y-122627000D01*
X167103000Y-122373000D01*
X167123000Y-122373000D01*
X167123000Y-121123320D01*
X167377000Y-121123320D01*
X167377000Y-122373000D01*
X168926250Y-122373000D01*
X169085000Y-122214250D01*
X169085000Y-121473260D01*
X168988327Y-121239871D01*
X168809698Y-121061243D01*
X168576309Y-120964570D01*
X167535750Y-120964570D01*
X167377000Y-121123320D01*
X167123000Y-121123320D01*
X166964250Y-120964570D01*
X165923691Y-120964570D01*
X165690302Y-121061243D01*
X165511673Y-121239871D01*
X165455346Y-121375857D01*
X165453162Y-121364253D01*
X165314090Y-121148129D01*
X165101890Y-121003139D01*
X164850000Y-120952130D01*
X164678472Y-120952130D01*
X164684838Y-120936799D01*
X164685162Y-120564833D01*
X164543117Y-120221057D01*
X164280327Y-119957808D01*
X163936799Y-119815162D01*
X163564833Y-119814838D01*
X163221057Y-119956883D01*
X162957808Y-120219673D01*
X162815162Y-120563201D01*
X162814838Y-120935167D01*
X162821847Y-120952130D01*
X162450000Y-120952130D01*
X162214683Y-120996408D01*
X161998559Y-121135480D01*
X161853569Y-121347680D01*
X161802560Y-121599570D01*
X158703844Y-121599570D01*
X158789618Y-120122974D01*
X159329803Y-117155375D01*
X159474676Y-116599570D01*
X167552560Y-116599570D01*
X167552560Y-118400430D01*
X167596838Y-118635747D01*
X167735910Y-118851871D01*
X167948110Y-118996861D01*
X168200000Y-119047870D01*
X170600000Y-119047870D01*
X170835317Y-119003592D01*
X171051441Y-118864520D01*
X171196431Y-118652320D01*
X171203191Y-118618940D01*
X171261673Y-118760129D01*
X171440302Y-118938757D01*
X171673691Y-119035430D01*
X172714250Y-119035430D01*
X172873000Y-118876680D01*
X172873000Y-117627000D01*
X173127000Y-117627000D01*
X173127000Y-118876680D01*
X173285750Y-119035430D01*
X174326309Y-119035430D01*
X174559698Y-118938757D01*
X174738327Y-118760129D01*
X174835000Y-118526740D01*
X174835000Y-117785750D01*
X174676250Y-117627000D01*
X173127000Y-117627000D01*
X172873000Y-117627000D01*
X172853000Y-117627000D01*
X172853000Y-117373000D01*
X172873000Y-117373000D01*
X172873000Y-116123320D01*
X173127000Y-116123320D01*
X173127000Y-117373000D01*
X174676250Y-117373000D01*
X174835000Y-117214250D01*
X174835000Y-116473260D01*
X174738327Y-116239871D01*
X174559698Y-116061243D01*
X174326309Y-115964570D01*
X173285750Y-115964570D01*
X173127000Y-116123320D01*
X172873000Y-116123320D01*
X172714250Y-115964570D01*
X171673691Y-115964570D01*
X171440302Y-116061243D01*
X171261673Y-116239871D01*
X171205346Y-116375857D01*
X171203162Y-116364253D01*
X171064090Y-116148129D01*
X170851890Y-116003139D01*
X170600000Y-115952130D01*
X170324662Y-115952130D01*
X170434838Y-115686799D01*
X170435162Y-115314833D01*
X170293117Y-114971057D01*
X170030327Y-114707808D01*
X169686799Y-114565162D01*
X169314833Y-114564838D01*
X168971057Y-114706883D01*
X168707808Y-114969673D01*
X168565162Y-115313201D01*
X168564838Y-115685167D01*
X168640000Y-115867073D01*
X168640000Y-115952130D01*
X168200000Y-115952130D01*
X167964683Y-115996408D01*
X167748559Y-116135480D01*
X167603569Y-116347680D01*
X167552560Y-116599570D01*
X159474676Y-116599570D01*
X160137743Y-114055715D01*
X160675106Y-112349570D01*
X161302560Y-112349570D01*
X161302560Y-114150430D01*
X161346838Y-114385747D01*
X161485910Y-114601871D01*
X161698110Y-114746861D01*
X161950000Y-114797870D01*
X164350000Y-114797870D01*
X164585317Y-114753592D01*
X164801441Y-114614520D01*
X164946431Y-114402320D01*
X164953191Y-114368940D01*
X165011673Y-114510129D01*
X165190302Y-114688757D01*
X165423691Y-114785430D01*
X166464250Y-114785430D01*
X166623000Y-114626680D01*
X166623000Y-113377000D01*
X166877000Y-113377000D01*
X166877000Y-114626680D01*
X167035750Y-114785430D01*
X168076309Y-114785430D01*
X168309698Y-114688757D01*
X168488327Y-114510129D01*
X168585000Y-114276740D01*
X168585000Y-113535750D01*
X168426250Y-113377000D01*
X166877000Y-113377000D01*
X166623000Y-113377000D01*
X166603000Y-113377000D01*
X166603000Y-113123000D01*
X166623000Y-113123000D01*
X166623000Y-111873320D01*
X166877000Y-111873320D01*
X166877000Y-113123000D01*
X168426250Y-113123000D01*
X168585000Y-112964250D01*
X168585000Y-112223260D01*
X168488327Y-111989871D01*
X168309698Y-111811243D01*
X168076309Y-111714570D01*
X167035750Y-111714570D01*
X166877000Y-111873320D01*
X166623000Y-111873320D01*
X166464250Y-111714570D01*
X166123306Y-111714570D01*
X166134838Y-111686799D01*
X166135162Y-111314833D01*
X165993117Y-110971057D01*
X165730327Y-110707808D01*
X165386799Y-110565162D01*
X165014833Y-110564838D01*
X164671057Y-110706883D01*
X164407808Y-110969673D01*
X164265162Y-111313201D01*
X164265122Y-111359646D01*
X163922638Y-111702130D01*
X161950000Y-111702130D01*
X161714683Y-111746408D01*
X161498559Y-111885480D01*
X161353569Y-112097680D01*
X161302560Y-112349570D01*
X160675106Y-112349570D01*
X161086025Y-111044894D01*
X161598657Y-109599570D01*
X171802560Y-109599570D01*
X171802560Y-111400430D01*
X171846838Y-111635747D01*
X171985910Y-111851871D01*
X172198110Y-111996861D01*
X172450000Y-112047870D01*
X174850000Y-112047870D01*
X175085317Y-112003592D01*
X175301441Y-111864520D01*
X175446431Y-111652320D01*
X175453191Y-111618940D01*
X175511673Y-111760129D01*
X175690302Y-111938757D01*
X175923691Y-112035430D01*
X176964250Y-112035430D01*
X177123000Y-111876680D01*
X177123000Y-110627000D01*
X177103000Y-110627000D01*
X177103000Y-110373000D01*
X177123000Y-110373000D01*
X177123000Y-109123320D01*
X177377000Y-109123320D01*
X177377000Y-110373000D01*
X178926250Y-110373000D01*
X179085000Y-110214250D01*
X179085000Y-109473260D01*
X178988327Y-109239871D01*
X178809698Y-109061243D01*
X178576309Y-108964570D01*
X177535750Y-108964570D01*
X177377000Y-109123320D01*
X177123000Y-109123320D01*
X176964250Y-108964570D01*
X175923691Y-108964570D01*
X175690302Y-109061243D01*
X175511673Y-109239871D01*
X175455346Y-109375857D01*
X175453162Y-109364253D01*
X175314090Y-109148129D01*
X175101890Y-109003139D01*
X174850000Y-108952130D01*
X174707710Y-108952130D01*
X174734838Y-108886799D01*
X174735162Y-108514833D01*
X174593117Y-108171057D01*
X174330327Y-107907808D01*
X173986799Y-107765162D01*
X173835000Y-107765030D01*
X173835000Y-107285750D01*
X173676250Y-107127000D01*
X172127000Y-107127000D01*
X172127000Y-108376680D01*
X172285750Y-108535430D01*
X172865143Y-108535430D01*
X172864838Y-108885167D01*
X172892506Y-108952130D01*
X172450000Y-108952130D01*
X172214683Y-108996408D01*
X171998559Y-109135480D01*
X171853569Y-109347680D01*
X171802560Y-109599570D01*
X161598657Y-109599570D01*
X162046320Y-108337423D01*
X162890106Y-106145443D01*
X162908848Y-106099570D01*
X166552560Y-106099570D01*
X166552560Y-107900430D01*
X166596838Y-108135747D01*
X166735910Y-108351871D01*
X166948110Y-108496861D01*
X167200000Y-108547870D01*
X169600000Y-108547870D01*
X169835317Y-108503592D01*
X170051441Y-108364520D01*
X170196431Y-108152320D01*
X170203191Y-108118940D01*
X170261673Y-108260129D01*
X170440302Y-108438757D01*
X170673691Y-108535430D01*
X171714250Y-108535430D01*
X171873000Y-108376680D01*
X171873000Y-107127000D01*
X171853000Y-107127000D01*
X171853000Y-106873000D01*
X171873000Y-106873000D01*
X171873000Y-105623320D01*
X172127000Y-105623320D01*
X172127000Y-106873000D01*
X173676250Y-106873000D01*
X173835000Y-106714250D01*
X173835000Y-105973260D01*
X173738327Y-105739871D01*
X173559698Y-105561243D01*
X173326309Y-105464570D01*
X172285750Y-105464570D01*
X172127000Y-105623320D01*
X171873000Y-105623320D01*
X171714250Y-105464570D01*
X170673691Y-105464570D01*
X170440302Y-105561243D01*
X170261673Y-105739871D01*
X170205346Y-105875857D01*
X170203162Y-105864253D01*
X170064090Y-105648129D01*
X169851890Y-105503139D01*
X169672385Y-105466788D01*
X169684838Y-105436799D01*
X169685162Y-105064833D01*
X169543117Y-104721057D01*
X169280327Y-104457808D01*
X168936799Y-104315162D01*
X168564833Y-104314838D01*
X168221057Y-104456883D01*
X167957808Y-104719673D01*
X167815162Y-105063201D01*
X167815101Y-105133686D01*
X167697852Y-105309161D01*
X167669413Y-105452130D01*
X167200000Y-105452130D01*
X166964683Y-105496408D01*
X166748559Y-105635480D01*
X166603569Y-105847680D01*
X166552560Y-106099570D01*
X162908848Y-106099570D01*
X163489204Y-104679137D01*
X163716862Y-104144942D01*
X163720372Y-104128189D01*
X163729334Y-104113602D01*
X163748215Y-103995288D01*
X163772779Y-103878036D01*
X163769610Y-103861214D01*
X163772308Y-103844309D01*
X163744478Y-103727790D01*
X163722299Y-103610048D01*
X163712932Y-103595716D01*
X163708956Y-103579069D01*
X163638655Y-103482070D01*
X163573107Y-103381779D01*
X163558971Y-103372125D01*
X163548925Y-103358263D01*
X163446841Y-103295542D01*
X163347916Y-103227978D01*
X163331163Y-103224468D01*
X163316576Y-103215506D01*
X163198262Y-103196625D01*
X163081010Y-103172061D01*
X163064188Y-103175230D01*
X163047283Y-103172532D01*
X162930761Y-103200363D01*
X162813023Y-103222541D01*
X162798692Y-103231907D01*
X162782043Y-103235884D01*
X159594881Y-104700677D01*
X156763236Y-105796853D01*
X154270243Y-106530626D01*
X152116400Y-106904579D01*
X150302873Y-106928381D01*
X148821636Y-106622338D01*
X147637667Y-106006771D01*
X146695344Y-105070599D01*
X145962977Y-103769794D01*
X145758766Y-103099570D01*
X174852560Y-103099570D01*
X174852560Y-104900430D01*
X174896838Y-105135747D01*
X175035910Y-105351871D01*
X175248110Y-105496861D01*
X175500000Y-105547870D01*
X177900000Y-105547870D01*
X178135317Y-105503592D01*
X178351441Y-105364520D01*
X178496431Y-105152320D01*
X178503191Y-105118940D01*
X178561673Y-105260129D01*
X178740302Y-105438757D01*
X178973691Y-105535430D01*
X180014250Y-105535430D01*
X180173000Y-105376680D01*
X180173000Y-104127000D01*
X180427000Y-104127000D01*
X180427000Y-105376680D01*
X180585750Y-105535430D01*
X181626309Y-105535430D01*
X181859698Y-105438757D01*
X182038327Y-105260129D01*
X182135000Y-105026740D01*
X182135000Y-104285750D01*
X181976250Y-104127000D01*
X180427000Y-104127000D01*
X180173000Y-104127000D01*
X180153000Y-104127000D01*
X180153000Y-103873000D01*
X180173000Y-103873000D01*
X180173000Y-102623320D01*
X180427000Y-102623320D01*
X180427000Y-103873000D01*
X181976250Y-103873000D01*
X182135000Y-103714250D01*
X182135000Y-102973260D01*
X182038327Y-102739871D01*
X181859698Y-102561243D01*
X181626309Y-102464570D01*
X180585750Y-102464570D01*
X180427000Y-102623320D01*
X180173000Y-102623320D01*
X180014250Y-102464570D01*
X178973691Y-102464570D01*
X178912840Y-102489775D01*
X178934838Y-102436799D01*
X178935162Y-102064833D01*
X178793117Y-101721057D01*
X178530327Y-101457808D01*
X178186799Y-101315162D01*
X177814833Y-101314838D01*
X177471057Y-101456883D01*
X177437882Y-101490000D01*
X177299570Y-101490000D01*
X177008731Y-101547852D01*
X176762169Y-101712599D01*
X176162599Y-102312169D01*
X176069080Y-102452130D01*
X175500000Y-102452130D01*
X175264683Y-102496408D01*
X175048559Y-102635480D01*
X174903569Y-102847680D01*
X174852560Y-103099570D01*
X145758766Y-103099570D01*
X145445145Y-102070264D01*
X145199111Y-100285750D01*
X147065000Y-100285750D01*
X147065000Y-101026740D01*
X147161673Y-101260129D01*
X147340302Y-101438757D01*
X147573691Y-101535430D01*
X148614250Y-101535430D01*
X148773000Y-101376680D01*
X148773000Y-100127000D01*
X147223750Y-100127000D01*
X147065000Y-100285750D01*
X145199111Y-100285750D01*
X145154706Y-99963679D01*
X145132012Y-98973260D01*
X147065000Y-98973260D01*
X147065000Y-99714250D01*
X147223750Y-99873000D01*
X148773000Y-99873000D01*
X148773000Y-98623320D01*
X149027000Y-98623320D01*
X149027000Y-99873000D01*
X149047000Y-99873000D01*
X149047000Y-100127000D01*
X149027000Y-100127000D01*
X149027000Y-101376680D01*
X149185750Y-101535430D01*
X150226309Y-101535430D01*
X150459698Y-101438757D01*
X150638327Y-101260129D01*
X150694654Y-101124143D01*
X150696838Y-101135747D01*
X150835910Y-101351871D01*
X151048110Y-101496861D01*
X151300000Y-101547870D01*
X153700000Y-101547870D01*
X153935317Y-101503592D01*
X154151441Y-101364520D01*
X154296431Y-101152320D01*
X154347440Y-100900430D01*
X154347440Y-100760000D01*
X154437537Y-100760000D01*
X154469673Y-100792192D01*
X154813201Y-100934838D01*
X155185167Y-100935162D01*
X155528943Y-100793117D01*
X155792192Y-100530327D01*
X155934838Y-100186799D01*
X155935162Y-99814833D01*
X155793117Y-99471057D01*
X155530327Y-99207808D01*
X155186799Y-99065162D01*
X154814833Y-99064838D01*
X154471057Y-99206883D01*
X154437882Y-99240000D01*
X154347440Y-99240000D01*
X154347440Y-99099570D01*
X154303162Y-98864253D01*
X154164090Y-98648129D01*
X153999618Y-98535750D01*
X157065000Y-98535750D01*
X157065000Y-99276740D01*
X157161673Y-99510129D01*
X157340302Y-99688757D01*
X157573691Y-99785430D01*
X158614250Y-99785430D01*
X158773000Y-99626680D01*
X158773000Y-98377000D01*
X157223750Y-98377000D01*
X157065000Y-98535750D01*
X153999618Y-98535750D01*
X153951890Y-98503139D01*
X153700000Y-98452130D01*
X151300000Y-98452130D01*
X151064683Y-98496408D01*
X150848559Y-98635480D01*
X150703569Y-98847680D01*
X150696809Y-98881060D01*
X150638327Y-98739871D01*
X150459698Y-98561243D01*
X150226309Y-98464570D01*
X149185750Y-98464570D01*
X149027000Y-98623320D01*
X148773000Y-98623320D01*
X148614250Y-98464570D01*
X147573691Y-98464570D01*
X147340302Y-98561243D01*
X147161673Y-98739871D01*
X147065000Y-98973260D01*
X145132012Y-98973260D01*
X145097605Y-97471711D01*
X145125248Y-97223260D01*
X157065000Y-97223260D01*
X157065000Y-97964250D01*
X157223750Y-98123000D01*
X158773000Y-98123000D01*
X158773000Y-96873320D01*
X159027000Y-96873320D01*
X159027000Y-98123000D01*
X159047000Y-98123000D01*
X159047000Y-98377000D01*
X159027000Y-98377000D01*
X159027000Y-99626680D01*
X159185750Y-99785430D01*
X160226309Y-99785430D01*
X160459698Y-99688757D01*
X160638327Y-99510129D01*
X160694654Y-99374143D01*
X160696838Y-99385747D01*
X160835910Y-99601871D01*
X161048110Y-99746861D01*
X161300000Y-99797870D01*
X163700000Y-99797870D01*
X163935317Y-99753592D01*
X164151441Y-99614520D01*
X164161655Y-99599570D01*
X168552560Y-99599570D01*
X168552560Y-101400430D01*
X168596838Y-101635747D01*
X168735910Y-101851871D01*
X168948110Y-101996861D01*
X169200000Y-102047870D01*
X171600000Y-102047870D01*
X171835317Y-102003592D01*
X172051441Y-101864520D01*
X172196431Y-101652320D01*
X172203191Y-101618940D01*
X172261673Y-101760129D01*
X172440302Y-101938757D01*
X172673691Y-102035430D01*
X173714250Y-102035430D01*
X173873000Y-101876680D01*
X173873000Y-100627000D01*
X174127000Y-100627000D01*
X174127000Y-101876680D01*
X174285750Y-102035430D01*
X175326309Y-102035430D01*
X175559698Y-101938757D01*
X175738327Y-101760129D01*
X175835000Y-101526740D01*
X175835000Y-100785750D01*
X175676250Y-100627000D01*
X174127000Y-100627000D01*
X173873000Y-100627000D01*
X173853000Y-100627000D01*
X173853000Y-100373000D01*
X173873000Y-100373000D01*
X173873000Y-99123320D01*
X174127000Y-99123320D01*
X174127000Y-100373000D01*
X175676250Y-100373000D01*
X175835000Y-100214250D01*
X175835000Y-99849570D01*
X181602560Y-99849570D01*
X181602560Y-101650430D01*
X181646838Y-101885747D01*
X181785910Y-102101871D01*
X181998110Y-102246861D01*
X182250000Y-102297870D01*
X184650000Y-102297870D01*
X184885317Y-102253592D01*
X185101441Y-102114520D01*
X185246431Y-101902320D01*
X185253191Y-101868940D01*
X185311673Y-102010129D01*
X185490302Y-102188757D01*
X185723691Y-102285430D01*
X186764250Y-102285430D01*
X186923000Y-102126680D01*
X186923000Y-100877000D01*
X187177000Y-100877000D01*
X187177000Y-102126680D01*
X187335750Y-102285430D01*
X188376309Y-102285430D01*
X188609698Y-102188757D01*
X188788327Y-102010129D01*
X188885000Y-101776740D01*
X188885000Y-101035750D01*
X188726250Y-100877000D01*
X187177000Y-100877000D01*
X186923000Y-100877000D01*
X186903000Y-100877000D01*
X186903000Y-100623000D01*
X186923000Y-100623000D01*
X186923000Y-99373320D01*
X187177000Y-99373320D01*
X187177000Y-100623000D01*
X188726250Y-100623000D01*
X188785360Y-100563890D01*
X192615592Y-100563890D01*
X192780362Y-100962663D01*
X193085193Y-101268026D01*
X193483677Y-101433491D01*
X193915150Y-101433868D01*
X194313923Y-101269098D01*
X194619286Y-100964267D01*
X194784751Y-100565783D01*
X194784752Y-100563890D01*
X197014872Y-100563890D01*
X197179642Y-100962663D01*
X197484473Y-101268026D01*
X197882957Y-101433491D01*
X198314430Y-101433868D01*
X198713203Y-101269098D01*
X198897455Y-101085167D01*
X201864838Y-101085167D01*
X202006883Y-101428943D01*
X202269673Y-101692192D01*
X202613201Y-101834838D01*
X202959091Y-101835139D01*
X202996838Y-102035747D01*
X203135910Y-102251871D01*
X203348110Y-102396861D01*
X203600000Y-102447870D01*
X206000000Y-102447870D01*
X206235317Y-102403592D01*
X206451441Y-102264520D01*
X206596431Y-102052320D01*
X206603191Y-102018940D01*
X206661673Y-102160129D01*
X206840302Y-102338757D01*
X207073691Y-102435430D01*
X208114250Y-102435430D01*
X208273000Y-102276680D01*
X208273000Y-101027000D01*
X208527000Y-101027000D01*
X208527000Y-102276680D01*
X208685750Y-102435430D01*
X209726309Y-102435430D01*
X209959698Y-102338757D01*
X210138327Y-102160129D01*
X210235000Y-101926740D01*
X210235000Y-101185750D01*
X210076250Y-101027000D01*
X208527000Y-101027000D01*
X208273000Y-101027000D01*
X208253000Y-101027000D01*
X208253000Y-100773000D01*
X208273000Y-100773000D01*
X208273000Y-99523320D01*
X208527000Y-99523320D01*
X208527000Y-100773000D01*
X210076250Y-100773000D01*
X210235000Y-100614250D01*
X210235000Y-99873260D01*
X210138327Y-99639871D01*
X209959698Y-99461243D01*
X209726309Y-99364570D01*
X208685750Y-99364570D01*
X208527000Y-99523320D01*
X208273000Y-99523320D01*
X208114250Y-99364570D01*
X207073691Y-99364570D01*
X206840302Y-99461243D01*
X206661673Y-99639871D01*
X206605346Y-99775857D01*
X206603162Y-99764253D01*
X206464090Y-99548129D01*
X206251890Y-99403139D01*
X206000000Y-99352130D01*
X203600000Y-99352130D01*
X203364683Y-99396408D01*
X203148559Y-99535480D01*
X203003569Y-99747680D01*
X202959533Y-99965138D01*
X202614833Y-99964838D01*
X202271057Y-100106883D01*
X202007808Y-100369673D01*
X201865162Y-100713201D01*
X201864838Y-101085167D01*
X198897455Y-101085167D01*
X199018566Y-100964267D01*
X199184031Y-100565783D01*
X199184408Y-100134310D01*
X199019638Y-99735537D01*
X198714807Y-99430174D01*
X198400278Y-99299570D01*
X211152560Y-99299570D01*
X211152560Y-101100430D01*
X211196838Y-101335747D01*
X211335910Y-101551871D01*
X211548110Y-101696861D01*
X211800000Y-101747870D01*
X212092290Y-101747870D01*
X212065162Y-101813201D01*
X212064838Y-102185167D01*
X212206883Y-102528943D01*
X212469673Y-102792192D01*
X212642094Y-102863788D01*
X212615000Y-103000000D01*
X212689979Y-103376943D01*
X212903500Y-103696500D01*
X213223057Y-103910021D01*
X213600000Y-103985000D01*
X216500000Y-103985000D01*
X216876943Y-103910021D01*
X217196500Y-103696500D01*
X217296500Y-103596500D01*
X217510021Y-103276943D01*
X217584999Y-102900000D01*
X217582049Y-102885167D01*
X234864838Y-102885167D01*
X235006883Y-103228943D01*
X235269673Y-103492192D01*
X235613201Y-103634838D01*
X235985167Y-103635162D01*
X236328943Y-103493117D01*
X236592192Y-103230327D01*
X236734838Y-102886799D01*
X236735162Y-102514833D01*
X236658296Y-102328802D01*
X236673260Y-102335000D01*
X237414250Y-102335000D01*
X237573000Y-102176250D01*
X237573000Y-100627000D01*
X237827000Y-100627000D01*
X237827000Y-102176250D01*
X237985750Y-102335000D01*
X238726740Y-102335000D01*
X238960129Y-102238327D01*
X239138757Y-102059698D01*
X239235430Y-101826309D01*
X239235430Y-100785750D01*
X239076680Y-100627000D01*
X237827000Y-100627000D01*
X237573000Y-100627000D01*
X237553000Y-100627000D01*
X237553000Y-100373000D01*
X237573000Y-100373000D01*
X237573000Y-100353000D01*
X237827000Y-100353000D01*
X237827000Y-100373000D01*
X239076680Y-100373000D01*
X239235430Y-100214250D01*
X239235430Y-99173691D01*
X239138757Y-98940302D01*
X238960129Y-98761673D01*
X238824143Y-98705346D01*
X238835747Y-98703162D01*
X239051871Y-98564090D01*
X239196861Y-98351890D01*
X239247870Y-98100000D01*
X239247870Y-96335750D01*
X239714570Y-96335750D01*
X239714570Y-97376309D01*
X239811243Y-97609698D01*
X239989871Y-97788327D01*
X240223260Y-97885000D01*
X240964250Y-97885000D01*
X241123000Y-97726250D01*
X241123000Y-96177000D01*
X239873320Y-96177000D01*
X239714570Y-96335750D01*
X239247870Y-96335750D01*
X239247870Y-95700000D01*
X239203592Y-95464683D01*
X239064520Y-95248559D01*
X238852320Y-95103569D01*
X238600430Y-95052560D01*
X236799570Y-95052560D01*
X236564253Y-95096838D01*
X236348129Y-95235910D01*
X236203139Y-95448110D01*
X236152130Y-95700000D01*
X236152130Y-97672638D01*
X235262599Y-98562169D01*
X235097852Y-98808731D01*
X235040000Y-99099570D01*
X235040000Y-102137537D01*
X235007808Y-102169673D01*
X234865162Y-102513201D01*
X234864838Y-102885167D01*
X217582049Y-102885167D01*
X217510021Y-102523057D01*
X217296500Y-102203500D01*
X216976943Y-101989979D01*
X216600000Y-101915001D01*
X216223057Y-101989979D01*
X216185610Y-102015000D01*
X213934988Y-102015000D01*
X213935162Y-101814833D01*
X213907494Y-101747870D01*
X214200000Y-101747870D01*
X214435317Y-101703592D01*
X214651441Y-101564520D01*
X214796431Y-101352320D01*
X214803191Y-101318940D01*
X214861673Y-101460129D01*
X215040302Y-101638757D01*
X215273691Y-101735430D01*
X216314250Y-101735430D01*
X216473000Y-101576680D01*
X216473000Y-100327000D01*
X216727000Y-100327000D01*
X216727000Y-101576680D01*
X216885750Y-101735430D01*
X217926309Y-101735430D01*
X218159698Y-101638757D01*
X218338327Y-101460129D01*
X218435000Y-101226740D01*
X218435000Y-100785167D01*
X226364838Y-100785167D01*
X226506883Y-101128943D01*
X226769673Y-101392192D01*
X227113201Y-101534838D01*
X227160077Y-101534879D01*
X227262599Y-101637401D01*
X227509161Y-101802148D01*
X227552560Y-101810781D01*
X227552560Y-102000430D01*
X227596838Y-102235747D01*
X227735910Y-102451871D01*
X227948110Y-102596861D01*
X228200000Y-102647870D01*
X230600000Y-102647870D01*
X230835317Y-102603592D01*
X231051441Y-102464520D01*
X231196431Y-102252320D01*
X231203191Y-102218940D01*
X231261673Y-102360129D01*
X231440302Y-102538757D01*
X231673691Y-102635430D01*
X232714250Y-102635430D01*
X232873000Y-102476680D01*
X232873000Y-101227000D01*
X233127000Y-101227000D01*
X233127000Y-102476680D01*
X233285750Y-102635430D01*
X234326309Y-102635430D01*
X234559698Y-102538757D01*
X234738327Y-102360129D01*
X234835000Y-102126740D01*
X234835000Y-101385750D01*
X234676250Y-101227000D01*
X233127000Y-101227000D01*
X232873000Y-101227000D01*
X232853000Y-101227000D01*
X232853000Y-100973000D01*
X232873000Y-100973000D01*
X232873000Y-99723320D01*
X233127000Y-99723320D01*
X233127000Y-100973000D01*
X234676250Y-100973000D01*
X234835000Y-100814250D01*
X234835000Y-100073260D01*
X234738327Y-99839871D01*
X234559698Y-99661243D01*
X234326309Y-99564570D01*
X233285750Y-99564570D01*
X233127000Y-99723320D01*
X232873000Y-99723320D01*
X232714250Y-99564570D01*
X231673691Y-99564570D01*
X231440302Y-99661243D01*
X231261673Y-99839871D01*
X231205346Y-99975857D01*
X231203162Y-99964253D01*
X231064090Y-99748129D01*
X230851890Y-99603139D01*
X230600000Y-99552130D01*
X228200000Y-99552130D01*
X227964683Y-99596408D01*
X227748559Y-99735480D01*
X227728134Y-99765373D01*
X227486799Y-99665162D01*
X227114833Y-99664838D01*
X226771057Y-99806883D01*
X226507808Y-100069673D01*
X226365162Y-100413201D01*
X226364838Y-100785167D01*
X218435000Y-100785167D01*
X218435000Y-100485750D01*
X218276250Y-100327000D01*
X216727000Y-100327000D01*
X216473000Y-100327000D01*
X216453000Y-100327000D01*
X216453000Y-100073000D01*
X216473000Y-100073000D01*
X216473000Y-98823320D01*
X216727000Y-98823320D01*
X216727000Y-100073000D01*
X218276250Y-100073000D01*
X218435000Y-99914250D01*
X218435000Y-99173260D01*
X218338327Y-98939871D01*
X218159698Y-98761243D01*
X217926309Y-98664570D01*
X216885750Y-98664570D01*
X216727000Y-98823320D01*
X216473000Y-98823320D01*
X216314250Y-98664570D01*
X215273691Y-98664570D01*
X215040302Y-98761243D01*
X214861673Y-98939871D01*
X214805346Y-99075857D01*
X214803162Y-99064253D01*
X214664090Y-98848129D01*
X214451890Y-98703139D01*
X214200000Y-98652130D01*
X211800000Y-98652130D01*
X211564683Y-98696408D01*
X211348559Y-98835480D01*
X211203569Y-99047680D01*
X211152560Y-99299570D01*
X198400278Y-99299570D01*
X198316323Y-99264709D01*
X197884850Y-99264332D01*
X197486077Y-99429102D01*
X197180714Y-99733933D01*
X197015249Y-100132417D01*
X197014872Y-100563890D01*
X194784752Y-100563890D01*
X194785128Y-100134310D01*
X194620358Y-99735537D01*
X194315527Y-99430174D01*
X193917043Y-99264709D01*
X193485570Y-99264332D01*
X193086797Y-99429102D01*
X192781434Y-99733933D01*
X192615969Y-100132417D01*
X192615592Y-100563890D01*
X188785360Y-100563890D01*
X188885000Y-100464250D01*
X188885000Y-99723260D01*
X188788327Y-99489871D01*
X188609698Y-99311243D01*
X188376309Y-99214570D01*
X187335750Y-99214570D01*
X187177000Y-99373320D01*
X186923000Y-99373320D01*
X186764250Y-99214570D01*
X185823306Y-99214570D01*
X185834838Y-99186799D01*
X185835162Y-98814833D01*
X185693117Y-98471057D01*
X185430327Y-98207808D01*
X185086799Y-98065162D01*
X184714833Y-98064838D01*
X184371057Y-98206883D01*
X184335000Y-98242877D01*
X184335000Y-97535750D01*
X184176250Y-97377000D01*
X182627000Y-97377000D01*
X182627000Y-98626680D01*
X182785750Y-98785430D01*
X183826309Y-98785430D01*
X184007932Y-98710199D01*
X183965162Y-98813201D01*
X183964838Y-99185167D01*
X183971847Y-99202130D01*
X182250000Y-99202130D01*
X182014683Y-99246408D01*
X181798559Y-99385480D01*
X181653569Y-99597680D01*
X181602560Y-99849570D01*
X175835000Y-99849570D01*
X175835000Y-99473260D01*
X175738327Y-99239871D01*
X175559698Y-99061243D01*
X175326309Y-98964570D01*
X174285750Y-98964570D01*
X174127000Y-99123320D01*
X173873000Y-99123320D01*
X173714250Y-98964570D01*
X173569497Y-98964570D01*
X173684838Y-98686799D01*
X173685162Y-98314833D01*
X173543117Y-97971057D01*
X173280327Y-97707808D01*
X172936799Y-97565162D01*
X172564833Y-97564838D01*
X172221057Y-97706883D01*
X171957808Y-97969673D01*
X171817715Y-98307053D01*
X171172638Y-98952130D01*
X169200000Y-98952130D01*
X168964683Y-98996408D01*
X168748559Y-99135480D01*
X168603569Y-99347680D01*
X168552560Y-99599570D01*
X164161655Y-99599570D01*
X164296431Y-99402320D01*
X164347440Y-99150430D01*
X164347440Y-98990618D01*
X164540839Y-98952148D01*
X164566415Y-98935059D01*
X164685167Y-98935162D01*
X165028943Y-98793117D01*
X165292192Y-98530327D01*
X165434838Y-98186799D01*
X165435162Y-97814833D01*
X165293117Y-97471057D01*
X165030327Y-97207808D01*
X164686799Y-97065162D01*
X164314833Y-97064838D01*
X164280494Y-97079026D01*
X164164090Y-96898129D01*
X163951890Y-96753139D01*
X163700000Y-96702130D01*
X161300000Y-96702130D01*
X161064683Y-96746408D01*
X160848559Y-96885480D01*
X160703569Y-97097680D01*
X160696809Y-97131060D01*
X160638327Y-96989871D01*
X160459698Y-96811243D01*
X160226309Y-96714570D01*
X159185750Y-96714570D01*
X159027000Y-96873320D01*
X158773000Y-96873320D01*
X158614250Y-96714570D01*
X157573691Y-96714570D01*
X157340302Y-96811243D01*
X157161673Y-96989871D01*
X157065000Y-97223260D01*
X145125248Y-97223260D01*
X145222459Y-96349570D01*
X177052560Y-96349570D01*
X177052560Y-98150430D01*
X177096838Y-98385747D01*
X177235910Y-98601871D01*
X177448110Y-98746861D01*
X177700000Y-98797870D01*
X180100000Y-98797870D01*
X180335317Y-98753592D01*
X180551441Y-98614520D01*
X180696431Y-98402320D01*
X180703191Y-98368940D01*
X180761673Y-98510129D01*
X180940302Y-98688757D01*
X181173691Y-98785430D01*
X182214250Y-98785430D01*
X182373000Y-98626680D01*
X182373000Y-97377000D01*
X182353000Y-97377000D01*
X182353000Y-97123000D01*
X182373000Y-97123000D01*
X182373000Y-95873320D01*
X182627000Y-95873320D01*
X182627000Y-97123000D01*
X184176250Y-97123000D01*
X184335000Y-96964250D01*
X184335000Y-96223260D01*
X184238327Y-95989871D01*
X184059698Y-95811243D01*
X183826309Y-95714570D01*
X182785750Y-95714570D01*
X182627000Y-95873320D01*
X182373000Y-95873320D01*
X182214250Y-95714570D01*
X181173691Y-95714570D01*
X180940302Y-95811243D01*
X180761673Y-95989871D01*
X180705346Y-96125857D01*
X180703162Y-96114253D01*
X180584145Y-95929295D01*
X180684838Y-95686799D01*
X180685162Y-95314833D01*
X180596218Y-95099570D01*
X188552560Y-95099570D01*
X188552560Y-96900430D01*
X188596838Y-97135747D01*
X188735910Y-97351871D01*
X188948110Y-97496861D01*
X189200000Y-97547870D01*
X191600000Y-97547870D01*
X191835317Y-97503592D01*
X192051441Y-97364520D01*
X192196431Y-97152320D01*
X192203191Y-97118940D01*
X192261673Y-97260129D01*
X192440302Y-97438757D01*
X192673691Y-97535430D01*
X193714250Y-97535430D01*
X193873000Y-97376680D01*
X193873000Y-96127000D01*
X194127000Y-96127000D01*
X194127000Y-97376680D01*
X194285750Y-97535430D01*
X195326309Y-97535430D01*
X195559698Y-97438757D01*
X195738327Y-97260129D01*
X195835000Y-97026740D01*
X195835000Y-96285750D01*
X195676250Y-96127000D01*
X194127000Y-96127000D01*
X193873000Y-96127000D01*
X193853000Y-96127000D01*
X193853000Y-96085167D01*
X200264838Y-96085167D01*
X200406883Y-96428943D01*
X200669673Y-96692192D01*
X201013201Y-96834838D01*
X201385167Y-96835162D01*
X201552560Y-96765997D01*
X201552560Y-96900430D01*
X201596838Y-97135747D01*
X201735910Y-97351871D01*
X201948110Y-97496861D01*
X202200000Y-97547870D01*
X204600000Y-97547870D01*
X204835317Y-97503592D01*
X205051441Y-97364520D01*
X205196431Y-97152320D01*
X205203191Y-97118940D01*
X205261673Y-97260129D01*
X205440302Y-97438757D01*
X205673691Y-97535430D01*
X206714250Y-97535430D01*
X206873000Y-97376680D01*
X206873000Y-96127000D01*
X207127000Y-96127000D01*
X207127000Y-97376680D01*
X207285750Y-97535430D01*
X208326309Y-97535430D01*
X208559698Y-97438757D01*
X208738327Y-97260129D01*
X208835000Y-97026740D01*
X208835000Y-96285750D01*
X208676250Y-96127000D01*
X207127000Y-96127000D01*
X206873000Y-96127000D01*
X206853000Y-96127000D01*
X206853000Y-95873000D01*
X206873000Y-95873000D01*
X206873000Y-94623320D01*
X207127000Y-94623320D01*
X207127000Y-95873000D01*
X208676250Y-95873000D01*
X208835000Y-95714250D01*
X208835000Y-94973260D01*
X208738327Y-94739871D01*
X208683623Y-94685167D01*
X212664838Y-94685167D01*
X212806883Y-95028943D01*
X213069673Y-95292192D01*
X213413201Y-95434838D01*
X213759091Y-95435139D01*
X213796838Y-95635747D01*
X213935910Y-95851871D01*
X214148110Y-95996861D01*
X214400000Y-96047870D01*
X216800000Y-96047870D01*
X217035317Y-96003592D01*
X217251441Y-95864520D01*
X217396431Y-95652320D01*
X217403191Y-95618940D01*
X217461673Y-95760129D01*
X217640302Y-95938757D01*
X217873691Y-96035430D01*
X218914250Y-96035430D01*
X219073000Y-95876680D01*
X219073000Y-94627000D01*
X219327000Y-94627000D01*
X219327000Y-95876680D01*
X219485750Y-96035430D01*
X220526309Y-96035430D01*
X220759698Y-95938757D01*
X220938327Y-95760129D01*
X220969377Y-95685167D01*
X224664838Y-95685167D01*
X224806883Y-96028943D01*
X225069673Y-96292192D01*
X225413201Y-96434838D01*
X225777910Y-96435156D01*
X225796838Y-96535747D01*
X225935910Y-96751871D01*
X226148110Y-96896861D01*
X226400000Y-96947870D01*
X228800000Y-96947870D01*
X229035317Y-96903592D01*
X229251441Y-96764520D01*
X229396431Y-96552320D01*
X229403191Y-96518940D01*
X229461673Y-96660129D01*
X229640302Y-96838757D01*
X229873691Y-96935430D01*
X230914250Y-96935430D01*
X231073000Y-96776680D01*
X231073000Y-95527000D01*
X231327000Y-95527000D01*
X231327000Y-96776680D01*
X231485750Y-96935430D01*
X232526309Y-96935430D01*
X232759698Y-96838757D01*
X232938327Y-96660129D01*
X233035000Y-96426740D01*
X233035000Y-95685750D01*
X232876250Y-95527000D01*
X231327000Y-95527000D01*
X231073000Y-95527000D01*
X231053000Y-95527000D01*
X231053000Y-95273000D01*
X231073000Y-95273000D01*
X231073000Y-94023320D01*
X231327000Y-94023320D01*
X231327000Y-95273000D01*
X232876250Y-95273000D01*
X233035000Y-95114250D01*
X233035000Y-94373260D01*
X232938327Y-94139871D01*
X232759698Y-93961243D01*
X232526309Y-93864570D01*
X231485750Y-93864570D01*
X231327000Y-94023320D01*
X231073000Y-94023320D01*
X230914250Y-93864570D01*
X229873691Y-93864570D01*
X229640302Y-93961243D01*
X229461673Y-94139871D01*
X229405346Y-94275857D01*
X229403162Y-94264253D01*
X229264090Y-94048129D01*
X229051890Y-93903139D01*
X228800000Y-93852130D01*
X226400000Y-93852130D01*
X226164683Y-93896408D01*
X225948559Y-94035480D01*
X225803569Y-94247680D01*
X225752560Y-94499570D01*
X225752560Y-94565132D01*
X225414833Y-94564838D01*
X225071057Y-94706883D01*
X224807808Y-94969673D01*
X224665162Y-95313201D01*
X224664838Y-95685167D01*
X220969377Y-95685167D01*
X221035000Y-95526740D01*
X221035000Y-94785750D01*
X220876250Y-94627000D01*
X219327000Y-94627000D01*
X219073000Y-94627000D01*
X219053000Y-94627000D01*
X219053000Y-94373000D01*
X219073000Y-94373000D01*
X219073000Y-93123320D01*
X219327000Y-93123320D01*
X219327000Y-94373000D01*
X220876250Y-94373000D01*
X221035000Y-94214250D01*
X221035000Y-93473260D01*
X220938327Y-93239871D01*
X220759698Y-93061243D01*
X220526309Y-92964570D01*
X219485750Y-92964570D01*
X219327000Y-93123320D01*
X219073000Y-93123320D01*
X218914250Y-92964570D01*
X217873691Y-92964570D01*
X217640302Y-93061243D01*
X217461673Y-93239871D01*
X217405346Y-93375857D01*
X217403162Y-93364253D01*
X217264090Y-93148129D01*
X217051890Y-93003139D01*
X216800000Y-92952130D01*
X214400000Y-92952130D01*
X214164683Y-92996408D01*
X213948559Y-93135480D01*
X213803569Y-93347680D01*
X213759533Y-93565138D01*
X213414833Y-93564838D01*
X213071057Y-93706883D01*
X212807808Y-93969673D01*
X212665162Y-94313201D01*
X212664838Y-94685167D01*
X208683623Y-94685167D01*
X208559698Y-94561243D01*
X208326309Y-94464570D01*
X207285750Y-94464570D01*
X207127000Y-94623320D01*
X206873000Y-94623320D01*
X206714250Y-94464570D01*
X205673691Y-94464570D01*
X205440302Y-94561243D01*
X205261673Y-94739871D01*
X205205346Y-94875857D01*
X205203162Y-94864253D01*
X205064090Y-94648129D01*
X204851890Y-94503139D01*
X204600000Y-94452130D01*
X202200000Y-94452130D01*
X201964683Y-94496408D01*
X201748559Y-94635480D01*
X201603569Y-94847680D01*
X201564810Y-95039079D01*
X201386799Y-94965162D01*
X201014833Y-94964838D01*
X200671057Y-95106883D01*
X200407808Y-95369673D01*
X200265162Y-95713201D01*
X200264838Y-96085167D01*
X193853000Y-96085167D01*
X193853000Y-95873000D01*
X193873000Y-95873000D01*
X193873000Y-94623320D01*
X194127000Y-94623320D01*
X194127000Y-95873000D01*
X195676250Y-95873000D01*
X195835000Y-95714250D01*
X195835000Y-94973260D01*
X195738327Y-94739871D01*
X195559698Y-94561243D01*
X195326309Y-94464570D01*
X194285750Y-94464570D01*
X194127000Y-94623320D01*
X193873000Y-94623320D01*
X193714250Y-94464570D01*
X192673691Y-94464570D01*
X192440302Y-94561243D01*
X192261673Y-94739871D01*
X192205346Y-94875857D01*
X192203162Y-94864253D01*
X192064090Y-94648129D01*
X191851890Y-94503139D01*
X191600000Y-94452130D01*
X191178472Y-94452130D01*
X191184838Y-94436799D01*
X191185162Y-94064833D01*
X191043117Y-93721057D01*
X190780327Y-93457808D01*
X190436799Y-93315162D01*
X190064833Y-93314838D01*
X189721057Y-93456883D01*
X189457808Y-93719673D01*
X189315162Y-94063201D01*
X189314838Y-94435167D01*
X189321847Y-94452130D01*
X189200000Y-94452130D01*
X188964683Y-94496408D01*
X188748559Y-94635480D01*
X188603569Y-94847680D01*
X188552560Y-95099570D01*
X180596218Y-95099570D01*
X180543117Y-94971057D01*
X180280327Y-94707808D01*
X179936799Y-94565162D01*
X179564833Y-94564838D01*
X179221057Y-94706883D01*
X178957808Y-94969673D01*
X178815162Y-95313201D01*
X178815121Y-95360077D01*
X178473068Y-95702130D01*
X177700000Y-95702130D01*
X177464683Y-95746408D01*
X177248559Y-95885480D01*
X177103569Y-96097680D01*
X177052560Y-96349570D01*
X145222459Y-96349570D01*
X145373511Y-94991982D01*
X145416920Y-94765376D01*
X145590302Y-94938757D01*
X145823691Y-95035430D01*
X146864250Y-95035430D01*
X147023000Y-94876680D01*
X147023000Y-93627000D01*
X147003000Y-93627000D01*
X147003000Y-93373000D01*
X147023000Y-93373000D01*
X147023000Y-92123320D01*
X147277000Y-92123320D01*
X147277000Y-93373000D01*
X147297000Y-93373000D01*
X147297000Y-93627000D01*
X147277000Y-93627000D01*
X147277000Y-94876680D01*
X147435750Y-95035430D01*
X148476309Y-95035430D01*
X148709698Y-94938757D01*
X148888327Y-94760129D01*
X148944654Y-94624143D01*
X148946838Y-94635747D01*
X149085910Y-94851871D01*
X149298110Y-94996861D01*
X149550000Y-95047870D01*
X151950000Y-95047870D01*
X152185317Y-95003592D01*
X152401441Y-94864520D01*
X152546431Y-94652320D01*
X152590467Y-94434862D01*
X152935167Y-94435162D01*
X153278943Y-94293117D01*
X153542192Y-94030327D01*
X153684838Y-93686799D01*
X153685162Y-93314833D01*
X153596218Y-93099570D01*
X165552560Y-93099570D01*
X165552560Y-94900430D01*
X165596838Y-95135747D01*
X165735910Y-95351871D01*
X165948110Y-95496861D01*
X166200000Y-95547870D01*
X168600000Y-95547870D01*
X168835317Y-95503592D01*
X169051441Y-95364520D01*
X169196431Y-95152320D01*
X169203191Y-95118940D01*
X169261673Y-95260129D01*
X169440302Y-95438757D01*
X169673691Y-95535430D01*
X170714250Y-95535430D01*
X170873000Y-95376680D01*
X170873000Y-94127000D01*
X171127000Y-94127000D01*
X171127000Y-95376680D01*
X171285750Y-95535430D01*
X172326309Y-95535430D01*
X172559698Y-95438757D01*
X172738327Y-95260129D01*
X172835000Y-95026740D01*
X172835000Y-94285750D01*
X172676250Y-94127000D01*
X171127000Y-94127000D01*
X170873000Y-94127000D01*
X170853000Y-94127000D01*
X170853000Y-93873000D01*
X170873000Y-93873000D01*
X170873000Y-93853000D01*
X171127000Y-93853000D01*
X171127000Y-93873000D01*
X172676250Y-93873000D01*
X172835000Y-93714250D01*
X172835000Y-92973260D01*
X172738327Y-92739871D01*
X172683623Y-92685167D01*
X233764838Y-92685167D01*
X233906883Y-93028943D01*
X234169673Y-93292192D01*
X234513201Y-93434838D01*
X234885167Y-93435162D01*
X235228943Y-93293117D01*
X235312205Y-93210000D01*
X239702130Y-93210000D01*
X239702130Y-93650000D01*
X239746408Y-93885317D01*
X239885480Y-94101441D01*
X240097680Y-94246431D01*
X240131060Y-94253191D01*
X239989871Y-94311673D01*
X239811243Y-94490302D01*
X239714570Y-94723691D01*
X239714570Y-95764250D01*
X239873320Y-95923000D01*
X241123000Y-95923000D01*
X241123000Y-95903000D01*
X241377000Y-95903000D01*
X241377000Y-95923000D01*
X242626680Y-95923000D01*
X242785430Y-95764250D01*
X242785430Y-94723691D01*
X242688757Y-94490302D01*
X242510129Y-94311673D01*
X242374143Y-94255346D01*
X242385747Y-94253162D01*
X242601871Y-94114090D01*
X242746861Y-93901890D01*
X242797870Y-93650000D01*
X242797870Y-91250000D01*
X242753592Y-91014683D01*
X242614520Y-90798559D01*
X242402320Y-90653569D01*
X242150430Y-90602560D01*
X240349570Y-90602560D01*
X240114253Y-90646838D01*
X239898129Y-90785910D01*
X239753139Y-90998110D01*
X239702130Y-91250000D01*
X239702130Y-91690000D01*
X235187441Y-91690000D01*
X234886799Y-91565162D01*
X234514833Y-91564838D01*
X234171057Y-91706883D01*
X233907808Y-91969673D01*
X233765162Y-92313201D01*
X233764838Y-92685167D01*
X172683623Y-92685167D01*
X172559698Y-92561243D01*
X172326309Y-92464570D01*
X171923306Y-92464570D01*
X171934838Y-92436799D01*
X171935162Y-92064833D01*
X171793117Y-91721057D01*
X171530327Y-91457808D01*
X171186799Y-91315162D01*
X170814833Y-91314838D01*
X170471057Y-91456883D01*
X170437882Y-91490000D01*
X169449570Y-91490000D01*
X169158731Y-91547852D01*
X168912169Y-91712599D01*
X168172638Y-92452130D01*
X166200000Y-92452130D01*
X165964683Y-92496408D01*
X165748559Y-92635480D01*
X165603569Y-92847680D01*
X165552560Y-93099570D01*
X153596218Y-93099570D01*
X153543117Y-92971057D01*
X153280327Y-92707808D01*
X152936799Y-92565162D01*
X152590909Y-92564861D01*
X152553162Y-92364253D01*
X152414090Y-92148129D01*
X152201890Y-92003139D01*
X151950000Y-91952130D01*
X149550000Y-91952130D01*
X149314683Y-91996408D01*
X149098559Y-92135480D01*
X148953569Y-92347680D01*
X148946809Y-92381060D01*
X148888327Y-92239871D01*
X148709698Y-92061243D01*
X148476309Y-91964570D01*
X147435750Y-91964570D01*
X147277000Y-92123320D01*
X147023000Y-92123320D01*
X146864250Y-91964570D01*
X145977170Y-91964570D01*
X146607729Y-89519370D01*
X147389559Y-87035750D01*
X148565000Y-87035750D01*
X148565000Y-87776740D01*
X148661673Y-88010129D01*
X148840302Y-88188757D01*
X149073691Y-88285430D01*
X150114250Y-88285430D01*
X150273000Y-88126680D01*
X150273000Y-86877000D01*
X148723750Y-86877000D01*
X148565000Y-87035750D01*
X147389559Y-87035750D01*
X147517834Y-86628262D01*
X147848605Y-85723260D01*
X148565000Y-85723260D01*
X148565000Y-86464250D01*
X148723750Y-86623000D01*
X150273000Y-86623000D01*
X150273000Y-85373320D01*
X150527000Y-85373320D01*
X150527000Y-86623000D01*
X150547000Y-86623000D01*
X150547000Y-86877000D01*
X150527000Y-86877000D01*
X150527000Y-88126680D01*
X150685750Y-88285430D01*
X151726309Y-88285430D01*
X151959698Y-88188757D01*
X152138327Y-88010129D01*
X152194654Y-87874143D01*
X152196838Y-87885747D01*
X152335910Y-88101871D01*
X152548110Y-88246861D01*
X152800000Y-88297870D01*
X153071528Y-88297870D01*
X153065162Y-88313201D01*
X153064838Y-88685167D01*
X153206883Y-89028943D01*
X153469673Y-89292192D01*
X153813201Y-89434838D01*
X154185167Y-89435162D01*
X154528943Y-89293117D01*
X154792192Y-89030327D01*
X154934838Y-88686799D01*
X154935162Y-88314833D01*
X154928153Y-88297870D01*
X155200000Y-88297870D01*
X155435317Y-88253592D01*
X155651441Y-88114520D01*
X155796431Y-87902320D01*
X155847440Y-87650430D01*
X155847440Y-86849570D01*
X169052560Y-86849570D01*
X169052560Y-88650430D01*
X169096838Y-88885747D01*
X169235910Y-89101871D01*
X169448110Y-89246861D01*
X169700000Y-89297870D01*
X170071528Y-89297870D01*
X170065162Y-89313201D01*
X170064838Y-89685167D01*
X170206883Y-90028943D01*
X170469673Y-90292192D01*
X170813201Y-90434838D01*
X171185167Y-90435162D01*
X171528943Y-90293117D01*
X171792192Y-90030327D01*
X171934838Y-89686799D01*
X171935162Y-89314833D01*
X171928153Y-89297870D01*
X172100000Y-89297870D01*
X172335317Y-89253592D01*
X172551441Y-89114520D01*
X172696431Y-88902320D01*
X172703191Y-88868940D01*
X172761673Y-89010129D01*
X172940302Y-89188757D01*
X173173691Y-89285430D01*
X174214250Y-89285430D01*
X174373000Y-89126680D01*
X174373000Y-87877000D01*
X174627000Y-87877000D01*
X174627000Y-89126680D01*
X174785750Y-89285430D01*
X175826309Y-89285430D01*
X176059698Y-89188757D01*
X176238327Y-89010129D01*
X176335000Y-88776740D01*
X176335000Y-88035750D01*
X176176250Y-87877000D01*
X174627000Y-87877000D01*
X174373000Y-87877000D01*
X174353000Y-87877000D01*
X174353000Y-87623000D01*
X174373000Y-87623000D01*
X174373000Y-86373320D01*
X174627000Y-86373320D01*
X174627000Y-87623000D01*
X176176250Y-87623000D01*
X176335000Y-87464250D01*
X176335000Y-86723260D01*
X176238327Y-86489871D01*
X176059698Y-86311243D01*
X175826309Y-86214570D01*
X174785750Y-86214570D01*
X174627000Y-86373320D01*
X174373000Y-86373320D01*
X174214250Y-86214570D01*
X173173691Y-86214570D01*
X172940302Y-86311243D01*
X172761673Y-86489871D01*
X172705346Y-86625857D01*
X172703162Y-86614253D01*
X172564090Y-86398129D01*
X172351890Y-86253139D01*
X172100000Y-86202130D01*
X169700000Y-86202130D01*
X169464683Y-86246408D01*
X169248559Y-86385480D01*
X169103569Y-86597680D01*
X169052560Y-86849570D01*
X155847440Y-86849570D01*
X155847440Y-85935167D01*
X178814838Y-85935167D01*
X178956883Y-86278943D01*
X179219673Y-86542192D01*
X179563201Y-86684838D01*
X179935167Y-86685162D01*
X180278943Y-86543117D01*
X180542192Y-86280327D01*
X180684838Y-85936799D01*
X180684879Y-85889923D01*
X181715233Y-84859570D01*
X183052560Y-84859570D01*
X183052560Y-85430080D01*
X183030327Y-85407808D01*
X182686799Y-85265162D01*
X182314833Y-85264838D01*
X181971057Y-85406883D01*
X181707808Y-85669673D01*
X181565162Y-86013201D01*
X181565121Y-86060077D01*
X181362599Y-86262599D01*
X181197852Y-86509161D01*
X181140000Y-86800000D01*
X181140000Y-89452130D01*
X180700000Y-89452130D01*
X180464683Y-89496408D01*
X180248559Y-89635480D01*
X180103569Y-89847680D01*
X180052560Y-90099570D01*
X180052560Y-91900430D01*
X180096838Y-92135747D01*
X180235910Y-92351871D01*
X180448110Y-92496861D01*
X180700000Y-92547870D01*
X183100000Y-92547870D01*
X183335317Y-92503592D01*
X183551441Y-92364520D01*
X183696431Y-92152320D01*
X183703191Y-92118940D01*
X183761673Y-92260129D01*
X183940302Y-92438757D01*
X184173691Y-92535430D01*
X185214250Y-92535430D01*
X185373000Y-92376680D01*
X185373000Y-91127000D01*
X185627000Y-91127000D01*
X185627000Y-92376680D01*
X185785750Y-92535430D01*
X186826309Y-92535430D01*
X187059698Y-92438757D01*
X187238327Y-92260129D01*
X187335000Y-92026740D01*
X187335000Y-91285750D01*
X187176250Y-91127000D01*
X185627000Y-91127000D01*
X185373000Y-91127000D01*
X185353000Y-91127000D01*
X185353000Y-90873000D01*
X185373000Y-90873000D01*
X185373000Y-89623320D01*
X185627000Y-89623320D01*
X185627000Y-90873000D01*
X187176250Y-90873000D01*
X187335000Y-90714250D01*
X187335000Y-90435167D01*
X190814838Y-90435167D01*
X190956883Y-90778943D01*
X191219673Y-91042192D01*
X191563201Y-91184838D01*
X191935167Y-91185162D01*
X192052560Y-91136656D01*
X192052560Y-91150430D01*
X192096838Y-91385747D01*
X192235910Y-91601871D01*
X192448110Y-91746861D01*
X192700000Y-91797870D01*
X195100000Y-91797870D01*
X195335317Y-91753592D01*
X195551441Y-91614520D01*
X195696431Y-91402320D01*
X195703191Y-91368940D01*
X195761673Y-91510129D01*
X195940302Y-91688757D01*
X196173691Y-91785430D01*
X197214250Y-91785430D01*
X197373000Y-91626680D01*
X197373000Y-90377000D01*
X197627000Y-90377000D01*
X197627000Y-91626680D01*
X197785750Y-91785430D01*
X198826309Y-91785430D01*
X199059698Y-91688757D01*
X199238327Y-91510129D01*
X199335000Y-91276740D01*
X199335000Y-90535750D01*
X199176250Y-90377000D01*
X197627000Y-90377000D01*
X197373000Y-90377000D01*
X197353000Y-90377000D01*
X197353000Y-90123000D01*
X197373000Y-90123000D01*
X197373000Y-88873320D01*
X197627000Y-88873320D01*
X197627000Y-90123000D01*
X199176250Y-90123000D01*
X199335000Y-89964250D01*
X199335000Y-89223260D01*
X199238327Y-88989871D01*
X199098026Y-88849570D01*
X203802560Y-88849570D01*
X203802560Y-90650430D01*
X203846838Y-90885747D01*
X203985910Y-91101871D01*
X204198110Y-91246861D01*
X204450000Y-91297870D01*
X206571528Y-91297870D01*
X206565162Y-91313201D01*
X206564838Y-91685167D01*
X206706883Y-92028943D01*
X206969673Y-92292192D01*
X207313201Y-92434838D01*
X207685167Y-92435162D01*
X208028943Y-92293117D01*
X208292192Y-92030327D01*
X208434838Y-91686799D01*
X208435162Y-91314833D01*
X208423013Y-91285430D01*
X208964250Y-91285430D01*
X209123000Y-91126680D01*
X209123000Y-89877000D01*
X209377000Y-89877000D01*
X209377000Y-91126680D01*
X209535750Y-91285430D01*
X210576309Y-91285430D01*
X210809698Y-91188757D01*
X210988327Y-91010129D01*
X211085000Y-90776740D01*
X211085000Y-90585167D01*
X215064838Y-90585167D01*
X215206883Y-90928943D01*
X215469673Y-91192192D01*
X215813201Y-91334838D01*
X216185167Y-91335162D01*
X216528943Y-91193117D01*
X216792192Y-90930327D01*
X216902170Y-90665472D01*
X216948110Y-90696861D01*
X217200000Y-90747870D01*
X219600000Y-90747870D01*
X219835317Y-90703592D01*
X220051441Y-90564520D01*
X220196431Y-90352320D01*
X220203191Y-90318940D01*
X220261673Y-90460129D01*
X220440302Y-90638757D01*
X220673691Y-90735430D01*
X221714250Y-90735430D01*
X221873000Y-90576680D01*
X221873000Y-89327000D01*
X222127000Y-89327000D01*
X222127000Y-90576680D01*
X222285750Y-90735430D01*
X223326309Y-90735430D01*
X223559698Y-90638757D01*
X223698455Y-90500000D01*
X227640000Y-90500000D01*
X227640000Y-91600000D01*
X227697852Y-91890839D01*
X227862599Y-92137401D01*
X228109161Y-92302148D01*
X228400000Y-92360000D01*
X228690839Y-92302148D01*
X228937401Y-92137401D01*
X229102148Y-91890839D01*
X229160000Y-91600000D01*
X229160000Y-90814802D01*
X229176932Y-90797870D01*
X230422638Y-90797870D01*
X231062169Y-91437401D01*
X231221807Y-91544068D01*
X231369673Y-91692192D01*
X231713201Y-91834838D01*
X232085167Y-91835162D01*
X232428943Y-91693117D01*
X232692192Y-91430327D01*
X232834838Y-91086799D01*
X232835101Y-90785430D01*
X232964250Y-90785430D01*
X233123000Y-90626680D01*
X233123000Y-89377000D01*
X233377000Y-89377000D01*
X233377000Y-90626680D01*
X233535750Y-90785430D01*
X234576309Y-90785430D01*
X234809698Y-90688757D01*
X234988327Y-90510129D01*
X235085000Y-90276740D01*
X235085000Y-89535750D01*
X234926250Y-89377000D01*
X233377000Y-89377000D01*
X233123000Y-89377000D01*
X233103000Y-89377000D01*
X233103000Y-89123000D01*
X233123000Y-89123000D01*
X233123000Y-87873320D01*
X233377000Y-87873320D01*
X233377000Y-89123000D01*
X234926250Y-89123000D01*
X235085000Y-88964250D01*
X235085000Y-88223260D01*
X234988327Y-87989871D01*
X234809698Y-87811243D01*
X234576309Y-87714570D01*
X233535750Y-87714570D01*
X233377000Y-87873320D01*
X233123000Y-87873320D01*
X232964250Y-87714570D01*
X231923691Y-87714570D01*
X231690302Y-87811243D01*
X231511673Y-87989871D01*
X231455346Y-88125857D01*
X231453162Y-88114253D01*
X231314090Y-87898129D01*
X231101890Y-87753139D01*
X230850000Y-87702130D01*
X228450000Y-87702130D01*
X228214683Y-87746408D01*
X227998559Y-87885480D01*
X227853569Y-88097680D01*
X227802560Y-88349570D01*
X227802560Y-90052454D01*
X227697852Y-90209161D01*
X227640000Y-90500000D01*
X223698455Y-90500000D01*
X223738327Y-90460129D01*
X223835000Y-90226740D01*
X223835000Y-89485750D01*
X223676250Y-89327000D01*
X222127000Y-89327000D01*
X221873000Y-89327000D01*
X221853000Y-89327000D01*
X221853000Y-89073000D01*
X221873000Y-89073000D01*
X221873000Y-87823320D01*
X222127000Y-87823320D01*
X222127000Y-89073000D01*
X223676250Y-89073000D01*
X223835000Y-88914250D01*
X223835000Y-88173260D01*
X223738327Y-87939871D01*
X223559698Y-87761243D01*
X223326309Y-87664570D01*
X222285750Y-87664570D01*
X222127000Y-87823320D01*
X221873000Y-87823320D01*
X221714250Y-87664570D01*
X220673691Y-87664570D01*
X220440302Y-87761243D01*
X220261673Y-87939871D01*
X220205346Y-88075857D01*
X220203162Y-88064253D01*
X220064090Y-87848129D01*
X219851890Y-87703139D01*
X219600000Y-87652130D01*
X217200000Y-87652130D01*
X216964683Y-87696408D01*
X216748559Y-87835480D01*
X216603569Y-88047680D01*
X216552560Y-88299570D01*
X216552560Y-88569080D01*
X216412599Y-88662599D01*
X215462599Y-89612599D01*
X215457126Y-89620789D01*
X215207808Y-89869673D01*
X215065162Y-90213201D01*
X215064838Y-90585167D01*
X211085000Y-90585167D01*
X211085000Y-90035750D01*
X210926250Y-89877000D01*
X209377000Y-89877000D01*
X209123000Y-89877000D01*
X209103000Y-89877000D01*
X209103000Y-89623000D01*
X209123000Y-89623000D01*
X209123000Y-88373320D01*
X209377000Y-88373320D01*
X209377000Y-89623000D01*
X210926250Y-89623000D01*
X211085000Y-89464250D01*
X211085000Y-88723260D01*
X210988327Y-88489871D01*
X210809698Y-88311243D01*
X210576309Y-88214570D01*
X209535750Y-88214570D01*
X209377000Y-88373320D01*
X209123000Y-88373320D01*
X208964250Y-88214570D01*
X208481783Y-88214570D01*
X208534838Y-88086799D01*
X208535162Y-87714833D01*
X208393117Y-87371057D01*
X208130327Y-87107808D01*
X207786799Y-86965162D01*
X207414833Y-86964838D01*
X207071057Y-87106883D01*
X206807808Y-87369673D01*
X206665162Y-87713201D01*
X206664838Y-88085167D01*
X206713166Y-88202130D01*
X206445424Y-88202130D01*
X206534838Y-87986799D01*
X206535162Y-87614833D01*
X206393117Y-87271057D01*
X206172378Y-87049932D01*
X206292192Y-86930327D01*
X206434838Y-86586799D01*
X206434879Y-86539923D01*
X206791675Y-86183127D01*
X206835910Y-86251871D01*
X207048110Y-86396861D01*
X207300000Y-86447870D01*
X209700000Y-86447870D01*
X209935317Y-86403592D01*
X210151441Y-86264520D01*
X210296431Y-86052320D01*
X210303191Y-86018940D01*
X210361673Y-86160129D01*
X210540302Y-86338757D01*
X210773691Y-86435430D01*
X211814250Y-86435430D01*
X211973000Y-86276680D01*
X211973000Y-85027000D01*
X211953000Y-85027000D01*
X211953000Y-84773000D01*
X211973000Y-84773000D01*
X211973000Y-83523320D01*
X212227000Y-83523320D01*
X212227000Y-84773000D01*
X212247000Y-84773000D01*
X212247000Y-85027000D01*
X212227000Y-85027000D01*
X212227000Y-86276680D01*
X212385750Y-86435430D01*
X213426309Y-86435430D01*
X213659698Y-86338757D01*
X213666718Y-86331737D01*
X213706883Y-86428943D01*
X213969673Y-86692192D01*
X214313201Y-86834838D01*
X214685167Y-86835162D01*
X215028943Y-86693117D01*
X215292192Y-86430327D01*
X215434838Y-86086799D01*
X215435162Y-85714833D01*
X215293117Y-85371057D01*
X215258392Y-85336271D01*
X215258392Y-85134877D01*
X215585167Y-85135162D01*
X215928943Y-84993117D01*
X216192192Y-84730327D01*
X216334838Y-84386799D01*
X216334879Y-84339923D01*
X216875232Y-83799570D01*
X219452560Y-83799570D01*
X219452560Y-85600430D01*
X219496838Y-85835747D01*
X219635910Y-86051871D01*
X219848110Y-86196861D01*
X220100000Y-86247870D01*
X222325777Y-86247870D01*
X222569673Y-86492192D01*
X222913201Y-86634838D01*
X223285167Y-86635162D01*
X223628943Y-86493117D01*
X223887080Y-86235430D01*
X224614250Y-86235430D01*
X224773000Y-86076680D01*
X224773000Y-84827000D01*
X225027000Y-84827000D01*
X225027000Y-86076680D01*
X225185750Y-86235430D01*
X226226309Y-86235430D01*
X226459698Y-86138757D01*
X226638327Y-85960129D01*
X226735000Y-85726740D01*
X226735000Y-84985750D01*
X226576250Y-84827000D01*
X225027000Y-84827000D01*
X224773000Y-84827000D01*
X224753000Y-84827000D01*
X224753000Y-84573000D01*
X224773000Y-84573000D01*
X224773000Y-83323320D01*
X224614250Y-83164570D01*
X223573691Y-83164570D01*
X223340302Y-83261243D01*
X223161673Y-83439871D01*
X223105346Y-83575857D01*
X223103162Y-83564253D01*
X222964090Y-83348129D01*
X222751890Y-83203139D01*
X222500000Y-83152130D01*
X220100000Y-83152130D01*
X219864683Y-83196408D01*
X219648559Y-83335480D01*
X219503569Y-83547680D01*
X219452560Y-83799570D01*
X216875232Y-83799570D01*
X221314802Y-79360000D01*
X221652560Y-79360000D01*
X221652560Y-79500430D01*
X221696838Y-79735747D01*
X221835910Y-79951871D01*
X222048110Y-80096861D01*
X222300000Y-80147870D01*
X224700000Y-80147870D01*
X224935317Y-80103592D01*
X225151441Y-79964520D01*
X225296431Y-79752320D01*
X225303191Y-79718940D01*
X225361673Y-79860129D01*
X225540302Y-80038757D01*
X225773691Y-80135430D01*
X225811939Y-80135430D01*
X225803569Y-80147680D01*
X225752560Y-80399570D01*
X225752560Y-82200430D01*
X225796838Y-82435747D01*
X225935910Y-82651871D01*
X226148110Y-82796861D01*
X226400000Y-82847870D01*
X227113880Y-82847870D01*
X226971057Y-82906883D01*
X226707808Y-83169673D01*
X226608144Y-83409689D01*
X226459698Y-83261243D01*
X226226309Y-83164570D01*
X225185750Y-83164570D01*
X225027000Y-83323320D01*
X225027000Y-84573000D01*
X226576250Y-84573000D01*
X226735000Y-84414250D01*
X226735000Y-84257109D01*
X226969673Y-84492192D01*
X227313201Y-84634838D01*
X227685167Y-84635162D01*
X228028943Y-84493117D01*
X228036906Y-84485167D01*
X229964838Y-84485167D01*
X230106883Y-84828943D01*
X230369673Y-85092192D01*
X230713201Y-85234838D01*
X231059091Y-85235139D01*
X231096838Y-85435747D01*
X231235910Y-85651871D01*
X231448110Y-85796861D01*
X231700000Y-85847870D01*
X234100000Y-85847870D01*
X234335317Y-85803592D01*
X234551441Y-85664520D01*
X234696431Y-85452320D01*
X234703191Y-85418940D01*
X234761673Y-85560129D01*
X234940302Y-85738757D01*
X235173691Y-85835430D01*
X236214250Y-85835430D01*
X236373000Y-85676680D01*
X236373000Y-84427000D01*
X236627000Y-84427000D01*
X236627000Y-85676680D01*
X236785750Y-85835430D01*
X237826309Y-85835430D01*
X238059698Y-85738757D01*
X238238327Y-85560129D01*
X238335000Y-85326740D01*
X238335000Y-84585750D01*
X238176250Y-84427000D01*
X236627000Y-84427000D01*
X236373000Y-84427000D01*
X236353000Y-84427000D01*
X236353000Y-84173000D01*
X236373000Y-84173000D01*
X236373000Y-82923320D01*
X236627000Y-82923320D01*
X236627000Y-84173000D01*
X238176250Y-84173000D01*
X238335000Y-84014250D01*
X238335000Y-83273260D01*
X238238327Y-83039871D01*
X238059698Y-82861243D01*
X237826309Y-82764570D01*
X236785750Y-82764570D01*
X236627000Y-82923320D01*
X236373000Y-82923320D01*
X236214250Y-82764570D01*
X235173691Y-82764570D01*
X234940302Y-82861243D01*
X234761673Y-83039871D01*
X234705346Y-83175857D01*
X234703162Y-83164253D01*
X234564090Y-82948129D01*
X234351890Y-82803139D01*
X234100000Y-82752130D01*
X232727413Y-82752130D01*
X232759698Y-82738757D01*
X232938327Y-82560129D01*
X233035000Y-82326740D01*
X233035000Y-81585750D01*
X232876250Y-81427000D01*
X231327000Y-81427000D01*
X231327000Y-82676680D01*
X231453758Y-82803438D01*
X231248559Y-82935480D01*
X231103569Y-83147680D01*
X231059533Y-83365138D01*
X230714833Y-83364838D01*
X230371057Y-83506883D01*
X230107808Y-83769673D01*
X229965162Y-84113201D01*
X229964838Y-84485167D01*
X228036906Y-84485167D01*
X228292192Y-84230327D01*
X228434838Y-83886799D01*
X228434879Y-83839923D01*
X228486981Y-83787821D01*
X228651728Y-83541259D01*
X228709580Y-83250420D01*
X228709580Y-82847870D01*
X228800000Y-82847870D01*
X229035317Y-82803592D01*
X229251441Y-82664520D01*
X229396431Y-82452320D01*
X229403191Y-82418940D01*
X229461673Y-82560129D01*
X229640302Y-82738757D01*
X229873691Y-82835430D01*
X230914250Y-82835430D01*
X231073000Y-82676680D01*
X231073000Y-81427000D01*
X231053000Y-81427000D01*
X231053000Y-81173000D01*
X231073000Y-81173000D01*
X231073000Y-81153000D01*
X231327000Y-81153000D01*
X231327000Y-81173000D01*
X232876250Y-81173000D01*
X233035000Y-81014250D01*
X233035000Y-80273260D01*
X232983062Y-80147870D01*
X234000000Y-80147870D01*
X234235317Y-80103592D01*
X234451441Y-79964520D01*
X234596431Y-79752320D01*
X234603191Y-79718940D01*
X234661673Y-79860129D01*
X234840302Y-80038757D01*
X235073691Y-80135430D01*
X236114250Y-80135430D01*
X236273000Y-79976680D01*
X236273000Y-78727000D01*
X236527000Y-78727000D01*
X236527000Y-79976680D01*
X236685750Y-80135430D01*
X237726309Y-80135430D01*
X237959698Y-80038757D01*
X238138327Y-79860129D01*
X238235000Y-79626740D01*
X238235000Y-78885750D01*
X238076250Y-78727000D01*
X236527000Y-78727000D01*
X236273000Y-78727000D01*
X236253000Y-78727000D01*
X236253000Y-78473000D01*
X236273000Y-78473000D01*
X236273000Y-77223320D01*
X236527000Y-77223320D01*
X236527000Y-78473000D01*
X238076250Y-78473000D01*
X238235000Y-78314250D01*
X238235000Y-77573260D01*
X238138327Y-77339871D01*
X237959698Y-77161243D01*
X237726309Y-77064570D01*
X236685750Y-77064570D01*
X236527000Y-77223320D01*
X236273000Y-77223320D01*
X236114250Y-77064570D01*
X235073691Y-77064570D01*
X234840302Y-77161243D01*
X234661673Y-77339871D01*
X234605346Y-77475857D01*
X234603162Y-77464253D01*
X234464090Y-77248129D01*
X234251890Y-77103139D01*
X234000000Y-77052130D01*
X233464041Y-77052130D01*
X233337401Y-76862599D01*
X233235122Y-76760320D01*
X233235162Y-76714833D01*
X233093117Y-76371057D01*
X232830327Y-76107808D01*
X232486799Y-75965162D01*
X232114833Y-75964838D01*
X231771057Y-76106883D01*
X231507808Y-76369673D01*
X231365162Y-76713201D01*
X231364838Y-77085167D01*
X231369136Y-77095570D01*
X231364683Y-77096408D01*
X231148559Y-77235480D01*
X231003569Y-77447680D01*
X230952560Y-77699570D01*
X230952560Y-79500430D01*
X230996838Y-79735747D01*
X231072998Y-79854103D01*
X231072998Y-79923318D01*
X230914250Y-79764570D01*
X229873691Y-79764570D01*
X229640302Y-79861243D01*
X229461673Y-80039871D01*
X229405346Y-80175857D01*
X229403162Y-80164253D01*
X229264090Y-79948129D01*
X229051890Y-79803139D01*
X228876634Y-79767649D01*
X228935000Y-79626740D01*
X228935000Y-78885750D01*
X228776250Y-78727000D01*
X227227000Y-78727000D01*
X227227000Y-78747000D01*
X226973000Y-78747000D01*
X226973000Y-78727000D01*
X226953000Y-78727000D01*
X226953000Y-78473000D01*
X226973000Y-78473000D01*
X226973000Y-77223320D01*
X227227000Y-77223320D01*
X227227000Y-78473000D01*
X228776250Y-78473000D01*
X228935000Y-78314250D01*
X228935000Y-77573260D01*
X228838327Y-77339871D01*
X228659698Y-77161243D01*
X228426309Y-77064570D01*
X227385750Y-77064570D01*
X227227000Y-77223320D01*
X226973000Y-77223320D01*
X226814250Y-77064570D01*
X225773691Y-77064570D01*
X225540302Y-77161243D01*
X225361673Y-77339871D01*
X225305346Y-77475857D01*
X225303162Y-77464253D01*
X225164090Y-77248129D01*
X224951890Y-77103139D01*
X224700000Y-77052130D01*
X222300000Y-77052130D01*
X222064683Y-77096408D01*
X221848559Y-77235480D01*
X221703569Y-77447680D01*
X221652560Y-77699570D01*
X221652560Y-77840000D01*
X221000000Y-77840000D01*
X220709161Y-77897852D01*
X220462599Y-78062599D01*
X215260320Y-83264878D01*
X215258392Y-83264876D01*
X215258392Y-78312770D01*
X215290584Y-78280634D01*
X215433230Y-77937106D01*
X215433554Y-77565140D01*
X215291509Y-77221364D01*
X215028719Y-76958115D01*
X214685191Y-76815469D01*
X214313225Y-76815145D01*
X213969449Y-76957190D01*
X213706200Y-77219980D01*
X213687685Y-77264570D01*
X212685750Y-77264570D01*
X212527000Y-77423320D01*
X212527000Y-78673000D01*
X212547000Y-78673000D01*
X212547000Y-78927000D01*
X212527000Y-78927000D01*
X212527000Y-80176680D01*
X212685750Y-80335430D01*
X213726309Y-80335430D01*
X213738392Y-80330425D01*
X213738392Y-83539937D01*
X213659698Y-83461243D01*
X213426309Y-83364570D01*
X212385750Y-83364570D01*
X212227000Y-83523320D01*
X211973000Y-83523320D01*
X211814250Y-83364570D01*
X210773691Y-83364570D01*
X210540302Y-83461243D01*
X210361673Y-83639871D01*
X210305346Y-83775857D01*
X210303162Y-83764253D01*
X210164090Y-83548129D01*
X209951890Y-83403139D01*
X209700000Y-83352130D01*
X207300000Y-83352130D01*
X207064683Y-83396408D01*
X206848559Y-83535480D01*
X206703569Y-83747680D01*
X206652560Y-83999570D01*
X206652560Y-84235671D01*
X206462599Y-84362599D01*
X205360320Y-85464878D01*
X205314833Y-85464838D01*
X204971057Y-85606883D01*
X204707808Y-85869673D01*
X204565162Y-86213201D01*
X204564838Y-86585167D01*
X204706883Y-86928943D01*
X204927622Y-87150068D01*
X204807808Y-87269673D01*
X204665162Y-87613201D01*
X204664838Y-87985167D01*
X204754485Y-88202130D01*
X204450000Y-88202130D01*
X204214683Y-88246408D01*
X203998559Y-88385480D01*
X203853569Y-88597680D01*
X203802560Y-88849570D01*
X199098026Y-88849570D01*
X199059698Y-88811243D01*
X198826309Y-88714570D01*
X197785750Y-88714570D01*
X197627000Y-88873320D01*
X197373000Y-88873320D01*
X197214250Y-88714570D01*
X196173691Y-88714570D01*
X195940302Y-88811243D01*
X195761673Y-88989871D01*
X195705346Y-89125857D01*
X195703162Y-89114253D01*
X195564090Y-88898129D01*
X195351890Y-88753139D01*
X195100000Y-88702130D01*
X192700000Y-88702130D01*
X192464683Y-88746408D01*
X192248559Y-88885480D01*
X192103569Y-89097680D01*
X192052560Y-89349570D01*
X192052560Y-89363230D01*
X191936799Y-89315162D01*
X191564833Y-89314838D01*
X191221057Y-89456883D01*
X190957808Y-89719673D01*
X190815162Y-90063201D01*
X190814838Y-90435167D01*
X187335000Y-90435167D01*
X187335000Y-89973260D01*
X187238327Y-89739871D01*
X187059698Y-89561243D01*
X186826309Y-89464570D01*
X185785750Y-89464570D01*
X185627000Y-89623320D01*
X185373000Y-89623320D01*
X185214250Y-89464570D01*
X184173691Y-89464570D01*
X183940302Y-89561243D01*
X183761673Y-89739871D01*
X183705346Y-89875857D01*
X183703162Y-89864253D01*
X183564090Y-89648129D01*
X183351890Y-89503139D01*
X183100000Y-89452130D01*
X182660000Y-89452130D01*
X182660000Y-87135140D01*
X182685167Y-87135162D01*
X183028943Y-86993117D01*
X183292192Y-86730327D01*
X183321304Y-86660218D01*
X183448110Y-86746861D01*
X183700000Y-86797870D01*
X186100000Y-86797870D01*
X186335317Y-86753592D01*
X186551441Y-86614520D01*
X186696431Y-86402320D01*
X186703191Y-86368940D01*
X186761673Y-86510129D01*
X186940302Y-86688757D01*
X187173691Y-86785430D01*
X188214250Y-86785430D01*
X188373000Y-86626680D01*
X188373000Y-85377000D01*
X188353000Y-85377000D01*
X188353000Y-85123000D01*
X188373000Y-85123000D01*
X188373000Y-83873320D01*
X188627000Y-83873320D01*
X188627000Y-85123000D01*
X188647000Y-85123000D01*
X188647000Y-85377000D01*
X188627000Y-85377000D01*
X188627000Y-86626680D01*
X188785750Y-86785430D01*
X189826309Y-86785430D01*
X190059698Y-86688757D01*
X190238327Y-86510129D01*
X190335000Y-86276740D01*
X190335000Y-85657109D01*
X190569673Y-85892192D01*
X190913201Y-86034838D01*
X191285167Y-86035162D01*
X191628943Y-85893117D01*
X191640000Y-85882079D01*
X191640000Y-86137537D01*
X191607808Y-86169673D01*
X191465162Y-86513201D01*
X191464838Y-86885167D01*
X191606883Y-87228943D01*
X191869673Y-87492192D01*
X192213201Y-87634838D01*
X192585167Y-87635162D01*
X192928943Y-87493117D01*
X193192192Y-87230327D01*
X193334838Y-86886799D01*
X193335162Y-86514833D01*
X193193117Y-86171057D01*
X193160000Y-86137882D01*
X193160000Y-85415232D01*
X193852560Y-84722672D01*
X193852560Y-85900430D01*
X193896838Y-86135747D01*
X194035910Y-86351871D01*
X194248110Y-86496861D01*
X194500000Y-86547870D01*
X195692290Y-86547870D01*
X195665162Y-86613201D01*
X195664838Y-86985167D01*
X195806883Y-87328943D01*
X196069673Y-87592192D01*
X196413201Y-87734838D01*
X196785167Y-87735162D01*
X196879394Y-87696228D01*
X197213201Y-87834838D01*
X197585167Y-87835162D01*
X197928943Y-87693117D01*
X198192192Y-87430327D01*
X198334838Y-87086799D01*
X198335162Y-86714833D01*
X198261034Y-86535430D01*
X199014250Y-86535430D01*
X199173000Y-86376680D01*
X199173000Y-85127000D01*
X199427000Y-85127000D01*
X199427000Y-86376680D01*
X199585750Y-86535430D01*
X200626309Y-86535430D01*
X200859698Y-86438757D01*
X201038327Y-86260129D01*
X201135000Y-86026740D01*
X201135000Y-85285750D01*
X200976250Y-85127000D01*
X199427000Y-85127000D01*
X199173000Y-85127000D01*
X199153000Y-85127000D01*
X199153000Y-84873000D01*
X199173000Y-84873000D01*
X199173000Y-83623320D01*
X199427000Y-83623320D01*
X199427000Y-84873000D01*
X200976250Y-84873000D01*
X201135000Y-84714250D01*
X201135000Y-83973260D01*
X201038327Y-83739871D01*
X200859698Y-83561243D01*
X200626309Y-83464570D01*
X199585750Y-83464570D01*
X199427000Y-83623320D01*
X199173000Y-83623320D01*
X199119525Y-83569845D01*
X200429370Y-82260000D01*
X201552560Y-82260000D01*
X201552560Y-82400430D01*
X201596838Y-82635747D01*
X201735910Y-82851871D01*
X201948110Y-82996861D01*
X202200000Y-83047870D01*
X204600000Y-83047870D01*
X204835317Y-83003592D01*
X205051441Y-82864520D01*
X205196431Y-82652320D01*
X205203191Y-82618940D01*
X205261673Y-82760129D01*
X205440302Y-82938757D01*
X205673691Y-83035430D01*
X206714250Y-83035430D01*
X206873000Y-82876680D01*
X206873000Y-81627000D01*
X207127000Y-81627000D01*
X207127000Y-82876680D01*
X207285750Y-83035430D01*
X208326309Y-83035430D01*
X208559698Y-82938757D01*
X208738327Y-82760129D01*
X208835000Y-82526740D01*
X208835000Y-81785750D01*
X208676250Y-81627000D01*
X207127000Y-81627000D01*
X206873000Y-81627000D01*
X206853000Y-81627000D01*
X206853000Y-81373000D01*
X206873000Y-81373000D01*
X206873000Y-81353000D01*
X207127000Y-81353000D01*
X207127000Y-81373000D01*
X208676250Y-81373000D01*
X208835000Y-81214250D01*
X208835000Y-80473260D01*
X208783062Y-80347870D01*
X210000000Y-80347870D01*
X210235317Y-80303592D01*
X210451441Y-80164520D01*
X210596431Y-79952320D01*
X210603191Y-79918940D01*
X210661673Y-80060129D01*
X210840302Y-80238757D01*
X211073691Y-80335430D01*
X212114250Y-80335430D01*
X212273000Y-80176680D01*
X212273000Y-78927000D01*
X212253000Y-78927000D01*
X212253000Y-78673000D01*
X212273000Y-78673000D01*
X212273000Y-77423320D01*
X212114250Y-77264570D01*
X211073691Y-77264570D01*
X210840302Y-77361243D01*
X210661673Y-77539871D01*
X210605346Y-77675857D01*
X210603162Y-77664253D01*
X210464090Y-77448129D01*
X210251890Y-77303139D01*
X210000000Y-77252130D01*
X207600000Y-77252130D01*
X207364683Y-77296408D01*
X207148559Y-77435480D01*
X207003569Y-77647680D01*
X206952560Y-77899570D01*
X206952560Y-78633992D01*
X206786799Y-78565162D01*
X206414833Y-78564838D01*
X206071057Y-78706883D01*
X205807808Y-78969673D01*
X205665162Y-79313201D01*
X205664838Y-79685167D01*
X205780285Y-79964570D01*
X205673691Y-79964570D01*
X205440302Y-80061243D01*
X205261673Y-80239871D01*
X205205346Y-80375857D01*
X205203162Y-80364253D01*
X205064090Y-80148129D01*
X204851890Y-80003139D01*
X204600000Y-79952130D01*
X204441640Y-79952130D01*
X204535000Y-79726740D01*
X204535000Y-78985750D01*
X204376250Y-78827000D01*
X202827000Y-78827000D01*
X202827000Y-78847000D01*
X202573000Y-78847000D01*
X202573000Y-78827000D01*
X202553000Y-78827000D01*
X202553000Y-78573000D01*
X202573000Y-78573000D01*
X202573000Y-77323320D01*
X202827000Y-77323320D01*
X202827000Y-78573000D01*
X204376250Y-78573000D01*
X204535000Y-78414250D01*
X204535000Y-77673260D01*
X204438327Y-77439871D01*
X204259698Y-77261243D01*
X204026309Y-77164570D01*
X202985750Y-77164570D01*
X202827000Y-77323320D01*
X202573000Y-77323320D01*
X202414250Y-77164570D01*
X201373691Y-77164570D01*
X201140302Y-77261243D01*
X200961673Y-77439871D01*
X200905346Y-77575857D01*
X200903162Y-77564253D01*
X200764090Y-77348129D01*
X200551890Y-77203139D01*
X200300000Y-77152130D01*
X197900000Y-77152130D01*
X197664683Y-77196408D01*
X197448559Y-77335480D01*
X197303569Y-77547680D01*
X197252560Y-77799570D01*
X197252560Y-79173068D01*
X197132004Y-79293624D01*
X197134838Y-79286799D01*
X197135162Y-78914833D01*
X196993117Y-78571057D01*
X196730327Y-78307808D01*
X196386799Y-78165162D01*
X196014833Y-78164838D01*
X195671057Y-78306883D01*
X195407808Y-78569673D01*
X195265162Y-78913201D01*
X195265121Y-78960077D01*
X190562599Y-83662599D01*
X190397852Y-83909161D01*
X190340000Y-84200000D01*
X190340000Y-84537537D01*
X190335000Y-84542528D01*
X190335000Y-84223260D01*
X190238327Y-83989871D01*
X190059698Y-83811243D01*
X189826309Y-83714570D01*
X188785750Y-83714570D01*
X188627000Y-83873320D01*
X188373000Y-83873320D01*
X188214250Y-83714570D01*
X187173691Y-83714570D01*
X186940302Y-83811243D01*
X186761673Y-83989871D01*
X186705346Y-84125857D01*
X186703162Y-84114253D01*
X186564090Y-83898129D01*
X186351890Y-83753139D01*
X186100000Y-83702130D01*
X184127362Y-83702130D01*
X183987401Y-83562169D01*
X183740839Y-83397422D01*
X183450000Y-83339570D01*
X181400430Y-83339570D01*
X181109591Y-83397422D01*
X181045868Y-83440000D01*
X180863028Y-83562169D01*
X179610320Y-84814878D01*
X179564833Y-84814838D01*
X179221057Y-84956883D01*
X178957808Y-85219673D01*
X178815162Y-85563201D01*
X178814838Y-85935167D01*
X155847440Y-85935167D01*
X155847440Y-85849570D01*
X155803162Y-85614253D01*
X155664090Y-85398129D01*
X155451890Y-85253139D01*
X155200000Y-85202130D01*
X152800000Y-85202130D01*
X152564683Y-85246408D01*
X152348559Y-85385480D01*
X152203569Y-85597680D01*
X152196809Y-85631060D01*
X152138327Y-85489871D01*
X151959698Y-85311243D01*
X151726309Y-85214570D01*
X150685750Y-85214570D01*
X150527000Y-85373320D01*
X150273000Y-85373320D01*
X150114250Y-85214570D01*
X149073691Y-85214570D01*
X148840302Y-85311243D01*
X148661673Y-85489871D01*
X148565000Y-85723260D01*
X147848605Y-85723260D01*
X148118372Y-84985167D01*
X174464838Y-84985167D01*
X174606883Y-85328943D01*
X174869673Y-85592192D01*
X175213201Y-85734838D01*
X175585167Y-85735162D01*
X175928943Y-85593117D01*
X175962118Y-85560000D01*
X176885432Y-85560000D01*
X177176271Y-85502148D01*
X177422833Y-85337401D01*
X181687401Y-81072833D01*
X181852148Y-80826271D01*
X181910000Y-80535432D01*
X181910000Y-80162463D01*
X181942192Y-80130327D01*
X182084838Y-79786799D01*
X182085162Y-79414833D01*
X181990267Y-79185167D01*
X184314838Y-79185167D01*
X184456883Y-79528943D01*
X184719673Y-79792192D01*
X185063201Y-79934838D01*
X185435167Y-79935162D01*
X185552560Y-79886656D01*
X185552560Y-80150430D01*
X185596838Y-80385747D01*
X185735910Y-80601871D01*
X185948110Y-80746861D01*
X186200000Y-80797870D01*
X188600000Y-80797870D01*
X188835317Y-80753592D01*
X189051441Y-80614520D01*
X189196431Y-80402320D01*
X189203191Y-80368940D01*
X189261673Y-80510129D01*
X189440302Y-80688757D01*
X189673691Y-80785430D01*
X190714250Y-80785430D01*
X190873000Y-80626680D01*
X190873000Y-79377000D01*
X191127000Y-79377000D01*
X191127000Y-80626680D01*
X191285750Y-80785430D01*
X192326309Y-80785430D01*
X192559698Y-80688757D01*
X192738327Y-80510129D01*
X192835000Y-80276740D01*
X192835000Y-79535750D01*
X192676250Y-79377000D01*
X191127000Y-79377000D01*
X190873000Y-79377000D01*
X190853000Y-79377000D01*
X190853000Y-79123000D01*
X190873000Y-79123000D01*
X190873000Y-77873320D01*
X191127000Y-77873320D01*
X191127000Y-79123000D01*
X192676250Y-79123000D01*
X192835000Y-78964250D01*
X192835000Y-78223260D01*
X192738327Y-77989871D01*
X192559698Y-77811243D01*
X192326309Y-77714570D01*
X191285750Y-77714570D01*
X191127000Y-77873320D01*
X190873000Y-77873320D01*
X190714250Y-77714570D01*
X189673691Y-77714570D01*
X189440302Y-77811243D01*
X189261673Y-77989871D01*
X189205346Y-78125857D01*
X189203162Y-78114253D01*
X189064090Y-77898129D01*
X188851890Y-77753139D01*
X188600000Y-77702130D01*
X186200000Y-77702130D01*
X185964683Y-77746408D01*
X185748559Y-77885480D01*
X185603569Y-78097680D01*
X185596708Y-78131562D01*
X185436799Y-78065162D01*
X185064833Y-78064838D01*
X184721057Y-78206883D01*
X184457808Y-78469673D01*
X184315162Y-78813201D01*
X184314838Y-79185167D01*
X181990267Y-79185167D01*
X181943117Y-79071057D01*
X181680327Y-78807808D01*
X181336799Y-78665162D01*
X180964833Y-78664838D01*
X180621057Y-78806883D01*
X180357808Y-79069673D01*
X180215162Y-79413201D01*
X180214838Y-79785167D01*
X180356883Y-80128943D01*
X180390000Y-80162118D01*
X180390000Y-80220630D01*
X179987632Y-80622998D01*
X179926252Y-80622998D01*
X180085000Y-80464250D01*
X180085000Y-79723260D01*
X179988327Y-79489871D01*
X179809698Y-79311243D01*
X179576309Y-79214570D01*
X178535750Y-79214570D01*
X178377000Y-79373320D01*
X178377000Y-80623000D01*
X178397000Y-80623000D01*
X178397000Y-80877000D01*
X178377000Y-80877000D01*
X178377000Y-82126680D01*
X178430475Y-82180155D01*
X176570630Y-84040000D01*
X175962463Y-84040000D01*
X175930327Y-84007808D01*
X175586799Y-83865162D01*
X175214833Y-83864838D01*
X174871057Y-84006883D01*
X174607808Y-84269673D01*
X174465162Y-84613201D01*
X174464838Y-84985167D01*
X148118372Y-84985167D01*
X148590840Y-83692482D01*
X149686367Y-81035750D01*
X151815000Y-81035750D01*
X151815000Y-81776740D01*
X151911673Y-82010129D01*
X152090302Y-82188757D01*
X152323691Y-82285430D01*
X153364250Y-82285430D01*
X153523000Y-82126680D01*
X153523000Y-80877000D01*
X151973750Y-80877000D01*
X151815000Y-81035750D01*
X149686367Y-81035750D01*
X149802113Y-80755060D01*
X150274049Y-79723260D01*
X151815000Y-79723260D01*
X151815000Y-80464250D01*
X151973750Y-80623000D01*
X153523000Y-80623000D01*
X153523000Y-79373320D01*
X153777000Y-79373320D01*
X153777000Y-80623000D01*
X153797000Y-80623000D01*
X153797000Y-80877000D01*
X153777000Y-80877000D01*
X153777000Y-82126680D01*
X153935750Y-82285430D01*
X154976309Y-82285430D01*
X155209698Y-82188757D01*
X155388327Y-82010129D01*
X155444654Y-81874143D01*
X155446838Y-81885747D01*
X155585910Y-82101871D01*
X155798110Y-82246861D01*
X156050000Y-82297870D01*
X158450000Y-82297870D01*
X158685317Y-82253592D01*
X158901441Y-82114520D01*
X159046431Y-81902320D01*
X159090467Y-81684862D01*
X159435167Y-81685162D01*
X159778943Y-81543117D01*
X160042192Y-81280327D01*
X160184838Y-80936799D01*
X160185162Y-80564833D01*
X160043117Y-80221057D01*
X159780327Y-79957808D01*
X159519663Y-79849570D01*
X172802560Y-79849570D01*
X172802560Y-81650430D01*
X172846838Y-81885747D01*
X172985910Y-82101871D01*
X173198110Y-82246861D01*
X173450000Y-82297870D01*
X173877328Y-82297870D01*
X173610320Y-82564878D01*
X173564833Y-82564838D01*
X173221057Y-82706883D01*
X172957808Y-82969673D01*
X172815162Y-83313201D01*
X172814838Y-83685167D01*
X172956883Y-84028943D01*
X173219673Y-84292192D01*
X173563201Y-84434838D01*
X173935167Y-84435162D01*
X174278943Y-84293117D01*
X174542192Y-84030327D01*
X174684838Y-83686799D01*
X174684879Y-83639923D01*
X175187401Y-83137401D01*
X175352148Y-82890840D01*
X175410000Y-82600000D01*
X175410000Y-82297870D01*
X175850000Y-82297870D01*
X176085317Y-82253592D01*
X176301441Y-82114520D01*
X176446431Y-81902320D01*
X176453191Y-81868940D01*
X176511673Y-82010129D01*
X176690302Y-82188757D01*
X176923691Y-82285430D01*
X177964250Y-82285430D01*
X178123000Y-82126680D01*
X178123000Y-80877000D01*
X178103000Y-80877000D01*
X178103000Y-80623000D01*
X178123000Y-80623000D01*
X178123000Y-79373320D01*
X177964250Y-79214570D01*
X176923691Y-79214570D01*
X176690302Y-79311243D01*
X176511673Y-79489871D01*
X176455346Y-79625857D01*
X176453162Y-79614253D01*
X176314090Y-79398129D01*
X176101890Y-79253139D01*
X175850000Y-79202130D01*
X173450000Y-79202130D01*
X173214683Y-79246408D01*
X172998559Y-79385480D01*
X172853569Y-79597680D01*
X172802560Y-79849570D01*
X159519663Y-79849570D01*
X159436799Y-79815162D01*
X159090909Y-79814861D01*
X159053162Y-79614253D01*
X158914090Y-79398129D01*
X158701890Y-79253139D01*
X158450000Y-79202130D01*
X156050000Y-79202130D01*
X155814683Y-79246408D01*
X155598559Y-79385480D01*
X155453569Y-79597680D01*
X155446809Y-79631060D01*
X155388327Y-79489871D01*
X155209698Y-79311243D01*
X154976309Y-79214570D01*
X153935750Y-79214570D01*
X153777000Y-79373320D01*
X153523000Y-79373320D01*
X153364250Y-79214570D01*
X152323691Y-79214570D01*
X152090302Y-79311243D01*
X151911673Y-79489871D01*
X151815000Y-79723260D01*
X150274049Y-79723260D01*
X151126841Y-77858791D01*
X152540095Y-75046258D01*
X152958161Y-74285750D01*
X156065000Y-74285750D01*
X156065000Y-75026740D01*
X156161673Y-75260129D01*
X156340302Y-75438757D01*
X156573691Y-75535430D01*
X157614250Y-75535430D01*
X157773000Y-75376680D01*
X157773000Y-74127000D01*
X156223750Y-74127000D01*
X156065000Y-74285750D01*
X152958161Y-74285750D01*
X153679663Y-72973260D01*
X156065000Y-72973260D01*
X156065000Y-73714250D01*
X156223750Y-73873000D01*
X157773000Y-73873000D01*
X157773000Y-72623320D01*
X158027000Y-72623320D01*
X158027000Y-73873000D01*
X158047000Y-73873000D01*
X158047000Y-74127000D01*
X158027000Y-74127000D01*
X158027000Y-75376680D01*
X158185750Y-75535430D01*
X159226309Y-75535430D01*
X159459698Y-75438757D01*
X159638327Y-75260129D01*
X159694654Y-75124143D01*
X159696838Y-75135747D01*
X159835910Y-75351871D01*
X160048110Y-75496861D01*
X160300000Y-75547870D01*
X160571528Y-75547870D01*
X160565162Y-75563201D01*
X160564838Y-75935167D01*
X160706883Y-76278943D01*
X160969673Y-76542192D01*
X161313201Y-76684838D01*
X161685167Y-76685162D01*
X162028943Y-76543117D01*
X162292192Y-76280327D01*
X162434838Y-75936799D01*
X162435162Y-75564833D01*
X162428153Y-75547870D01*
X162700000Y-75547870D01*
X162935317Y-75503592D01*
X163151441Y-75364520D01*
X163296431Y-75152320D01*
X163347440Y-74900430D01*
X163347440Y-73099570D01*
X163303162Y-72864253D01*
X163164090Y-72648129D01*
X162951890Y-72503139D01*
X162700000Y-72452130D01*
X160300000Y-72452130D01*
X160064683Y-72496408D01*
X159848559Y-72635480D01*
X159703569Y-72847680D01*
X159696809Y-72881060D01*
X159638327Y-72739871D01*
X159459698Y-72561243D01*
X159226309Y-72464570D01*
X158185750Y-72464570D01*
X158027000Y-72623320D01*
X157773000Y-72623320D01*
X157614250Y-72464570D01*
X156573691Y-72464570D01*
X156340302Y-72561243D01*
X156161673Y-72739871D01*
X156065000Y-72973260D01*
X153679663Y-72973260D01*
X154016811Y-72359954D01*
X155531605Y-69842581D01*
X156562754Y-68285750D01*
X159315000Y-68285750D01*
X159315000Y-69026740D01*
X159411673Y-69260129D01*
X159590302Y-69438757D01*
X159823691Y-69535430D01*
X160864250Y-69535430D01*
X161023000Y-69376680D01*
X161023000Y-68127000D01*
X159473750Y-68127000D01*
X159315000Y-68285750D01*
X156562754Y-68285750D01*
X157058676Y-67537008D01*
X157474580Y-66973260D01*
X159315000Y-66973260D01*
X159315000Y-67714250D01*
X159473750Y-67873000D01*
X161023000Y-67873000D01*
X161023000Y-66623320D01*
X161277000Y-66623320D01*
X161277000Y-67873000D01*
X161297000Y-67873000D01*
X161297000Y-68127000D01*
X161277000Y-68127000D01*
X161277000Y-69376680D01*
X161435750Y-69535430D01*
X162476309Y-69535430D01*
X162709698Y-69438757D01*
X162888327Y-69260129D01*
X162944654Y-69124143D01*
X162946838Y-69135747D01*
X163085910Y-69351871D01*
X163298110Y-69496861D01*
X163550000Y-69547870D01*
X163990000Y-69547870D01*
X163990000Y-69850000D01*
X164047852Y-70140839D01*
X164064941Y-70166415D01*
X164064838Y-70285167D01*
X164206883Y-70628943D01*
X164469673Y-70892192D01*
X164813201Y-71034838D01*
X165185167Y-71035162D01*
X165528943Y-70893117D01*
X165792192Y-70630327D01*
X165934838Y-70286799D01*
X165935162Y-69914833D01*
X165793117Y-69571057D01*
X165769970Y-69547870D01*
X165950000Y-69547870D01*
X166185317Y-69503592D01*
X166401441Y-69364520D01*
X166546431Y-69152320D01*
X166597440Y-68900430D01*
X166597440Y-67099570D01*
X166553162Y-66864253D01*
X166414090Y-66648129D01*
X166201890Y-66503139D01*
X165950000Y-66452130D01*
X163550000Y-66452130D01*
X163314683Y-66496408D01*
X163098559Y-66635480D01*
X162953569Y-66847680D01*
X162946809Y-66881060D01*
X162888327Y-66739871D01*
X162709698Y-66561243D01*
X162476309Y-66464570D01*
X161435750Y-66464570D01*
X161277000Y-66623320D01*
X161023000Y-66623320D01*
X160864250Y-66464570D01*
X159823691Y-66464570D01*
X159590302Y-66561243D01*
X159411673Y-66739871D01*
X159315000Y-66973260D01*
X157474580Y-66973260D01*
X158571342Y-65486627D01*
X160041186Y-63735637D01*
X161436006Y-62329474D01*
X162714721Y-61314542D01*
X163816968Y-60731206D01*
X164692440Y-60571031D01*
X166059604Y-60882832D01*
M02*
