G04 #@! TF.FileFunction,Legend,Top*
%FSLAX46Y46*%
G04 Gerber Fmt 4.6, Leading zero omitted, Abs format (unit mm)*
G04 Created by KiCad (PCBNEW 4.0.6) date Tuesday, 30 January 2018 'PMt' 23:50:50*
%MOMM*%
%LPD*%
G01*
G04 APERTURE LIST*
%ADD10C,0.100000*%
%ADD11C,0.150000*%
%ADD12C,0.124521*%
G04 APERTURE END LIST*
D10*
D11*
X240200000Y-92100000D02*
X240200000Y-95700000D01*
X242300000Y-92100000D02*
X242300000Y-95700000D01*
X241550000Y-94150000D02*
X240950000Y-94150000D01*
X240950000Y-94150000D02*
X241250000Y-93850000D01*
X241250000Y-93850000D02*
X241450000Y-94050000D01*
X241450000Y-94050000D02*
X241200000Y-94050000D01*
X241200000Y-94050000D02*
X241250000Y-94000000D01*
X241750000Y-93750000D02*
X240750000Y-93750000D01*
X241250000Y-94250000D02*
X241250000Y-94750000D01*
X241250000Y-93750000D02*
X241750000Y-94250000D01*
X241750000Y-94250000D02*
X240750000Y-94250000D01*
X240750000Y-94250000D02*
X241250000Y-93750000D01*
X232450000Y-79650000D02*
X236050000Y-79650000D01*
X232450000Y-77550000D02*
X236050000Y-77550000D01*
X234500000Y-78300000D02*
X234500000Y-78900000D01*
X234500000Y-78900000D02*
X234200000Y-78600000D01*
X234200000Y-78600000D02*
X234400000Y-78400000D01*
X234400000Y-78400000D02*
X234400000Y-78650000D01*
X234400000Y-78650000D02*
X234350000Y-78600000D01*
X234100000Y-78100000D02*
X234100000Y-79100000D01*
X234600000Y-78600000D02*
X235100000Y-78600000D01*
X234100000Y-78600000D02*
X234600000Y-78100000D01*
X234600000Y-78100000D02*
X234600000Y-79100000D01*
X234600000Y-79100000D02*
X234100000Y-78600000D01*
X227250000Y-82350000D02*
X230850000Y-82350000D01*
X227250000Y-80250000D02*
X230850000Y-80250000D01*
X229300000Y-81000000D02*
X229300000Y-81600000D01*
X229300000Y-81600000D02*
X229000000Y-81300000D01*
X229000000Y-81300000D02*
X229200000Y-81100000D01*
X229200000Y-81100000D02*
X229200000Y-81350000D01*
X229200000Y-81350000D02*
X229150000Y-81300000D01*
X228900000Y-80800000D02*
X228900000Y-81800000D01*
X229400000Y-81300000D02*
X229900000Y-81300000D01*
X228900000Y-81300000D02*
X229400000Y-80800000D01*
X229400000Y-80800000D02*
X229400000Y-81800000D01*
X229400000Y-81800000D02*
X228900000Y-81300000D01*
X232550000Y-85350000D02*
X236150000Y-85350000D01*
X232550000Y-83250000D02*
X236150000Y-83250000D01*
X234600000Y-84000000D02*
X234600000Y-84600000D01*
X234600000Y-84600000D02*
X234300000Y-84300000D01*
X234300000Y-84300000D02*
X234500000Y-84100000D01*
X234500000Y-84100000D02*
X234500000Y-84350000D01*
X234500000Y-84350000D02*
X234450000Y-84300000D01*
X234200000Y-83800000D02*
X234200000Y-84800000D01*
X234700000Y-84300000D02*
X235200000Y-84300000D01*
X234200000Y-84300000D02*
X234700000Y-83800000D01*
X234700000Y-83800000D02*
X234700000Y-84800000D01*
X234700000Y-84800000D02*
X234200000Y-84300000D01*
X229300000Y-90300000D02*
X232900000Y-90300000D01*
X229300000Y-88200000D02*
X232900000Y-88200000D01*
X231350000Y-88950000D02*
X231350000Y-89550000D01*
X231350000Y-89550000D02*
X231050000Y-89250000D01*
X231050000Y-89250000D02*
X231250000Y-89050000D01*
X231250000Y-89050000D02*
X231250000Y-89300000D01*
X231250000Y-89300000D02*
X231200000Y-89250000D01*
X230950000Y-88750000D02*
X230950000Y-89750000D01*
X231450000Y-89250000D02*
X231950000Y-89250000D01*
X230950000Y-89250000D02*
X231450000Y-88750000D01*
X231450000Y-88750000D02*
X231450000Y-89750000D01*
X231450000Y-89750000D02*
X230950000Y-89250000D01*
X227250000Y-96450000D02*
X230850000Y-96450000D01*
X227250000Y-94350000D02*
X230850000Y-94350000D01*
X229300000Y-95100000D02*
X229300000Y-95700000D01*
X229300000Y-95700000D02*
X229000000Y-95400000D01*
X229000000Y-95400000D02*
X229200000Y-95200000D01*
X229200000Y-95200000D02*
X229200000Y-95450000D01*
X229200000Y-95450000D02*
X229150000Y-95400000D01*
X228900000Y-94900000D02*
X228900000Y-95900000D01*
X229400000Y-95400000D02*
X229900000Y-95400000D01*
X228900000Y-95400000D02*
X229400000Y-94900000D01*
X229400000Y-94900000D02*
X229400000Y-95900000D01*
X229400000Y-95900000D02*
X228900000Y-95400000D01*
X218050000Y-90250000D02*
X221650000Y-90250000D01*
X218050000Y-88150000D02*
X221650000Y-88150000D01*
X220100000Y-88900000D02*
X220100000Y-89500000D01*
X220100000Y-89500000D02*
X219800000Y-89200000D01*
X219800000Y-89200000D02*
X220000000Y-89000000D01*
X220000000Y-89000000D02*
X220000000Y-89250000D01*
X220000000Y-89250000D02*
X219950000Y-89200000D01*
X219700000Y-88700000D02*
X219700000Y-89700000D01*
X220200000Y-89200000D02*
X220700000Y-89200000D01*
X219700000Y-89200000D02*
X220200000Y-88700000D01*
X220200000Y-88700000D02*
X220200000Y-89700000D01*
X220200000Y-89700000D02*
X219700000Y-89200000D01*
X215250000Y-95550000D02*
X218850000Y-95550000D01*
X215250000Y-93450000D02*
X218850000Y-93450000D01*
X217300000Y-94200000D02*
X217300000Y-94800000D01*
X217300000Y-94800000D02*
X217000000Y-94500000D01*
X217000000Y-94500000D02*
X217200000Y-94300000D01*
X217200000Y-94300000D02*
X217200000Y-94550000D01*
X217200000Y-94550000D02*
X217150000Y-94500000D01*
X216900000Y-94000000D02*
X216900000Y-95000000D01*
X217400000Y-94500000D02*
X217900000Y-94500000D01*
X216900000Y-94500000D02*
X217400000Y-94000000D01*
X217400000Y-94000000D02*
X217400000Y-95000000D01*
X217400000Y-95000000D02*
X216900000Y-94500000D01*
X204450000Y-101950000D02*
X208050000Y-101950000D01*
X204450000Y-99850000D02*
X208050000Y-99850000D01*
X206500000Y-100600000D02*
X206500000Y-101200000D01*
X206500000Y-101200000D02*
X206200000Y-100900000D01*
X206200000Y-100900000D02*
X206400000Y-100700000D01*
X206400000Y-100700000D02*
X206400000Y-100950000D01*
X206400000Y-100950000D02*
X206350000Y-100900000D01*
X206100000Y-100400000D02*
X206100000Y-101400000D01*
X206600000Y-100900000D02*
X207100000Y-100900000D01*
X206100000Y-100900000D02*
X206600000Y-100400000D01*
X206600000Y-100400000D02*
X206600000Y-101400000D01*
X206600000Y-101400000D02*
X206100000Y-100900000D01*
X212650000Y-101250000D02*
X216250000Y-101250000D01*
X212650000Y-99150000D02*
X216250000Y-99150000D01*
X214700000Y-99900000D02*
X214700000Y-100500000D01*
X214700000Y-100500000D02*
X214400000Y-100200000D01*
X214400000Y-100200000D02*
X214600000Y-100000000D01*
X214600000Y-100000000D02*
X214600000Y-100250000D01*
X214600000Y-100250000D02*
X214550000Y-100200000D01*
X214300000Y-99700000D02*
X214300000Y-100700000D01*
X214800000Y-100200000D02*
X215300000Y-100200000D01*
X214300000Y-100200000D02*
X214800000Y-99700000D01*
X214800000Y-99700000D02*
X214800000Y-100700000D01*
X214800000Y-100700000D02*
X214300000Y-100200000D01*
X229050000Y-102150000D02*
X232650000Y-102150000D01*
X229050000Y-100050000D02*
X232650000Y-100050000D01*
X231100000Y-100800000D02*
X231100000Y-101400000D01*
X231100000Y-101400000D02*
X230800000Y-101100000D01*
X230800000Y-101100000D02*
X231000000Y-100900000D01*
X231000000Y-100900000D02*
X231000000Y-101150000D01*
X231000000Y-101150000D02*
X230950000Y-101100000D01*
X230700000Y-100600000D02*
X230700000Y-101600000D01*
X231200000Y-101100000D02*
X231700000Y-101100000D01*
X230700000Y-101100000D02*
X231200000Y-100600000D01*
X231200000Y-100600000D02*
X231200000Y-101600000D01*
X231200000Y-101600000D02*
X230700000Y-101100000D01*
X236650000Y-96550000D02*
X236650000Y-100150000D01*
X238750000Y-96550000D02*
X238750000Y-100150000D01*
X238000000Y-98600000D02*
X237400000Y-98600000D01*
X237400000Y-98600000D02*
X237700000Y-98300000D01*
X237700000Y-98300000D02*
X237900000Y-98500000D01*
X237900000Y-98500000D02*
X237650000Y-98500000D01*
X237650000Y-98500000D02*
X237700000Y-98450000D01*
X238200000Y-98200000D02*
X237200000Y-98200000D01*
X237700000Y-98700000D02*
X237700000Y-99200000D01*
X237700000Y-98200000D02*
X238200000Y-98700000D01*
X238200000Y-98700000D02*
X237200000Y-98700000D01*
X237200000Y-98700000D02*
X237700000Y-98200000D01*
X220950000Y-85750000D02*
X224550000Y-85750000D01*
X220950000Y-83650000D02*
X224550000Y-83650000D01*
X223000000Y-84400000D02*
X223000000Y-85000000D01*
X223000000Y-85000000D02*
X222700000Y-84700000D01*
X222700000Y-84700000D02*
X222900000Y-84500000D01*
X222900000Y-84500000D02*
X222900000Y-84750000D01*
X222900000Y-84750000D02*
X222850000Y-84700000D01*
X222600000Y-84200000D02*
X222600000Y-85200000D01*
X223100000Y-84700000D02*
X223600000Y-84700000D01*
X222600000Y-84700000D02*
X223100000Y-84200000D01*
X223100000Y-84200000D02*
X223100000Y-85200000D01*
X223100000Y-85200000D02*
X222600000Y-84700000D01*
X223150000Y-79650000D02*
X226750000Y-79650000D01*
X223150000Y-77550000D02*
X226750000Y-77550000D01*
X225200000Y-78300000D02*
X225200000Y-78900000D01*
X225200000Y-78900000D02*
X224900000Y-78600000D01*
X224900000Y-78600000D02*
X225100000Y-78400000D01*
X225100000Y-78400000D02*
X225100000Y-78650000D01*
X225100000Y-78650000D02*
X225050000Y-78600000D01*
X224800000Y-78100000D02*
X224800000Y-79100000D01*
X225300000Y-78600000D02*
X225800000Y-78600000D01*
X224800000Y-78600000D02*
X225300000Y-78100000D01*
X225300000Y-78100000D02*
X225300000Y-79100000D01*
X225300000Y-79100000D02*
X224800000Y-78600000D01*
X203050000Y-97050000D02*
X206650000Y-97050000D01*
X203050000Y-94950000D02*
X206650000Y-94950000D01*
X205100000Y-95700000D02*
X205100000Y-96300000D01*
X205100000Y-96300000D02*
X204800000Y-96000000D01*
X204800000Y-96000000D02*
X205000000Y-95800000D01*
X205000000Y-95800000D02*
X205000000Y-96050000D01*
X205000000Y-96050000D02*
X204950000Y-96000000D01*
X204700000Y-95500000D02*
X204700000Y-96500000D01*
X205200000Y-96000000D02*
X205700000Y-96000000D01*
X204700000Y-96000000D02*
X205200000Y-95500000D01*
X205200000Y-95500000D02*
X205200000Y-96500000D01*
X205200000Y-96500000D02*
X204700000Y-96000000D01*
X205300000Y-90800000D02*
X208900000Y-90800000D01*
X205300000Y-88700000D02*
X208900000Y-88700000D01*
X207350000Y-89450000D02*
X207350000Y-90050000D01*
X207350000Y-90050000D02*
X207050000Y-89750000D01*
X207050000Y-89750000D02*
X207250000Y-89550000D01*
X207250000Y-89550000D02*
X207250000Y-89800000D01*
X207250000Y-89800000D02*
X207200000Y-89750000D01*
X206950000Y-89250000D02*
X206950000Y-90250000D01*
X207450000Y-89750000D02*
X207950000Y-89750000D01*
X206950000Y-89750000D02*
X207450000Y-89250000D01*
X207450000Y-89250000D02*
X207450000Y-90250000D01*
X207450000Y-90250000D02*
X206950000Y-89750000D01*
X195350000Y-86050000D02*
X198950000Y-86050000D01*
X195350000Y-83950000D02*
X198950000Y-83950000D01*
X197400000Y-84700000D02*
X197400000Y-85300000D01*
X197400000Y-85300000D02*
X197100000Y-85000000D01*
X197100000Y-85000000D02*
X197300000Y-84800000D01*
X197300000Y-84800000D02*
X197300000Y-85050000D01*
X197300000Y-85050000D02*
X197250000Y-85000000D01*
X197000000Y-84500000D02*
X197000000Y-85500000D01*
X197500000Y-85000000D02*
X198000000Y-85000000D01*
X197000000Y-85000000D02*
X197500000Y-84500000D01*
X197500000Y-84500000D02*
X197500000Y-85500000D01*
X197500000Y-85500000D02*
X197000000Y-85000000D01*
X198750000Y-79750000D02*
X202350000Y-79750000D01*
X198750000Y-77650000D02*
X202350000Y-77650000D01*
X200800000Y-78400000D02*
X200800000Y-79000000D01*
X200800000Y-79000000D02*
X200500000Y-78700000D01*
X200500000Y-78700000D02*
X200700000Y-78500000D01*
X200700000Y-78500000D02*
X200700000Y-78750000D01*
X200700000Y-78750000D02*
X200650000Y-78700000D01*
X200400000Y-78200000D02*
X200400000Y-79200000D01*
X200900000Y-78700000D02*
X201400000Y-78700000D01*
X200400000Y-78700000D02*
X200900000Y-78200000D01*
X200900000Y-78200000D02*
X200900000Y-79200000D01*
X200900000Y-79200000D02*
X200400000Y-78700000D01*
X203050000Y-82550000D02*
X206650000Y-82550000D01*
X203050000Y-80450000D02*
X206650000Y-80450000D01*
X205100000Y-81200000D02*
X205100000Y-81800000D01*
X205100000Y-81800000D02*
X204800000Y-81500000D01*
X204800000Y-81500000D02*
X205000000Y-81300000D01*
X205000000Y-81300000D02*
X205000000Y-81550000D01*
X205000000Y-81550000D02*
X204950000Y-81500000D01*
X204700000Y-81000000D02*
X204700000Y-82000000D01*
X205200000Y-81500000D02*
X205700000Y-81500000D01*
X204700000Y-81500000D02*
X205200000Y-81000000D01*
X205200000Y-81000000D02*
X205200000Y-82000000D01*
X205200000Y-82000000D02*
X204700000Y-81500000D01*
X208450000Y-79850000D02*
X212050000Y-79850000D01*
X208450000Y-77750000D02*
X212050000Y-77750000D01*
X210500000Y-78500000D02*
X210500000Y-79100000D01*
X210500000Y-79100000D02*
X210200000Y-78800000D01*
X210200000Y-78800000D02*
X210400000Y-78600000D01*
X210400000Y-78600000D02*
X210400000Y-78850000D01*
X210400000Y-78850000D02*
X210350000Y-78800000D01*
X210100000Y-78300000D02*
X210100000Y-79300000D01*
X210600000Y-78800000D02*
X211100000Y-78800000D01*
X210100000Y-78800000D02*
X210600000Y-78300000D01*
X210600000Y-78300000D02*
X210600000Y-79300000D01*
X210600000Y-79300000D02*
X210100000Y-78800000D01*
X208150000Y-85950000D02*
X211750000Y-85950000D01*
X208150000Y-83850000D02*
X211750000Y-83850000D01*
X210200000Y-84600000D02*
X210200000Y-85200000D01*
X210200000Y-85200000D02*
X209900000Y-84900000D01*
X209900000Y-84900000D02*
X210100000Y-84700000D01*
X210100000Y-84700000D02*
X210100000Y-84950000D01*
X210100000Y-84950000D02*
X210050000Y-84900000D01*
X209800000Y-84400000D02*
X209800000Y-85400000D01*
X210300000Y-84900000D02*
X210800000Y-84900000D01*
X209800000Y-84900000D02*
X210300000Y-84400000D01*
X210300000Y-84400000D02*
X210300000Y-85400000D01*
X210300000Y-85400000D02*
X209800000Y-84900000D01*
X193550000Y-91300000D02*
X197150000Y-91300000D01*
X193550000Y-89200000D02*
X197150000Y-89200000D01*
X195600000Y-89950000D02*
X195600000Y-90550000D01*
X195600000Y-90550000D02*
X195300000Y-90250000D01*
X195300000Y-90250000D02*
X195500000Y-90050000D01*
X195500000Y-90050000D02*
X195500000Y-90300000D01*
X195500000Y-90300000D02*
X195450000Y-90250000D01*
X195200000Y-89750000D02*
X195200000Y-90750000D01*
X195700000Y-90250000D02*
X196200000Y-90250000D01*
X195200000Y-90250000D02*
X195700000Y-89750000D01*
X195700000Y-89750000D02*
X195700000Y-90750000D01*
X195700000Y-90750000D02*
X195200000Y-90250000D01*
X190050000Y-97050000D02*
X193650000Y-97050000D01*
X190050000Y-94950000D02*
X193650000Y-94950000D01*
X192100000Y-95700000D02*
X192100000Y-96300000D01*
X192100000Y-96300000D02*
X191800000Y-96000000D01*
X191800000Y-96000000D02*
X192000000Y-95800000D01*
X192000000Y-95800000D02*
X192000000Y-96050000D01*
X192000000Y-96050000D02*
X191950000Y-96000000D01*
X191700000Y-95500000D02*
X191700000Y-96500000D01*
X192200000Y-96000000D02*
X192700000Y-96000000D01*
X191700000Y-96000000D02*
X192200000Y-95500000D01*
X192200000Y-95500000D02*
X192200000Y-96500000D01*
X192200000Y-96500000D02*
X191700000Y-96000000D01*
X183100000Y-101800000D02*
X186700000Y-101800000D01*
X183100000Y-99700000D02*
X186700000Y-99700000D01*
X185150000Y-100450000D02*
X185150000Y-101050000D01*
X185150000Y-101050000D02*
X184850000Y-100750000D01*
X184850000Y-100750000D02*
X185050000Y-100550000D01*
X185050000Y-100550000D02*
X185050000Y-100800000D01*
X185050000Y-100800000D02*
X185000000Y-100750000D01*
X184750000Y-100250000D02*
X184750000Y-101250000D01*
X185250000Y-100750000D02*
X185750000Y-100750000D01*
X184750000Y-100750000D02*
X185250000Y-100250000D01*
X185250000Y-100250000D02*
X185250000Y-101250000D01*
X185250000Y-101250000D02*
X184750000Y-100750000D01*
X176350000Y-105050000D02*
X179950000Y-105050000D01*
X176350000Y-102950000D02*
X179950000Y-102950000D01*
X178400000Y-103700000D02*
X178400000Y-104300000D01*
X178400000Y-104300000D02*
X178100000Y-104000000D01*
X178100000Y-104000000D02*
X178300000Y-103800000D01*
X178300000Y-103800000D02*
X178300000Y-104050000D01*
X178300000Y-104050000D02*
X178250000Y-104000000D01*
X178000000Y-103500000D02*
X178000000Y-104500000D01*
X178500000Y-104000000D02*
X179000000Y-104000000D01*
X178000000Y-104000000D02*
X178500000Y-103500000D01*
X178500000Y-103500000D02*
X178500000Y-104500000D01*
X178500000Y-104500000D02*
X178000000Y-104000000D01*
X168050000Y-108050000D02*
X171650000Y-108050000D01*
X168050000Y-105950000D02*
X171650000Y-105950000D01*
X170100000Y-106700000D02*
X170100000Y-107300000D01*
X170100000Y-107300000D02*
X169800000Y-107000000D01*
X169800000Y-107000000D02*
X170000000Y-106800000D01*
X170000000Y-106800000D02*
X170000000Y-107050000D01*
X170000000Y-107050000D02*
X169950000Y-107000000D01*
X169700000Y-106500000D02*
X169700000Y-107500000D01*
X170200000Y-107000000D02*
X170700000Y-107000000D01*
X169700000Y-107000000D02*
X170200000Y-106500000D01*
X170200000Y-106500000D02*
X170200000Y-107500000D01*
X170200000Y-107500000D02*
X169700000Y-107000000D01*
X162800000Y-114300000D02*
X166400000Y-114300000D01*
X162800000Y-112200000D02*
X166400000Y-112200000D01*
X164850000Y-112950000D02*
X164850000Y-113550000D01*
X164850000Y-113550000D02*
X164550000Y-113250000D01*
X164550000Y-113250000D02*
X164750000Y-113050000D01*
X164750000Y-113050000D02*
X164750000Y-113300000D01*
X164750000Y-113300000D02*
X164700000Y-113250000D01*
X164450000Y-112750000D02*
X164450000Y-113750000D01*
X164950000Y-113250000D02*
X165450000Y-113250000D01*
X164450000Y-113250000D02*
X164950000Y-112750000D01*
X164950000Y-112750000D02*
X164950000Y-113750000D01*
X164950000Y-113750000D02*
X164450000Y-113250000D01*
X163300000Y-123550000D02*
X166900000Y-123550000D01*
X163300000Y-121450000D02*
X166900000Y-121450000D01*
X165350000Y-122200000D02*
X165350000Y-122800000D01*
X165350000Y-122800000D02*
X165050000Y-122500000D01*
X165050000Y-122500000D02*
X165250000Y-122300000D01*
X165250000Y-122300000D02*
X165250000Y-122550000D01*
X165250000Y-122550000D02*
X165200000Y-122500000D01*
X164950000Y-122000000D02*
X164950000Y-123000000D01*
X165450000Y-122500000D02*
X165950000Y-122500000D01*
X164950000Y-122500000D02*
X165450000Y-122000000D01*
X165450000Y-122000000D02*
X165450000Y-123000000D01*
X165450000Y-123000000D02*
X164950000Y-122500000D01*
X169050000Y-118550000D02*
X172650000Y-118550000D01*
X169050000Y-116450000D02*
X172650000Y-116450000D01*
X171100000Y-117200000D02*
X171100000Y-117800000D01*
X171100000Y-117800000D02*
X170800000Y-117500000D01*
X170800000Y-117500000D02*
X171000000Y-117300000D01*
X171000000Y-117300000D02*
X171000000Y-117550000D01*
X171000000Y-117550000D02*
X170950000Y-117500000D01*
X170700000Y-117000000D02*
X170700000Y-118000000D01*
X171200000Y-117500000D02*
X171700000Y-117500000D01*
X170700000Y-117500000D02*
X171200000Y-117000000D01*
X171200000Y-117000000D02*
X171200000Y-118000000D01*
X171200000Y-118000000D02*
X170700000Y-117500000D01*
X173300000Y-111550000D02*
X176900000Y-111550000D01*
X173300000Y-109450000D02*
X176900000Y-109450000D01*
X175350000Y-110200000D02*
X175350000Y-110800000D01*
X175350000Y-110800000D02*
X175050000Y-110500000D01*
X175050000Y-110500000D02*
X175250000Y-110300000D01*
X175250000Y-110300000D02*
X175250000Y-110550000D01*
X175250000Y-110550000D02*
X175200000Y-110500000D01*
X174950000Y-110000000D02*
X174950000Y-111000000D01*
X175450000Y-110500000D02*
X175950000Y-110500000D01*
X174950000Y-110500000D02*
X175450000Y-110000000D01*
X175450000Y-110000000D02*
X175450000Y-111000000D01*
X175450000Y-111000000D02*
X174950000Y-110500000D01*
X178550000Y-98300000D02*
X182150000Y-98300000D01*
X178550000Y-96200000D02*
X182150000Y-96200000D01*
X180600000Y-96950000D02*
X180600000Y-97550000D01*
X180600000Y-97550000D02*
X180300000Y-97250000D01*
X180300000Y-97250000D02*
X180500000Y-97050000D01*
X180500000Y-97050000D02*
X180500000Y-97300000D01*
X180500000Y-97300000D02*
X180450000Y-97250000D01*
X180200000Y-96750000D02*
X180200000Y-97750000D01*
X180700000Y-97250000D02*
X181200000Y-97250000D01*
X180200000Y-97250000D02*
X180700000Y-96750000D01*
X180700000Y-96750000D02*
X180700000Y-97750000D01*
X180700000Y-97750000D02*
X180200000Y-97250000D01*
X181550000Y-92050000D02*
X185150000Y-92050000D01*
X181550000Y-89950000D02*
X185150000Y-89950000D01*
X183600000Y-90700000D02*
X183600000Y-91300000D01*
X183600000Y-91300000D02*
X183300000Y-91000000D01*
X183300000Y-91000000D02*
X183500000Y-90800000D01*
X183500000Y-90800000D02*
X183500000Y-91050000D01*
X183500000Y-91050000D02*
X183450000Y-91000000D01*
X183200000Y-90500000D02*
X183200000Y-91500000D01*
X183700000Y-91000000D02*
X184200000Y-91000000D01*
X183200000Y-91000000D02*
X183700000Y-90500000D01*
X183700000Y-90500000D02*
X183700000Y-91500000D01*
X183700000Y-91500000D02*
X183200000Y-91000000D01*
X184550000Y-86300000D02*
X188150000Y-86300000D01*
X184550000Y-84200000D02*
X188150000Y-84200000D01*
X186600000Y-84950000D02*
X186600000Y-85550000D01*
X186600000Y-85550000D02*
X186300000Y-85250000D01*
X186300000Y-85250000D02*
X186500000Y-85050000D01*
X186500000Y-85050000D02*
X186500000Y-85300000D01*
X186500000Y-85300000D02*
X186450000Y-85250000D01*
X186200000Y-84750000D02*
X186200000Y-85750000D01*
X186700000Y-85250000D02*
X187200000Y-85250000D01*
X186200000Y-85250000D02*
X186700000Y-84750000D01*
X186700000Y-84750000D02*
X186700000Y-85750000D01*
X186700000Y-85750000D02*
X186200000Y-85250000D01*
X187050000Y-80300000D02*
X190650000Y-80300000D01*
X187050000Y-78200000D02*
X190650000Y-78200000D01*
X189100000Y-78950000D02*
X189100000Y-79550000D01*
X189100000Y-79550000D02*
X188800000Y-79250000D01*
X188800000Y-79250000D02*
X189000000Y-79050000D01*
X189000000Y-79050000D02*
X189000000Y-79300000D01*
X189000000Y-79300000D02*
X188950000Y-79250000D01*
X188700000Y-78750000D02*
X188700000Y-79750000D01*
X189200000Y-79250000D02*
X189700000Y-79250000D01*
X188700000Y-79250000D02*
X189200000Y-78750000D01*
X189200000Y-78750000D02*
X189200000Y-79750000D01*
X189200000Y-79750000D02*
X188700000Y-79250000D01*
X170050000Y-101550000D02*
X173650000Y-101550000D01*
X170050000Y-99450000D02*
X173650000Y-99450000D01*
X172100000Y-100200000D02*
X172100000Y-100800000D01*
X172100000Y-100800000D02*
X171800000Y-100500000D01*
X171800000Y-100500000D02*
X172000000Y-100300000D01*
X172000000Y-100300000D02*
X172000000Y-100550000D01*
X172000000Y-100550000D02*
X171950000Y-100500000D01*
X171700000Y-100000000D02*
X171700000Y-101000000D01*
X172200000Y-100500000D02*
X172700000Y-100500000D01*
X171700000Y-100500000D02*
X172200000Y-100000000D01*
X172200000Y-100000000D02*
X172200000Y-101000000D01*
X172200000Y-101000000D02*
X171700000Y-100500000D01*
X167050000Y-95050000D02*
X170650000Y-95050000D01*
X167050000Y-92950000D02*
X170650000Y-92950000D01*
X169100000Y-93700000D02*
X169100000Y-94300000D01*
X169100000Y-94300000D02*
X168800000Y-94000000D01*
X168800000Y-94000000D02*
X169000000Y-93800000D01*
X169000000Y-93800000D02*
X169000000Y-94050000D01*
X169000000Y-94050000D02*
X168950000Y-94000000D01*
X168700000Y-93500000D02*
X168700000Y-94500000D01*
X169200000Y-94000000D02*
X169700000Y-94000000D01*
X168700000Y-94000000D02*
X169200000Y-93500000D01*
X169200000Y-93500000D02*
X169200000Y-94500000D01*
X169200000Y-94500000D02*
X168700000Y-94000000D01*
X170550000Y-88800000D02*
X174150000Y-88800000D01*
X170550000Y-86700000D02*
X174150000Y-86700000D01*
X172600000Y-87450000D02*
X172600000Y-88050000D01*
X172600000Y-88050000D02*
X172300000Y-87750000D01*
X172300000Y-87750000D02*
X172500000Y-87550000D01*
X172500000Y-87550000D02*
X172500000Y-87800000D01*
X172500000Y-87800000D02*
X172450000Y-87750000D01*
X172200000Y-87250000D02*
X172200000Y-88250000D01*
X172700000Y-87750000D02*
X173200000Y-87750000D01*
X172200000Y-87750000D02*
X172700000Y-87250000D01*
X172700000Y-87250000D02*
X172700000Y-88250000D01*
X172700000Y-88250000D02*
X172200000Y-87750000D01*
X174300000Y-81800000D02*
X177900000Y-81800000D01*
X174300000Y-79700000D02*
X177900000Y-79700000D01*
X176350000Y-80450000D02*
X176350000Y-81050000D01*
X176350000Y-81050000D02*
X176050000Y-80750000D01*
X176050000Y-80750000D02*
X176250000Y-80550000D01*
X176250000Y-80550000D02*
X176250000Y-80800000D01*
X176250000Y-80800000D02*
X176200000Y-80750000D01*
X175950000Y-80250000D02*
X175950000Y-81250000D01*
X176450000Y-80750000D02*
X176950000Y-80750000D01*
X175950000Y-80750000D02*
X176450000Y-80250000D01*
X176450000Y-80250000D02*
X176450000Y-81250000D01*
X176450000Y-81250000D02*
X175950000Y-80750000D01*
X162850000Y-97200000D02*
X159250000Y-97200000D01*
X162850000Y-99300000D02*
X159250000Y-99300000D01*
X160800000Y-98550000D02*
X160800000Y-97950000D01*
X160800000Y-97950000D02*
X161100000Y-98250000D01*
X161100000Y-98250000D02*
X160900000Y-98450000D01*
X160900000Y-98450000D02*
X160900000Y-98200000D01*
X160900000Y-98200000D02*
X160950000Y-98250000D01*
X161200000Y-98750000D02*
X161200000Y-97750000D01*
X160700000Y-98250000D02*
X160200000Y-98250000D01*
X161200000Y-98250000D02*
X160700000Y-98750000D01*
X160700000Y-98750000D02*
X160700000Y-97750000D01*
X160700000Y-97750000D02*
X161200000Y-98250000D01*
X152850000Y-98950000D02*
X149250000Y-98950000D01*
X152850000Y-101050000D02*
X149250000Y-101050000D01*
X150800000Y-100300000D02*
X150800000Y-99700000D01*
X150800000Y-99700000D02*
X151100000Y-100000000D01*
X151100000Y-100000000D02*
X150900000Y-100200000D01*
X150900000Y-100200000D02*
X150900000Y-99950000D01*
X150900000Y-99950000D02*
X150950000Y-100000000D01*
X151200000Y-100500000D02*
X151200000Y-99500000D01*
X150700000Y-100000000D02*
X150200000Y-100000000D01*
X151200000Y-100000000D02*
X150700000Y-100500000D01*
X150700000Y-100500000D02*
X150700000Y-99500000D01*
X150700000Y-99500000D02*
X151200000Y-100000000D01*
X151100000Y-92450000D02*
X147500000Y-92450000D01*
X151100000Y-94550000D02*
X147500000Y-94550000D01*
X149050000Y-93800000D02*
X149050000Y-93200000D01*
X149050000Y-93200000D02*
X149350000Y-93500000D01*
X149350000Y-93500000D02*
X149150000Y-93700000D01*
X149150000Y-93700000D02*
X149150000Y-93450000D01*
X149150000Y-93450000D02*
X149200000Y-93500000D01*
X149450000Y-94000000D02*
X149450000Y-93000000D01*
X148950000Y-93500000D02*
X148450000Y-93500000D01*
X149450000Y-93500000D02*
X148950000Y-94000000D01*
X148950000Y-94000000D02*
X148950000Y-93000000D01*
X148950000Y-93000000D02*
X149450000Y-93500000D01*
X154350000Y-85700000D02*
X150750000Y-85700000D01*
X154350000Y-87800000D02*
X150750000Y-87800000D01*
X152300000Y-87050000D02*
X152300000Y-86450000D01*
X152300000Y-86450000D02*
X152600000Y-86750000D01*
X152600000Y-86750000D02*
X152400000Y-86950000D01*
X152400000Y-86950000D02*
X152400000Y-86700000D01*
X152400000Y-86700000D02*
X152450000Y-86750000D01*
X152700000Y-87250000D02*
X152700000Y-86250000D01*
X152200000Y-86750000D02*
X151700000Y-86750000D01*
X152700000Y-86750000D02*
X152200000Y-87250000D01*
X152200000Y-87250000D02*
X152200000Y-86250000D01*
X152200000Y-86250000D02*
X152700000Y-86750000D01*
X157600000Y-79700000D02*
X154000000Y-79700000D01*
X157600000Y-81800000D02*
X154000000Y-81800000D01*
X155550000Y-81050000D02*
X155550000Y-80450000D01*
X155550000Y-80450000D02*
X155850000Y-80750000D01*
X155850000Y-80750000D02*
X155650000Y-80950000D01*
X155650000Y-80950000D02*
X155650000Y-80700000D01*
X155650000Y-80700000D02*
X155700000Y-80750000D01*
X155950000Y-81250000D02*
X155950000Y-80250000D01*
X155450000Y-80750000D02*
X154950000Y-80750000D01*
X155950000Y-80750000D02*
X155450000Y-81250000D01*
X155450000Y-81250000D02*
X155450000Y-80250000D01*
X155450000Y-80250000D02*
X155950000Y-80750000D01*
X161850000Y-72950000D02*
X158250000Y-72950000D01*
X161850000Y-75050000D02*
X158250000Y-75050000D01*
X159800000Y-74300000D02*
X159800000Y-73700000D01*
X159800000Y-73700000D02*
X160100000Y-74000000D01*
X160100000Y-74000000D02*
X159900000Y-74200000D01*
X159900000Y-74200000D02*
X159900000Y-73950000D01*
X159900000Y-73950000D02*
X159950000Y-74000000D01*
X160200000Y-74500000D02*
X160200000Y-73500000D01*
X159700000Y-74000000D02*
X159200000Y-74000000D01*
X160200000Y-74000000D02*
X159700000Y-74500000D01*
X159700000Y-74500000D02*
X159700000Y-73500000D01*
X159700000Y-73500000D02*
X160200000Y-74000000D01*
X165100000Y-66950000D02*
X161500000Y-66950000D01*
X165100000Y-69050000D02*
X161500000Y-69050000D01*
X163050000Y-68300000D02*
X163050000Y-67700000D01*
X163050000Y-67700000D02*
X163350000Y-68000000D01*
X163350000Y-68000000D02*
X163150000Y-68200000D01*
X163150000Y-68200000D02*
X163150000Y-67950000D01*
X163150000Y-67950000D02*
X163200000Y-68000000D01*
X163450000Y-68500000D02*
X163450000Y-67500000D01*
X162950000Y-68000000D02*
X162450000Y-68000000D01*
X163450000Y-68000000D02*
X162950000Y-68500000D01*
X162950000Y-68500000D02*
X162950000Y-67500000D01*
X162950000Y-67500000D02*
X163450000Y-68000000D01*
D12*
G36*
X149853783Y-97941110D02*
X151144014Y-95214734D01*
X152471300Y-92522020D01*
X153819802Y-89877961D01*
X155173679Y-87297547D01*
X156517089Y-84795772D01*
X157834193Y-82387629D01*
X159109148Y-80088108D01*
X160326114Y-77912203D01*
X161469250Y-75874905D01*
X162522716Y-73991208D01*
X163470670Y-72276102D01*
X164907071Y-69155239D01*
X165502221Y-66699140D01*
X165473787Y-64819563D01*
X165039436Y-63428263D01*
X163533421Y-63302762D01*
X162540550Y-64765134D01*
X161353857Y-66645140D01*
X160011217Y-68874743D01*
X158550501Y-71385911D01*
X157009583Y-74110608D01*
X155426336Y-76980800D01*
X153838634Y-79928451D01*
X152284349Y-82885528D01*
X150801355Y-85783996D01*
X149427524Y-88555821D01*
X148200731Y-91132966D01*
X147158847Y-93447399D01*
X146339747Y-95431085D01*
X145845586Y-97462637D01*
X146151495Y-99070622D01*
X146873128Y-100396229D01*
X147783012Y-101768899D01*
X148888992Y-102600345D01*
X150606790Y-102396405D01*
X153125852Y-101774421D01*
X156090694Y-101110268D01*
X159163968Y-100512380D01*
X162008329Y-100089190D01*
X164286428Y-99949131D01*
X164913934Y-99007871D01*
X163872739Y-97383327D01*
X162064591Y-96386289D01*
X159391878Y-96184093D01*
X157398566Y-96405681D01*
X155069929Y-96780224D01*
X152517743Y-97295955D01*
X149853783Y-97941110D01*
X149853783Y-97941110D01*
G37*
X149853783Y-97941110D02*
X151144014Y-95214734D01*
X152471300Y-92522020D01*
X153819802Y-89877961D01*
X155173679Y-87297547D01*
X156517089Y-84795772D01*
X157834193Y-82387629D01*
X159109148Y-80088108D01*
X160326114Y-77912203D01*
X161469250Y-75874905D01*
X162522716Y-73991208D01*
X163470670Y-72276102D01*
X164907071Y-69155239D01*
X165502221Y-66699140D01*
X165473787Y-64819563D01*
X165039436Y-63428263D01*
X163533421Y-63302762D01*
X162540550Y-64765134D01*
X161353857Y-66645140D01*
X160011217Y-68874743D01*
X158550501Y-71385911D01*
X157009583Y-74110608D01*
X155426336Y-76980800D01*
X153838634Y-79928451D01*
X152284349Y-82885528D01*
X150801355Y-85783996D01*
X149427524Y-88555821D01*
X148200731Y-91132966D01*
X147158847Y-93447399D01*
X146339747Y-95431085D01*
X145845586Y-97462637D01*
X146151495Y-99070622D01*
X146873128Y-100396229D01*
X147783012Y-101768899D01*
X148888992Y-102600345D01*
X150606790Y-102396405D01*
X153125852Y-101774421D01*
X156090694Y-101110268D01*
X159163968Y-100512380D01*
X162008329Y-100089190D01*
X164286428Y-99949131D01*
X164913934Y-99007871D01*
X163872739Y-97383327D01*
X162064591Y-96386289D01*
X159391878Y-96184093D01*
X157398566Y-96405681D01*
X155069929Y-96780224D01*
X152517743Y-97295955D01*
X149853783Y-97941110D01*
G36*
X192807571Y-95368334D02*
X175111893Y-105973191D01*
X173605020Y-109309515D01*
X172045936Y-112356107D01*
X170500089Y-115046785D01*
X169032926Y-117315368D01*
X167709892Y-119095672D01*
X166596436Y-120321515D01*
X165758005Y-120926715D01*
X165260044Y-120845090D01*
X165024484Y-119948688D01*
X165175723Y-118521356D01*
X165729938Y-116691047D01*
X166703309Y-114585715D01*
X168112011Y-112333310D01*
X169972224Y-110061787D01*
X172300126Y-107899096D01*
X175111893Y-105973191D01*
X192807571Y-95368334D01*
X193819425Y-93148531D01*
X193937083Y-91728798D01*
X192933072Y-91603296D01*
X191578704Y-93334458D01*
X190025626Y-95056905D01*
X188273838Y-96741005D01*
X186323339Y-98357124D01*
X184174130Y-99875631D01*
X181826210Y-101266894D01*
X183019570Y-98585448D01*
X184304037Y-95820578D01*
X185624728Y-93065587D01*
X186926758Y-90413779D01*
X188155243Y-87958454D01*
X189255300Y-85792917D01*
X190172045Y-84010470D01*
X191157462Y-81017033D01*
X191110980Y-78595323D01*
X190423047Y-76982400D01*
X188854282Y-77421654D01*
X187716636Y-79209757D01*
X186509267Y-81309869D01*
X185246120Y-83626123D01*
X183941139Y-86062649D01*
X182608270Y-88523577D01*
X181261455Y-90913040D01*
X179353836Y-93993343D01*
X177491397Y-96594733D01*
X175704259Y-98584681D01*
X174022542Y-99830658D01*
X172476367Y-100200133D01*
X171474681Y-99428533D01*
X171365448Y-97541365D01*
X172162613Y-94803579D01*
X173102892Y-92639662D01*
X174178477Y-90481629D01*
X175454080Y-88194172D01*
X176994412Y-85641986D01*
X178371984Y-83058425D01*
X179025964Y-80833719D01*
X178962233Y-78926688D01*
X178186674Y-77296153D01*
X176617908Y-77296153D01*
X174933337Y-79743061D01*
X173383781Y-82210826D01*
X171981313Y-84651149D01*
X170738009Y-87015732D01*
X169665943Y-89256277D01*
X168777190Y-91324486D01*
X168083823Y-93172062D01*
X167428706Y-95672549D01*
X167285635Y-98055567D01*
X167790150Y-100098226D01*
X169077793Y-101577635D01*
X171284105Y-102270903D01*
X173740676Y-101906020D01*
X176043856Y-100648684D01*
X178123923Y-98819619D01*
X177127757Y-101102173D01*
X176178654Y-103337664D01*
X173577521Y-104468822D01*
X171128966Y-105771218D01*
X168877993Y-107254730D01*
X166869607Y-108929239D01*
X165148813Y-110804623D01*
X163760615Y-112890762D01*
X162750019Y-115197534D01*
X162240170Y-117710500D01*
X162436266Y-119770486D01*
X163102991Y-121489265D01*
X164005031Y-122978612D01*
X165793425Y-124461096D01*
X167581818Y-124296375D01*
X169121530Y-123460914D01*
X170614932Y-122198496D01*
X172060895Y-120567858D01*
X173458288Y-118627734D01*
X174805984Y-116436859D01*
X176102851Y-114053966D01*
X177347761Y-111537791D01*
X178539583Y-108947068D01*
X179677190Y-106340533D01*
X180759450Y-103776918D01*
X183290392Y-102683431D01*
X185653999Y-101513248D01*
X187818896Y-100231508D01*
X189753707Y-98803350D01*
X191427057Y-97193913D01*
X192807571Y-95368334D01*
X192807571Y-95368334D01*
G37*
X192807571Y-95368334D02*
X175111893Y-105973191D01*
X173605020Y-109309515D01*
X172045936Y-112356107D01*
X170500089Y-115046785D01*
X169032926Y-117315368D01*
X167709892Y-119095672D01*
X166596436Y-120321515D01*
X165758005Y-120926715D01*
X165260044Y-120845090D01*
X165024484Y-119948688D01*
X165175723Y-118521356D01*
X165729938Y-116691047D01*
X166703309Y-114585715D01*
X168112011Y-112333310D01*
X169972224Y-110061787D01*
X172300126Y-107899096D01*
X175111893Y-105973191D01*
X192807571Y-95368334D01*
X193819425Y-93148531D01*
X193937083Y-91728798D01*
X192933072Y-91603296D01*
X191578704Y-93334458D01*
X190025626Y-95056905D01*
X188273838Y-96741005D01*
X186323339Y-98357124D01*
X184174130Y-99875631D01*
X181826210Y-101266894D01*
X183019570Y-98585448D01*
X184304037Y-95820578D01*
X185624728Y-93065587D01*
X186926758Y-90413779D01*
X188155243Y-87958454D01*
X189255300Y-85792917D01*
X190172045Y-84010470D01*
X191157462Y-81017033D01*
X191110980Y-78595323D01*
X190423047Y-76982400D01*
X188854282Y-77421654D01*
X187716636Y-79209757D01*
X186509267Y-81309869D01*
X185246120Y-83626123D01*
X183941139Y-86062649D01*
X182608270Y-88523577D01*
X181261455Y-90913040D01*
X179353836Y-93993343D01*
X177491397Y-96594733D01*
X175704259Y-98584681D01*
X174022542Y-99830658D01*
X172476367Y-100200133D01*
X171474681Y-99428533D01*
X171365448Y-97541365D01*
X172162613Y-94803579D01*
X173102892Y-92639662D01*
X174178477Y-90481629D01*
X175454080Y-88194172D01*
X176994412Y-85641986D01*
X178371984Y-83058425D01*
X179025964Y-80833719D01*
X178962233Y-78926688D01*
X178186674Y-77296153D01*
X176617908Y-77296153D01*
X174933337Y-79743061D01*
X173383781Y-82210826D01*
X171981313Y-84651149D01*
X170738009Y-87015732D01*
X169665943Y-89256277D01*
X168777190Y-91324486D01*
X168083823Y-93172062D01*
X167428706Y-95672549D01*
X167285635Y-98055567D01*
X167790150Y-100098226D01*
X169077793Y-101577635D01*
X171284105Y-102270903D01*
X173740676Y-101906020D01*
X176043856Y-100648684D01*
X178123923Y-98819619D01*
X177127757Y-101102173D01*
X176178654Y-103337664D01*
X173577521Y-104468822D01*
X171128966Y-105771218D01*
X168877993Y-107254730D01*
X166869607Y-108929239D01*
X165148813Y-110804623D01*
X163760615Y-112890762D01*
X162750019Y-115197534D01*
X162240170Y-117710500D01*
X162436266Y-119770486D01*
X163102991Y-121489265D01*
X164005031Y-122978612D01*
X165793425Y-124461096D01*
X167581818Y-124296375D01*
X169121530Y-123460914D01*
X170614932Y-122198496D01*
X172060895Y-120567858D01*
X173458288Y-118627734D01*
X174805984Y-116436859D01*
X176102851Y-114053966D01*
X177347761Y-111537791D01*
X178539583Y-108947068D01*
X179677190Y-106340533D01*
X180759450Y-103776918D01*
X183290392Y-102683431D01*
X185653999Y-101513248D01*
X187818896Y-100231508D01*
X189753707Y-98803350D01*
X191427057Y-97193913D01*
X192807571Y-95368334D01*
G36*
X202157414Y-83006460D02*
X202624558Y-80805540D01*
X202589697Y-78785899D01*
X201969163Y-77045150D01*
X200651399Y-77045150D01*
X199136438Y-79353932D01*
X197591326Y-81843612D01*
X196068275Y-84424477D01*
X194619495Y-87006813D01*
X193297197Y-89500905D01*
X192153591Y-91817041D01*
X191240888Y-93865506D01*
X190611298Y-95556587D01*
X190048867Y-98347827D01*
X190295221Y-100483673D01*
X191238804Y-102019901D01*
X192431067Y-101768899D01*
X193593874Y-99239481D01*
X194779733Y-96732017D01*
X196004011Y-94283828D01*
X197282075Y-91932234D01*
X198629292Y-89714557D01*
X200061031Y-87668119D01*
X201592659Y-85830239D01*
X204492914Y-83020187D01*
X207004901Y-81139629D01*
X208881537Y-80129736D01*
X209875742Y-79931679D01*
X209932973Y-80664351D01*
X209162244Y-82237184D01*
X207844190Y-84465412D01*
X206259446Y-87164270D01*
X204688647Y-90148993D01*
X203412427Y-93234813D01*
X202763423Y-95822986D01*
X202654771Y-98085204D01*
X203114362Y-99956974D01*
X204170083Y-101373802D01*
X205849824Y-102271194D01*
X208181475Y-102584657D01*
X210382265Y-102223715D01*
X212534863Y-101233259D01*
X214515775Y-99751842D01*
X216201507Y-97918018D01*
X217468565Y-95870339D01*
X218245104Y-93470128D01*
X218033323Y-91917050D01*
X216966560Y-91979802D01*
X215462554Y-94555087D01*
X213850114Y-96889411D01*
X212186470Y-98802050D01*
X210528850Y-100112283D01*
X208934482Y-100639389D01*
X207595149Y-100194251D01*
X206973525Y-98819620D01*
X207081378Y-96739044D01*
X207930473Y-94176074D01*
X208965105Y-92078697D01*
X210228653Y-89806622D01*
X211558465Y-87516475D01*
X212791892Y-85364881D01*
X213766283Y-83508466D01*
X214336922Y-81136689D01*
X213907473Y-79076703D01*
X212795610Y-77569707D01*
X211319007Y-76856899D01*
X209842108Y-77086818D01*
X208012801Y-78018539D01*
X206005785Y-79450257D01*
X203995757Y-81180167D01*
X202157414Y-83006461D01*
X202157414Y-83006460D01*
X202157414Y-83006460D01*
G37*
X202157414Y-83006460D02*
X202624558Y-80805540D01*
X202589697Y-78785899D01*
X201969163Y-77045150D01*
X200651399Y-77045150D01*
X199136438Y-79353932D01*
X197591326Y-81843612D01*
X196068275Y-84424477D01*
X194619495Y-87006813D01*
X193297197Y-89500905D01*
X192153591Y-91817041D01*
X191240888Y-93865506D01*
X190611298Y-95556587D01*
X190048867Y-98347827D01*
X190295221Y-100483673D01*
X191238804Y-102019901D01*
X192431067Y-101768899D01*
X193593874Y-99239481D01*
X194779733Y-96732017D01*
X196004011Y-94283828D01*
X197282075Y-91932234D01*
X198629292Y-89714557D01*
X200061031Y-87668119D01*
X201592659Y-85830239D01*
X204492914Y-83020187D01*
X207004901Y-81139629D01*
X208881537Y-80129736D01*
X209875742Y-79931679D01*
X209932973Y-80664351D01*
X209162244Y-82237184D01*
X207844190Y-84465412D01*
X206259446Y-87164270D01*
X204688647Y-90148993D01*
X203412427Y-93234813D01*
X202763423Y-95822986D01*
X202654771Y-98085204D01*
X203114362Y-99956974D01*
X204170083Y-101373802D01*
X205849824Y-102271194D01*
X208181475Y-102584657D01*
X210382265Y-102223715D01*
X212534863Y-101233259D01*
X214515775Y-99751842D01*
X216201507Y-97918018D01*
X217468565Y-95870339D01*
X218245104Y-93470128D01*
X218033323Y-91917050D01*
X216966560Y-91979802D01*
X215462554Y-94555087D01*
X213850114Y-96889411D01*
X212186470Y-98802050D01*
X210528850Y-100112283D01*
X208934482Y-100639389D01*
X207595149Y-100194251D01*
X206973525Y-98819620D01*
X207081378Y-96739044D01*
X207930473Y-94176074D01*
X208965105Y-92078697D01*
X210228653Y-89806622D01*
X211558465Y-87516475D01*
X212791892Y-85364881D01*
X213766283Y-83508466D01*
X214336922Y-81136689D01*
X213907473Y-79076703D01*
X212795610Y-77569707D01*
X211319007Y-76856899D01*
X209842108Y-77086818D01*
X208012801Y-78018539D01*
X206005785Y-79450257D01*
X203995757Y-81180167D01*
X202157414Y-83006461D01*
X202157414Y-83006460D01*
G36*
X226301696Y-83006460D02*
X226768843Y-80805540D01*
X226733984Y-78785899D01*
X226113451Y-77045150D01*
X224795680Y-77045150D01*
X223280718Y-79353932D01*
X221735606Y-81843612D01*
X220212555Y-84424477D01*
X218763776Y-87006813D01*
X217441479Y-89500905D01*
X216297874Y-91817041D01*
X215385172Y-93865506D01*
X214755584Y-95556587D01*
X214193151Y-98347827D01*
X214439503Y-100483673D01*
X215383083Y-102019901D01*
X216575349Y-101768899D01*
X217738159Y-99239481D01*
X218924018Y-96732017D01*
X220148296Y-94283828D01*
X221426359Y-91932234D01*
X222773576Y-89714557D01*
X224205313Y-87668119D01*
X225736939Y-85830239D01*
X228637196Y-83020187D01*
X231149184Y-81139629D01*
X233025820Y-80129736D01*
X234020021Y-79931679D01*
X234077253Y-80664351D01*
X233306525Y-82237184D01*
X231988472Y-84465412D01*
X230403729Y-87164270D01*
X228832931Y-90148993D01*
X227556715Y-93234813D01*
X226907708Y-95822986D01*
X226799055Y-98085204D01*
X227258645Y-99956974D01*
X228314367Y-101373802D01*
X229994109Y-102271194D01*
X232325760Y-102584657D01*
X234526547Y-102223715D01*
X236679144Y-101233259D01*
X238660056Y-99751842D01*
X240345790Y-97918018D01*
X241612853Y-95870339D01*
X242389392Y-93470128D01*
X242177611Y-91917050D01*
X241110848Y-91979802D01*
X239606841Y-94555087D01*
X237994400Y-96889411D01*
X236330755Y-98802050D01*
X234673132Y-100112283D01*
X233078763Y-100639389D01*
X231739432Y-100194251D01*
X231117809Y-98819620D01*
X231225661Y-96739044D01*
X232074752Y-94176074D01*
X233109384Y-92078697D01*
X234372932Y-89806622D01*
X235702743Y-87516475D01*
X236936169Y-85364881D01*
X237910560Y-83508466D01*
X238481200Y-81136689D01*
X238051751Y-79076703D01*
X236939888Y-77569707D01*
X235463285Y-76856899D01*
X233986390Y-77086818D01*
X232157084Y-78018539D01*
X230150067Y-79450257D01*
X228140038Y-81180167D01*
X226301696Y-83006461D01*
X226301696Y-83006460D01*
X226301696Y-83006460D01*
G37*
X226301696Y-83006460D02*
X226768843Y-80805540D01*
X226733984Y-78785899D01*
X226113451Y-77045150D01*
X224795680Y-77045150D01*
X223280718Y-79353932D01*
X221735606Y-81843612D01*
X220212555Y-84424477D01*
X218763776Y-87006813D01*
X217441479Y-89500905D01*
X216297874Y-91817041D01*
X215385172Y-93865506D01*
X214755584Y-95556587D01*
X214193151Y-98347827D01*
X214439503Y-100483673D01*
X215383083Y-102019901D01*
X216575349Y-101768899D01*
X217738159Y-99239481D01*
X218924018Y-96732017D01*
X220148296Y-94283828D01*
X221426359Y-91932234D01*
X222773576Y-89714557D01*
X224205313Y-87668119D01*
X225736939Y-85830239D01*
X228637196Y-83020187D01*
X231149184Y-81139629D01*
X233025820Y-80129736D01*
X234020021Y-79931679D01*
X234077253Y-80664351D01*
X233306525Y-82237184D01*
X231988472Y-84465412D01*
X230403729Y-87164270D01*
X228832931Y-90148993D01*
X227556715Y-93234813D01*
X226907708Y-95822986D01*
X226799055Y-98085204D01*
X227258645Y-99956974D01*
X228314367Y-101373802D01*
X229994109Y-102271194D01*
X232325760Y-102584657D01*
X234526547Y-102223715D01*
X236679144Y-101233259D01*
X238660056Y-99751842D01*
X240345790Y-97918018D01*
X241612853Y-95870339D01*
X242389392Y-93470128D01*
X242177611Y-91917050D01*
X241110848Y-91979802D01*
X239606841Y-94555087D01*
X237994400Y-96889411D01*
X236330755Y-98802050D01*
X234673132Y-100112283D01*
X233078763Y-100639389D01*
X231739432Y-100194251D01*
X231117809Y-98819620D01*
X231225661Y-96739044D01*
X232074752Y-94176074D01*
X233109384Y-92078697D01*
X234372932Y-89806622D01*
X235702743Y-87516475D01*
X236936169Y-85364881D01*
X237910560Y-83508466D01*
X238481200Y-81136689D01*
X238051751Y-79076703D01*
X236939888Y-77569707D01*
X235463285Y-76856899D01*
X233986390Y-77086818D01*
X232157084Y-78018539D01*
X230150067Y-79450257D01*
X228140038Y-81180167D01*
X226301696Y-83006461D01*
X226301696Y-83006460D01*
D11*
X243702381Y-94988095D02*
X242702381Y-94988095D01*
X242702381Y-94750000D01*
X242750000Y-94607142D01*
X242845238Y-94511904D01*
X242940476Y-94464285D01*
X243130952Y-94416666D01*
X243273810Y-94416666D01*
X243464286Y-94464285D01*
X243559524Y-94511904D01*
X243654762Y-94607142D01*
X243702381Y-94750000D01*
X243702381Y-94988095D01*
X243702381Y-93464285D02*
X243702381Y-94035714D01*
X243702381Y-93750000D02*
X242702381Y-93750000D01*
X242845238Y-93845238D01*
X242940476Y-93940476D01*
X242988095Y-94035714D01*
X233861905Y-77052381D02*
X233861905Y-76052381D01*
X234100000Y-76052381D01*
X234242858Y-76100000D01*
X234338096Y-76195238D01*
X234385715Y-76290476D01*
X234433334Y-76480952D01*
X234433334Y-76623810D01*
X234385715Y-76814286D01*
X234338096Y-76909524D01*
X234242858Y-77004762D01*
X234100000Y-77052381D01*
X233861905Y-77052381D01*
X234814286Y-76147619D02*
X234861905Y-76100000D01*
X234957143Y-76052381D01*
X235195239Y-76052381D01*
X235290477Y-76100000D01*
X235338096Y-76147619D01*
X235385715Y-76242857D01*
X235385715Y-76338095D01*
X235338096Y-76480952D01*
X234766667Y-77052381D01*
X235385715Y-77052381D01*
X228661905Y-79752381D02*
X228661905Y-78752381D01*
X228900000Y-78752381D01*
X229042858Y-78800000D01*
X229138096Y-78895238D01*
X229185715Y-78990476D01*
X229233334Y-79180952D01*
X229233334Y-79323810D01*
X229185715Y-79514286D01*
X229138096Y-79609524D01*
X229042858Y-79704762D01*
X228900000Y-79752381D01*
X228661905Y-79752381D01*
X229566667Y-78752381D02*
X230185715Y-78752381D01*
X229852381Y-79133333D01*
X229995239Y-79133333D01*
X230090477Y-79180952D01*
X230138096Y-79228571D01*
X230185715Y-79323810D01*
X230185715Y-79561905D01*
X230138096Y-79657143D01*
X230090477Y-79704762D01*
X229995239Y-79752381D01*
X229709524Y-79752381D01*
X229614286Y-79704762D01*
X229566667Y-79657143D01*
X233961905Y-82752381D02*
X233961905Y-81752381D01*
X234200000Y-81752381D01*
X234342858Y-81800000D01*
X234438096Y-81895238D01*
X234485715Y-81990476D01*
X234533334Y-82180952D01*
X234533334Y-82323810D01*
X234485715Y-82514286D01*
X234438096Y-82609524D01*
X234342858Y-82704762D01*
X234200000Y-82752381D01*
X233961905Y-82752381D01*
X235390477Y-82085714D02*
X235390477Y-82752381D01*
X235152381Y-81704762D02*
X234914286Y-82419048D01*
X235533334Y-82419048D01*
X230711905Y-87702381D02*
X230711905Y-86702381D01*
X230950000Y-86702381D01*
X231092858Y-86750000D01*
X231188096Y-86845238D01*
X231235715Y-86940476D01*
X231283334Y-87130952D01*
X231283334Y-87273810D01*
X231235715Y-87464286D01*
X231188096Y-87559524D01*
X231092858Y-87654762D01*
X230950000Y-87702381D01*
X230711905Y-87702381D01*
X232188096Y-86702381D02*
X231711905Y-86702381D01*
X231664286Y-87178571D01*
X231711905Y-87130952D01*
X231807143Y-87083333D01*
X232045239Y-87083333D01*
X232140477Y-87130952D01*
X232188096Y-87178571D01*
X232235715Y-87273810D01*
X232235715Y-87511905D01*
X232188096Y-87607143D01*
X232140477Y-87654762D01*
X232045239Y-87702381D01*
X231807143Y-87702381D01*
X231711905Y-87654762D01*
X231664286Y-87607143D01*
X228661905Y-93852381D02*
X228661905Y-92852381D01*
X228900000Y-92852381D01*
X229042858Y-92900000D01*
X229138096Y-92995238D01*
X229185715Y-93090476D01*
X229233334Y-93280952D01*
X229233334Y-93423810D01*
X229185715Y-93614286D01*
X229138096Y-93709524D01*
X229042858Y-93804762D01*
X228900000Y-93852381D01*
X228661905Y-93852381D01*
X230090477Y-92852381D02*
X229900000Y-92852381D01*
X229804762Y-92900000D01*
X229757143Y-92947619D01*
X229661905Y-93090476D01*
X229614286Y-93280952D01*
X229614286Y-93661905D01*
X229661905Y-93757143D01*
X229709524Y-93804762D01*
X229804762Y-93852381D01*
X229995239Y-93852381D01*
X230090477Y-93804762D01*
X230138096Y-93757143D01*
X230185715Y-93661905D01*
X230185715Y-93423810D01*
X230138096Y-93328571D01*
X230090477Y-93280952D01*
X229995239Y-93233333D01*
X229804762Y-93233333D01*
X229709524Y-93280952D01*
X229661905Y-93328571D01*
X229614286Y-93423810D01*
X219461905Y-87652381D02*
X219461905Y-86652381D01*
X219700000Y-86652381D01*
X219842858Y-86700000D01*
X219938096Y-86795238D01*
X219985715Y-86890476D01*
X220033334Y-87080952D01*
X220033334Y-87223810D01*
X219985715Y-87414286D01*
X219938096Y-87509524D01*
X219842858Y-87604762D01*
X219700000Y-87652381D01*
X219461905Y-87652381D01*
X220366667Y-86652381D02*
X221033334Y-86652381D01*
X220604762Y-87652381D01*
X216661905Y-92952381D02*
X216661905Y-91952381D01*
X216900000Y-91952381D01*
X217042858Y-92000000D01*
X217138096Y-92095238D01*
X217185715Y-92190476D01*
X217233334Y-92380952D01*
X217233334Y-92523810D01*
X217185715Y-92714286D01*
X217138096Y-92809524D01*
X217042858Y-92904762D01*
X216900000Y-92952381D01*
X216661905Y-92952381D01*
X217804762Y-92380952D02*
X217709524Y-92333333D01*
X217661905Y-92285714D01*
X217614286Y-92190476D01*
X217614286Y-92142857D01*
X217661905Y-92047619D01*
X217709524Y-92000000D01*
X217804762Y-91952381D01*
X217995239Y-91952381D01*
X218090477Y-92000000D01*
X218138096Y-92047619D01*
X218185715Y-92142857D01*
X218185715Y-92190476D01*
X218138096Y-92285714D01*
X218090477Y-92333333D01*
X217995239Y-92380952D01*
X217804762Y-92380952D01*
X217709524Y-92428571D01*
X217661905Y-92476190D01*
X217614286Y-92571429D01*
X217614286Y-92761905D01*
X217661905Y-92857143D01*
X217709524Y-92904762D01*
X217804762Y-92952381D01*
X217995239Y-92952381D01*
X218090477Y-92904762D01*
X218138096Y-92857143D01*
X218185715Y-92761905D01*
X218185715Y-92571429D01*
X218138096Y-92476190D01*
X218090477Y-92428571D01*
X217995239Y-92380952D01*
X205861905Y-99352381D02*
X205861905Y-98352381D01*
X206100000Y-98352381D01*
X206242858Y-98400000D01*
X206338096Y-98495238D01*
X206385715Y-98590476D01*
X206433334Y-98780952D01*
X206433334Y-98923810D01*
X206385715Y-99114286D01*
X206338096Y-99209524D01*
X206242858Y-99304762D01*
X206100000Y-99352381D01*
X205861905Y-99352381D01*
X206909524Y-99352381D02*
X207100000Y-99352381D01*
X207195239Y-99304762D01*
X207242858Y-99257143D01*
X207338096Y-99114286D01*
X207385715Y-98923810D01*
X207385715Y-98542857D01*
X207338096Y-98447619D01*
X207290477Y-98400000D01*
X207195239Y-98352381D01*
X207004762Y-98352381D01*
X206909524Y-98400000D01*
X206861905Y-98447619D01*
X206814286Y-98542857D01*
X206814286Y-98780952D01*
X206861905Y-98876190D01*
X206909524Y-98923810D01*
X207004762Y-98971429D01*
X207195239Y-98971429D01*
X207290477Y-98923810D01*
X207338096Y-98876190D01*
X207385715Y-98780952D01*
X213585714Y-98652381D02*
X213585714Y-97652381D01*
X213823809Y-97652381D01*
X213966667Y-97700000D01*
X214061905Y-97795238D01*
X214109524Y-97890476D01*
X214157143Y-98080952D01*
X214157143Y-98223810D01*
X214109524Y-98414286D01*
X214061905Y-98509524D01*
X213966667Y-98604762D01*
X213823809Y-98652381D01*
X213585714Y-98652381D01*
X215109524Y-98652381D02*
X214538095Y-98652381D01*
X214823809Y-98652381D02*
X214823809Y-97652381D01*
X214728571Y-97795238D01*
X214633333Y-97890476D01*
X214538095Y-97938095D01*
X215728571Y-97652381D02*
X215823810Y-97652381D01*
X215919048Y-97700000D01*
X215966667Y-97747619D01*
X216014286Y-97842857D01*
X216061905Y-98033333D01*
X216061905Y-98271429D01*
X216014286Y-98461905D01*
X215966667Y-98557143D01*
X215919048Y-98604762D01*
X215823810Y-98652381D01*
X215728571Y-98652381D01*
X215633333Y-98604762D01*
X215585714Y-98557143D01*
X215538095Y-98461905D01*
X215490476Y-98271429D01*
X215490476Y-98033333D01*
X215538095Y-97842857D01*
X215585714Y-97747619D01*
X215633333Y-97700000D01*
X215728571Y-97652381D01*
X229985714Y-99552381D02*
X229985714Y-98552381D01*
X230223809Y-98552381D01*
X230366667Y-98600000D01*
X230461905Y-98695238D01*
X230509524Y-98790476D01*
X230557143Y-98980952D01*
X230557143Y-99123810D01*
X230509524Y-99314286D01*
X230461905Y-99409524D01*
X230366667Y-99504762D01*
X230223809Y-99552381D01*
X229985714Y-99552381D01*
X231509524Y-99552381D02*
X230938095Y-99552381D01*
X231223809Y-99552381D02*
X231223809Y-98552381D01*
X231128571Y-98695238D01*
X231033333Y-98790476D01*
X230938095Y-98838095D01*
X232461905Y-99552381D02*
X231890476Y-99552381D01*
X232176190Y-99552381D02*
X232176190Y-98552381D01*
X232080952Y-98695238D01*
X231985714Y-98790476D01*
X231890476Y-98838095D01*
X240152381Y-99914286D02*
X239152381Y-99914286D01*
X239152381Y-99676191D01*
X239200000Y-99533333D01*
X239295238Y-99438095D01*
X239390476Y-99390476D01*
X239580952Y-99342857D01*
X239723810Y-99342857D01*
X239914286Y-99390476D01*
X240009524Y-99438095D01*
X240104762Y-99533333D01*
X240152381Y-99676191D01*
X240152381Y-99914286D01*
X240152381Y-98390476D02*
X240152381Y-98961905D01*
X240152381Y-98676191D02*
X239152381Y-98676191D01*
X239295238Y-98771429D01*
X239390476Y-98866667D01*
X239438095Y-98961905D01*
X239247619Y-98009524D02*
X239200000Y-97961905D01*
X239152381Y-97866667D01*
X239152381Y-97628571D01*
X239200000Y-97533333D01*
X239247619Y-97485714D01*
X239342857Y-97438095D01*
X239438095Y-97438095D01*
X239580952Y-97485714D01*
X240152381Y-98057143D01*
X240152381Y-97438095D01*
X221885714Y-83152381D02*
X221885714Y-82152381D01*
X222123809Y-82152381D01*
X222266667Y-82200000D01*
X222361905Y-82295238D01*
X222409524Y-82390476D01*
X222457143Y-82580952D01*
X222457143Y-82723810D01*
X222409524Y-82914286D01*
X222361905Y-83009524D01*
X222266667Y-83104762D01*
X222123809Y-83152381D01*
X221885714Y-83152381D01*
X223409524Y-83152381D02*
X222838095Y-83152381D01*
X223123809Y-83152381D02*
X223123809Y-82152381D01*
X223028571Y-82295238D01*
X222933333Y-82390476D01*
X222838095Y-82438095D01*
X223742857Y-82152381D02*
X224361905Y-82152381D01*
X224028571Y-82533333D01*
X224171429Y-82533333D01*
X224266667Y-82580952D01*
X224314286Y-82628571D01*
X224361905Y-82723810D01*
X224361905Y-82961905D01*
X224314286Y-83057143D01*
X224266667Y-83104762D01*
X224171429Y-83152381D01*
X223885714Y-83152381D01*
X223790476Y-83104762D01*
X223742857Y-83057143D01*
X224085714Y-77052381D02*
X224085714Y-76052381D01*
X224323809Y-76052381D01*
X224466667Y-76100000D01*
X224561905Y-76195238D01*
X224609524Y-76290476D01*
X224657143Y-76480952D01*
X224657143Y-76623810D01*
X224609524Y-76814286D01*
X224561905Y-76909524D01*
X224466667Y-77004762D01*
X224323809Y-77052381D01*
X224085714Y-77052381D01*
X225609524Y-77052381D02*
X225038095Y-77052381D01*
X225323809Y-77052381D02*
X225323809Y-76052381D01*
X225228571Y-76195238D01*
X225133333Y-76290476D01*
X225038095Y-76338095D01*
X226466667Y-76385714D02*
X226466667Y-77052381D01*
X226228571Y-76004762D02*
X225990476Y-76719048D01*
X226609524Y-76719048D01*
X203985714Y-94452381D02*
X203985714Y-93452381D01*
X204223809Y-93452381D01*
X204366667Y-93500000D01*
X204461905Y-93595238D01*
X204509524Y-93690476D01*
X204557143Y-93880952D01*
X204557143Y-94023810D01*
X204509524Y-94214286D01*
X204461905Y-94309524D01*
X204366667Y-94404762D01*
X204223809Y-94452381D01*
X203985714Y-94452381D01*
X205509524Y-94452381D02*
X204938095Y-94452381D01*
X205223809Y-94452381D02*
X205223809Y-93452381D01*
X205128571Y-93595238D01*
X205033333Y-93690476D01*
X204938095Y-93738095D01*
X206414286Y-93452381D02*
X205938095Y-93452381D01*
X205890476Y-93928571D01*
X205938095Y-93880952D01*
X206033333Y-93833333D01*
X206271429Y-93833333D01*
X206366667Y-93880952D01*
X206414286Y-93928571D01*
X206461905Y-94023810D01*
X206461905Y-94261905D01*
X206414286Y-94357143D01*
X206366667Y-94404762D01*
X206271429Y-94452381D01*
X206033333Y-94452381D01*
X205938095Y-94404762D01*
X205890476Y-94357143D01*
X206235714Y-88202381D02*
X206235714Y-87202381D01*
X206473809Y-87202381D01*
X206616667Y-87250000D01*
X206711905Y-87345238D01*
X206759524Y-87440476D01*
X206807143Y-87630952D01*
X206807143Y-87773810D01*
X206759524Y-87964286D01*
X206711905Y-88059524D01*
X206616667Y-88154762D01*
X206473809Y-88202381D01*
X206235714Y-88202381D01*
X207759524Y-88202381D02*
X207188095Y-88202381D01*
X207473809Y-88202381D02*
X207473809Y-87202381D01*
X207378571Y-87345238D01*
X207283333Y-87440476D01*
X207188095Y-87488095D01*
X208616667Y-87202381D02*
X208426190Y-87202381D01*
X208330952Y-87250000D01*
X208283333Y-87297619D01*
X208188095Y-87440476D01*
X208140476Y-87630952D01*
X208140476Y-88011905D01*
X208188095Y-88107143D01*
X208235714Y-88154762D01*
X208330952Y-88202381D01*
X208521429Y-88202381D01*
X208616667Y-88154762D01*
X208664286Y-88107143D01*
X208711905Y-88011905D01*
X208711905Y-87773810D01*
X208664286Y-87678571D01*
X208616667Y-87630952D01*
X208521429Y-87583333D01*
X208330952Y-87583333D01*
X208235714Y-87630952D01*
X208188095Y-87678571D01*
X208140476Y-87773810D01*
X196285714Y-83452381D02*
X196285714Y-82452381D01*
X196523809Y-82452381D01*
X196666667Y-82500000D01*
X196761905Y-82595238D01*
X196809524Y-82690476D01*
X196857143Y-82880952D01*
X196857143Y-83023810D01*
X196809524Y-83214286D01*
X196761905Y-83309524D01*
X196666667Y-83404762D01*
X196523809Y-83452381D01*
X196285714Y-83452381D01*
X197809524Y-83452381D02*
X197238095Y-83452381D01*
X197523809Y-83452381D02*
X197523809Y-82452381D01*
X197428571Y-82595238D01*
X197333333Y-82690476D01*
X197238095Y-82738095D01*
X198142857Y-82452381D02*
X198809524Y-82452381D01*
X198380952Y-83452381D01*
X199685714Y-77152381D02*
X199685714Y-76152381D01*
X199923809Y-76152381D01*
X200066667Y-76200000D01*
X200161905Y-76295238D01*
X200209524Y-76390476D01*
X200257143Y-76580952D01*
X200257143Y-76723810D01*
X200209524Y-76914286D01*
X200161905Y-77009524D01*
X200066667Y-77104762D01*
X199923809Y-77152381D01*
X199685714Y-77152381D01*
X201209524Y-77152381D02*
X200638095Y-77152381D01*
X200923809Y-77152381D02*
X200923809Y-76152381D01*
X200828571Y-76295238D01*
X200733333Y-76390476D01*
X200638095Y-76438095D01*
X201780952Y-76580952D02*
X201685714Y-76533333D01*
X201638095Y-76485714D01*
X201590476Y-76390476D01*
X201590476Y-76342857D01*
X201638095Y-76247619D01*
X201685714Y-76200000D01*
X201780952Y-76152381D01*
X201971429Y-76152381D01*
X202066667Y-76200000D01*
X202114286Y-76247619D01*
X202161905Y-76342857D01*
X202161905Y-76390476D01*
X202114286Y-76485714D01*
X202066667Y-76533333D01*
X201971429Y-76580952D01*
X201780952Y-76580952D01*
X201685714Y-76628571D01*
X201638095Y-76676190D01*
X201590476Y-76771429D01*
X201590476Y-76961905D01*
X201638095Y-77057143D01*
X201685714Y-77104762D01*
X201780952Y-77152381D01*
X201971429Y-77152381D01*
X202066667Y-77104762D01*
X202114286Y-77057143D01*
X202161905Y-76961905D01*
X202161905Y-76771429D01*
X202114286Y-76676190D01*
X202066667Y-76628571D01*
X201971429Y-76580952D01*
X203985714Y-79952381D02*
X203985714Y-78952381D01*
X204223809Y-78952381D01*
X204366667Y-79000000D01*
X204461905Y-79095238D01*
X204509524Y-79190476D01*
X204557143Y-79380952D01*
X204557143Y-79523810D01*
X204509524Y-79714286D01*
X204461905Y-79809524D01*
X204366667Y-79904762D01*
X204223809Y-79952381D01*
X203985714Y-79952381D01*
X205509524Y-79952381D02*
X204938095Y-79952381D01*
X205223809Y-79952381D02*
X205223809Y-78952381D01*
X205128571Y-79095238D01*
X205033333Y-79190476D01*
X204938095Y-79238095D01*
X205985714Y-79952381D02*
X206176190Y-79952381D01*
X206271429Y-79904762D01*
X206319048Y-79857143D01*
X206414286Y-79714286D01*
X206461905Y-79523810D01*
X206461905Y-79142857D01*
X206414286Y-79047619D01*
X206366667Y-79000000D01*
X206271429Y-78952381D01*
X206080952Y-78952381D01*
X205985714Y-79000000D01*
X205938095Y-79047619D01*
X205890476Y-79142857D01*
X205890476Y-79380952D01*
X205938095Y-79476190D01*
X205985714Y-79523810D01*
X206080952Y-79571429D01*
X206271429Y-79571429D01*
X206366667Y-79523810D01*
X206414286Y-79476190D01*
X206461905Y-79380952D01*
X209385714Y-77252381D02*
X209385714Y-76252381D01*
X209623809Y-76252381D01*
X209766667Y-76300000D01*
X209861905Y-76395238D01*
X209909524Y-76490476D01*
X209957143Y-76680952D01*
X209957143Y-76823810D01*
X209909524Y-77014286D01*
X209861905Y-77109524D01*
X209766667Y-77204762D01*
X209623809Y-77252381D01*
X209385714Y-77252381D01*
X210338095Y-76347619D02*
X210385714Y-76300000D01*
X210480952Y-76252381D01*
X210719048Y-76252381D01*
X210814286Y-76300000D01*
X210861905Y-76347619D01*
X210909524Y-76442857D01*
X210909524Y-76538095D01*
X210861905Y-76680952D01*
X210290476Y-77252381D01*
X210909524Y-77252381D01*
X211528571Y-76252381D02*
X211623810Y-76252381D01*
X211719048Y-76300000D01*
X211766667Y-76347619D01*
X211814286Y-76442857D01*
X211861905Y-76633333D01*
X211861905Y-76871429D01*
X211814286Y-77061905D01*
X211766667Y-77157143D01*
X211719048Y-77204762D01*
X211623810Y-77252381D01*
X211528571Y-77252381D01*
X211433333Y-77204762D01*
X211385714Y-77157143D01*
X211338095Y-77061905D01*
X211290476Y-76871429D01*
X211290476Y-76633333D01*
X211338095Y-76442857D01*
X211385714Y-76347619D01*
X211433333Y-76300000D01*
X211528571Y-76252381D01*
X209085714Y-83352381D02*
X209085714Y-82352381D01*
X209323809Y-82352381D01*
X209466667Y-82400000D01*
X209561905Y-82495238D01*
X209609524Y-82590476D01*
X209657143Y-82780952D01*
X209657143Y-82923810D01*
X209609524Y-83114286D01*
X209561905Y-83209524D01*
X209466667Y-83304762D01*
X209323809Y-83352381D01*
X209085714Y-83352381D01*
X210038095Y-82447619D02*
X210085714Y-82400000D01*
X210180952Y-82352381D01*
X210419048Y-82352381D01*
X210514286Y-82400000D01*
X210561905Y-82447619D01*
X210609524Y-82542857D01*
X210609524Y-82638095D01*
X210561905Y-82780952D01*
X209990476Y-83352381D01*
X210609524Y-83352381D01*
X211561905Y-83352381D02*
X210990476Y-83352381D01*
X211276190Y-83352381D02*
X211276190Y-82352381D01*
X211180952Y-82495238D01*
X211085714Y-82590476D01*
X210990476Y-82638095D01*
X194485714Y-88702381D02*
X194485714Y-87702381D01*
X194723809Y-87702381D01*
X194866667Y-87750000D01*
X194961905Y-87845238D01*
X195009524Y-87940476D01*
X195057143Y-88130952D01*
X195057143Y-88273810D01*
X195009524Y-88464286D01*
X194961905Y-88559524D01*
X194866667Y-88654762D01*
X194723809Y-88702381D01*
X194485714Y-88702381D01*
X195438095Y-87797619D02*
X195485714Y-87750000D01*
X195580952Y-87702381D01*
X195819048Y-87702381D01*
X195914286Y-87750000D01*
X195961905Y-87797619D01*
X196009524Y-87892857D01*
X196009524Y-87988095D01*
X195961905Y-88130952D01*
X195390476Y-88702381D01*
X196009524Y-88702381D01*
X196390476Y-87797619D02*
X196438095Y-87750000D01*
X196533333Y-87702381D01*
X196771429Y-87702381D01*
X196866667Y-87750000D01*
X196914286Y-87797619D01*
X196961905Y-87892857D01*
X196961905Y-87988095D01*
X196914286Y-88130952D01*
X196342857Y-88702381D01*
X196961905Y-88702381D01*
X190985714Y-94452381D02*
X190985714Y-93452381D01*
X191223809Y-93452381D01*
X191366667Y-93500000D01*
X191461905Y-93595238D01*
X191509524Y-93690476D01*
X191557143Y-93880952D01*
X191557143Y-94023810D01*
X191509524Y-94214286D01*
X191461905Y-94309524D01*
X191366667Y-94404762D01*
X191223809Y-94452381D01*
X190985714Y-94452381D01*
X191938095Y-93547619D02*
X191985714Y-93500000D01*
X192080952Y-93452381D01*
X192319048Y-93452381D01*
X192414286Y-93500000D01*
X192461905Y-93547619D01*
X192509524Y-93642857D01*
X192509524Y-93738095D01*
X192461905Y-93880952D01*
X191890476Y-94452381D01*
X192509524Y-94452381D01*
X192842857Y-93452381D02*
X193461905Y-93452381D01*
X193128571Y-93833333D01*
X193271429Y-93833333D01*
X193366667Y-93880952D01*
X193414286Y-93928571D01*
X193461905Y-94023810D01*
X193461905Y-94261905D01*
X193414286Y-94357143D01*
X193366667Y-94404762D01*
X193271429Y-94452381D01*
X192985714Y-94452381D01*
X192890476Y-94404762D01*
X192842857Y-94357143D01*
X184035714Y-99202381D02*
X184035714Y-98202381D01*
X184273809Y-98202381D01*
X184416667Y-98250000D01*
X184511905Y-98345238D01*
X184559524Y-98440476D01*
X184607143Y-98630952D01*
X184607143Y-98773810D01*
X184559524Y-98964286D01*
X184511905Y-99059524D01*
X184416667Y-99154762D01*
X184273809Y-99202381D01*
X184035714Y-99202381D01*
X184988095Y-98297619D02*
X185035714Y-98250000D01*
X185130952Y-98202381D01*
X185369048Y-98202381D01*
X185464286Y-98250000D01*
X185511905Y-98297619D01*
X185559524Y-98392857D01*
X185559524Y-98488095D01*
X185511905Y-98630952D01*
X184940476Y-99202381D01*
X185559524Y-99202381D01*
X186416667Y-98535714D02*
X186416667Y-99202381D01*
X186178571Y-98154762D02*
X185940476Y-98869048D01*
X186559524Y-98869048D01*
X177285714Y-102452381D02*
X177285714Y-101452381D01*
X177523809Y-101452381D01*
X177666667Y-101500000D01*
X177761905Y-101595238D01*
X177809524Y-101690476D01*
X177857143Y-101880952D01*
X177857143Y-102023810D01*
X177809524Y-102214286D01*
X177761905Y-102309524D01*
X177666667Y-102404762D01*
X177523809Y-102452381D01*
X177285714Y-102452381D01*
X178238095Y-101547619D02*
X178285714Y-101500000D01*
X178380952Y-101452381D01*
X178619048Y-101452381D01*
X178714286Y-101500000D01*
X178761905Y-101547619D01*
X178809524Y-101642857D01*
X178809524Y-101738095D01*
X178761905Y-101880952D01*
X178190476Y-102452381D01*
X178809524Y-102452381D01*
X179714286Y-101452381D02*
X179238095Y-101452381D01*
X179190476Y-101928571D01*
X179238095Y-101880952D01*
X179333333Y-101833333D01*
X179571429Y-101833333D01*
X179666667Y-101880952D01*
X179714286Y-101928571D01*
X179761905Y-102023810D01*
X179761905Y-102261905D01*
X179714286Y-102357143D01*
X179666667Y-102404762D01*
X179571429Y-102452381D01*
X179333333Y-102452381D01*
X179238095Y-102404762D01*
X179190476Y-102357143D01*
X168985714Y-105452381D02*
X168985714Y-104452381D01*
X169223809Y-104452381D01*
X169366667Y-104500000D01*
X169461905Y-104595238D01*
X169509524Y-104690476D01*
X169557143Y-104880952D01*
X169557143Y-105023810D01*
X169509524Y-105214286D01*
X169461905Y-105309524D01*
X169366667Y-105404762D01*
X169223809Y-105452381D01*
X168985714Y-105452381D01*
X169938095Y-104547619D02*
X169985714Y-104500000D01*
X170080952Y-104452381D01*
X170319048Y-104452381D01*
X170414286Y-104500000D01*
X170461905Y-104547619D01*
X170509524Y-104642857D01*
X170509524Y-104738095D01*
X170461905Y-104880952D01*
X169890476Y-105452381D01*
X170509524Y-105452381D01*
X171366667Y-104452381D02*
X171176190Y-104452381D01*
X171080952Y-104500000D01*
X171033333Y-104547619D01*
X170938095Y-104690476D01*
X170890476Y-104880952D01*
X170890476Y-105261905D01*
X170938095Y-105357143D01*
X170985714Y-105404762D01*
X171080952Y-105452381D01*
X171271429Y-105452381D01*
X171366667Y-105404762D01*
X171414286Y-105357143D01*
X171461905Y-105261905D01*
X171461905Y-105023810D01*
X171414286Y-104928571D01*
X171366667Y-104880952D01*
X171271429Y-104833333D01*
X171080952Y-104833333D01*
X170985714Y-104880952D01*
X170938095Y-104928571D01*
X170890476Y-105023810D01*
X163735714Y-111702381D02*
X163735714Y-110702381D01*
X163973809Y-110702381D01*
X164116667Y-110750000D01*
X164211905Y-110845238D01*
X164259524Y-110940476D01*
X164307143Y-111130952D01*
X164307143Y-111273810D01*
X164259524Y-111464286D01*
X164211905Y-111559524D01*
X164116667Y-111654762D01*
X163973809Y-111702381D01*
X163735714Y-111702381D01*
X164688095Y-110797619D02*
X164735714Y-110750000D01*
X164830952Y-110702381D01*
X165069048Y-110702381D01*
X165164286Y-110750000D01*
X165211905Y-110797619D01*
X165259524Y-110892857D01*
X165259524Y-110988095D01*
X165211905Y-111130952D01*
X164640476Y-111702381D01*
X165259524Y-111702381D01*
X165592857Y-110702381D02*
X166259524Y-110702381D01*
X165830952Y-111702381D01*
X164235714Y-120952381D02*
X164235714Y-119952381D01*
X164473809Y-119952381D01*
X164616667Y-120000000D01*
X164711905Y-120095238D01*
X164759524Y-120190476D01*
X164807143Y-120380952D01*
X164807143Y-120523810D01*
X164759524Y-120714286D01*
X164711905Y-120809524D01*
X164616667Y-120904762D01*
X164473809Y-120952381D01*
X164235714Y-120952381D01*
X165188095Y-120047619D02*
X165235714Y-120000000D01*
X165330952Y-119952381D01*
X165569048Y-119952381D01*
X165664286Y-120000000D01*
X165711905Y-120047619D01*
X165759524Y-120142857D01*
X165759524Y-120238095D01*
X165711905Y-120380952D01*
X165140476Y-120952381D01*
X165759524Y-120952381D01*
X166330952Y-120380952D02*
X166235714Y-120333333D01*
X166188095Y-120285714D01*
X166140476Y-120190476D01*
X166140476Y-120142857D01*
X166188095Y-120047619D01*
X166235714Y-120000000D01*
X166330952Y-119952381D01*
X166521429Y-119952381D01*
X166616667Y-120000000D01*
X166664286Y-120047619D01*
X166711905Y-120142857D01*
X166711905Y-120190476D01*
X166664286Y-120285714D01*
X166616667Y-120333333D01*
X166521429Y-120380952D01*
X166330952Y-120380952D01*
X166235714Y-120428571D01*
X166188095Y-120476190D01*
X166140476Y-120571429D01*
X166140476Y-120761905D01*
X166188095Y-120857143D01*
X166235714Y-120904762D01*
X166330952Y-120952381D01*
X166521429Y-120952381D01*
X166616667Y-120904762D01*
X166664286Y-120857143D01*
X166711905Y-120761905D01*
X166711905Y-120571429D01*
X166664286Y-120476190D01*
X166616667Y-120428571D01*
X166521429Y-120380952D01*
X169985714Y-115952381D02*
X169985714Y-114952381D01*
X170223809Y-114952381D01*
X170366667Y-115000000D01*
X170461905Y-115095238D01*
X170509524Y-115190476D01*
X170557143Y-115380952D01*
X170557143Y-115523810D01*
X170509524Y-115714286D01*
X170461905Y-115809524D01*
X170366667Y-115904762D01*
X170223809Y-115952381D01*
X169985714Y-115952381D01*
X170938095Y-115047619D02*
X170985714Y-115000000D01*
X171080952Y-114952381D01*
X171319048Y-114952381D01*
X171414286Y-115000000D01*
X171461905Y-115047619D01*
X171509524Y-115142857D01*
X171509524Y-115238095D01*
X171461905Y-115380952D01*
X170890476Y-115952381D01*
X171509524Y-115952381D01*
X171985714Y-115952381D02*
X172176190Y-115952381D01*
X172271429Y-115904762D01*
X172319048Y-115857143D01*
X172414286Y-115714286D01*
X172461905Y-115523810D01*
X172461905Y-115142857D01*
X172414286Y-115047619D01*
X172366667Y-115000000D01*
X172271429Y-114952381D01*
X172080952Y-114952381D01*
X171985714Y-115000000D01*
X171938095Y-115047619D01*
X171890476Y-115142857D01*
X171890476Y-115380952D01*
X171938095Y-115476190D01*
X171985714Y-115523810D01*
X172080952Y-115571429D01*
X172271429Y-115571429D01*
X172366667Y-115523810D01*
X172414286Y-115476190D01*
X172461905Y-115380952D01*
X174235714Y-108952381D02*
X174235714Y-107952381D01*
X174473809Y-107952381D01*
X174616667Y-108000000D01*
X174711905Y-108095238D01*
X174759524Y-108190476D01*
X174807143Y-108380952D01*
X174807143Y-108523810D01*
X174759524Y-108714286D01*
X174711905Y-108809524D01*
X174616667Y-108904762D01*
X174473809Y-108952381D01*
X174235714Y-108952381D01*
X175140476Y-107952381D02*
X175759524Y-107952381D01*
X175426190Y-108333333D01*
X175569048Y-108333333D01*
X175664286Y-108380952D01*
X175711905Y-108428571D01*
X175759524Y-108523810D01*
X175759524Y-108761905D01*
X175711905Y-108857143D01*
X175664286Y-108904762D01*
X175569048Y-108952381D01*
X175283333Y-108952381D01*
X175188095Y-108904762D01*
X175140476Y-108857143D01*
X176378571Y-107952381D02*
X176473810Y-107952381D01*
X176569048Y-108000000D01*
X176616667Y-108047619D01*
X176664286Y-108142857D01*
X176711905Y-108333333D01*
X176711905Y-108571429D01*
X176664286Y-108761905D01*
X176616667Y-108857143D01*
X176569048Y-108904762D01*
X176473810Y-108952381D01*
X176378571Y-108952381D01*
X176283333Y-108904762D01*
X176235714Y-108857143D01*
X176188095Y-108761905D01*
X176140476Y-108571429D01*
X176140476Y-108333333D01*
X176188095Y-108142857D01*
X176235714Y-108047619D01*
X176283333Y-108000000D01*
X176378571Y-107952381D01*
X179485714Y-95702381D02*
X179485714Y-94702381D01*
X179723809Y-94702381D01*
X179866667Y-94750000D01*
X179961905Y-94845238D01*
X180009524Y-94940476D01*
X180057143Y-95130952D01*
X180057143Y-95273810D01*
X180009524Y-95464286D01*
X179961905Y-95559524D01*
X179866667Y-95654762D01*
X179723809Y-95702381D01*
X179485714Y-95702381D01*
X180390476Y-94702381D02*
X181009524Y-94702381D01*
X180676190Y-95083333D01*
X180819048Y-95083333D01*
X180914286Y-95130952D01*
X180961905Y-95178571D01*
X181009524Y-95273810D01*
X181009524Y-95511905D01*
X180961905Y-95607143D01*
X180914286Y-95654762D01*
X180819048Y-95702381D01*
X180533333Y-95702381D01*
X180438095Y-95654762D01*
X180390476Y-95607143D01*
X181961905Y-95702381D02*
X181390476Y-95702381D01*
X181676190Y-95702381D02*
X181676190Y-94702381D01*
X181580952Y-94845238D01*
X181485714Y-94940476D01*
X181390476Y-94988095D01*
X182485714Y-89452381D02*
X182485714Y-88452381D01*
X182723809Y-88452381D01*
X182866667Y-88500000D01*
X182961905Y-88595238D01*
X183009524Y-88690476D01*
X183057143Y-88880952D01*
X183057143Y-89023810D01*
X183009524Y-89214286D01*
X182961905Y-89309524D01*
X182866667Y-89404762D01*
X182723809Y-89452381D01*
X182485714Y-89452381D01*
X183390476Y-88452381D02*
X184009524Y-88452381D01*
X183676190Y-88833333D01*
X183819048Y-88833333D01*
X183914286Y-88880952D01*
X183961905Y-88928571D01*
X184009524Y-89023810D01*
X184009524Y-89261905D01*
X183961905Y-89357143D01*
X183914286Y-89404762D01*
X183819048Y-89452381D01*
X183533333Y-89452381D01*
X183438095Y-89404762D01*
X183390476Y-89357143D01*
X184390476Y-88547619D02*
X184438095Y-88500000D01*
X184533333Y-88452381D01*
X184771429Y-88452381D01*
X184866667Y-88500000D01*
X184914286Y-88547619D01*
X184961905Y-88642857D01*
X184961905Y-88738095D01*
X184914286Y-88880952D01*
X184342857Y-89452381D01*
X184961905Y-89452381D01*
X185485714Y-83702381D02*
X185485714Y-82702381D01*
X185723809Y-82702381D01*
X185866667Y-82750000D01*
X185961905Y-82845238D01*
X186009524Y-82940476D01*
X186057143Y-83130952D01*
X186057143Y-83273810D01*
X186009524Y-83464286D01*
X185961905Y-83559524D01*
X185866667Y-83654762D01*
X185723809Y-83702381D01*
X185485714Y-83702381D01*
X186390476Y-82702381D02*
X187009524Y-82702381D01*
X186676190Y-83083333D01*
X186819048Y-83083333D01*
X186914286Y-83130952D01*
X186961905Y-83178571D01*
X187009524Y-83273810D01*
X187009524Y-83511905D01*
X186961905Y-83607143D01*
X186914286Y-83654762D01*
X186819048Y-83702381D01*
X186533333Y-83702381D01*
X186438095Y-83654762D01*
X186390476Y-83607143D01*
X187342857Y-82702381D02*
X187961905Y-82702381D01*
X187628571Y-83083333D01*
X187771429Y-83083333D01*
X187866667Y-83130952D01*
X187914286Y-83178571D01*
X187961905Y-83273810D01*
X187961905Y-83511905D01*
X187914286Y-83607143D01*
X187866667Y-83654762D01*
X187771429Y-83702381D01*
X187485714Y-83702381D01*
X187390476Y-83654762D01*
X187342857Y-83607143D01*
X187985714Y-77702381D02*
X187985714Y-76702381D01*
X188223809Y-76702381D01*
X188366667Y-76750000D01*
X188461905Y-76845238D01*
X188509524Y-76940476D01*
X188557143Y-77130952D01*
X188557143Y-77273810D01*
X188509524Y-77464286D01*
X188461905Y-77559524D01*
X188366667Y-77654762D01*
X188223809Y-77702381D01*
X187985714Y-77702381D01*
X188890476Y-76702381D02*
X189509524Y-76702381D01*
X189176190Y-77083333D01*
X189319048Y-77083333D01*
X189414286Y-77130952D01*
X189461905Y-77178571D01*
X189509524Y-77273810D01*
X189509524Y-77511905D01*
X189461905Y-77607143D01*
X189414286Y-77654762D01*
X189319048Y-77702381D01*
X189033333Y-77702381D01*
X188938095Y-77654762D01*
X188890476Y-77607143D01*
X190366667Y-77035714D02*
X190366667Y-77702381D01*
X190128571Y-76654762D02*
X189890476Y-77369048D01*
X190509524Y-77369048D01*
X170985714Y-98952381D02*
X170985714Y-97952381D01*
X171223809Y-97952381D01*
X171366667Y-98000000D01*
X171461905Y-98095238D01*
X171509524Y-98190476D01*
X171557143Y-98380952D01*
X171557143Y-98523810D01*
X171509524Y-98714286D01*
X171461905Y-98809524D01*
X171366667Y-98904762D01*
X171223809Y-98952381D01*
X170985714Y-98952381D01*
X171890476Y-97952381D02*
X172509524Y-97952381D01*
X172176190Y-98333333D01*
X172319048Y-98333333D01*
X172414286Y-98380952D01*
X172461905Y-98428571D01*
X172509524Y-98523810D01*
X172509524Y-98761905D01*
X172461905Y-98857143D01*
X172414286Y-98904762D01*
X172319048Y-98952381D01*
X172033333Y-98952381D01*
X171938095Y-98904762D01*
X171890476Y-98857143D01*
X173414286Y-97952381D02*
X172938095Y-97952381D01*
X172890476Y-98428571D01*
X172938095Y-98380952D01*
X173033333Y-98333333D01*
X173271429Y-98333333D01*
X173366667Y-98380952D01*
X173414286Y-98428571D01*
X173461905Y-98523810D01*
X173461905Y-98761905D01*
X173414286Y-98857143D01*
X173366667Y-98904762D01*
X173271429Y-98952381D01*
X173033333Y-98952381D01*
X172938095Y-98904762D01*
X172890476Y-98857143D01*
X167985714Y-92452381D02*
X167985714Y-91452381D01*
X168223809Y-91452381D01*
X168366667Y-91500000D01*
X168461905Y-91595238D01*
X168509524Y-91690476D01*
X168557143Y-91880952D01*
X168557143Y-92023810D01*
X168509524Y-92214286D01*
X168461905Y-92309524D01*
X168366667Y-92404762D01*
X168223809Y-92452381D01*
X167985714Y-92452381D01*
X168890476Y-91452381D02*
X169509524Y-91452381D01*
X169176190Y-91833333D01*
X169319048Y-91833333D01*
X169414286Y-91880952D01*
X169461905Y-91928571D01*
X169509524Y-92023810D01*
X169509524Y-92261905D01*
X169461905Y-92357143D01*
X169414286Y-92404762D01*
X169319048Y-92452381D01*
X169033333Y-92452381D01*
X168938095Y-92404762D01*
X168890476Y-92357143D01*
X170366667Y-91452381D02*
X170176190Y-91452381D01*
X170080952Y-91500000D01*
X170033333Y-91547619D01*
X169938095Y-91690476D01*
X169890476Y-91880952D01*
X169890476Y-92261905D01*
X169938095Y-92357143D01*
X169985714Y-92404762D01*
X170080952Y-92452381D01*
X170271429Y-92452381D01*
X170366667Y-92404762D01*
X170414286Y-92357143D01*
X170461905Y-92261905D01*
X170461905Y-92023810D01*
X170414286Y-91928571D01*
X170366667Y-91880952D01*
X170271429Y-91833333D01*
X170080952Y-91833333D01*
X169985714Y-91880952D01*
X169938095Y-91928571D01*
X169890476Y-92023810D01*
X171485714Y-86202381D02*
X171485714Y-85202381D01*
X171723809Y-85202381D01*
X171866667Y-85250000D01*
X171961905Y-85345238D01*
X172009524Y-85440476D01*
X172057143Y-85630952D01*
X172057143Y-85773810D01*
X172009524Y-85964286D01*
X171961905Y-86059524D01*
X171866667Y-86154762D01*
X171723809Y-86202381D01*
X171485714Y-86202381D01*
X172390476Y-85202381D02*
X173009524Y-85202381D01*
X172676190Y-85583333D01*
X172819048Y-85583333D01*
X172914286Y-85630952D01*
X172961905Y-85678571D01*
X173009524Y-85773810D01*
X173009524Y-86011905D01*
X172961905Y-86107143D01*
X172914286Y-86154762D01*
X172819048Y-86202381D01*
X172533333Y-86202381D01*
X172438095Y-86154762D01*
X172390476Y-86107143D01*
X173342857Y-85202381D02*
X174009524Y-85202381D01*
X173580952Y-86202381D01*
X175235714Y-79202381D02*
X175235714Y-78202381D01*
X175473809Y-78202381D01*
X175616667Y-78250000D01*
X175711905Y-78345238D01*
X175759524Y-78440476D01*
X175807143Y-78630952D01*
X175807143Y-78773810D01*
X175759524Y-78964286D01*
X175711905Y-79059524D01*
X175616667Y-79154762D01*
X175473809Y-79202381D01*
X175235714Y-79202381D01*
X176140476Y-78202381D02*
X176759524Y-78202381D01*
X176426190Y-78583333D01*
X176569048Y-78583333D01*
X176664286Y-78630952D01*
X176711905Y-78678571D01*
X176759524Y-78773810D01*
X176759524Y-79011905D01*
X176711905Y-79107143D01*
X176664286Y-79154762D01*
X176569048Y-79202381D01*
X176283333Y-79202381D01*
X176188095Y-79154762D01*
X176140476Y-79107143D01*
X177330952Y-78630952D02*
X177235714Y-78583333D01*
X177188095Y-78535714D01*
X177140476Y-78440476D01*
X177140476Y-78392857D01*
X177188095Y-78297619D01*
X177235714Y-78250000D01*
X177330952Y-78202381D01*
X177521429Y-78202381D01*
X177616667Y-78250000D01*
X177664286Y-78297619D01*
X177711905Y-78392857D01*
X177711905Y-78440476D01*
X177664286Y-78535714D01*
X177616667Y-78583333D01*
X177521429Y-78630952D01*
X177330952Y-78630952D01*
X177235714Y-78678571D01*
X177188095Y-78726190D01*
X177140476Y-78821429D01*
X177140476Y-79011905D01*
X177188095Y-79107143D01*
X177235714Y-79154762D01*
X177330952Y-79202381D01*
X177521429Y-79202381D01*
X177616667Y-79154762D01*
X177664286Y-79107143D01*
X177711905Y-79011905D01*
X177711905Y-78821429D01*
X177664286Y-78726190D01*
X177616667Y-78678571D01*
X177521429Y-78630952D01*
X159485714Y-100702381D02*
X159485714Y-99702381D01*
X159723809Y-99702381D01*
X159866667Y-99750000D01*
X159961905Y-99845238D01*
X160009524Y-99940476D01*
X160057143Y-100130952D01*
X160057143Y-100273810D01*
X160009524Y-100464286D01*
X159961905Y-100559524D01*
X159866667Y-100654762D01*
X159723809Y-100702381D01*
X159485714Y-100702381D01*
X160390476Y-99702381D02*
X161009524Y-99702381D01*
X160676190Y-100083333D01*
X160819048Y-100083333D01*
X160914286Y-100130952D01*
X160961905Y-100178571D01*
X161009524Y-100273810D01*
X161009524Y-100511905D01*
X160961905Y-100607143D01*
X160914286Y-100654762D01*
X160819048Y-100702381D01*
X160533333Y-100702381D01*
X160438095Y-100654762D01*
X160390476Y-100607143D01*
X161485714Y-100702381D02*
X161676190Y-100702381D01*
X161771429Y-100654762D01*
X161819048Y-100607143D01*
X161914286Y-100464286D01*
X161961905Y-100273810D01*
X161961905Y-99892857D01*
X161914286Y-99797619D01*
X161866667Y-99750000D01*
X161771429Y-99702381D01*
X161580952Y-99702381D01*
X161485714Y-99750000D01*
X161438095Y-99797619D01*
X161390476Y-99892857D01*
X161390476Y-100130952D01*
X161438095Y-100226190D01*
X161485714Y-100273810D01*
X161580952Y-100321429D01*
X161771429Y-100321429D01*
X161866667Y-100273810D01*
X161914286Y-100226190D01*
X161961905Y-100130952D01*
X149485714Y-102452381D02*
X149485714Y-101452381D01*
X149723809Y-101452381D01*
X149866667Y-101500000D01*
X149961905Y-101595238D01*
X150009524Y-101690476D01*
X150057143Y-101880952D01*
X150057143Y-102023810D01*
X150009524Y-102214286D01*
X149961905Y-102309524D01*
X149866667Y-102404762D01*
X149723809Y-102452381D01*
X149485714Y-102452381D01*
X150914286Y-101785714D02*
X150914286Y-102452381D01*
X150676190Y-101404762D02*
X150438095Y-102119048D01*
X151057143Y-102119048D01*
X151628571Y-101452381D02*
X151723810Y-101452381D01*
X151819048Y-101500000D01*
X151866667Y-101547619D01*
X151914286Y-101642857D01*
X151961905Y-101833333D01*
X151961905Y-102071429D01*
X151914286Y-102261905D01*
X151866667Y-102357143D01*
X151819048Y-102404762D01*
X151723810Y-102452381D01*
X151628571Y-102452381D01*
X151533333Y-102404762D01*
X151485714Y-102357143D01*
X151438095Y-102261905D01*
X151390476Y-102071429D01*
X151390476Y-101833333D01*
X151438095Y-101642857D01*
X151485714Y-101547619D01*
X151533333Y-101500000D01*
X151628571Y-101452381D01*
X147735714Y-95952381D02*
X147735714Y-94952381D01*
X147973809Y-94952381D01*
X148116667Y-95000000D01*
X148211905Y-95095238D01*
X148259524Y-95190476D01*
X148307143Y-95380952D01*
X148307143Y-95523810D01*
X148259524Y-95714286D01*
X148211905Y-95809524D01*
X148116667Y-95904762D01*
X147973809Y-95952381D01*
X147735714Y-95952381D01*
X149164286Y-95285714D02*
X149164286Y-95952381D01*
X148926190Y-94904762D02*
X148688095Y-95619048D01*
X149307143Y-95619048D01*
X150211905Y-95952381D02*
X149640476Y-95952381D01*
X149926190Y-95952381D02*
X149926190Y-94952381D01*
X149830952Y-95095238D01*
X149735714Y-95190476D01*
X149640476Y-95238095D01*
X150985714Y-89202381D02*
X150985714Y-88202381D01*
X151223809Y-88202381D01*
X151366667Y-88250000D01*
X151461905Y-88345238D01*
X151509524Y-88440476D01*
X151557143Y-88630952D01*
X151557143Y-88773810D01*
X151509524Y-88964286D01*
X151461905Y-89059524D01*
X151366667Y-89154762D01*
X151223809Y-89202381D01*
X150985714Y-89202381D01*
X152414286Y-88535714D02*
X152414286Y-89202381D01*
X152176190Y-88154762D02*
X151938095Y-88869048D01*
X152557143Y-88869048D01*
X152890476Y-88297619D02*
X152938095Y-88250000D01*
X153033333Y-88202381D01*
X153271429Y-88202381D01*
X153366667Y-88250000D01*
X153414286Y-88297619D01*
X153461905Y-88392857D01*
X153461905Y-88488095D01*
X153414286Y-88630952D01*
X152842857Y-89202381D01*
X153461905Y-89202381D01*
X154235714Y-83202381D02*
X154235714Y-82202381D01*
X154473809Y-82202381D01*
X154616667Y-82250000D01*
X154711905Y-82345238D01*
X154759524Y-82440476D01*
X154807143Y-82630952D01*
X154807143Y-82773810D01*
X154759524Y-82964286D01*
X154711905Y-83059524D01*
X154616667Y-83154762D01*
X154473809Y-83202381D01*
X154235714Y-83202381D01*
X155664286Y-82535714D02*
X155664286Y-83202381D01*
X155426190Y-82154762D02*
X155188095Y-82869048D01*
X155807143Y-82869048D01*
X156092857Y-82202381D02*
X156711905Y-82202381D01*
X156378571Y-82583333D01*
X156521429Y-82583333D01*
X156616667Y-82630952D01*
X156664286Y-82678571D01*
X156711905Y-82773810D01*
X156711905Y-83011905D01*
X156664286Y-83107143D01*
X156616667Y-83154762D01*
X156521429Y-83202381D01*
X156235714Y-83202381D01*
X156140476Y-83154762D01*
X156092857Y-83107143D01*
X158485714Y-76452381D02*
X158485714Y-75452381D01*
X158723809Y-75452381D01*
X158866667Y-75500000D01*
X158961905Y-75595238D01*
X159009524Y-75690476D01*
X159057143Y-75880952D01*
X159057143Y-76023810D01*
X159009524Y-76214286D01*
X158961905Y-76309524D01*
X158866667Y-76404762D01*
X158723809Y-76452381D01*
X158485714Y-76452381D01*
X159914286Y-75785714D02*
X159914286Y-76452381D01*
X159676190Y-75404762D02*
X159438095Y-76119048D01*
X160057143Y-76119048D01*
X160866667Y-75785714D02*
X160866667Y-76452381D01*
X160628571Y-75404762D02*
X160390476Y-76119048D01*
X161009524Y-76119048D01*
X161735714Y-70452381D02*
X161735714Y-69452381D01*
X161973809Y-69452381D01*
X162116667Y-69500000D01*
X162211905Y-69595238D01*
X162259524Y-69690476D01*
X162307143Y-69880952D01*
X162307143Y-70023810D01*
X162259524Y-70214286D01*
X162211905Y-70309524D01*
X162116667Y-70404762D01*
X161973809Y-70452381D01*
X161735714Y-70452381D01*
X163164286Y-69785714D02*
X163164286Y-70452381D01*
X162926190Y-69404762D02*
X162688095Y-70119048D01*
X163307143Y-70119048D01*
X164164286Y-69452381D02*
X163688095Y-69452381D01*
X163640476Y-69928571D01*
X163688095Y-69880952D01*
X163783333Y-69833333D01*
X164021429Y-69833333D01*
X164116667Y-69880952D01*
X164164286Y-69928571D01*
X164211905Y-70023810D01*
X164211905Y-70261905D01*
X164164286Y-70357143D01*
X164116667Y-70404762D01*
X164021429Y-70452381D01*
X163783333Y-70452381D01*
X163688095Y-70404762D01*
X163640476Y-70357143D01*
M02*
