M48
;DRILL file {KiCad 4.0.6} date Wednesday, 31 January 2018 'PMt' 20:49:46
;FORMAT={-:-/ absolute / inch / decimal}
FMAT,2
INCH,TZ
T1C0.016
T2C0.024
%
G90
G05
M72
T1
X6.0138Y-3.6811
X6.063Y-3.4843
X6.1024Y-3.937
X6.2697Y-3.1791
X6.3583Y-2.9823
X6.437Y-4.3898
X6.4469Y-4.7539
X6.4764Y-3.8583
X6.565Y-2.6772
X6.6437Y-4.1437
X6.6732Y-4.5472
X6.7323Y-3.5236
X6.7323Y-3.6319
X6.8012Y-3.878
X6.8406Y-3.2874
X6.8425Y-4.2795
X6.9055Y-3.3386
X7.0079Y-4.0256
X7.0079Y-4.4528
X7.0768Y-3.376
X7.0768Y-3.7598
X7.1319Y-3.1339
X7.1339Y-4.4488
X7.185Y-3.3937
X7.2795Y-3.8976
X7.2933Y-3.1102
X7.4902Y-3.7106
X7.5236Y-3.3504
X7.5492Y-3.5531
X7.5748Y-3.4134
X7.7188Y-3.2812
X7.7244Y-3.1142
X7.7402Y-3.4173
X7.7638Y-3.7638
X7.7717Y-3.4213
X7.7795Y-3.2559
X7.9213Y-3.7756
X7.9843Y-3.9724
X8.0906Y-3.4016
X8.0945Y-3.4567
X8.1339Y-3.1299
X8.1693Y-3.6024
X8.1732Y-3.4606
X8.3858Y-4.0157
X8.4094Y-3.7205
X8.4094Y-4.0551
X8.4448Y-3.061
X8.4449Y-3.3819
X8.4803Y-3.315
X8.5039Y-3.5591
X8.5276Y-4.0512
X8.7835Y-3.374
X8.8819Y-3.7598
X8.9488Y-3.9606
X8.9567Y-3.2953
X9.0906Y-3.3189
X9.1299Y-3.5787
X9.1457Y-3.0276
X9.2402Y-3.6417
X9.2835Y-4.0433
T2
X6.811Y-4.5197
T0
M30
