G04 #@! TF.FileFunction,Copper,L2,Bot,Signal*
%FSLAX46Y46*%
G04 Gerber Fmt 4.6, Leading zero omitted, Abs format (unit mm)*
G04 Created by KiCad (PCBNEW 4.0.6) date Wednesday, 31 January 2018 'PMt' 20:49:43*
%MOMM*%
%LPD*%
G01*
G04 APERTURE LIST*
%ADD10C,0.100000*%
%ADD11O,0.700000X2.500000*%
%ADD12O,2.500000X0.700000*%
%ADD13R,6.000000X6.000000*%
%ADD14R,2.000000X1.700000*%
%ADD15R,3.800000X2.000000*%
%ADD16R,1.500000X2.000000*%
%ADD17R,2.000000X1.600000*%
%ADD18R,2.000000X0.600000*%
%ADD19R,0.500380X2.301240*%
%ADD20R,1.998980X2.499360*%
%ADD21C,1.500000*%
%ADD22R,1.500000X1.500000*%
%ADD23C,0.800000*%
%ADD24C,0.600000*%
%ADD25C,0.500000*%
%ADD26C,0.700000*%
%ADD27C,0.250000*%
%ADD28C,0.600000*%
%ADD29C,0.400000*%
%ADD30C,0.254000*%
G04 APERTURE END LIST*
D10*
D11*
X235800000Y-80400000D03*
X234530000Y-80400000D03*
X233260000Y-80400000D03*
X231990000Y-80400000D03*
X230720000Y-80400000D03*
X229450000Y-80400000D03*
X228180000Y-80400000D03*
X226910000Y-80400000D03*
X225640000Y-80400000D03*
X224370000Y-80400000D03*
X223100000Y-80400000D03*
X221830000Y-80400000D03*
X220560000Y-80400000D03*
X219290000Y-80400000D03*
D12*
X217800000Y-83685000D03*
X217800000Y-84955000D03*
X217800000Y-88765000D03*
X217800000Y-90035000D03*
X217800000Y-91305000D03*
X217800000Y-92575000D03*
X217800000Y-93845000D03*
X217800000Y-95115000D03*
D11*
X219290000Y-98400000D03*
X220560000Y-98400000D03*
X221830000Y-98400000D03*
X223100000Y-98400000D03*
X224370000Y-98400000D03*
X225640000Y-98400000D03*
X226910000Y-98400000D03*
X228180000Y-98400000D03*
X229450000Y-98400000D03*
X230720000Y-98400000D03*
X231990000Y-98400000D03*
X233260000Y-98400000D03*
X234530000Y-98400000D03*
X235800000Y-98400000D03*
D13*
X228100000Y-89700000D03*
D14*
X230300000Y-102300000D03*
X226300000Y-102300000D03*
X168100000Y-77500000D03*
X172100000Y-77500000D03*
D15*
X176700000Y-110300000D03*
D16*
X176700000Y-116600000D03*
X174400000Y-116600000D03*
X179000000Y-116600000D03*
D17*
X233800000Y-102300000D03*
X237800000Y-102300000D03*
D14*
X203600000Y-77700000D03*
X207600000Y-77700000D03*
X187000000Y-77000000D03*
X191000000Y-77000000D03*
D18*
X210400000Y-80610000D03*
X210400000Y-81880000D03*
X210400000Y-83150000D03*
X210400000Y-84420000D03*
X210400000Y-85690000D03*
X210400000Y-86960000D03*
X210400000Y-88230000D03*
X210400000Y-89500000D03*
X210400000Y-90770000D03*
X210400000Y-92040000D03*
X210400000Y-93310000D03*
X210400000Y-94580000D03*
X201000000Y-94580000D03*
X201000000Y-93310000D03*
X201000000Y-92040000D03*
X201000000Y-90770000D03*
X201000000Y-89500000D03*
X201000000Y-88230000D03*
X201000000Y-86960000D03*
X201000000Y-85690000D03*
X201000000Y-84420000D03*
X201000000Y-83150000D03*
X201000000Y-81880000D03*
X201000000Y-80610000D03*
X194250000Y-80530000D03*
X194250000Y-81800000D03*
X194250000Y-83070000D03*
X194250000Y-84340000D03*
X194250000Y-85610000D03*
X194250000Y-86880000D03*
X194250000Y-88150000D03*
X194250000Y-89420000D03*
X194250000Y-90690000D03*
X194250000Y-91960000D03*
X194250000Y-93230000D03*
X194250000Y-94500000D03*
X184850000Y-94500000D03*
X184850000Y-93230000D03*
X184850000Y-91960000D03*
X184850000Y-90690000D03*
X184850000Y-89420000D03*
X184850000Y-88150000D03*
X184850000Y-86880000D03*
X184850000Y-85610000D03*
X184850000Y-84340000D03*
X184850000Y-83070000D03*
X184850000Y-81800000D03*
X184850000Y-80530000D03*
D19*
X197500200Y-97750680D03*
X196700100Y-97750680D03*
X195900000Y-97750680D03*
X195099900Y-97750680D03*
X194299800Y-97750680D03*
D20*
X200350080Y-97849740D03*
X200350080Y-103348840D03*
X191449920Y-97849740D03*
X191449920Y-103348840D03*
D18*
X177450000Y-80765000D03*
X177450000Y-82035000D03*
X177450000Y-83305000D03*
X177450000Y-84575000D03*
X177450000Y-85845000D03*
X177450000Y-87115000D03*
X177450000Y-88385000D03*
X177450000Y-89655000D03*
X177450000Y-90925000D03*
X177450000Y-92195000D03*
X177450000Y-93465000D03*
X177450000Y-94735000D03*
X168050000Y-94735000D03*
X168050000Y-93465000D03*
X168050000Y-92195000D03*
X168050000Y-90925000D03*
X168050000Y-89655000D03*
X168050000Y-88385000D03*
X168050000Y-87115000D03*
X168050000Y-85845000D03*
X168050000Y-84575000D03*
X168050000Y-83305000D03*
X168050000Y-82035000D03*
X168050000Y-80765000D03*
D21*
X171800000Y-113000000D03*
D22*
X239600000Y-77200000D03*
D21*
X219600000Y-102300000D03*
X222900000Y-102300000D03*
X236700000Y-77100000D03*
X234100000Y-77100000D03*
X216200000Y-80400000D03*
D23*
X173000000Y-114800000D03*
D24*
X197200000Y-95600000D03*
X181200000Y-113000000D03*
X178000000Y-113100000D03*
X213600000Y-103000000D03*
X216600000Y-102900000D03*
X197600000Y-82700000D03*
X196058058Y-83341942D03*
X234700000Y-92500000D03*
X207600000Y-87900000D03*
X207500000Y-91500000D03*
X214500000Y-85900000D03*
X214498392Y-77750307D03*
X232300000Y-76900000D03*
X227500000Y-83700000D03*
X230900000Y-84300000D03*
X231900000Y-90900000D03*
X225600000Y-95500000D03*
X216000000Y-90400000D03*
X213600000Y-94500000D03*
X202800000Y-100900000D03*
X213000000Y-102000000D03*
X227300000Y-100600000D03*
X235800000Y-102700000D03*
X223100000Y-85700000D03*
X215400000Y-84200000D03*
X201200000Y-95900000D03*
X205600000Y-87800000D03*
X196600000Y-86800000D03*
X192400000Y-86700000D03*
X197400000Y-86900000D03*
X206600000Y-79500000D03*
X196200000Y-79100000D03*
X191100000Y-85100000D03*
X205500000Y-86400000D03*
X191750000Y-90250000D03*
X190250000Y-94250000D03*
X184900000Y-99000000D03*
X178000000Y-102250000D03*
X168750000Y-105250000D03*
X163500000Y-111500000D03*
X163750000Y-120750000D03*
X169500000Y-115500000D03*
X173800000Y-108700000D03*
X179750000Y-95500000D03*
X182500000Y-86200000D03*
X179750000Y-85750000D03*
X181150000Y-79600000D03*
X175400000Y-84800000D03*
X185250000Y-79000000D03*
X172750000Y-98500000D03*
X171000000Y-92250000D03*
X171000000Y-89500000D03*
X173750000Y-83500000D03*
X164500000Y-98000000D03*
X155000000Y-100000000D03*
X152750000Y-93500000D03*
X154000000Y-88500000D03*
X159250000Y-80750000D03*
X161500000Y-75750000D03*
X166750000Y-68000000D03*
D25*
X194300000Y-79500000D02*
X194250000Y-79550000D01*
X194250000Y-79550000D02*
X194250000Y-80530000D01*
D26*
X192800000Y-78000000D02*
X194300000Y-79500000D01*
X192700000Y-78000000D02*
X192800000Y-78000000D01*
X192700000Y-77000000D02*
X192700000Y-78000000D01*
X165372696Y-102527304D02*
X164645392Y-101800000D01*
X164645392Y-101800000D02*
X153400000Y-101800000D01*
X171100000Y-75827194D02*
X171977194Y-75827194D01*
X153400000Y-101800000D02*
X150000000Y-98400000D01*
X171977194Y-75827194D02*
X172100000Y-75950000D01*
X150000000Y-98400000D02*
X150000000Y-80400000D01*
X150000000Y-80400000D02*
X164900000Y-65500000D01*
X164900000Y-65500000D02*
X167700000Y-65500000D01*
X167700000Y-65500000D02*
X168700000Y-66500000D01*
X168700000Y-66500000D02*
X168700000Y-73427194D01*
X168700000Y-73427194D02*
X171100000Y-75827194D01*
X172100000Y-75950000D02*
X172100000Y-77500000D01*
X174985000Y-77500000D02*
X183600000Y-77500000D01*
X176885000Y-79400000D02*
X174985000Y-77500000D01*
X174985000Y-77500000D02*
X172100000Y-77500000D01*
D25*
X177450000Y-80765000D02*
X177450000Y-79965000D01*
X177450000Y-79965000D02*
X176885000Y-79400000D01*
D26*
X179000000Y-116850000D02*
X172250000Y-123600000D01*
X160800000Y-122100000D02*
X160800000Y-112500000D01*
X172250000Y-123600000D02*
X162300000Y-123600000D01*
X162300000Y-123600000D02*
X160800000Y-122100000D01*
X160800000Y-112500000D02*
X161600000Y-111700000D01*
X161600000Y-111700000D02*
X161600000Y-108878523D01*
X161600000Y-108878523D02*
X165378523Y-105100000D01*
X165378523Y-105100000D02*
X165378523Y-102700000D01*
X235800000Y-98400000D02*
X235800000Y-92341998D01*
X235800000Y-92341998D02*
X233158002Y-89700000D01*
X233158002Y-89700000D02*
X231800000Y-89700000D01*
X231800000Y-89700000D02*
X228100000Y-89700000D01*
D27*
X165378523Y-102700000D02*
X165372696Y-102527304D01*
D26*
X185500001Y-75599999D02*
X183600000Y-77500000D01*
X191000000Y-77000000D02*
X190850000Y-77000000D01*
X190850000Y-77000000D02*
X189449999Y-75599999D01*
X189449999Y-75599999D02*
X185500001Y-75599999D01*
X191000000Y-77000000D02*
X192700000Y-77000000D01*
X207600000Y-77700000D02*
X207450000Y-77700000D01*
X207450000Y-77700000D02*
X205599989Y-75849989D01*
X205599989Y-75849989D02*
X193850011Y-75849989D01*
X193850011Y-75849989D02*
X192700000Y-77000000D01*
X207600000Y-77700000D02*
X209300000Y-77700000D01*
X209300000Y-77700000D02*
X210400000Y-78800000D01*
X210400000Y-78800000D02*
X210400000Y-80559991D01*
X239600000Y-77200000D02*
X238199999Y-75799999D01*
X238199999Y-75799999D02*
X211200001Y-75799999D01*
X211200001Y-75799999D02*
X209300000Y-77700000D01*
X235800000Y-80400000D02*
X236400000Y-80400000D01*
X236400000Y-80400000D02*
X239600000Y-77200000D01*
X228100000Y-89700000D02*
X232354608Y-89700000D01*
X232354608Y-89700000D02*
X235800000Y-86254608D01*
X235800000Y-86254608D02*
X235800000Y-82350000D01*
X235800000Y-82350000D02*
X235800000Y-80400000D01*
X217800000Y-95115000D02*
X222685000Y-95115000D01*
X222685000Y-95115000D02*
X228100000Y-89700000D01*
X237800000Y-102300000D02*
X237800000Y-100400000D01*
X237800000Y-100400000D02*
X235800000Y-98400000D01*
D28*
X195099900Y-96049920D02*
X195099900Y-97750680D01*
D26*
X194774990Y-95725010D02*
X195099900Y-96049920D01*
D28*
X195099900Y-96049920D02*
X195099900Y-96159968D01*
D26*
X179000000Y-116600000D02*
X179000000Y-114900000D01*
X179000000Y-114900000D02*
X179150001Y-114749999D01*
X190374990Y-95725010D02*
X194774990Y-95725010D01*
X179150001Y-114749999D02*
X179150001Y-106949999D01*
X179150001Y-106949999D02*
X190374990Y-95725010D01*
D27*
X179000000Y-116600000D02*
X179000000Y-116850000D01*
X210400000Y-80610000D02*
X210400000Y-80060000D01*
X210400000Y-80060000D02*
X208040000Y-77700000D01*
X208040000Y-77700000D02*
X207600000Y-77700000D01*
X238000000Y-102300000D02*
X237800000Y-102300000D01*
X191000000Y-77000000D02*
X191270000Y-77000000D01*
D26*
X173000000Y-114800000D02*
X173000000Y-114200000D01*
X173000000Y-114200000D02*
X171800000Y-113000000D01*
X174400000Y-116600000D02*
X174400000Y-116200000D01*
X174400000Y-116200000D02*
X173000000Y-114800000D01*
D28*
X197500200Y-97750680D02*
X197500200Y-95900200D01*
X197500200Y-95900200D02*
X197200000Y-95600000D01*
D26*
X187375002Y-81160000D02*
X192500000Y-81160000D01*
D27*
X175500000Y-81408682D02*
X179151308Y-81408682D01*
X179151308Y-81408682D02*
X179200000Y-81359990D01*
X175500000Y-81408682D02*
X175400000Y-81409999D01*
X192500000Y-81160000D02*
X196064990Y-81160000D01*
X196064990Y-81160000D02*
X196100000Y-81124990D01*
D26*
X163341999Y-121600001D02*
X162649999Y-120908001D01*
X162649999Y-120908001D02*
X162649999Y-111091999D01*
X162649999Y-111091999D02*
X167100000Y-106641998D01*
X176700000Y-116600000D02*
X176700000Y-116850000D01*
X171949999Y-121600001D02*
X163341999Y-121600001D01*
X176700000Y-116850000D02*
X171949999Y-121600001D01*
X169800000Y-78865000D02*
X171700000Y-80765000D01*
X167100000Y-106641998D02*
X167100000Y-102499990D01*
X167900000Y-74600000D02*
X169800000Y-76500000D01*
X167100000Y-102499990D02*
X165500000Y-100899990D01*
X165500000Y-100899990D02*
X154641988Y-100899990D01*
X154641988Y-100899990D02*
X152874998Y-99133000D01*
X152874998Y-99133000D02*
X152874998Y-98800000D01*
X151899999Y-81591999D02*
X166341999Y-67149999D01*
X166100000Y-74600000D02*
X167900000Y-74600000D01*
X152874998Y-98800000D02*
X151899999Y-97825001D01*
X167700000Y-67600000D02*
X167700000Y-68800000D01*
X151899999Y-97825001D02*
X151899999Y-81591999D01*
X167249999Y-67149999D02*
X167700000Y-67600000D01*
X169800000Y-76500000D02*
X169800000Y-78865000D01*
X166341999Y-67149999D02*
X167249999Y-67149999D01*
X167700000Y-68800000D02*
X167500000Y-68800000D01*
X167500000Y-68800000D02*
X166100000Y-70200000D01*
X166100000Y-70200000D02*
X166100000Y-74600000D01*
X186600000Y-81935002D02*
X187375002Y-81160000D01*
X187375002Y-81160000D02*
X192100000Y-81160000D01*
X180029990Y-80530000D02*
X179200000Y-81359990D01*
X174755001Y-80765000D02*
X175400000Y-81409999D01*
X169900000Y-80765000D02*
X171700000Y-80765000D01*
X171700000Y-80765000D02*
X174755001Y-80765000D01*
X168050000Y-80765000D02*
X169900000Y-80765000D01*
D29*
X192100000Y-81160000D02*
X192500000Y-81160000D01*
D26*
X201000000Y-80610000D02*
X196614990Y-80610000D01*
X196614990Y-80610000D02*
X196100000Y-81124990D01*
D27*
X186110001Y-82425001D02*
X186600000Y-81935002D01*
D26*
X184850000Y-80530000D02*
X180029990Y-80530000D01*
X233800000Y-102300000D02*
X234530000Y-101570000D01*
X234530000Y-101570000D02*
X234530000Y-98400000D01*
X230300000Y-102300000D02*
X233800000Y-102300000D01*
X219600000Y-102300000D02*
X221150000Y-103850000D01*
X228600000Y-103850000D02*
X230150000Y-102300000D01*
X230150000Y-102300000D02*
X230300000Y-102300000D01*
X221150000Y-103850000D02*
X228600000Y-103850000D01*
X216600000Y-102900000D02*
X219000000Y-102900000D01*
X219000000Y-102900000D02*
X219600000Y-102300000D01*
X181500000Y-107800000D02*
X187951319Y-101348681D01*
X187951319Y-101348681D02*
X201990679Y-101348681D01*
X213175736Y-103000000D02*
X213600000Y-103000000D01*
X201990679Y-101348681D02*
X203641998Y-103000000D01*
X203641998Y-103000000D02*
X213175736Y-103000000D01*
X176700000Y-116600000D02*
X176700000Y-114400000D01*
X176700000Y-114400000D02*
X178000000Y-113100000D01*
X181500000Y-107800000D02*
X181500000Y-112700000D01*
X181500000Y-112700000D02*
X181200000Y-113000000D01*
D27*
X184850000Y-80530000D02*
X184234998Y-80530000D01*
X183524999Y-82360001D02*
X183589999Y-82425001D01*
X184234998Y-80530000D02*
X183524999Y-81239999D01*
X183524999Y-81239999D02*
X183524999Y-82360001D01*
X183589999Y-82425001D02*
X186110001Y-82425001D01*
X221200000Y-78824990D02*
X214705010Y-78824990D01*
X221830000Y-80400000D02*
X221830000Y-78900000D01*
X221754990Y-78824990D02*
X221200000Y-78824990D01*
X221830000Y-78900000D02*
X221754990Y-78824990D01*
X214705010Y-78824990D02*
X211650000Y-81880000D01*
X211650000Y-81880000D02*
X210400000Y-81880000D01*
X210480000Y-81800000D02*
X210400000Y-81880000D01*
X224800000Y-78374980D02*
X214518610Y-78374980D01*
X226910000Y-80400000D02*
X226910000Y-79500000D01*
X226910000Y-79500000D02*
X225784980Y-78374980D01*
X225784980Y-78374980D02*
X224800000Y-78374980D01*
X197600000Y-82700000D02*
X198675001Y-83775001D01*
X198675001Y-83775001D02*
X202258589Y-83775001D01*
X202258589Y-83775001D02*
X202883590Y-83150000D01*
X202883590Y-83150000D02*
X209150000Y-83150000D01*
X209150000Y-83150000D02*
X210400000Y-83150000D01*
X194250000Y-83070000D02*
X195786116Y-83070000D01*
X195786116Y-83070000D02*
X196058058Y-83341942D01*
X209074999Y-82524999D02*
X209700000Y-83150000D01*
X214518610Y-78374980D02*
X211658589Y-81235001D01*
X211658589Y-81235001D02*
X209159997Y-81235001D01*
X209159997Y-81235001D02*
X209074999Y-81319999D01*
X209074999Y-81319999D02*
X209074999Y-82524999D01*
X209700000Y-83150000D02*
X210400000Y-83150000D01*
X210400000Y-83150000D02*
X211100000Y-83150000D01*
X194950000Y-83070000D02*
X194250000Y-83070000D01*
X182000000Y-84984999D02*
X188265001Y-84984999D01*
X182000000Y-84984999D02*
X180320001Y-83305000D01*
X180320001Y-83305000D02*
X177450000Y-83305000D01*
X188265001Y-84984999D02*
X190180000Y-83070000D01*
X190180000Y-83070000D02*
X194250000Y-83070000D01*
X222900000Y-82900000D02*
X214600000Y-82900000D01*
X225640000Y-80400000D02*
X225640000Y-80984608D01*
X225640000Y-80984608D02*
X223724608Y-82900000D01*
X223724608Y-82900000D02*
X222900000Y-82900000D01*
X177450000Y-84575000D02*
X179500002Y-84575000D01*
X183600000Y-86300000D02*
X183600000Y-86235001D01*
X179500002Y-84575000D02*
X180500000Y-85574998D01*
X183600000Y-86235001D02*
X187944999Y-86235001D01*
X180500000Y-85574998D02*
X180500000Y-87000000D01*
X181100000Y-87600000D02*
X182300000Y-87600000D01*
X180500000Y-87000000D02*
X181100000Y-87600000D01*
X187944999Y-86235001D02*
X189840000Y-84340000D01*
X182300000Y-87600000D02*
X183600000Y-86300000D01*
X189840000Y-84340000D02*
X194250000Y-84340000D01*
X194250000Y-84340000D02*
X194950000Y-84340000D01*
X194950000Y-84340000D02*
X195674999Y-85064999D01*
X195674999Y-85064999D02*
X208505001Y-85064999D01*
X208505001Y-85064999D02*
X209150000Y-84420000D01*
X209150000Y-84420000D02*
X210400000Y-84420000D01*
X214600000Y-82900000D02*
X213080000Y-84420000D01*
X213080000Y-84420000D02*
X210400000Y-84420000D01*
X209700000Y-84420000D02*
X210400000Y-84420000D01*
X214888580Y-81975010D02*
X222200000Y-81975010D01*
X223100000Y-80400000D02*
X223100000Y-81900000D01*
X223100000Y-81900000D02*
X223024990Y-81975010D01*
X223024990Y-81975010D02*
X222200000Y-81975010D01*
X184850000Y-84340000D02*
X188273590Y-84340000D01*
X188273590Y-84340000D02*
X190168591Y-82444999D01*
X190168591Y-82444999D02*
X196324999Y-82444999D01*
X196324999Y-82444999D02*
X198300000Y-84420000D01*
X198300000Y-84420000D02*
X201000000Y-84420000D01*
X201000000Y-84420000D02*
X202250000Y-84420000D01*
X202894999Y-83775001D02*
X213088589Y-83775001D01*
X202250000Y-84420000D02*
X202894999Y-83775001D01*
X213088589Y-83775001D02*
X214888580Y-81975010D01*
X180679999Y-82679999D02*
X182340000Y-84340000D01*
X182340000Y-84340000D02*
X184850000Y-84340000D01*
X168050000Y-84575000D02*
X168750000Y-84575000D01*
X168750000Y-84575000D02*
X170645001Y-82679999D01*
X170645001Y-82679999D02*
X180679999Y-82679999D01*
X201000000Y-81880000D02*
X201700000Y-81880000D01*
X203600000Y-78800000D02*
X203600000Y-77700000D01*
X201700000Y-81880000D02*
X203600000Y-79980000D01*
X203600000Y-79980000D02*
X203600000Y-78800000D01*
X184850000Y-81800000D02*
X185550000Y-81800000D01*
X185550000Y-81800000D02*
X187000000Y-80350000D01*
X187000000Y-80350000D02*
X187000000Y-78100000D01*
X187000000Y-78100000D02*
X187000000Y-77000000D01*
X198950000Y-81800000D02*
X194250000Y-81800000D01*
X201000000Y-83150000D02*
X200300000Y-83150000D01*
X200300000Y-83150000D02*
X198950000Y-81800000D01*
X209998605Y-96700017D02*
X229800000Y-96700017D01*
X234700000Y-92500000D02*
X230499983Y-96700017D01*
X230499983Y-96700017D02*
X229800000Y-96700017D01*
X207600000Y-87900000D02*
X209810000Y-85690000D01*
X209810000Y-85690000D02*
X210400000Y-85690000D01*
X209998605Y-96700017D02*
X208174979Y-94876391D01*
X208174979Y-94876391D02*
X208174979Y-92174979D01*
X208174979Y-92174979D02*
X207500000Y-91500000D01*
X210400000Y-86960000D02*
X213100000Y-86960000D01*
X214500000Y-85900000D02*
X213440000Y-86960000D01*
X213440000Y-86960000D02*
X213100000Y-86960000D01*
X232300000Y-76900000D02*
X231449693Y-77750307D01*
X231449693Y-77750307D02*
X214498392Y-77750307D01*
X222300000Y-86500000D02*
X215536410Y-86500000D01*
X223225003Y-86499999D02*
X222300001Y-86499999D01*
X227500000Y-83700000D02*
X226025002Y-83700000D01*
X226025002Y-83700000D02*
X223225003Y-86499999D01*
X222300001Y-86499999D02*
X222300000Y-86500000D01*
X215536410Y-86500000D02*
X213806410Y-88230000D01*
X213500000Y-88230000D02*
X210400000Y-88230000D01*
X213806410Y-88230000D02*
X213500000Y-88230000D01*
X230900000Y-84300000D02*
X230475736Y-84300000D01*
X211650000Y-89500000D02*
X210400000Y-89500000D01*
X230475736Y-84300000D02*
X229575736Y-85200000D01*
X229575736Y-85200000D02*
X225161412Y-85200000D01*
X215722811Y-86950009D02*
X213172820Y-89500000D01*
X225161412Y-85200000D02*
X223411403Y-86950009D01*
X213172820Y-89500000D02*
X211650000Y-89500000D01*
X223411403Y-86950009D02*
X215722811Y-86950009D01*
X210185006Y-96250008D02*
X223600000Y-96250008D01*
X231900000Y-92485002D02*
X228134994Y-96250008D01*
X231900000Y-90900000D02*
X231900000Y-92485002D01*
X228134994Y-96250008D02*
X223600000Y-96250008D01*
X210400000Y-90770000D02*
X209700000Y-90770000D01*
X209700000Y-90770000D02*
X208624989Y-91845011D01*
X208624989Y-91845011D02*
X208624989Y-94689991D01*
X208624989Y-94689991D02*
X210185006Y-96250008D01*
X225600000Y-95500000D02*
X225300001Y-95799999D01*
X225300001Y-95799999D02*
X215825001Y-95799999D01*
X213895003Y-93870001D02*
X211725001Y-93870001D01*
X215825001Y-95799999D02*
X213895003Y-93870001D01*
X211725001Y-93870001D02*
X211660001Y-93935001D01*
X211660001Y-93935001D02*
X209139999Y-93935001D01*
X209139999Y-93935001D02*
X209074999Y-93870001D01*
X209074999Y-93870001D02*
X209074999Y-92665001D01*
X209074999Y-92665001D02*
X209700000Y-92040000D01*
X209700000Y-92040000D02*
X210400000Y-92040000D01*
X216000000Y-90400000D02*
X213090000Y-93310000D01*
X213090000Y-93310000D02*
X210400000Y-93310000D01*
X213600000Y-94500000D02*
X210480000Y-94500000D01*
X210480000Y-94500000D02*
X210400000Y-94580000D01*
X202800000Y-100900000D02*
X202800000Y-95680000D01*
X202800000Y-95680000D02*
X201700000Y-94580000D01*
X201700000Y-94580000D02*
X201000000Y-94580000D01*
X202900000Y-95143590D02*
X202900000Y-94510000D01*
X202900000Y-94510000D02*
X201700000Y-93310000D01*
X201700000Y-93310000D02*
X201000000Y-93310000D01*
X213000000Y-102000000D02*
X209756410Y-102000000D01*
X209756410Y-102000000D02*
X202900000Y-95143590D01*
X227300000Y-100600000D02*
X210810000Y-100600000D01*
X210810000Y-100600000D02*
X202250000Y-92040000D01*
X202250000Y-92040000D02*
X201000000Y-92040000D01*
X201700000Y-92040000D02*
X201000000Y-92040000D01*
X235800000Y-102700000D02*
X233974990Y-104525010D01*
X233974990Y-104525010D02*
X216450012Y-104525010D01*
X216450012Y-104525010D02*
X213300001Y-101374999D01*
X213300001Y-101374999D02*
X210874999Y-101374999D01*
X199674999Y-91395001D02*
X200300000Y-90770000D01*
X210874999Y-101374999D02*
X202165001Y-92665001D01*
X202165001Y-92665001D02*
X199739999Y-92665001D01*
X199739999Y-92665001D02*
X199674999Y-92600001D01*
X199674999Y-92600001D02*
X199674999Y-91395001D01*
X200300000Y-90770000D02*
X201000000Y-90770000D01*
X201700000Y-90770000D02*
X201000000Y-90770000D01*
X201508588Y-90770000D02*
X201000000Y-90770000D01*
X223100000Y-85700000D02*
X222750010Y-86049990D01*
X222750010Y-86049990D02*
X215350010Y-86049990D01*
X215350010Y-86049990D02*
X213795001Y-87604999D01*
X213795001Y-87604999D02*
X209139999Y-87604999D01*
X209139999Y-87604999D02*
X207244998Y-89500000D01*
X207244998Y-89500000D02*
X201000000Y-89500000D01*
X201700000Y-89500000D02*
X201000000Y-89500000D01*
X215400000Y-84200000D02*
X213936410Y-84200000D01*
X204244998Y-88230000D02*
X201000000Y-88230000D01*
X213936410Y-84200000D02*
X213071411Y-85064999D01*
X204439999Y-88425001D02*
X204244998Y-88230000D01*
X213071411Y-85064999D02*
X209141411Y-85064999D01*
X206900000Y-87306410D02*
X206900000Y-87425002D01*
X209141411Y-85064999D02*
X206900000Y-87306410D01*
X206900000Y-87425002D02*
X205900001Y-88425001D01*
X205900001Y-88425001D02*
X204439999Y-88425001D01*
X197400000Y-89000000D02*
X199440000Y-86960000D01*
X199440000Y-86960000D02*
X201000000Y-86960000D01*
X197400000Y-94400000D02*
X197400000Y-89000000D01*
X201200000Y-95900000D02*
X198900000Y-95900000D01*
X198900000Y-95900000D02*
X197400000Y-94400000D01*
X201000000Y-86960000D02*
X201700000Y-86960000D01*
X205600000Y-87800000D02*
X206125001Y-87274999D01*
X205715002Y-85690000D02*
X202250000Y-85690000D01*
X206125001Y-87274999D02*
X206125001Y-86099999D01*
X206125001Y-86099999D02*
X205715002Y-85690000D01*
X202250000Y-85690000D02*
X201000000Y-85690000D01*
X194250000Y-85610000D02*
X194950000Y-85610000D01*
X194950000Y-85610000D02*
X196140000Y-86800000D01*
X196140000Y-86800000D02*
X196600000Y-86800000D01*
X194235000Y-85625000D02*
X194250000Y-85610000D01*
X192400000Y-86700000D02*
X194070000Y-86700000D01*
X194070000Y-86700000D02*
X194250000Y-86880000D01*
X197400000Y-86900000D02*
X196150000Y-88150000D01*
X196150000Y-88150000D02*
X195500000Y-88150000D01*
X195500000Y-88150000D02*
X194250000Y-88150000D01*
X196200000Y-79100000D02*
X198775001Y-76524999D01*
X198775001Y-76524999D02*
X204860001Y-76524999D01*
X204925001Y-77825001D02*
X206600000Y-79500000D01*
X204860001Y-76524999D02*
X204925001Y-76589999D01*
X204925001Y-76589999D02*
X204925001Y-77825001D01*
X194250000Y-89420000D02*
X193550000Y-89420000D01*
X191100000Y-86970000D02*
X191100000Y-85100000D01*
X193550000Y-89420000D02*
X191100000Y-86970000D01*
X205500000Y-86400000D02*
X202325001Y-86399999D01*
X199305001Y-86334999D02*
X194950000Y-90690000D01*
X202325001Y-86399999D02*
X202260001Y-86334999D01*
X202260001Y-86334999D02*
X199305001Y-86334999D01*
X194950000Y-90690000D02*
X194250000Y-90690000D01*
X191750000Y-90250000D02*
X193460000Y-91960000D01*
X193460000Y-91960000D02*
X194250000Y-91960000D01*
X190250000Y-94250000D02*
X191270000Y-93230000D01*
X191270000Y-93230000D02*
X194250000Y-93230000D01*
X189100000Y-95050000D02*
X193000000Y-95050000D01*
X188850000Y-95050000D02*
X189100000Y-95050000D01*
X184900000Y-99000000D02*
X188850000Y-95050000D01*
X193000000Y-95050000D02*
X193550000Y-94500000D01*
X193550000Y-94500000D02*
X194250000Y-94500000D01*
X184850000Y-94500000D02*
X184850000Y-95400000D01*
X184850000Y-95400000D02*
X178000000Y-102250000D01*
X184850000Y-93230000D02*
X184150000Y-93230000D01*
X184150000Y-93230000D02*
X172130000Y-105250000D01*
X172130000Y-105250000D02*
X169174264Y-105250000D01*
X169174264Y-105250000D02*
X168750000Y-105250000D01*
X165200000Y-111500000D02*
X163500000Y-111500000D01*
X168124999Y-108575001D02*
X165200000Y-111500000D01*
X168449999Y-104624999D02*
X168124999Y-104949999D01*
X168124999Y-104949999D02*
X168124999Y-108575001D01*
X184850000Y-91960000D02*
X184215002Y-91960000D01*
X184215002Y-91960000D02*
X171550003Y-104624999D01*
X171550003Y-104624999D02*
X168449999Y-104624999D01*
X170250000Y-115675002D02*
X170250000Y-108664998D01*
X170250000Y-108664998D02*
X172464988Y-106450010D01*
X172464988Y-106450010D02*
X175361403Y-106450009D01*
X175361403Y-106450009D02*
X186625011Y-95186401D01*
X186625011Y-95186401D02*
X186625010Y-91213598D01*
X186625010Y-91213598D02*
X186101412Y-90690000D01*
X186100000Y-90690000D02*
X184850000Y-90690000D01*
X186101412Y-90690000D02*
X186100000Y-90690000D01*
X163750000Y-120750000D02*
X165175002Y-120750000D01*
X165175002Y-120750000D02*
X170250000Y-115675002D01*
X183000000Y-91334999D02*
X186110001Y-91334999D01*
X184850000Y-89420000D02*
X184150000Y-89420000D01*
X184150000Y-89420000D02*
X183000000Y-90570000D01*
X183000000Y-90570000D02*
X183000000Y-91334999D01*
X168750000Y-106000000D02*
X168750000Y-114750000D01*
X186110001Y-91334999D02*
X186175001Y-91399999D01*
X186175001Y-91399999D02*
X186175001Y-95000001D01*
X186175001Y-95000001D02*
X175175002Y-106000000D01*
X175175002Y-106000000D02*
X168750000Y-106000000D01*
X168750000Y-114750000D02*
X169500000Y-115500000D01*
X187075020Y-95372802D02*
X187075020Y-95424980D01*
X187075020Y-95424980D02*
X173800000Y-108700000D01*
X184850000Y-88150000D02*
X185550000Y-88150000D01*
X185550000Y-88150000D02*
X187075020Y-89675020D01*
X187075020Y-89675020D02*
X187075020Y-95372802D01*
X179750000Y-95500000D02*
X179750000Y-92600000D01*
X184850000Y-86880000D02*
X184150000Y-86880000D01*
X184150000Y-86880000D02*
X179750000Y-91280000D01*
X179750000Y-91280000D02*
X179750000Y-92600000D01*
X184850000Y-85610000D02*
X183090000Y-85610000D01*
X183090000Y-85610000D02*
X182500000Y-86200000D01*
X179750000Y-85750000D02*
X177545000Y-85750000D01*
X177545000Y-85750000D02*
X177450000Y-85845000D01*
X185250000Y-79000000D02*
X181750000Y-79000000D01*
X181750000Y-79000000D02*
X181150000Y-79600000D01*
X176750000Y-87115000D02*
X175400000Y-85765000D01*
X175400000Y-85765000D02*
X175400000Y-85680002D01*
X175400000Y-85680002D02*
X175400000Y-84800000D01*
X177450000Y-87115000D02*
X176750000Y-87115000D01*
X177565000Y-87000000D02*
X177450000Y-87115000D01*
X172750000Y-98500000D02*
X175889999Y-95360001D01*
X175889999Y-95360001D02*
X178710001Y-95360001D01*
X178710001Y-95360001D02*
X178775001Y-95295001D01*
X178775001Y-95295001D02*
X178775001Y-89010001D01*
X178775001Y-89010001D02*
X178150000Y-88385000D01*
X178150000Y-88385000D02*
X177450000Y-88385000D01*
X171000000Y-92250000D02*
X170374999Y-91624999D01*
X170374999Y-91624999D02*
X170374999Y-89199999D01*
X170699999Y-88874999D02*
X175969999Y-88874999D01*
X175969999Y-88874999D02*
X176750000Y-89655000D01*
X170374999Y-89199999D02*
X170699999Y-88874999D01*
X176750000Y-89655000D02*
X177450000Y-89655000D01*
X171000000Y-89500000D02*
X172425000Y-90925000D01*
X172425000Y-90925000D02*
X177450000Y-90925000D01*
X173750000Y-83500000D02*
X169825011Y-87424989D01*
X169825011Y-87424989D02*
X169825011Y-89764991D01*
X169825011Y-89764991D02*
X169375001Y-90215001D01*
X169825011Y-92000013D02*
X170699999Y-92875001D01*
X170699999Y-92875001D02*
X176069999Y-92875001D01*
X169375001Y-90215001D02*
X169375001Y-90913591D01*
X169375001Y-90913591D02*
X169825011Y-91363601D01*
X169825011Y-91363601D02*
X169825011Y-92000013D01*
X176069999Y-92875001D02*
X176750000Y-92195000D01*
X176750000Y-92195000D02*
X177450000Y-92195000D01*
X164500000Y-98000000D02*
X170250000Y-98000000D01*
X170250000Y-98000000D02*
X174785000Y-93465000D01*
X174785000Y-93465000D02*
X176200000Y-93465000D01*
X176200000Y-93465000D02*
X177450000Y-93465000D01*
X170750000Y-99000000D02*
X175015000Y-94735000D01*
X175015000Y-94735000D02*
X177450000Y-94735000D01*
X156000000Y-99000000D02*
X170750000Y-99000000D01*
X155000000Y-100000000D02*
X156000000Y-99000000D01*
X168050000Y-94735000D02*
X153985000Y-94735000D01*
X153985000Y-94735000D02*
X152750000Y-93500000D01*
X154000000Y-91750000D02*
X154000000Y-88500000D01*
X155715000Y-93465000D02*
X154000000Y-91750000D01*
X168050000Y-93465000D02*
X155715000Y-93465000D01*
X159250000Y-80750000D02*
X159250000Y-84095000D01*
X159250000Y-84095000D02*
X167350000Y-92195000D01*
X167350000Y-92195000D02*
X168050000Y-92195000D01*
X161500000Y-75750000D02*
X161500000Y-85075000D01*
X161500000Y-85075000D02*
X167350000Y-90925000D01*
X167350000Y-90925000D02*
X168050000Y-90925000D01*
X166750000Y-68000000D02*
X165000000Y-69750000D01*
X165000000Y-69750000D02*
X165000000Y-83410002D01*
X165000000Y-83410002D02*
X166809997Y-85219999D01*
X166809997Y-85219999D02*
X169310001Y-85219999D01*
X169310001Y-85219999D02*
X169375001Y-85284999D01*
X169375001Y-85284999D02*
X169375001Y-89029999D01*
X169375001Y-89029999D02*
X168750000Y-89655000D01*
X168750000Y-89655000D02*
X168050000Y-89655000D01*
X168100000Y-77500000D02*
X167950000Y-77500000D01*
X167950000Y-77500000D02*
X165900000Y-79550000D01*
X165900000Y-79550000D02*
X165900000Y-81400000D01*
X165900000Y-81400000D02*
X166535000Y-82035000D01*
X166535000Y-82035000D02*
X168050000Y-82035000D01*
X167350000Y-82035000D02*
X168050000Y-82035000D01*
X184850000Y-83070000D02*
X181706410Y-83070000D01*
X181706410Y-83070000D02*
X180671410Y-82035000D01*
X180671410Y-82035000D02*
X178700000Y-82035000D01*
X178700000Y-82035000D02*
X177450000Y-82035000D01*
X231400000Y-100349990D02*
X229500010Y-100349990D01*
X232210010Y-100349990D02*
X233260000Y-99300000D01*
X231400000Y-100349990D02*
X232210010Y-100349990D01*
X233260000Y-99300000D02*
X233260000Y-98400000D01*
X226300000Y-102300000D02*
X222900000Y-102300000D01*
X227550000Y-102300000D02*
X226300000Y-102300000D01*
X229500010Y-100349990D02*
X227550000Y-102300000D01*
X231990000Y-80400000D02*
X231990000Y-79815392D01*
X231990000Y-79815392D02*
X233630391Y-78175001D01*
X233630391Y-78175001D02*
X235624999Y-78175001D01*
X235624999Y-78175001D02*
X235950001Y-77849999D01*
X235950001Y-77849999D02*
X236700000Y-77100000D01*
X234100000Y-77100000D02*
X233039340Y-77100000D01*
X233039340Y-77100000D02*
X230720000Y-79419340D01*
X230720000Y-79419340D02*
X230720000Y-80400000D01*
X219290000Y-80400000D02*
X216200000Y-80400000D01*
D30*
G36*
X166921057Y-59455978D02*
X167629701Y-60076323D01*
X168176111Y-61055678D01*
X168571258Y-62368359D01*
X168835781Y-63930386D01*
X169012991Y-65652075D01*
X169156220Y-67445701D01*
X169157540Y-67450362D01*
X169157042Y-67455179D01*
X169323166Y-69230575D01*
X169328563Y-69248683D01*
X169327623Y-69267557D01*
X169574759Y-70941234D01*
X169587386Y-70976597D01*
X169589512Y-71014088D01*
X169976414Y-72510535D01*
X170004900Y-72569603D01*
X170020716Y-72633241D01*
X170606137Y-73876950D01*
X170669099Y-73962173D01*
X170724276Y-74052639D01*
X171566969Y-74968099D01*
X171572200Y-74971916D01*
X171575673Y-74977384D01*
X171682157Y-75052157D01*
X171787252Y-75128850D01*
X171793547Y-75130375D01*
X171798847Y-75134097D01*
X172957567Y-75645798D01*
X173077235Y-75672496D01*
X173195755Y-75703969D01*
X174675609Y-75797640D01*
X174693283Y-75795273D01*
X174710729Y-75798978D01*
X176480775Y-75821850D01*
X176492073Y-75819754D01*
X176503382Y-75821776D01*
X178538905Y-75782225D01*
X178546430Y-75780576D01*
X178554043Y-75781767D01*
X180830329Y-75688166D01*
X180835422Y-75686933D01*
X180840609Y-75687667D01*
X183332940Y-75548393D01*
X183336344Y-75547516D01*
X183339831Y-75547974D01*
X186023493Y-75371400D01*
X186025649Y-75370822D01*
X186027866Y-75371099D01*
X188878144Y-75165601D01*
X188879323Y-75165277D01*
X188880535Y-75165424D01*
X191872712Y-74939376D01*
X191873076Y-74939275D01*
X191873452Y-74939320D01*
X194982564Y-74701117D01*
X198183028Y-74459198D01*
X201449646Y-74221967D01*
X204758353Y-73997735D01*
X208083997Y-73794888D01*
X211401488Y-73621784D01*
X214686373Y-73486738D01*
X217913382Y-73398082D01*
X221057552Y-73364098D01*
X224093539Y-73393023D01*
X226995996Y-73493005D01*
X229739049Y-73672031D01*
X232296560Y-73937810D01*
X234641663Y-74297519D01*
X236746671Y-74757335D01*
X238572079Y-75318171D01*
X239801156Y-75899594D01*
X239727000Y-75973750D01*
X239727000Y-77073000D01*
X240826250Y-77073000D01*
X240985000Y-76914250D01*
X240985000Y-76708087D01*
X241500008Y-77128121D01*
X242401050Y-78443558D01*
X242954184Y-79973000D01*
X237250000Y-79973000D01*
X237203841Y-79981685D01*
X237161447Y-80008965D01*
X237133006Y-80050590D01*
X237123000Y-80100000D01*
X237123000Y-98600000D01*
X237131685Y-98646159D01*
X237158965Y-98688553D01*
X237200590Y-98716994D01*
X237250000Y-98727000D01*
X242616528Y-98727000D01*
X242265413Y-100043492D01*
X241409803Y-101862434D01*
X240282530Y-103186889D01*
X238827268Y-104024626D01*
X236878712Y-104368777D01*
X235621009Y-104393245D01*
X235176195Y-104398607D01*
X235939680Y-103635122D01*
X235985167Y-103635162D01*
X236304989Y-103503015D01*
X236440302Y-103638327D01*
X236673691Y-103735000D01*
X237514250Y-103735000D01*
X237673000Y-103576250D01*
X237673000Y-102427000D01*
X237927000Y-102427000D01*
X237927000Y-103576250D01*
X238085750Y-103735000D01*
X238926309Y-103735000D01*
X239159698Y-103638327D01*
X239338327Y-103459699D01*
X239435000Y-103226310D01*
X239435000Y-102585750D01*
X239276250Y-102427000D01*
X237927000Y-102427000D01*
X237673000Y-102427000D01*
X237653000Y-102427000D01*
X237653000Y-102173000D01*
X237673000Y-102173000D01*
X237673000Y-101023750D01*
X237927000Y-101023750D01*
X237927000Y-102173000D01*
X239276250Y-102173000D01*
X239435000Y-102014250D01*
X239435000Y-101373690D01*
X239338327Y-101140301D01*
X239159698Y-100961673D01*
X238926309Y-100865000D01*
X238085750Y-100865000D01*
X237927000Y-101023750D01*
X237673000Y-101023750D01*
X237514250Y-100865000D01*
X236673691Y-100865000D01*
X236440302Y-100961673D01*
X236261673Y-101140301D01*
X236165000Y-101373690D01*
X236165000Y-101839158D01*
X235986799Y-101765162D01*
X235614833Y-101764838D01*
X235463834Y-101827230D01*
X235515000Y-101570000D01*
X235515000Y-100241620D01*
X235521762Y-100244885D01*
X235673000Y-100116431D01*
X235673000Y-98527000D01*
X235927000Y-98527000D01*
X235927000Y-100116431D01*
X236078238Y-100244885D01*
X236406698Y-100086303D01*
X236661421Y-99794276D01*
X236785000Y-99427000D01*
X236785000Y-98527000D01*
X235927000Y-98527000D01*
X235673000Y-98527000D01*
X235653000Y-98527000D01*
X235653000Y-98273000D01*
X235673000Y-98273000D01*
X235673000Y-96683569D01*
X235927000Y-96683569D01*
X235927000Y-98273000D01*
X236785000Y-98273000D01*
X236785000Y-97373000D01*
X236661421Y-97005724D01*
X236406698Y-96713697D01*
X236078238Y-96555115D01*
X235927000Y-96683569D01*
X235673000Y-96683569D01*
X235521762Y-96555115D01*
X235193302Y-96713697D01*
X235176388Y-96733088D01*
X234906943Y-96553050D01*
X234530000Y-96478071D01*
X234153057Y-96553050D01*
X233895000Y-96725478D01*
X233636943Y-96553050D01*
X233260000Y-96478071D01*
X232883057Y-96553050D01*
X232625000Y-96725478D01*
X232366943Y-96553050D01*
X231990000Y-96478071D01*
X231748741Y-96526061D01*
X234839680Y-93435122D01*
X234885167Y-93435162D01*
X235228943Y-93293117D01*
X235492192Y-93030327D01*
X235634838Y-92686799D01*
X235635162Y-92314833D01*
X235493117Y-91971057D01*
X235230327Y-91707808D01*
X234886799Y-91565162D01*
X234514833Y-91564838D01*
X234171057Y-91706883D01*
X233907808Y-91969673D01*
X233765162Y-92313201D01*
X233765121Y-92360077D01*
X230185181Y-95940017D01*
X229519787Y-95940017D01*
X232437401Y-93022403D01*
X232602148Y-92775841D01*
X232660000Y-92485002D01*
X232660000Y-91462463D01*
X232692192Y-91430327D01*
X232834838Y-91086799D01*
X232835162Y-90714833D01*
X232693117Y-90371057D01*
X232430327Y-90107808D01*
X232086799Y-89965162D01*
X231714833Y-89964838D01*
X231714306Y-89965056D01*
X231576250Y-89827000D01*
X228227000Y-89827000D01*
X228227000Y-93176250D01*
X228385750Y-93335000D01*
X229975200Y-93335000D01*
X227820192Y-95490008D01*
X226535009Y-95490008D01*
X226535162Y-95314833D01*
X226393117Y-94971057D01*
X226130327Y-94707808D01*
X225786799Y-94565162D01*
X225414833Y-94564838D01*
X225071057Y-94706883D01*
X224807808Y-94969673D01*
X224778606Y-95039999D01*
X219685000Y-95039999D01*
X219685000Y-94987998D01*
X219516433Y-94987998D01*
X219644885Y-94836762D01*
X219486303Y-94508302D01*
X219466912Y-94491388D01*
X219646950Y-94221943D01*
X219721929Y-93845000D01*
X219646950Y-93468057D01*
X219474522Y-93210000D01*
X219646950Y-92951943D01*
X219721929Y-92575000D01*
X219646950Y-92198057D01*
X219474522Y-91940000D01*
X219646950Y-91681943D01*
X219721929Y-91305000D01*
X219646950Y-90928057D01*
X219474522Y-90670000D01*
X219646950Y-90411943D01*
X219721929Y-90035000D01*
X219712133Y-89985750D01*
X224465000Y-89985750D01*
X224465000Y-92826309D01*
X224561673Y-93059698D01*
X224740301Y-93238327D01*
X224973690Y-93335000D01*
X227814250Y-93335000D01*
X227973000Y-93176250D01*
X227973000Y-89827000D01*
X224623750Y-89827000D01*
X224465000Y-89985750D01*
X219712133Y-89985750D01*
X219646950Y-89658057D01*
X219474522Y-89400000D01*
X219646950Y-89141943D01*
X219721929Y-88765000D01*
X219646950Y-88388057D01*
X219433429Y-88068500D01*
X219113872Y-87854979D01*
X218736929Y-87780000D01*
X216863071Y-87780000D01*
X216486128Y-87854979D01*
X216166571Y-88068500D01*
X215953050Y-88388057D01*
X215878071Y-88765000D01*
X215953050Y-89141943D01*
X216125478Y-89400000D01*
X216081999Y-89465071D01*
X215814833Y-89464838D01*
X215471057Y-89606883D01*
X215207808Y-89869673D01*
X215065162Y-90213201D01*
X215065121Y-90260077D01*
X212775198Y-92550000D01*
X212004914Y-92550000D01*
X212047440Y-92340000D01*
X212047440Y-91740000D01*
X212003162Y-91504683D01*
X211939322Y-91405472D01*
X211996431Y-91321890D01*
X212047440Y-91070000D01*
X212047440Y-90470000D01*
X212007926Y-90260000D01*
X213172820Y-90260000D01*
X213463659Y-90202148D01*
X213710221Y-90037401D01*
X216037613Y-87710009D01*
X223411403Y-87710009D01*
X223702242Y-87652157D01*
X223948804Y-87487410D01*
X224465000Y-86971214D01*
X224465000Y-89414250D01*
X224623750Y-89573000D01*
X227973000Y-89573000D01*
X227973000Y-86223750D01*
X228227000Y-86223750D01*
X228227000Y-89573000D01*
X231576250Y-89573000D01*
X231735000Y-89414250D01*
X231735000Y-86573691D01*
X231638327Y-86340302D01*
X231459699Y-86161673D01*
X231226310Y-86065000D01*
X228385750Y-86065000D01*
X228227000Y-86223750D01*
X227973000Y-86223750D01*
X227814250Y-86065000D01*
X225371214Y-86065000D01*
X225476214Y-85960000D01*
X229575736Y-85960000D01*
X229866575Y-85902148D01*
X230113137Y-85737401D01*
X230644307Y-85206231D01*
X230713201Y-85234838D01*
X231085167Y-85235162D01*
X231428943Y-85093117D01*
X231692192Y-84830327D01*
X231834838Y-84486799D01*
X231835162Y-84114833D01*
X231693117Y-83771057D01*
X231430327Y-83507808D01*
X231086799Y-83365162D01*
X230714833Y-83364838D01*
X230371057Y-83506883D01*
X230303578Y-83574245D01*
X230184896Y-83597852D01*
X229938335Y-83762599D01*
X229260934Y-84440000D01*
X228082153Y-84440000D01*
X228292192Y-84230327D01*
X228434838Y-83886799D01*
X228435162Y-83514833D01*
X228293117Y-83171057D01*
X228030327Y-82907808D01*
X227686799Y-82765162D01*
X227314833Y-82764838D01*
X226971057Y-82906883D01*
X226937882Y-82940000D01*
X226025002Y-82940000D01*
X225734163Y-82997852D01*
X225487601Y-83162599D01*
X223686311Y-84963889D01*
X223630327Y-84907808D01*
X223286799Y-84765162D01*
X222914833Y-84764838D01*
X222571057Y-84906883D01*
X222307808Y-85169673D01*
X222257848Y-85289990D01*
X219655295Y-85289990D01*
X219721929Y-84955000D01*
X219646950Y-84578057D01*
X219474522Y-84320000D01*
X219646950Y-84061943D01*
X219721929Y-83685000D01*
X219716956Y-83660000D01*
X223724608Y-83660000D01*
X224015447Y-83602148D01*
X224262009Y-83437401D01*
X225421036Y-82278374D01*
X225640000Y-82321929D01*
X226016943Y-82246950D01*
X226275000Y-82074522D01*
X226533057Y-82246950D01*
X226910000Y-82321929D01*
X227286943Y-82246950D01*
X227545000Y-82074522D01*
X227803057Y-82246950D01*
X228180000Y-82321929D01*
X228556943Y-82246950D01*
X228815000Y-82074522D01*
X229073057Y-82246950D01*
X229450000Y-82321929D01*
X229826943Y-82246950D01*
X230085000Y-82074522D01*
X230343057Y-82246950D01*
X230720000Y-82321929D01*
X231096943Y-82246950D01*
X231355000Y-82074522D01*
X231613057Y-82246950D01*
X231990000Y-82321929D01*
X232366943Y-82246950D01*
X232625000Y-82074522D01*
X232883057Y-82246950D01*
X233260000Y-82321929D01*
X233636943Y-82246950D01*
X233895000Y-82074522D01*
X234153057Y-82246950D01*
X234530000Y-82321929D01*
X234906943Y-82246950D01*
X235176388Y-82066912D01*
X235193302Y-82086303D01*
X235521762Y-82244885D01*
X235673000Y-82116431D01*
X235673000Y-80527000D01*
X235927000Y-80527000D01*
X235927000Y-82116431D01*
X236078238Y-82244885D01*
X236406698Y-82086303D01*
X236661421Y-81794276D01*
X236785000Y-81427000D01*
X236785000Y-80527000D01*
X235927000Y-80527000D01*
X235673000Y-80527000D01*
X235653000Y-80527000D01*
X235653000Y-80273000D01*
X235673000Y-80273000D01*
X235673000Y-80253000D01*
X235927000Y-80253000D01*
X235927000Y-80273000D01*
X236785000Y-80273000D01*
X236785000Y-79373000D01*
X236661421Y-79005724D01*
X236406698Y-78713697D01*
X236241071Y-78633731D01*
X236399800Y-78475002D01*
X236423298Y-78484759D01*
X236974285Y-78485240D01*
X237483515Y-78274831D01*
X237873461Y-77885564D01*
X238039478Y-77485750D01*
X238215000Y-77485750D01*
X238215000Y-78076310D01*
X238311673Y-78309699D01*
X238490302Y-78488327D01*
X238723691Y-78585000D01*
X239314250Y-78585000D01*
X239473000Y-78426250D01*
X239473000Y-77327000D01*
X239727000Y-77327000D01*
X239727000Y-78426250D01*
X239885750Y-78585000D01*
X240476309Y-78585000D01*
X240709698Y-78488327D01*
X240888327Y-78309699D01*
X240985000Y-78076310D01*
X240985000Y-77485750D01*
X240826250Y-77327000D01*
X239727000Y-77327000D01*
X239473000Y-77327000D01*
X238373750Y-77327000D01*
X238215000Y-77485750D01*
X238039478Y-77485750D01*
X238084759Y-77376702D01*
X238085240Y-76825715D01*
X237877809Y-76323690D01*
X238215000Y-76323690D01*
X238215000Y-76914250D01*
X238373750Y-77073000D01*
X239473000Y-77073000D01*
X239473000Y-75973750D01*
X239314250Y-75815000D01*
X238723691Y-75815000D01*
X238490302Y-75911673D01*
X238311673Y-76090301D01*
X238215000Y-76323690D01*
X237877809Y-76323690D01*
X237874831Y-76316485D01*
X237485564Y-75926539D01*
X236976702Y-75715241D01*
X236425715Y-75714760D01*
X235916485Y-75925169D01*
X235526539Y-76314436D01*
X235399950Y-76619297D01*
X235274831Y-76316485D01*
X234885564Y-75926539D01*
X234376702Y-75715241D01*
X233825715Y-75714760D01*
X233316485Y-75925169D01*
X232981663Y-76259408D01*
X232830327Y-76107808D01*
X232486799Y-75965162D01*
X232114833Y-75964838D01*
X231771057Y-76106883D01*
X231507808Y-76369673D01*
X231365162Y-76713201D01*
X231365121Y-76760077D01*
X231134891Y-76990307D01*
X215060855Y-76990307D01*
X215028719Y-76958115D01*
X214685191Y-76815469D01*
X214313225Y-76815145D01*
X213969449Y-76957190D01*
X213706200Y-77219980D01*
X213563554Y-77563508D01*
X213563230Y-77935474D01*
X213656817Y-78161971D01*
X211903407Y-79915381D01*
X211759698Y-79771673D01*
X211526309Y-79675000D01*
X210685750Y-79675000D01*
X210527000Y-79833750D01*
X210527000Y-80475001D01*
X210273000Y-80475001D01*
X210273000Y-79833750D01*
X210114250Y-79675000D01*
X209273691Y-79675000D01*
X209040302Y-79771673D01*
X208861673Y-79950301D01*
X208765000Y-80183690D01*
X208765000Y-80324250D01*
X208923748Y-80482998D01*
X208765000Y-80482998D01*
X208765000Y-80602449D01*
X208622596Y-80697600D01*
X208537598Y-80782598D01*
X208372851Y-81029160D01*
X208314999Y-81319999D01*
X208314999Y-82390000D01*
X202883590Y-82390000D01*
X202592751Y-82447852D01*
X202579454Y-82456737D01*
X202596431Y-82431890D01*
X202647440Y-82180000D01*
X202647440Y-82007362D01*
X204137401Y-80517401D01*
X204302148Y-80270839D01*
X204360000Y-79980000D01*
X204360000Y-79197440D01*
X204600000Y-79197440D01*
X204835317Y-79153162D01*
X205044046Y-79018848D01*
X205664878Y-79639680D01*
X205664838Y-79685167D01*
X205806883Y-80028943D01*
X206069673Y-80292192D01*
X206413201Y-80434838D01*
X206785167Y-80435162D01*
X207128943Y-80293117D01*
X207392192Y-80030327D01*
X207534838Y-79686799D01*
X207535162Y-79314833D01*
X207432611Y-79066639D01*
X207473000Y-79026250D01*
X207473000Y-77827000D01*
X207727000Y-77827000D01*
X207727000Y-79026250D01*
X207885750Y-79185000D01*
X208726309Y-79185000D01*
X208959698Y-79088327D01*
X209138327Y-78909699D01*
X209235000Y-78676310D01*
X209235000Y-77985750D01*
X209076250Y-77827000D01*
X207727000Y-77827000D01*
X207473000Y-77827000D01*
X206123750Y-77827000D01*
X206062776Y-77887974D01*
X205685001Y-77510199D01*
X205685001Y-76723690D01*
X205965000Y-76723690D01*
X205965000Y-77414250D01*
X206123750Y-77573000D01*
X207473000Y-77573000D01*
X207473000Y-76373750D01*
X207727000Y-76373750D01*
X207727000Y-77573000D01*
X209076250Y-77573000D01*
X209235000Y-77414250D01*
X209235000Y-76723690D01*
X209138327Y-76490301D01*
X208959698Y-76311673D01*
X208726309Y-76215000D01*
X207885750Y-76215000D01*
X207727000Y-76373750D01*
X207473000Y-76373750D01*
X207314250Y-76215000D01*
X206473691Y-76215000D01*
X206240302Y-76311673D01*
X206061673Y-76490301D01*
X205965000Y-76723690D01*
X205685001Y-76723690D01*
X205685001Y-76589999D01*
X205627149Y-76299160D01*
X205462402Y-76052598D01*
X205397402Y-75987598D01*
X205150840Y-75822851D01*
X204860001Y-75764999D01*
X198775001Y-75764999D01*
X198484161Y-75822851D01*
X198237600Y-75987598D01*
X196060320Y-78164878D01*
X196014833Y-78164838D01*
X195671057Y-78306883D01*
X195407808Y-78569673D01*
X195265162Y-78913201D01*
X195264838Y-79285167D01*
X195396275Y-79603270D01*
X195376309Y-79595000D01*
X194535750Y-79595000D01*
X194377000Y-79753750D01*
X194377000Y-80400000D01*
X194123000Y-80400000D01*
X194123000Y-79753750D01*
X193964250Y-79595000D01*
X193123691Y-79595000D01*
X192890302Y-79691673D01*
X192711673Y-79870301D01*
X192615000Y-80103690D01*
X192615000Y-80197875D01*
X192500000Y-80175000D01*
X187760000Y-80175000D01*
X187760000Y-78497440D01*
X188000000Y-78497440D01*
X188235317Y-78453162D01*
X188451441Y-78314090D01*
X188596431Y-78101890D01*
X188647440Y-77850000D01*
X188647440Y-77285750D01*
X189365000Y-77285750D01*
X189365000Y-77976310D01*
X189461673Y-78209699D01*
X189640302Y-78388327D01*
X189873691Y-78485000D01*
X190714250Y-78485000D01*
X190873000Y-78326250D01*
X190873000Y-77127000D01*
X191127000Y-77127000D01*
X191127000Y-78326250D01*
X191285750Y-78485000D01*
X192126309Y-78485000D01*
X192359698Y-78388327D01*
X192538327Y-78209699D01*
X192635000Y-77976310D01*
X192635000Y-77285750D01*
X192476250Y-77127000D01*
X191127000Y-77127000D01*
X190873000Y-77127000D01*
X189523750Y-77127000D01*
X189365000Y-77285750D01*
X188647440Y-77285750D01*
X188647440Y-76150000D01*
X188623674Y-76023690D01*
X189365000Y-76023690D01*
X189365000Y-76714250D01*
X189523750Y-76873000D01*
X190873000Y-76873000D01*
X190873000Y-75673750D01*
X191127000Y-75673750D01*
X191127000Y-76873000D01*
X192476250Y-76873000D01*
X192635000Y-76714250D01*
X192635000Y-76023690D01*
X192538327Y-75790301D01*
X192359698Y-75611673D01*
X192126309Y-75515000D01*
X191285750Y-75515000D01*
X191127000Y-75673750D01*
X190873000Y-75673750D01*
X190714250Y-75515000D01*
X189873691Y-75515000D01*
X189640302Y-75611673D01*
X189461673Y-75790301D01*
X189365000Y-76023690D01*
X188623674Y-76023690D01*
X188603162Y-75914683D01*
X188464090Y-75698559D01*
X188251890Y-75553569D01*
X188000000Y-75502560D01*
X186000000Y-75502560D01*
X185764683Y-75546838D01*
X185548559Y-75685910D01*
X185403569Y-75898110D01*
X185352560Y-76150000D01*
X185352560Y-77850000D01*
X185393038Y-78065124D01*
X185064833Y-78064838D01*
X184721057Y-78206883D01*
X184687882Y-78240000D01*
X181750000Y-78240000D01*
X181459161Y-78297852D01*
X181212599Y-78462599D01*
X181010320Y-78664878D01*
X180964833Y-78664838D01*
X180621057Y-78806883D01*
X180357808Y-79069673D01*
X180215162Y-79413201D01*
X180215047Y-79545000D01*
X180029990Y-79545000D01*
X179653047Y-79619979D01*
X179333490Y-79833500D01*
X179009814Y-80157176D01*
X178988327Y-80105301D01*
X178809698Y-79926673D01*
X178576309Y-79830000D01*
X177735750Y-79830000D01*
X177577000Y-79988750D01*
X177577000Y-80638000D01*
X177597000Y-80638000D01*
X177597000Y-80648682D01*
X177303000Y-80648682D01*
X177303000Y-80638000D01*
X177323000Y-80638000D01*
X177323000Y-79988750D01*
X177164250Y-79830000D01*
X176323691Y-79830000D01*
X176090302Y-79926673D01*
X175911673Y-80105301D01*
X175815000Y-80338690D01*
X175815000Y-80431999D01*
X175451501Y-80068500D01*
X175131944Y-79854979D01*
X174755001Y-79780000D01*
X172108000Y-79780000D01*
X171313000Y-78985000D01*
X171814250Y-78985000D01*
X171973000Y-78826250D01*
X171973000Y-77627000D01*
X172227000Y-77627000D01*
X172227000Y-78826250D01*
X172385750Y-78985000D01*
X173226309Y-78985000D01*
X173459698Y-78888327D01*
X173638327Y-78709699D01*
X173735000Y-78476310D01*
X173735000Y-77785750D01*
X173576250Y-77627000D01*
X172227000Y-77627000D01*
X171973000Y-77627000D01*
X171953000Y-77627000D01*
X171953000Y-77373000D01*
X171973000Y-77373000D01*
X171973000Y-76173750D01*
X172227000Y-76173750D01*
X172227000Y-77373000D01*
X173576250Y-77373000D01*
X173735000Y-77214250D01*
X173735000Y-76523690D01*
X173638327Y-76290301D01*
X173459698Y-76111673D01*
X173226309Y-76015000D01*
X172385750Y-76015000D01*
X172227000Y-76173750D01*
X171973000Y-76173750D01*
X171814250Y-76015000D01*
X170973691Y-76015000D01*
X170740302Y-76111673D01*
X170713156Y-76138819D01*
X170710021Y-76123057D01*
X170496500Y-75803500D01*
X168596500Y-73903500D01*
X168276943Y-73689979D01*
X167900000Y-73615000D01*
X167085000Y-73615000D01*
X167085000Y-70608000D01*
X167959647Y-69733353D01*
X168076943Y-69710021D01*
X168396500Y-69496500D01*
X168610021Y-69176943D01*
X168685000Y-68800000D01*
X168685000Y-67600000D01*
X168610021Y-67223057D01*
X168561205Y-67149999D01*
X168396501Y-66903500D01*
X167946499Y-66453499D01*
X167626942Y-66239978D01*
X167249999Y-66164999D01*
X166341999Y-66164999D01*
X165965056Y-66239978D01*
X165645499Y-66453499D01*
X151203499Y-80895499D01*
X150989978Y-81215056D01*
X150914999Y-81591999D01*
X150914999Y-97825001D01*
X150989978Y-98201944D01*
X151203499Y-98521501D01*
X151908621Y-99226623D01*
X151964977Y-99509943D01*
X152178498Y-99829500D01*
X153945488Y-101596490D01*
X154265045Y-101810011D01*
X154641988Y-101884990D01*
X165092000Y-101884990D01*
X166115000Y-102907990D01*
X166115000Y-106233998D01*
X161953499Y-110395499D01*
X161739978Y-110715056D01*
X161664999Y-111091999D01*
X161664999Y-120908001D01*
X161739978Y-121284944D01*
X161953499Y-121604501D01*
X162645499Y-122296501D01*
X162965056Y-122510022D01*
X163341999Y-122585001D01*
X171949999Y-122585001D01*
X172326942Y-122510022D01*
X172646499Y-122296501D01*
X176695560Y-118247440D01*
X177450000Y-118247440D01*
X177685317Y-118203162D01*
X177849492Y-118097518D01*
X177890301Y-118138327D01*
X178123690Y-118235000D01*
X178714250Y-118235000D01*
X178873000Y-118076250D01*
X178873000Y-116727000D01*
X178853000Y-116727000D01*
X178853000Y-116473000D01*
X178873000Y-116473000D01*
X178873000Y-115123750D01*
X178714250Y-114965000D01*
X178123690Y-114965000D01*
X177890301Y-115061673D01*
X177848340Y-115103634D01*
X177701890Y-115003569D01*
X177685000Y-115000149D01*
X177685000Y-114808000D01*
X178696500Y-113796500D01*
X178910021Y-113476943D01*
X178985000Y-113100000D01*
X178910021Y-112723057D01*
X178696500Y-112403500D01*
X178376943Y-112189979D01*
X178000000Y-112115000D01*
X177623057Y-112189979D01*
X177303500Y-112403500D01*
X176003500Y-113703500D01*
X175789979Y-114023057D01*
X175715000Y-114400000D01*
X175715000Y-114996778D01*
X175714683Y-114996838D01*
X175548523Y-115103759D01*
X175401890Y-115003569D01*
X175150000Y-114952560D01*
X174545560Y-114952560D01*
X173985000Y-114392000D01*
X173985000Y-114200000D01*
X173910021Y-113823057D01*
X173696500Y-113503500D01*
X173185008Y-112992008D01*
X173185240Y-112725715D01*
X172974831Y-112216485D01*
X172585564Y-111826539D01*
X172076702Y-111615241D01*
X171525715Y-111614760D01*
X171016485Y-111825169D01*
X171010000Y-111831643D01*
X171010000Y-108979800D01*
X172779790Y-107210010D01*
X174215189Y-107210009D01*
X173660320Y-107764878D01*
X173614833Y-107764838D01*
X173271057Y-107906883D01*
X173007808Y-108169673D01*
X172865162Y-108513201D01*
X172864838Y-108885167D01*
X173006883Y-109228943D01*
X173269673Y-109492192D01*
X173613201Y-109634838D01*
X173985167Y-109635162D01*
X174152560Y-109565997D01*
X174152560Y-111300000D01*
X174196838Y-111535317D01*
X174335910Y-111751441D01*
X174548110Y-111896431D01*
X174800000Y-111947440D01*
X178600000Y-111947440D01*
X178835317Y-111903162D01*
X179051441Y-111764090D01*
X179196431Y-111551890D01*
X179247440Y-111300000D01*
X179247440Y-109300000D01*
X179203162Y-109064683D01*
X179064090Y-108848559D01*
X178851890Y-108703569D01*
X178600000Y-108652560D01*
X174922242Y-108652560D01*
X184089041Y-99485761D01*
X184106883Y-99528943D01*
X184369673Y-99792192D01*
X184713201Y-99934838D01*
X185085167Y-99935162D01*
X185428943Y-99793117D01*
X185692192Y-99530327D01*
X185834838Y-99186799D01*
X185834879Y-99139923D01*
X188374742Y-96600060D01*
X189802990Y-96600060D01*
X189802990Y-99099420D01*
X189847268Y-99334737D01*
X189986340Y-99550861D01*
X190198540Y-99695851D01*
X190450430Y-99746860D01*
X192449410Y-99746860D01*
X192684727Y-99702582D01*
X192900851Y-99563510D01*
X193045841Y-99351310D01*
X193096850Y-99099420D01*
X193096850Y-96600060D01*
X193052572Y-96364743D01*
X192913500Y-96148619D01*
X192701300Y-96003629D01*
X192449410Y-95952620D01*
X190450430Y-95952620D01*
X190215113Y-95996898D01*
X189998989Y-96135970D01*
X189853999Y-96348170D01*
X189802990Y-96600060D01*
X188374742Y-96600060D01*
X189164802Y-95810000D01*
X193000000Y-95810000D01*
X193290839Y-95752148D01*
X193537401Y-95587401D01*
X193677362Y-95447440D01*
X195250000Y-95447440D01*
X195485317Y-95403162D01*
X195701441Y-95264090D01*
X195846431Y-95051890D01*
X195897440Y-94800000D01*
X195897440Y-94200000D01*
X195853162Y-93964683D01*
X195789322Y-93865472D01*
X195846431Y-93781890D01*
X195897440Y-93530000D01*
X195897440Y-92930000D01*
X195853162Y-92694683D01*
X195789322Y-92595472D01*
X195846431Y-92511890D01*
X195897440Y-92260000D01*
X195897440Y-91660000D01*
X195853162Y-91424683D01*
X195789322Y-91325472D01*
X195846431Y-91241890D01*
X195897440Y-90990000D01*
X195897440Y-90817362D01*
X196640000Y-90074802D01*
X196640000Y-94400000D01*
X196697852Y-94690839D01*
X196752817Y-94773100D01*
X196671057Y-94806883D01*
X196407808Y-95069673D01*
X196265162Y-95413201D01*
X196264838Y-95785167D01*
X196342388Y-95972852D01*
X196294548Y-95981853D01*
X196150190Y-95952620D01*
X195649810Y-95952620D01*
X195509916Y-95978943D01*
X195476400Y-95965060D01*
X195383745Y-95965060D01*
X195238945Y-96109860D01*
X195198369Y-96135970D01*
X195099269Y-96281007D01*
X195014080Y-96148619D01*
X194968407Y-96117412D01*
X194816055Y-95965060D01*
X194723400Y-95965060D01*
X194686631Y-95980290D01*
X194549990Y-95952620D01*
X194049610Y-95952620D01*
X193814293Y-95996898D01*
X193598169Y-96135970D01*
X193453179Y-96348170D01*
X193402170Y-96600060D01*
X193402170Y-98901300D01*
X193446448Y-99136617D01*
X193528655Y-99264370D01*
X193485570Y-99264332D01*
X193086797Y-99429102D01*
X192781434Y-99733933D01*
X192615969Y-100132417D01*
X192615767Y-100363681D01*
X187951319Y-100363681D01*
X187574376Y-100438660D01*
X187254819Y-100652181D01*
X180803500Y-107103500D01*
X180589979Y-107423057D01*
X180515000Y-107800000D01*
X180515000Y-112292000D01*
X180503500Y-112303500D01*
X180289979Y-112623057D01*
X180215000Y-113000000D01*
X180289979Y-113376943D01*
X180503500Y-113696500D01*
X180823057Y-113910021D01*
X181200000Y-113985000D01*
X181434522Y-113938350D01*
X180843565Y-115545260D01*
X180385000Y-116564959D01*
X180385000Y-116472998D01*
X180226252Y-116472998D01*
X180385000Y-116314250D01*
X180385000Y-115473691D01*
X180288327Y-115240302D01*
X180109699Y-115061673D01*
X179876310Y-114965000D01*
X179285750Y-114965000D01*
X179127000Y-115123750D01*
X179127000Y-116473000D01*
X179147000Y-116473000D01*
X179147000Y-116727000D01*
X179127000Y-116727000D01*
X179127000Y-118076250D01*
X179285750Y-118235000D01*
X179633974Y-118235000D01*
X179455188Y-118632561D01*
X177825613Y-121452339D01*
X175976987Y-123743614D01*
X173901238Y-125302470D01*
X171177438Y-126596419D01*
X168759756Y-127500511D01*
X166631953Y-127991214D01*
X164719900Y-128076101D01*
X162928298Y-127760504D01*
X161152745Y-127028820D01*
X159387106Y-125902137D01*
X158541379Y-124684973D01*
X158215304Y-122722108D01*
X158366284Y-120122974D01*
X158906470Y-117155375D01*
X159714410Y-114055715D01*
X160662692Y-111044893D01*
X161622973Y-108337456D01*
X162466772Y-106145443D01*
X163065870Y-104679137D01*
X163293529Y-104144942D01*
X163296918Y-104128763D01*
X163305598Y-104114689D01*
X163324766Y-103995840D01*
X163349446Y-103878036D01*
X163346386Y-103861789D01*
X163349018Y-103845468D01*
X163321249Y-103728346D01*
X163298966Y-103610048D01*
X163289921Y-103596208D01*
X163286107Y-103580123D01*
X163215632Y-103482543D01*
X163149774Y-103381779D01*
X163136122Y-103372455D01*
X163126441Y-103359051D01*
X163023972Y-103295859D01*
X162924583Y-103227978D01*
X162908404Y-103224589D01*
X162894330Y-103215909D01*
X162775481Y-103196741D01*
X162657677Y-103172061D01*
X162641430Y-103175121D01*
X162625109Y-103172489D01*
X162507985Y-103200258D01*
X162389690Y-103222541D01*
X162375851Y-103231586D01*
X162359764Y-103235400D01*
X159883335Y-104368575D01*
X157512680Y-105290620D01*
X155253278Y-105997945D01*
X153127696Y-106480193D01*
X151159441Y-106728333D01*
X149372488Y-106735808D01*
X147789437Y-106499929D01*
X146426708Y-106021857D01*
X145288513Y-105300924D01*
X144368876Y-104322408D01*
X143668228Y-103053153D01*
X143206085Y-101456368D01*
X143014294Y-99506908D01*
X143125086Y-97191502D01*
X143566400Y-94502257D01*
X144364943Y-91422298D01*
X145361392Y-88172909D01*
X146410867Y-85065952D01*
X147510898Y-82108727D01*
X148660734Y-79302792D01*
X149859651Y-76649535D01*
X151106812Y-74150494D01*
X152401389Y-71807051D01*
X153742467Y-69620623D01*
X155129102Y-67592528D01*
X156560300Y-65724006D01*
X158035048Y-64016180D01*
X159552346Y-62470019D01*
X161111241Y-61086321D01*
X162642077Y-59918226D01*
X164532088Y-59276025D01*
X165947684Y-59164034D01*
X166921057Y-59455978D01*
X166921057Y-59455978D01*
G37*
X166921057Y-59455978D02*
X167629701Y-60076323D01*
X168176111Y-61055678D01*
X168571258Y-62368359D01*
X168835781Y-63930386D01*
X169012991Y-65652075D01*
X169156220Y-67445701D01*
X169157540Y-67450362D01*
X169157042Y-67455179D01*
X169323166Y-69230575D01*
X169328563Y-69248683D01*
X169327623Y-69267557D01*
X169574759Y-70941234D01*
X169587386Y-70976597D01*
X169589512Y-71014088D01*
X169976414Y-72510535D01*
X170004900Y-72569603D01*
X170020716Y-72633241D01*
X170606137Y-73876950D01*
X170669099Y-73962173D01*
X170724276Y-74052639D01*
X171566969Y-74968099D01*
X171572200Y-74971916D01*
X171575673Y-74977384D01*
X171682157Y-75052157D01*
X171787252Y-75128850D01*
X171793547Y-75130375D01*
X171798847Y-75134097D01*
X172957567Y-75645798D01*
X173077235Y-75672496D01*
X173195755Y-75703969D01*
X174675609Y-75797640D01*
X174693283Y-75795273D01*
X174710729Y-75798978D01*
X176480775Y-75821850D01*
X176492073Y-75819754D01*
X176503382Y-75821776D01*
X178538905Y-75782225D01*
X178546430Y-75780576D01*
X178554043Y-75781767D01*
X180830329Y-75688166D01*
X180835422Y-75686933D01*
X180840609Y-75687667D01*
X183332940Y-75548393D01*
X183336344Y-75547516D01*
X183339831Y-75547974D01*
X186023493Y-75371400D01*
X186025649Y-75370822D01*
X186027866Y-75371099D01*
X188878144Y-75165601D01*
X188879323Y-75165277D01*
X188880535Y-75165424D01*
X191872712Y-74939376D01*
X191873076Y-74939275D01*
X191873452Y-74939320D01*
X194982564Y-74701117D01*
X198183028Y-74459198D01*
X201449646Y-74221967D01*
X204758353Y-73997735D01*
X208083997Y-73794888D01*
X211401488Y-73621784D01*
X214686373Y-73486738D01*
X217913382Y-73398082D01*
X221057552Y-73364098D01*
X224093539Y-73393023D01*
X226995996Y-73493005D01*
X229739049Y-73672031D01*
X232296560Y-73937810D01*
X234641663Y-74297519D01*
X236746671Y-74757335D01*
X238572079Y-75318171D01*
X239801156Y-75899594D01*
X239727000Y-75973750D01*
X239727000Y-77073000D01*
X240826250Y-77073000D01*
X240985000Y-76914250D01*
X240985000Y-76708087D01*
X241500008Y-77128121D01*
X242401050Y-78443558D01*
X242954184Y-79973000D01*
X237250000Y-79973000D01*
X237203841Y-79981685D01*
X237161447Y-80008965D01*
X237133006Y-80050590D01*
X237123000Y-80100000D01*
X237123000Y-98600000D01*
X237131685Y-98646159D01*
X237158965Y-98688553D01*
X237200590Y-98716994D01*
X237250000Y-98727000D01*
X242616528Y-98727000D01*
X242265413Y-100043492D01*
X241409803Y-101862434D01*
X240282530Y-103186889D01*
X238827268Y-104024626D01*
X236878712Y-104368777D01*
X235621009Y-104393245D01*
X235176195Y-104398607D01*
X235939680Y-103635122D01*
X235985167Y-103635162D01*
X236304989Y-103503015D01*
X236440302Y-103638327D01*
X236673691Y-103735000D01*
X237514250Y-103735000D01*
X237673000Y-103576250D01*
X237673000Y-102427000D01*
X237927000Y-102427000D01*
X237927000Y-103576250D01*
X238085750Y-103735000D01*
X238926309Y-103735000D01*
X239159698Y-103638327D01*
X239338327Y-103459699D01*
X239435000Y-103226310D01*
X239435000Y-102585750D01*
X239276250Y-102427000D01*
X237927000Y-102427000D01*
X237673000Y-102427000D01*
X237653000Y-102427000D01*
X237653000Y-102173000D01*
X237673000Y-102173000D01*
X237673000Y-101023750D01*
X237927000Y-101023750D01*
X237927000Y-102173000D01*
X239276250Y-102173000D01*
X239435000Y-102014250D01*
X239435000Y-101373690D01*
X239338327Y-101140301D01*
X239159698Y-100961673D01*
X238926309Y-100865000D01*
X238085750Y-100865000D01*
X237927000Y-101023750D01*
X237673000Y-101023750D01*
X237514250Y-100865000D01*
X236673691Y-100865000D01*
X236440302Y-100961673D01*
X236261673Y-101140301D01*
X236165000Y-101373690D01*
X236165000Y-101839158D01*
X235986799Y-101765162D01*
X235614833Y-101764838D01*
X235463834Y-101827230D01*
X235515000Y-101570000D01*
X235515000Y-100241620D01*
X235521762Y-100244885D01*
X235673000Y-100116431D01*
X235673000Y-98527000D01*
X235927000Y-98527000D01*
X235927000Y-100116431D01*
X236078238Y-100244885D01*
X236406698Y-100086303D01*
X236661421Y-99794276D01*
X236785000Y-99427000D01*
X236785000Y-98527000D01*
X235927000Y-98527000D01*
X235673000Y-98527000D01*
X235653000Y-98527000D01*
X235653000Y-98273000D01*
X235673000Y-98273000D01*
X235673000Y-96683569D01*
X235927000Y-96683569D01*
X235927000Y-98273000D01*
X236785000Y-98273000D01*
X236785000Y-97373000D01*
X236661421Y-97005724D01*
X236406698Y-96713697D01*
X236078238Y-96555115D01*
X235927000Y-96683569D01*
X235673000Y-96683569D01*
X235521762Y-96555115D01*
X235193302Y-96713697D01*
X235176388Y-96733088D01*
X234906943Y-96553050D01*
X234530000Y-96478071D01*
X234153057Y-96553050D01*
X233895000Y-96725478D01*
X233636943Y-96553050D01*
X233260000Y-96478071D01*
X232883057Y-96553050D01*
X232625000Y-96725478D01*
X232366943Y-96553050D01*
X231990000Y-96478071D01*
X231748741Y-96526061D01*
X234839680Y-93435122D01*
X234885167Y-93435162D01*
X235228943Y-93293117D01*
X235492192Y-93030327D01*
X235634838Y-92686799D01*
X235635162Y-92314833D01*
X235493117Y-91971057D01*
X235230327Y-91707808D01*
X234886799Y-91565162D01*
X234514833Y-91564838D01*
X234171057Y-91706883D01*
X233907808Y-91969673D01*
X233765162Y-92313201D01*
X233765121Y-92360077D01*
X230185181Y-95940017D01*
X229519787Y-95940017D01*
X232437401Y-93022403D01*
X232602148Y-92775841D01*
X232660000Y-92485002D01*
X232660000Y-91462463D01*
X232692192Y-91430327D01*
X232834838Y-91086799D01*
X232835162Y-90714833D01*
X232693117Y-90371057D01*
X232430327Y-90107808D01*
X232086799Y-89965162D01*
X231714833Y-89964838D01*
X231714306Y-89965056D01*
X231576250Y-89827000D01*
X228227000Y-89827000D01*
X228227000Y-93176250D01*
X228385750Y-93335000D01*
X229975200Y-93335000D01*
X227820192Y-95490008D01*
X226535009Y-95490008D01*
X226535162Y-95314833D01*
X226393117Y-94971057D01*
X226130327Y-94707808D01*
X225786799Y-94565162D01*
X225414833Y-94564838D01*
X225071057Y-94706883D01*
X224807808Y-94969673D01*
X224778606Y-95039999D01*
X219685000Y-95039999D01*
X219685000Y-94987998D01*
X219516433Y-94987998D01*
X219644885Y-94836762D01*
X219486303Y-94508302D01*
X219466912Y-94491388D01*
X219646950Y-94221943D01*
X219721929Y-93845000D01*
X219646950Y-93468057D01*
X219474522Y-93210000D01*
X219646950Y-92951943D01*
X219721929Y-92575000D01*
X219646950Y-92198057D01*
X219474522Y-91940000D01*
X219646950Y-91681943D01*
X219721929Y-91305000D01*
X219646950Y-90928057D01*
X219474522Y-90670000D01*
X219646950Y-90411943D01*
X219721929Y-90035000D01*
X219712133Y-89985750D01*
X224465000Y-89985750D01*
X224465000Y-92826309D01*
X224561673Y-93059698D01*
X224740301Y-93238327D01*
X224973690Y-93335000D01*
X227814250Y-93335000D01*
X227973000Y-93176250D01*
X227973000Y-89827000D01*
X224623750Y-89827000D01*
X224465000Y-89985750D01*
X219712133Y-89985750D01*
X219646950Y-89658057D01*
X219474522Y-89400000D01*
X219646950Y-89141943D01*
X219721929Y-88765000D01*
X219646950Y-88388057D01*
X219433429Y-88068500D01*
X219113872Y-87854979D01*
X218736929Y-87780000D01*
X216863071Y-87780000D01*
X216486128Y-87854979D01*
X216166571Y-88068500D01*
X215953050Y-88388057D01*
X215878071Y-88765000D01*
X215953050Y-89141943D01*
X216125478Y-89400000D01*
X216081999Y-89465071D01*
X215814833Y-89464838D01*
X215471057Y-89606883D01*
X215207808Y-89869673D01*
X215065162Y-90213201D01*
X215065121Y-90260077D01*
X212775198Y-92550000D01*
X212004914Y-92550000D01*
X212047440Y-92340000D01*
X212047440Y-91740000D01*
X212003162Y-91504683D01*
X211939322Y-91405472D01*
X211996431Y-91321890D01*
X212047440Y-91070000D01*
X212047440Y-90470000D01*
X212007926Y-90260000D01*
X213172820Y-90260000D01*
X213463659Y-90202148D01*
X213710221Y-90037401D01*
X216037613Y-87710009D01*
X223411403Y-87710009D01*
X223702242Y-87652157D01*
X223948804Y-87487410D01*
X224465000Y-86971214D01*
X224465000Y-89414250D01*
X224623750Y-89573000D01*
X227973000Y-89573000D01*
X227973000Y-86223750D01*
X228227000Y-86223750D01*
X228227000Y-89573000D01*
X231576250Y-89573000D01*
X231735000Y-89414250D01*
X231735000Y-86573691D01*
X231638327Y-86340302D01*
X231459699Y-86161673D01*
X231226310Y-86065000D01*
X228385750Y-86065000D01*
X228227000Y-86223750D01*
X227973000Y-86223750D01*
X227814250Y-86065000D01*
X225371214Y-86065000D01*
X225476214Y-85960000D01*
X229575736Y-85960000D01*
X229866575Y-85902148D01*
X230113137Y-85737401D01*
X230644307Y-85206231D01*
X230713201Y-85234838D01*
X231085167Y-85235162D01*
X231428943Y-85093117D01*
X231692192Y-84830327D01*
X231834838Y-84486799D01*
X231835162Y-84114833D01*
X231693117Y-83771057D01*
X231430327Y-83507808D01*
X231086799Y-83365162D01*
X230714833Y-83364838D01*
X230371057Y-83506883D01*
X230303578Y-83574245D01*
X230184896Y-83597852D01*
X229938335Y-83762599D01*
X229260934Y-84440000D01*
X228082153Y-84440000D01*
X228292192Y-84230327D01*
X228434838Y-83886799D01*
X228435162Y-83514833D01*
X228293117Y-83171057D01*
X228030327Y-82907808D01*
X227686799Y-82765162D01*
X227314833Y-82764838D01*
X226971057Y-82906883D01*
X226937882Y-82940000D01*
X226025002Y-82940000D01*
X225734163Y-82997852D01*
X225487601Y-83162599D01*
X223686311Y-84963889D01*
X223630327Y-84907808D01*
X223286799Y-84765162D01*
X222914833Y-84764838D01*
X222571057Y-84906883D01*
X222307808Y-85169673D01*
X222257848Y-85289990D01*
X219655295Y-85289990D01*
X219721929Y-84955000D01*
X219646950Y-84578057D01*
X219474522Y-84320000D01*
X219646950Y-84061943D01*
X219721929Y-83685000D01*
X219716956Y-83660000D01*
X223724608Y-83660000D01*
X224015447Y-83602148D01*
X224262009Y-83437401D01*
X225421036Y-82278374D01*
X225640000Y-82321929D01*
X226016943Y-82246950D01*
X226275000Y-82074522D01*
X226533057Y-82246950D01*
X226910000Y-82321929D01*
X227286943Y-82246950D01*
X227545000Y-82074522D01*
X227803057Y-82246950D01*
X228180000Y-82321929D01*
X228556943Y-82246950D01*
X228815000Y-82074522D01*
X229073057Y-82246950D01*
X229450000Y-82321929D01*
X229826943Y-82246950D01*
X230085000Y-82074522D01*
X230343057Y-82246950D01*
X230720000Y-82321929D01*
X231096943Y-82246950D01*
X231355000Y-82074522D01*
X231613057Y-82246950D01*
X231990000Y-82321929D01*
X232366943Y-82246950D01*
X232625000Y-82074522D01*
X232883057Y-82246950D01*
X233260000Y-82321929D01*
X233636943Y-82246950D01*
X233895000Y-82074522D01*
X234153057Y-82246950D01*
X234530000Y-82321929D01*
X234906943Y-82246950D01*
X235176388Y-82066912D01*
X235193302Y-82086303D01*
X235521762Y-82244885D01*
X235673000Y-82116431D01*
X235673000Y-80527000D01*
X235927000Y-80527000D01*
X235927000Y-82116431D01*
X236078238Y-82244885D01*
X236406698Y-82086303D01*
X236661421Y-81794276D01*
X236785000Y-81427000D01*
X236785000Y-80527000D01*
X235927000Y-80527000D01*
X235673000Y-80527000D01*
X235653000Y-80527000D01*
X235653000Y-80273000D01*
X235673000Y-80273000D01*
X235673000Y-80253000D01*
X235927000Y-80253000D01*
X235927000Y-80273000D01*
X236785000Y-80273000D01*
X236785000Y-79373000D01*
X236661421Y-79005724D01*
X236406698Y-78713697D01*
X236241071Y-78633731D01*
X236399800Y-78475002D01*
X236423298Y-78484759D01*
X236974285Y-78485240D01*
X237483515Y-78274831D01*
X237873461Y-77885564D01*
X238039478Y-77485750D01*
X238215000Y-77485750D01*
X238215000Y-78076310D01*
X238311673Y-78309699D01*
X238490302Y-78488327D01*
X238723691Y-78585000D01*
X239314250Y-78585000D01*
X239473000Y-78426250D01*
X239473000Y-77327000D01*
X239727000Y-77327000D01*
X239727000Y-78426250D01*
X239885750Y-78585000D01*
X240476309Y-78585000D01*
X240709698Y-78488327D01*
X240888327Y-78309699D01*
X240985000Y-78076310D01*
X240985000Y-77485750D01*
X240826250Y-77327000D01*
X239727000Y-77327000D01*
X239473000Y-77327000D01*
X238373750Y-77327000D01*
X238215000Y-77485750D01*
X238039478Y-77485750D01*
X238084759Y-77376702D01*
X238085240Y-76825715D01*
X237877809Y-76323690D01*
X238215000Y-76323690D01*
X238215000Y-76914250D01*
X238373750Y-77073000D01*
X239473000Y-77073000D01*
X239473000Y-75973750D01*
X239314250Y-75815000D01*
X238723691Y-75815000D01*
X238490302Y-75911673D01*
X238311673Y-76090301D01*
X238215000Y-76323690D01*
X237877809Y-76323690D01*
X237874831Y-76316485D01*
X237485564Y-75926539D01*
X236976702Y-75715241D01*
X236425715Y-75714760D01*
X235916485Y-75925169D01*
X235526539Y-76314436D01*
X235399950Y-76619297D01*
X235274831Y-76316485D01*
X234885564Y-75926539D01*
X234376702Y-75715241D01*
X233825715Y-75714760D01*
X233316485Y-75925169D01*
X232981663Y-76259408D01*
X232830327Y-76107808D01*
X232486799Y-75965162D01*
X232114833Y-75964838D01*
X231771057Y-76106883D01*
X231507808Y-76369673D01*
X231365162Y-76713201D01*
X231365121Y-76760077D01*
X231134891Y-76990307D01*
X215060855Y-76990307D01*
X215028719Y-76958115D01*
X214685191Y-76815469D01*
X214313225Y-76815145D01*
X213969449Y-76957190D01*
X213706200Y-77219980D01*
X213563554Y-77563508D01*
X213563230Y-77935474D01*
X213656817Y-78161971D01*
X211903407Y-79915381D01*
X211759698Y-79771673D01*
X211526309Y-79675000D01*
X210685750Y-79675000D01*
X210527000Y-79833750D01*
X210527000Y-80475001D01*
X210273000Y-80475001D01*
X210273000Y-79833750D01*
X210114250Y-79675000D01*
X209273691Y-79675000D01*
X209040302Y-79771673D01*
X208861673Y-79950301D01*
X208765000Y-80183690D01*
X208765000Y-80324250D01*
X208923748Y-80482998D01*
X208765000Y-80482998D01*
X208765000Y-80602449D01*
X208622596Y-80697600D01*
X208537598Y-80782598D01*
X208372851Y-81029160D01*
X208314999Y-81319999D01*
X208314999Y-82390000D01*
X202883590Y-82390000D01*
X202592751Y-82447852D01*
X202579454Y-82456737D01*
X202596431Y-82431890D01*
X202647440Y-82180000D01*
X202647440Y-82007362D01*
X204137401Y-80517401D01*
X204302148Y-80270839D01*
X204360000Y-79980000D01*
X204360000Y-79197440D01*
X204600000Y-79197440D01*
X204835317Y-79153162D01*
X205044046Y-79018848D01*
X205664878Y-79639680D01*
X205664838Y-79685167D01*
X205806883Y-80028943D01*
X206069673Y-80292192D01*
X206413201Y-80434838D01*
X206785167Y-80435162D01*
X207128943Y-80293117D01*
X207392192Y-80030327D01*
X207534838Y-79686799D01*
X207535162Y-79314833D01*
X207432611Y-79066639D01*
X207473000Y-79026250D01*
X207473000Y-77827000D01*
X207727000Y-77827000D01*
X207727000Y-79026250D01*
X207885750Y-79185000D01*
X208726309Y-79185000D01*
X208959698Y-79088327D01*
X209138327Y-78909699D01*
X209235000Y-78676310D01*
X209235000Y-77985750D01*
X209076250Y-77827000D01*
X207727000Y-77827000D01*
X207473000Y-77827000D01*
X206123750Y-77827000D01*
X206062776Y-77887974D01*
X205685001Y-77510199D01*
X205685001Y-76723690D01*
X205965000Y-76723690D01*
X205965000Y-77414250D01*
X206123750Y-77573000D01*
X207473000Y-77573000D01*
X207473000Y-76373750D01*
X207727000Y-76373750D01*
X207727000Y-77573000D01*
X209076250Y-77573000D01*
X209235000Y-77414250D01*
X209235000Y-76723690D01*
X209138327Y-76490301D01*
X208959698Y-76311673D01*
X208726309Y-76215000D01*
X207885750Y-76215000D01*
X207727000Y-76373750D01*
X207473000Y-76373750D01*
X207314250Y-76215000D01*
X206473691Y-76215000D01*
X206240302Y-76311673D01*
X206061673Y-76490301D01*
X205965000Y-76723690D01*
X205685001Y-76723690D01*
X205685001Y-76589999D01*
X205627149Y-76299160D01*
X205462402Y-76052598D01*
X205397402Y-75987598D01*
X205150840Y-75822851D01*
X204860001Y-75764999D01*
X198775001Y-75764999D01*
X198484161Y-75822851D01*
X198237600Y-75987598D01*
X196060320Y-78164878D01*
X196014833Y-78164838D01*
X195671057Y-78306883D01*
X195407808Y-78569673D01*
X195265162Y-78913201D01*
X195264838Y-79285167D01*
X195396275Y-79603270D01*
X195376309Y-79595000D01*
X194535750Y-79595000D01*
X194377000Y-79753750D01*
X194377000Y-80400000D01*
X194123000Y-80400000D01*
X194123000Y-79753750D01*
X193964250Y-79595000D01*
X193123691Y-79595000D01*
X192890302Y-79691673D01*
X192711673Y-79870301D01*
X192615000Y-80103690D01*
X192615000Y-80197875D01*
X192500000Y-80175000D01*
X187760000Y-80175000D01*
X187760000Y-78497440D01*
X188000000Y-78497440D01*
X188235317Y-78453162D01*
X188451441Y-78314090D01*
X188596431Y-78101890D01*
X188647440Y-77850000D01*
X188647440Y-77285750D01*
X189365000Y-77285750D01*
X189365000Y-77976310D01*
X189461673Y-78209699D01*
X189640302Y-78388327D01*
X189873691Y-78485000D01*
X190714250Y-78485000D01*
X190873000Y-78326250D01*
X190873000Y-77127000D01*
X191127000Y-77127000D01*
X191127000Y-78326250D01*
X191285750Y-78485000D01*
X192126309Y-78485000D01*
X192359698Y-78388327D01*
X192538327Y-78209699D01*
X192635000Y-77976310D01*
X192635000Y-77285750D01*
X192476250Y-77127000D01*
X191127000Y-77127000D01*
X190873000Y-77127000D01*
X189523750Y-77127000D01*
X189365000Y-77285750D01*
X188647440Y-77285750D01*
X188647440Y-76150000D01*
X188623674Y-76023690D01*
X189365000Y-76023690D01*
X189365000Y-76714250D01*
X189523750Y-76873000D01*
X190873000Y-76873000D01*
X190873000Y-75673750D01*
X191127000Y-75673750D01*
X191127000Y-76873000D01*
X192476250Y-76873000D01*
X192635000Y-76714250D01*
X192635000Y-76023690D01*
X192538327Y-75790301D01*
X192359698Y-75611673D01*
X192126309Y-75515000D01*
X191285750Y-75515000D01*
X191127000Y-75673750D01*
X190873000Y-75673750D01*
X190714250Y-75515000D01*
X189873691Y-75515000D01*
X189640302Y-75611673D01*
X189461673Y-75790301D01*
X189365000Y-76023690D01*
X188623674Y-76023690D01*
X188603162Y-75914683D01*
X188464090Y-75698559D01*
X188251890Y-75553569D01*
X188000000Y-75502560D01*
X186000000Y-75502560D01*
X185764683Y-75546838D01*
X185548559Y-75685910D01*
X185403569Y-75898110D01*
X185352560Y-76150000D01*
X185352560Y-77850000D01*
X185393038Y-78065124D01*
X185064833Y-78064838D01*
X184721057Y-78206883D01*
X184687882Y-78240000D01*
X181750000Y-78240000D01*
X181459161Y-78297852D01*
X181212599Y-78462599D01*
X181010320Y-78664878D01*
X180964833Y-78664838D01*
X180621057Y-78806883D01*
X180357808Y-79069673D01*
X180215162Y-79413201D01*
X180215047Y-79545000D01*
X180029990Y-79545000D01*
X179653047Y-79619979D01*
X179333490Y-79833500D01*
X179009814Y-80157176D01*
X178988327Y-80105301D01*
X178809698Y-79926673D01*
X178576309Y-79830000D01*
X177735750Y-79830000D01*
X177577000Y-79988750D01*
X177577000Y-80638000D01*
X177597000Y-80638000D01*
X177597000Y-80648682D01*
X177303000Y-80648682D01*
X177303000Y-80638000D01*
X177323000Y-80638000D01*
X177323000Y-79988750D01*
X177164250Y-79830000D01*
X176323691Y-79830000D01*
X176090302Y-79926673D01*
X175911673Y-80105301D01*
X175815000Y-80338690D01*
X175815000Y-80431999D01*
X175451501Y-80068500D01*
X175131944Y-79854979D01*
X174755001Y-79780000D01*
X172108000Y-79780000D01*
X171313000Y-78985000D01*
X171814250Y-78985000D01*
X171973000Y-78826250D01*
X171973000Y-77627000D01*
X172227000Y-77627000D01*
X172227000Y-78826250D01*
X172385750Y-78985000D01*
X173226309Y-78985000D01*
X173459698Y-78888327D01*
X173638327Y-78709699D01*
X173735000Y-78476310D01*
X173735000Y-77785750D01*
X173576250Y-77627000D01*
X172227000Y-77627000D01*
X171973000Y-77627000D01*
X171953000Y-77627000D01*
X171953000Y-77373000D01*
X171973000Y-77373000D01*
X171973000Y-76173750D01*
X172227000Y-76173750D01*
X172227000Y-77373000D01*
X173576250Y-77373000D01*
X173735000Y-77214250D01*
X173735000Y-76523690D01*
X173638327Y-76290301D01*
X173459698Y-76111673D01*
X173226309Y-76015000D01*
X172385750Y-76015000D01*
X172227000Y-76173750D01*
X171973000Y-76173750D01*
X171814250Y-76015000D01*
X170973691Y-76015000D01*
X170740302Y-76111673D01*
X170713156Y-76138819D01*
X170710021Y-76123057D01*
X170496500Y-75803500D01*
X168596500Y-73903500D01*
X168276943Y-73689979D01*
X167900000Y-73615000D01*
X167085000Y-73615000D01*
X167085000Y-70608000D01*
X167959647Y-69733353D01*
X168076943Y-69710021D01*
X168396500Y-69496500D01*
X168610021Y-69176943D01*
X168685000Y-68800000D01*
X168685000Y-67600000D01*
X168610021Y-67223057D01*
X168561205Y-67149999D01*
X168396501Y-66903500D01*
X167946499Y-66453499D01*
X167626942Y-66239978D01*
X167249999Y-66164999D01*
X166341999Y-66164999D01*
X165965056Y-66239978D01*
X165645499Y-66453499D01*
X151203499Y-80895499D01*
X150989978Y-81215056D01*
X150914999Y-81591999D01*
X150914999Y-97825001D01*
X150989978Y-98201944D01*
X151203499Y-98521501D01*
X151908621Y-99226623D01*
X151964977Y-99509943D01*
X152178498Y-99829500D01*
X153945488Y-101596490D01*
X154265045Y-101810011D01*
X154641988Y-101884990D01*
X165092000Y-101884990D01*
X166115000Y-102907990D01*
X166115000Y-106233998D01*
X161953499Y-110395499D01*
X161739978Y-110715056D01*
X161664999Y-111091999D01*
X161664999Y-120908001D01*
X161739978Y-121284944D01*
X161953499Y-121604501D01*
X162645499Y-122296501D01*
X162965056Y-122510022D01*
X163341999Y-122585001D01*
X171949999Y-122585001D01*
X172326942Y-122510022D01*
X172646499Y-122296501D01*
X176695560Y-118247440D01*
X177450000Y-118247440D01*
X177685317Y-118203162D01*
X177849492Y-118097518D01*
X177890301Y-118138327D01*
X178123690Y-118235000D01*
X178714250Y-118235000D01*
X178873000Y-118076250D01*
X178873000Y-116727000D01*
X178853000Y-116727000D01*
X178853000Y-116473000D01*
X178873000Y-116473000D01*
X178873000Y-115123750D01*
X178714250Y-114965000D01*
X178123690Y-114965000D01*
X177890301Y-115061673D01*
X177848340Y-115103634D01*
X177701890Y-115003569D01*
X177685000Y-115000149D01*
X177685000Y-114808000D01*
X178696500Y-113796500D01*
X178910021Y-113476943D01*
X178985000Y-113100000D01*
X178910021Y-112723057D01*
X178696500Y-112403500D01*
X178376943Y-112189979D01*
X178000000Y-112115000D01*
X177623057Y-112189979D01*
X177303500Y-112403500D01*
X176003500Y-113703500D01*
X175789979Y-114023057D01*
X175715000Y-114400000D01*
X175715000Y-114996778D01*
X175714683Y-114996838D01*
X175548523Y-115103759D01*
X175401890Y-115003569D01*
X175150000Y-114952560D01*
X174545560Y-114952560D01*
X173985000Y-114392000D01*
X173985000Y-114200000D01*
X173910021Y-113823057D01*
X173696500Y-113503500D01*
X173185008Y-112992008D01*
X173185240Y-112725715D01*
X172974831Y-112216485D01*
X172585564Y-111826539D01*
X172076702Y-111615241D01*
X171525715Y-111614760D01*
X171016485Y-111825169D01*
X171010000Y-111831643D01*
X171010000Y-108979800D01*
X172779790Y-107210010D01*
X174215189Y-107210009D01*
X173660320Y-107764878D01*
X173614833Y-107764838D01*
X173271057Y-107906883D01*
X173007808Y-108169673D01*
X172865162Y-108513201D01*
X172864838Y-108885167D01*
X173006883Y-109228943D01*
X173269673Y-109492192D01*
X173613201Y-109634838D01*
X173985167Y-109635162D01*
X174152560Y-109565997D01*
X174152560Y-111300000D01*
X174196838Y-111535317D01*
X174335910Y-111751441D01*
X174548110Y-111896431D01*
X174800000Y-111947440D01*
X178600000Y-111947440D01*
X178835317Y-111903162D01*
X179051441Y-111764090D01*
X179196431Y-111551890D01*
X179247440Y-111300000D01*
X179247440Y-109300000D01*
X179203162Y-109064683D01*
X179064090Y-108848559D01*
X178851890Y-108703569D01*
X178600000Y-108652560D01*
X174922242Y-108652560D01*
X184089041Y-99485761D01*
X184106883Y-99528943D01*
X184369673Y-99792192D01*
X184713201Y-99934838D01*
X185085167Y-99935162D01*
X185428943Y-99793117D01*
X185692192Y-99530327D01*
X185834838Y-99186799D01*
X185834879Y-99139923D01*
X188374742Y-96600060D01*
X189802990Y-96600060D01*
X189802990Y-99099420D01*
X189847268Y-99334737D01*
X189986340Y-99550861D01*
X190198540Y-99695851D01*
X190450430Y-99746860D01*
X192449410Y-99746860D01*
X192684727Y-99702582D01*
X192900851Y-99563510D01*
X193045841Y-99351310D01*
X193096850Y-99099420D01*
X193096850Y-96600060D01*
X193052572Y-96364743D01*
X192913500Y-96148619D01*
X192701300Y-96003629D01*
X192449410Y-95952620D01*
X190450430Y-95952620D01*
X190215113Y-95996898D01*
X189998989Y-96135970D01*
X189853999Y-96348170D01*
X189802990Y-96600060D01*
X188374742Y-96600060D01*
X189164802Y-95810000D01*
X193000000Y-95810000D01*
X193290839Y-95752148D01*
X193537401Y-95587401D01*
X193677362Y-95447440D01*
X195250000Y-95447440D01*
X195485317Y-95403162D01*
X195701441Y-95264090D01*
X195846431Y-95051890D01*
X195897440Y-94800000D01*
X195897440Y-94200000D01*
X195853162Y-93964683D01*
X195789322Y-93865472D01*
X195846431Y-93781890D01*
X195897440Y-93530000D01*
X195897440Y-92930000D01*
X195853162Y-92694683D01*
X195789322Y-92595472D01*
X195846431Y-92511890D01*
X195897440Y-92260000D01*
X195897440Y-91660000D01*
X195853162Y-91424683D01*
X195789322Y-91325472D01*
X195846431Y-91241890D01*
X195897440Y-90990000D01*
X195897440Y-90817362D01*
X196640000Y-90074802D01*
X196640000Y-94400000D01*
X196697852Y-94690839D01*
X196752817Y-94773100D01*
X196671057Y-94806883D01*
X196407808Y-95069673D01*
X196265162Y-95413201D01*
X196264838Y-95785167D01*
X196342388Y-95972852D01*
X196294548Y-95981853D01*
X196150190Y-95952620D01*
X195649810Y-95952620D01*
X195509916Y-95978943D01*
X195476400Y-95965060D01*
X195383745Y-95965060D01*
X195238945Y-96109860D01*
X195198369Y-96135970D01*
X195099269Y-96281007D01*
X195014080Y-96148619D01*
X194968407Y-96117412D01*
X194816055Y-95965060D01*
X194723400Y-95965060D01*
X194686631Y-95980290D01*
X194549990Y-95952620D01*
X194049610Y-95952620D01*
X193814293Y-95996898D01*
X193598169Y-96135970D01*
X193453179Y-96348170D01*
X193402170Y-96600060D01*
X193402170Y-98901300D01*
X193446448Y-99136617D01*
X193528655Y-99264370D01*
X193485570Y-99264332D01*
X193086797Y-99429102D01*
X192781434Y-99733933D01*
X192615969Y-100132417D01*
X192615767Y-100363681D01*
X187951319Y-100363681D01*
X187574376Y-100438660D01*
X187254819Y-100652181D01*
X180803500Y-107103500D01*
X180589979Y-107423057D01*
X180515000Y-107800000D01*
X180515000Y-112292000D01*
X180503500Y-112303500D01*
X180289979Y-112623057D01*
X180215000Y-113000000D01*
X180289979Y-113376943D01*
X180503500Y-113696500D01*
X180823057Y-113910021D01*
X181200000Y-113985000D01*
X181434522Y-113938350D01*
X180843565Y-115545260D01*
X180385000Y-116564959D01*
X180385000Y-116472998D01*
X180226252Y-116472998D01*
X180385000Y-116314250D01*
X180385000Y-115473691D01*
X180288327Y-115240302D01*
X180109699Y-115061673D01*
X179876310Y-114965000D01*
X179285750Y-114965000D01*
X179127000Y-115123750D01*
X179127000Y-116473000D01*
X179147000Y-116473000D01*
X179147000Y-116727000D01*
X179127000Y-116727000D01*
X179127000Y-118076250D01*
X179285750Y-118235000D01*
X179633974Y-118235000D01*
X179455188Y-118632561D01*
X177825613Y-121452339D01*
X175976987Y-123743614D01*
X173901238Y-125302470D01*
X171177438Y-126596419D01*
X168759756Y-127500511D01*
X166631953Y-127991214D01*
X164719900Y-128076101D01*
X162928298Y-127760504D01*
X161152745Y-127028820D01*
X159387106Y-125902137D01*
X158541379Y-124684973D01*
X158215304Y-122722108D01*
X158366284Y-120122974D01*
X158906470Y-117155375D01*
X159714410Y-114055715D01*
X160662692Y-111044893D01*
X161622973Y-108337456D01*
X162466772Y-106145443D01*
X163065870Y-104679137D01*
X163293529Y-104144942D01*
X163296918Y-104128763D01*
X163305598Y-104114689D01*
X163324766Y-103995840D01*
X163349446Y-103878036D01*
X163346386Y-103861789D01*
X163349018Y-103845468D01*
X163321249Y-103728346D01*
X163298966Y-103610048D01*
X163289921Y-103596208D01*
X163286107Y-103580123D01*
X163215632Y-103482543D01*
X163149774Y-103381779D01*
X163136122Y-103372455D01*
X163126441Y-103359051D01*
X163023972Y-103295859D01*
X162924583Y-103227978D01*
X162908404Y-103224589D01*
X162894330Y-103215909D01*
X162775481Y-103196741D01*
X162657677Y-103172061D01*
X162641430Y-103175121D01*
X162625109Y-103172489D01*
X162507985Y-103200258D01*
X162389690Y-103222541D01*
X162375851Y-103231586D01*
X162359764Y-103235400D01*
X159883335Y-104368575D01*
X157512680Y-105290620D01*
X155253278Y-105997945D01*
X153127696Y-106480193D01*
X151159441Y-106728333D01*
X149372488Y-106735808D01*
X147789437Y-106499929D01*
X146426708Y-106021857D01*
X145288513Y-105300924D01*
X144368876Y-104322408D01*
X143668228Y-103053153D01*
X143206085Y-101456368D01*
X143014294Y-99506908D01*
X143125086Y-97191502D01*
X143566400Y-94502257D01*
X144364943Y-91422298D01*
X145361392Y-88172909D01*
X146410867Y-85065952D01*
X147510898Y-82108727D01*
X148660734Y-79302792D01*
X149859651Y-76649535D01*
X151106812Y-74150494D01*
X152401389Y-71807051D01*
X153742467Y-69620623D01*
X155129102Y-67592528D01*
X156560300Y-65724006D01*
X158035048Y-64016180D01*
X159552346Y-62470019D01*
X161111241Y-61086321D01*
X162642077Y-59918226D01*
X164532088Y-59276025D01*
X165947684Y-59164034D01*
X166921057Y-59455978D01*
M02*
