G04 #@! TF.FileFunction,Copper,L2,Bot,Signal*
%FSLAX46Y46*%
G04 Gerber Fmt 4.6, Leading zero omitted, Abs format (unit mm)*
G04 Created by KiCad (PCBNEW 4.0.6) date Tuesday, 30 January 2018 'PMt' 23:29:37*
%MOMM*%
%LPD*%
G01*
G04 APERTURE LIST*
%ADD10C,0.100000*%
%ADD11O,0.700000X2.500000*%
%ADD12O,2.500000X0.700000*%
%ADD13R,6.000000X6.000000*%
%ADD14R,2.000000X1.700000*%
%ADD15R,3.800000X2.000000*%
%ADD16R,1.500000X2.000000*%
%ADD17R,2.000000X1.600000*%
%ADD18R,2.000000X0.600000*%
%ADD19R,2.400000X1.800860*%
%ADD20R,0.500380X2.301240*%
%ADD21R,1.998980X2.499360*%
%ADD22C,1.500000*%
%ADD23R,1.500000X1.500000*%
%ADD24C,0.600000*%
%ADD25C,0.250000*%
%ADD26C,0.254000*%
G04 APERTURE END LIST*
D10*
D11*
X240170000Y-80400000D03*
X238900000Y-80400000D03*
X237630000Y-80400000D03*
X236360000Y-80400000D03*
X235090000Y-80400000D03*
X233820000Y-80400000D03*
X232550000Y-80400000D03*
X231280000Y-80400000D03*
X230010000Y-80400000D03*
X228740000Y-80400000D03*
X227470000Y-80400000D03*
X226200000Y-80400000D03*
X224930000Y-80400000D03*
X223660000Y-80400000D03*
D12*
X222170000Y-83685000D03*
X222170000Y-84955000D03*
X222170000Y-88765000D03*
X222170000Y-90035000D03*
X222170000Y-91305000D03*
X222170000Y-92575000D03*
X222170000Y-93845000D03*
X222170000Y-95115000D03*
D11*
X223660000Y-98400000D03*
X224930000Y-98400000D03*
X226200000Y-98400000D03*
X227470000Y-98400000D03*
X228740000Y-98400000D03*
X230010000Y-98400000D03*
X231280000Y-98400000D03*
X232550000Y-98400000D03*
X233820000Y-98400000D03*
X235090000Y-98400000D03*
X236360000Y-98400000D03*
X237630000Y-98400000D03*
X238900000Y-98400000D03*
X240170000Y-98400000D03*
D13*
X232470000Y-89700000D03*
D14*
X230300000Y-102300000D03*
X226300000Y-102300000D03*
X170750000Y-77500000D03*
X174750000Y-77500000D03*
D15*
X176700000Y-110300000D03*
D16*
X176700000Y-116600000D03*
X174400000Y-116600000D03*
X179000000Y-116600000D03*
D17*
X233800000Y-102300000D03*
X237800000Y-102300000D03*
D14*
X203600000Y-77700000D03*
X207600000Y-77700000D03*
X187000000Y-77000000D03*
X191000000Y-77000000D03*
D18*
X210400000Y-80610000D03*
X210400000Y-81880000D03*
X210400000Y-83150000D03*
X210400000Y-84420000D03*
X210400000Y-85690000D03*
X210400000Y-86960000D03*
X210400000Y-88230000D03*
X210400000Y-89500000D03*
X210400000Y-90770000D03*
X210400000Y-92040000D03*
X210400000Y-93310000D03*
X210400000Y-94580000D03*
X201000000Y-94580000D03*
X201000000Y-93310000D03*
X201000000Y-92040000D03*
X201000000Y-90770000D03*
X201000000Y-89500000D03*
X201000000Y-88230000D03*
X201000000Y-86960000D03*
X201000000Y-85690000D03*
X201000000Y-84420000D03*
X201000000Y-83150000D03*
X201000000Y-81880000D03*
X201000000Y-80610000D03*
X194250000Y-80530000D03*
X194250000Y-81800000D03*
X194250000Y-83070000D03*
X194250000Y-84340000D03*
X194250000Y-85610000D03*
X194250000Y-86880000D03*
X194250000Y-88150000D03*
X194250000Y-89420000D03*
X194250000Y-90690000D03*
X194250000Y-91960000D03*
X194250000Y-93230000D03*
X194250000Y-94500000D03*
X184850000Y-94500000D03*
X184850000Y-93230000D03*
X184850000Y-91960000D03*
X184850000Y-90690000D03*
X184850000Y-89420000D03*
X184850000Y-88150000D03*
X184850000Y-86880000D03*
X184850000Y-85610000D03*
X184850000Y-84340000D03*
X184850000Y-83070000D03*
X184850000Y-81800000D03*
X184850000Y-80530000D03*
D19*
X157400000Y-90250000D03*
X161000000Y-90250000D03*
X157400000Y-87250000D03*
X161000000Y-87250000D03*
X157400000Y-84250000D03*
X161000000Y-84250000D03*
D20*
X197500200Y-97750680D03*
X196700100Y-97750680D03*
X195900000Y-97750680D03*
X195099900Y-97750680D03*
X194299800Y-97750680D03*
D21*
X200350080Y-97849740D03*
X200350080Y-103348840D03*
X191449920Y-97849740D03*
X191449920Y-103348840D03*
D18*
X177450000Y-80765000D03*
X177450000Y-82035000D03*
X177450000Y-83305000D03*
X177450000Y-84575000D03*
X177450000Y-85845000D03*
X177450000Y-87115000D03*
X177450000Y-88385000D03*
X177450000Y-89655000D03*
X177450000Y-90925000D03*
X177450000Y-92195000D03*
X177450000Y-93465000D03*
X177450000Y-94735000D03*
X168050000Y-94735000D03*
X168050000Y-93465000D03*
X168050000Y-92195000D03*
X168050000Y-90925000D03*
X168050000Y-89655000D03*
X168050000Y-88385000D03*
X168050000Y-87115000D03*
X168050000Y-85845000D03*
X168050000Y-84575000D03*
X168050000Y-83305000D03*
X168050000Y-82035000D03*
X168050000Y-80765000D03*
D22*
X171800000Y-113000000D03*
D23*
X239600000Y-77200000D03*
D22*
X219600000Y-102300000D03*
X222900000Y-102300000D03*
X236700000Y-77100000D03*
X234100000Y-77100000D03*
X216200000Y-80400000D03*
D24*
X201300000Y-100700000D03*
X202300000Y-103400000D03*
X159600000Y-82000000D03*
X173000000Y-114800000D03*
X197200000Y-95600000D03*
X179800000Y-113100000D03*
X178000000Y-113100000D03*
X213600000Y-103000000D03*
X216600000Y-102900000D03*
X197600000Y-82700000D03*
X196058058Y-83341942D03*
X238900000Y-94100000D03*
X215700000Y-86300000D03*
X214498392Y-77750307D03*
X232300000Y-76900000D03*
X227500000Y-83700000D03*
X230900000Y-84300000D03*
X228400000Y-91600000D03*
X225600000Y-95500000D03*
X218400000Y-90900000D03*
X213600000Y-94500000D03*
X202800000Y-100900000D03*
X213000000Y-102000000D03*
X227300000Y-100600000D03*
X235800000Y-102700000D03*
X219200000Y-84700000D03*
X216300000Y-84200000D03*
X201200000Y-95900000D03*
X205600000Y-87800000D03*
X196600000Y-86800000D03*
X192400000Y-86700000D03*
X197400000Y-86900000D03*
X206600000Y-79500000D03*
X196200000Y-79100000D03*
X191100000Y-85100000D03*
X205500000Y-86400000D03*
X191750000Y-90250000D03*
X190250000Y-94250000D03*
X183500000Y-102500000D03*
X178000000Y-102250000D03*
X168750000Y-105250000D03*
X163500000Y-111500000D03*
X163750000Y-120750000D03*
X169500000Y-115500000D03*
X173800000Y-108700000D03*
X179750000Y-95500000D03*
X182500000Y-86200000D03*
X179750000Y-85750000D03*
X175400000Y-84800000D03*
X185250000Y-79000000D03*
X180250000Y-80500000D03*
X172750000Y-98500000D03*
X171000000Y-92250000D03*
X171000000Y-89500000D03*
X173750000Y-83500000D03*
X164500000Y-98000000D03*
X155000000Y-100000000D03*
X152750000Y-93500000D03*
X154000000Y-88500000D03*
X159250000Y-80750000D03*
X161500000Y-75750000D03*
X166750000Y-68000000D03*
D25*
X201300000Y-100700000D02*
X200876319Y-101123681D01*
X200876319Y-101123681D02*
X196127640Y-101123681D01*
X196127640Y-101123681D02*
X195099900Y-100095941D01*
X204450010Y-104550010D02*
X203450010Y-104550010D01*
X203450010Y-104550010D02*
X202300000Y-103400000D01*
X237800000Y-102300000D02*
X237600000Y-102300000D01*
X237600000Y-102300000D02*
X235349990Y-104550010D01*
X235349990Y-104550010D02*
X204450010Y-104550010D01*
X239600000Y-77200000D02*
X238600000Y-77200000D01*
X238600000Y-77200000D02*
X237424999Y-76024999D01*
X237424999Y-76024999D02*
X210525001Y-76024999D01*
X210525001Y-76024999D02*
X208850000Y-77700000D01*
X208850000Y-77700000D02*
X207600000Y-77700000D01*
X240200000Y-78800000D02*
X240170000Y-78830000D01*
X240170000Y-78830000D02*
X240170000Y-80400000D01*
X239600000Y-77200000D02*
X239600000Y-78200000D01*
X239600000Y-78200000D02*
X240200000Y-78800000D01*
X207600000Y-77700000D02*
X207450000Y-77700000D01*
X207450000Y-77700000D02*
X205824990Y-76074990D01*
X205824990Y-76074990D02*
X193175010Y-76074990D01*
X193175010Y-76074990D02*
X192250000Y-77000000D01*
X192250000Y-77000000D02*
X191000000Y-77000000D01*
X240170000Y-80400000D02*
X240170000Y-79500000D01*
X210400000Y-80610000D02*
X210400000Y-80060000D01*
X210400000Y-80060000D02*
X208040000Y-77700000D01*
X208040000Y-77700000D02*
X207600000Y-77700000D01*
X232470000Y-89700000D02*
X229220000Y-89700000D01*
X229220000Y-89700000D02*
X223805000Y-95115000D01*
X223805000Y-95115000D02*
X223670000Y-95115000D01*
X223670000Y-95115000D02*
X222170000Y-95115000D01*
X240170000Y-98400000D02*
X240170000Y-94150000D01*
X240170000Y-94150000D02*
X235720000Y-89700000D01*
X235720000Y-89700000D02*
X232470000Y-89700000D01*
X240170000Y-80400000D02*
X240170000Y-85250000D01*
X240170000Y-85250000D02*
X235720000Y-89700000D01*
X240170000Y-98400000D02*
X240170000Y-100130000D01*
X240170000Y-100130000D02*
X238000000Y-102300000D01*
X238000000Y-102300000D02*
X237800000Y-102300000D01*
X179000000Y-109100000D02*
X186976319Y-101123681D01*
X195099900Y-99151300D02*
X195099900Y-97750680D01*
X186976319Y-101123681D02*
X194072160Y-101123681D01*
X194072160Y-101123681D02*
X195099900Y-100095941D01*
X195099900Y-100095941D02*
X195099900Y-99151300D01*
X179000000Y-116600000D02*
X179000000Y-109100000D01*
X178000000Y-75500000D02*
X188250000Y-75500000D01*
X188250000Y-75500000D02*
X189750000Y-77000000D01*
X189750000Y-77000000D02*
X191000000Y-77000000D01*
X174750000Y-77500000D02*
X176000000Y-77500000D01*
X176000000Y-77500000D02*
X178000000Y-75500000D01*
X191000000Y-77000000D02*
X191270000Y-77000000D01*
X191270000Y-77000000D02*
X194250000Y-79980000D01*
X194250000Y-79980000D02*
X194250000Y-80530000D01*
X174750000Y-77500000D02*
X174900000Y-77500000D01*
X174900000Y-77500000D02*
X177450000Y-80050000D01*
X177450000Y-80050000D02*
X177450000Y-80215000D01*
X177450000Y-80215000D02*
X177450000Y-80765000D01*
X171800000Y-113000000D02*
X174400000Y-115600000D01*
X174400000Y-115600000D02*
X174400000Y-116600000D01*
X157400000Y-84250000D02*
X157699570Y-84250000D01*
X157699570Y-84250000D02*
X159600000Y-82349570D01*
X159600000Y-82349570D02*
X159600000Y-82000000D01*
X174400000Y-116200000D02*
X173000000Y-114800000D01*
X174400000Y-116600000D02*
X174400000Y-116200000D01*
X197500200Y-97750680D02*
X197500200Y-95900200D01*
X197500200Y-95900200D02*
X197200000Y-95600000D01*
X157400000Y-84250000D02*
X157400000Y-87250000D01*
X157400000Y-87250000D02*
X157400000Y-88400430D01*
X157400000Y-88400430D02*
X157400000Y-90250000D01*
X203600000Y-103000000D02*
X202835412Y-103000000D01*
X213600000Y-103000000D02*
X203600000Y-103000000D01*
X230300000Y-102300000D02*
X229050000Y-102300000D01*
X229050000Y-102300000D02*
X227874999Y-103475001D01*
X227874999Y-103475001D02*
X220775001Y-103475001D01*
X220775001Y-103475001D02*
X220349999Y-103049999D01*
X220349999Y-103049999D02*
X219600000Y-102300000D01*
X179800000Y-113100000D02*
X179800000Y-109500000D01*
X179800000Y-109500000D02*
X187525841Y-101774159D01*
X176700000Y-116600000D02*
X176700000Y-114400000D01*
X176700000Y-114400000D02*
X178000000Y-113100000D01*
X202835412Y-103000000D02*
X201609571Y-101774159D01*
X201609571Y-101774159D02*
X187525841Y-101774159D01*
X219600000Y-102300000D02*
X217200000Y-102300000D01*
X217200000Y-102300000D02*
X216600000Y-102900000D01*
X163700000Y-107700000D02*
X162874999Y-108525001D01*
X162874999Y-120800001D02*
X163449999Y-121375001D01*
X163449999Y-121375001D02*
X172174999Y-121375001D01*
X162874999Y-108525001D02*
X162874999Y-120800001D01*
X172174999Y-121375001D02*
X176700000Y-116850000D01*
X176700000Y-116850000D02*
X176700000Y-116600000D01*
X163700000Y-102500000D02*
X163700000Y-107700000D01*
X162300000Y-101100000D02*
X163700000Y-102500000D01*
X155174998Y-101100000D02*
X162300000Y-101100000D01*
X172075001Y-76475001D02*
X167375001Y-71775001D01*
X167375001Y-71775001D02*
X167375001Y-67699999D01*
X167375001Y-67699999D02*
X167050001Y-67374999D01*
X167050001Y-67374999D02*
X166449999Y-67374999D01*
X166449999Y-67374999D02*
X152124999Y-81699999D01*
X152124999Y-81699999D02*
X152124999Y-98050001D01*
X152124999Y-98050001D02*
X155174998Y-101100000D01*
X168050000Y-80765000D02*
X169920002Y-80765000D01*
X169920002Y-80765000D02*
X172075001Y-78610001D01*
X172075001Y-78610001D02*
X172075001Y-76475001D01*
X184850000Y-80530000D02*
X184234998Y-80530000D01*
X183524999Y-82360001D02*
X183589999Y-82425001D01*
X184234998Y-80530000D02*
X183524999Y-81239999D01*
X183524999Y-81239999D02*
X183524999Y-82360001D01*
X183589999Y-82425001D02*
X186110001Y-82425001D01*
X186110001Y-82425001D02*
X187375002Y-81160000D01*
X187375002Y-81160000D02*
X199750000Y-81160000D01*
X199750000Y-81160000D02*
X200300000Y-80610000D01*
X200300000Y-80610000D02*
X201000000Y-80610000D01*
X230300000Y-102300000D02*
X233800000Y-102300000D01*
X238200000Y-100700000D02*
X238900000Y-100000000D01*
X238900000Y-100000000D02*
X238900000Y-98400000D01*
X237500000Y-100700000D02*
X238200000Y-100700000D01*
X236550000Y-100800000D02*
X237400000Y-100800000D01*
X237400000Y-100800000D02*
X237500000Y-100700000D01*
X233800000Y-102300000D02*
X235050000Y-102300000D01*
X235050000Y-102300000D02*
X236550000Y-100800000D01*
X183270001Y-81409999D02*
X182500000Y-81409999D01*
X182500000Y-81409999D02*
X181500000Y-81409999D01*
X181500000Y-81409999D02*
X180000000Y-81409999D01*
X180000000Y-81409999D02*
X169944999Y-81409999D01*
X184850000Y-80530000D02*
X184150000Y-80530000D01*
X184150000Y-80530000D02*
X183270001Y-81409999D01*
X169944999Y-81409999D02*
X169300000Y-80765000D01*
X169300000Y-80765000D02*
X168050000Y-80765000D01*
X226200000Y-80400000D02*
X226200000Y-79500000D01*
X226200000Y-79500000D02*
X225524990Y-78824990D01*
X225524990Y-78824990D02*
X214705010Y-78824990D01*
X214705010Y-78824990D02*
X211650000Y-81880000D01*
X211650000Y-81880000D02*
X210400000Y-81880000D01*
X210480000Y-81800000D02*
X210400000Y-81880000D01*
X197600000Y-82700000D02*
X198675001Y-83775001D01*
X198675001Y-83775001D02*
X202258589Y-83775001D01*
X202258589Y-83775001D02*
X202883590Y-83150000D01*
X202883590Y-83150000D02*
X209150000Y-83150000D01*
X209150000Y-83150000D02*
X210400000Y-83150000D01*
X194250000Y-83070000D02*
X195786116Y-83070000D01*
X195786116Y-83070000D02*
X196058058Y-83341942D01*
X231280000Y-80400000D02*
X231280000Y-79500000D01*
X231280000Y-79500000D02*
X230154980Y-78374980D01*
X209074999Y-82524999D02*
X209700000Y-83150000D01*
X230154980Y-78374980D02*
X214518610Y-78374980D01*
X214518610Y-78374980D02*
X211658589Y-81235001D01*
X211658589Y-81235001D02*
X209159997Y-81235001D01*
X209159997Y-81235001D02*
X209074999Y-81319999D01*
X209074999Y-81319999D02*
X209074999Y-82524999D01*
X209700000Y-83150000D02*
X210400000Y-83150000D01*
X210400000Y-83150000D02*
X211100000Y-83150000D01*
X231280000Y-81300000D02*
X231280000Y-80400000D01*
X194950000Y-83070000D02*
X194250000Y-83070000D01*
X182000000Y-84984999D02*
X188265001Y-84984999D01*
X182000000Y-84984999D02*
X180320001Y-83305000D01*
X180320001Y-83305000D02*
X177450000Y-83305000D01*
X188265001Y-84984999D02*
X190180000Y-83070000D01*
X190180000Y-83070000D02*
X194250000Y-83070000D01*
X177450000Y-84575000D02*
X179500002Y-84575000D01*
X183600000Y-86300000D02*
X183600000Y-86235001D01*
X179500002Y-84575000D02*
X180500000Y-85574998D01*
X183600000Y-86235001D02*
X187944999Y-86235001D01*
X180500000Y-85574998D02*
X180500000Y-87000000D01*
X181100000Y-87600000D02*
X182300000Y-87600000D01*
X180500000Y-87000000D02*
X181100000Y-87600000D01*
X187944999Y-86235001D02*
X189840000Y-84340000D01*
X182300000Y-87600000D02*
X183600000Y-86300000D01*
X189840000Y-84340000D02*
X194250000Y-84340000D01*
X194250000Y-84340000D02*
X194950000Y-84340000D01*
X194950000Y-84340000D02*
X195674999Y-85064999D01*
X195674999Y-85064999D02*
X208505001Y-85064999D01*
X208505001Y-85064999D02*
X209150000Y-84420000D01*
X209150000Y-84420000D02*
X210400000Y-84420000D01*
X214600000Y-82900000D02*
X213080000Y-84420000D01*
X213080000Y-84420000D02*
X210400000Y-84420000D01*
X228410000Y-82900000D02*
X214600000Y-82900000D01*
X230010000Y-80400000D02*
X230010000Y-81300000D01*
X230010000Y-81300000D02*
X228410000Y-82900000D01*
X230010000Y-79500000D02*
X230010000Y-80400000D01*
X209700000Y-84420000D02*
X210400000Y-84420000D01*
X184850000Y-84340000D02*
X188273590Y-84340000D01*
X188273590Y-84340000D02*
X190168591Y-82444999D01*
X190168591Y-82444999D02*
X196324999Y-82444999D01*
X196324999Y-82444999D02*
X198300000Y-84420000D01*
X198300000Y-84420000D02*
X201000000Y-84420000D01*
X201000000Y-84420000D02*
X202250000Y-84420000D01*
X202894999Y-83775001D02*
X213088589Y-83775001D01*
X202250000Y-84420000D02*
X202894999Y-83775001D01*
X213088589Y-83775001D02*
X214888580Y-81975010D01*
X214888580Y-81975010D02*
X226794990Y-81975010D01*
X226794990Y-81975010D02*
X227470000Y-81300000D01*
X227470000Y-81300000D02*
X227470000Y-80400000D01*
X227470000Y-79500000D02*
X227470000Y-80400000D01*
X180679999Y-82679999D02*
X182340000Y-84340000D01*
X182340000Y-84340000D02*
X184850000Y-84340000D01*
X168050000Y-84575000D02*
X168750000Y-84575000D01*
X168750000Y-84575000D02*
X170645001Y-82679999D01*
X170645001Y-82679999D02*
X180679999Y-82679999D01*
X201000000Y-81880000D02*
X201700000Y-81880000D01*
X203600000Y-78800000D02*
X203600000Y-77700000D01*
X201700000Y-81880000D02*
X203600000Y-79980000D01*
X203600000Y-79980000D02*
X203600000Y-78800000D01*
X184850000Y-81800000D02*
X185550000Y-81800000D01*
X185550000Y-81800000D02*
X187000000Y-80350000D01*
X187000000Y-80350000D02*
X187000000Y-78100000D01*
X187000000Y-78100000D02*
X187000000Y-77000000D01*
X198950000Y-81800000D02*
X194250000Y-81800000D01*
X201000000Y-83150000D02*
X200300000Y-83150000D01*
X200300000Y-83150000D02*
X198950000Y-81800000D01*
X210400000Y-85690000D02*
X213510000Y-85690000D01*
X214374999Y-84825001D02*
X217125001Y-84825001D01*
X213510000Y-85690000D02*
X214374999Y-84825001D01*
X219825001Y-84399999D02*
X219825001Y-85000001D01*
X209139999Y-87585001D02*
X206800000Y-89925000D01*
X217125001Y-84825001D02*
X218050002Y-83900000D01*
X218050002Y-83900000D02*
X219325002Y-83900000D01*
X206800000Y-89925000D02*
X206800000Y-93501412D01*
X219325002Y-83900000D02*
X219825001Y-84399999D01*
X236299983Y-96700017D02*
X238900000Y-94100000D01*
X219825001Y-85000001D02*
X217240001Y-87585001D01*
X217240001Y-87585001D02*
X209139999Y-87585001D01*
X206800000Y-93501412D02*
X209998605Y-96700017D01*
X209998605Y-96700017D02*
X236299983Y-96700017D01*
X210400000Y-86960000D02*
X215040000Y-86960000D01*
X215040000Y-86960000D02*
X215700000Y-86300000D01*
X232300000Y-76900000D02*
X231449693Y-77750307D01*
X231449693Y-77750307D02*
X214498392Y-77750307D01*
X225800000Y-85400000D02*
X227500000Y-83700000D01*
X225800000Y-85400000D02*
X224700000Y-86500000D01*
X220000000Y-86500000D02*
X218270000Y-88230000D01*
X218270000Y-88230000D02*
X210400000Y-88230000D01*
X224700000Y-86500000D02*
X220000000Y-86500000D01*
X224125000Y-86500000D02*
X224700000Y-86500000D01*
X230900000Y-84300000D02*
X228249991Y-86950009D01*
X228249991Y-86950009D02*
X220186401Y-86950009D01*
X217636410Y-89500000D02*
X211650000Y-89500000D01*
X220186401Y-86950009D02*
X217636410Y-89500000D01*
X211650000Y-89500000D02*
X210400000Y-89500000D01*
X210400000Y-90770000D02*
X209700000Y-90770000D01*
X209700000Y-90770000D02*
X208624989Y-91845011D01*
X208624989Y-91845011D02*
X208624989Y-94689991D01*
X208624989Y-94689991D02*
X210185006Y-96250008D01*
X210185006Y-96250008D02*
X225774994Y-96250008D01*
X225774994Y-96250008D02*
X228400000Y-93625002D01*
X228400000Y-93625002D02*
X228400000Y-91600000D01*
X225600000Y-95500000D02*
X225300001Y-95799999D01*
X225300001Y-95799999D02*
X215825001Y-95799999D01*
X213895003Y-93870001D02*
X211725001Y-93870001D01*
X215825001Y-95799999D02*
X213895003Y-93870001D01*
X211725001Y-93870001D02*
X211660001Y-93935001D01*
X211660001Y-93935001D02*
X209139999Y-93935001D01*
X209139999Y-93935001D02*
X209074999Y-93870001D01*
X209074999Y-93870001D02*
X209074999Y-92665001D01*
X209074999Y-92665001D02*
X209700000Y-92040000D01*
X209700000Y-92040000D02*
X210400000Y-92040000D01*
X218400000Y-90900000D02*
X215990000Y-93310000D01*
X215990000Y-93310000D02*
X210400000Y-93310000D01*
X213600000Y-94500000D02*
X210480000Y-94500000D01*
X210480000Y-94500000D02*
X210400000Y-94580000D01*
X202800000Y-100900000D02*
X202800000Y-95680000D01*
X202800000Y-95680000D02*
X201700000Y-94580000D01*
X201700000Y-94580000D02*
X201000000Y-94580000D01*
X202900000Y-95143590D02*
X202900000Y-94510000D01*
X202900000Y-94510000D02*
X201700000Y-93310000D01*
X201700000Y-93310000D02*
X201000000Y-93310000D01*
X213000000Y-102000000D02*
X209756410Y-102000000D01*
X209756410Y-102000000D02*
X202900000Y-95143590D01*
X227300000Y-100600000D02*
X210810000Y-100600000D01*
X210810000Y-100600000D02*
X202250000Y-92040000D01*
X202250000Y-92040000D02*
X201000000Y-92040000D01*
X201700000Y-92040000D02*
X201000000Y-92040000D01*
X216025002Y-104100000D02*
X213300001Y-101374999D01*
X216025002Y-104100000D02*
X234385002Y-104100000D01*
X234385002Y-104100000D02*
X235785002Y-102700000D01*
X235785002Y-102700000D02*
X235800000Y-102700000D01*
X200300000Y-90770000D02*
X201000000Y-90770000D01*
X213300001Y-101374999D02*
X210874999Y-101374999D01*
X210874999Y-101374999D02*
X202165001Y-92665001D01*
X202165001Y-92665001D02*
X199739999Y-92665001D01*
X199739999Y-92665001D02*
X199674999Y-92600001D01*
X199674999Y-92600001D02*
X199674999Y-91395001D01*
X199674999Y-91395001D02*
X200300000Y-90770000D01*
X201700000Y-90770000D02*
X201000000Y-90770000D01*
X201508588Y-90770000D02*
X201000000Y-90770000D01*
X201000000Y-89500000D02*
X205955000Y-89500000D01*
X205955000Y-89500000D02*
X209139999Y-86315001D01*
X213884999Y-86315001D02*
X214700000Y-85500000D01*
X209139999Y-86315001D02*
X213884999Y-86315001D01*
X218300000Y-85500000D02*
X219100000Y-84700000D01*
X214700000Y-85500000D02*
X218300000Y-85500000D01*
X219100000Y-84700000D02*
X219200000Y-84700000D01*
X201700000Y-89500000D02*
X201000000Y-89500000D01*
X216300000Y-84200000D02*
X213936410Y-84200000D01*
X204244998Y-88230000D02*
X201000000Y-88230000D01*
X213936410Y-84200000D02*
X213071411Y-85064999D01*
X204439999Y-88425001D02*
X204244998Y-88230000D01*
X213071411Y-85064999D02*
X209141411Y-85064999D01*
X206900000Y-87306410D02*
X206900000Y-87425002D01*
X209141411Y-85064999D02*
X206900000Y-87306410D01*
X206900000Y-87425002D02*
X205900001Y-88425001D01*
X205900001Y-88425001D02*
X204439999Y-88425001D01*
X197400000Y-89000000D02*
X199440000Y-86960000D01*
X199440000Y-86960000D02*
X201000000Y-86960000D01*
X197400000Y-94400000D02*
X197400000Y-89000000D01*
X201200000Y-95900000D02*
X198900000Y-95900000D01*
X198900000Y-95900000D02*
X197400000Y-94400000D01*
X201000000Y-86960000D02*
X201700000Y-86960000D01*
X205600000Y-87800000D02*
X206125001Y-87274999D01*
X205715002Y-85690000D02*
X202250000Y-85690000D01*
X206125001Y-87274999D02*
X206125001Y-86099999D01*
X206125001Y-86099999D02*
X205715002Y-85690000D01*
X202250000Y-85690000D02*
X201000000Y-85690000D01*
X194250000Y-85610000D02*
X194950000Y-85610000D01*
X194950000Y-85610000D02*
X196140000Y-86800000D01*
X196140000Y-86800000D02*
X196600000Y-86800000D01*
X194235000Y-85625000D02*
X194250000Y-85610000D01*
X192400000Y-86700000D02*
X194070000Y-86700000D01*
X194070000Y-86700000D02*
X194250000Y-86880000D01*
X197400000Y-86900000D02*
X196150000Y-88150000D01*
X196150000Y-88150000D02*
X195500000Y-88150000D01*
X195500000Y-88150000D02*
X194250000Y-88150000D01*
X196200000Y-79100000D02*
X198775001Y-76524999D01*
X198775001Y-76524999D02*
X204860001Y-76524999D01*
X204925001Y-77825001D02*
X206600000Y-79500000D01*
X204860001Y-76524999D02*
X204925001Y-76589999D01*
X204925001Y-76589999D02*
X204925001Y-77825001D01*
X194250000Y-89420000D02*
X193550000Y-89420000D01*
X191100000Y-86970000D02*
X191100000Y-85100000D01*
X193550000Y-89420000D02*
X191100000Y-86970000D01*
X205500000Y-86400000D02*
X202325001Y-86399999D01*
X199305001Y-86334999D02*
X194950000Y-90690000D01*
X202325001Y-86399999D02*
X202260001Y-86334999D01*
X202260001Y-86334999D02*
X199305001Y-86334999D01*
X194950000Y-90690000D02*
X194250000Y-90690000D01*
X191750000Y-90250000D02*
X193460000Y-91960000D01*
X193460000Y-91960000D02*
X194250000Y-91960000D01*
X190250000Y-94250000D02*
X191270000Y-93230000D01*
X191270000Y-93230000D02*
X194250000Y-93230000D01*
X183500000Y-102500000D02*
X191500000Y-94500000D01*
X191500000Y-94500000D02*
X194250000Y-94500000D01*
X184850000Y-94500000D02*
X184850000Y-95400000D01*
X184850000Y-95400000D02*
X178000000Y-102250000D01*
X184850000Y-93230000D02*
X184150000Y-93230000D01*
X184150000Y-93230000D02*
X172130000Y-105250000D01*
X172130000Y-105250000D02*
X169174264Y-105250000D01*
X169174264Y-105250000D02*
X168750000Y-105250000D01*
X184850000Y-91960000D02*
X184215002Y-91960000D01*
X184215002Y-91960000D02*
X171550003Y-104624999D01*
X171550003Y-104624999D02*
X168449999Y-104624999D01*
X168449999Y-104624999D02*
X163500000Y-109574998D01*
X163500000Y-109574998D02*
X163500000Y-111075736D01*
X163500000Y-111075736D02*
X163500000Y-111500000D01*
X170250000Y-115675002D02*
X170250000Y-108664998D01*
X170250000Y-108664998D02*
X172464988Y-106450010D01*
X172464988Y-106450010D02*
X175361403Y-106450009D01*
X175361403Y-106450009D02*
X186625011Y-95186401D01*
X186625011Y-95186401D02*
X186625010Y-91213598D01*
X186625010Y-91213598D02*
X186101412Y-90690000D01*
X186100000Y-90690000D02*
X184850000Y-90690000D01*
X186101412Y-90690000D02*
X186100000Y-90690000D01*
X163750000Y-120750000D02*
X165175002Y-120750000D01*
X165175002Y-120750000D02*
X170250000Y-115675002D01*
X183000000Y-91334999D02*
X186110001Y-91334999D01*
X184850000Y-89420000D02*
X184150000Y-89420000D01*
X184150000Y-89420000D02*
X183000000Y-90570000D01*
X183000000Y-90570000D02*
X183000000Y-91334999D01*
X168750000Y-106000000D02*
X168750000Y-114750000D01*
X186110001Y-91334999D02*
X186175001Y-91399999D01*
X186175001Y-91399999D02*
X186175001Y-95000001D01*
X186175001Y-95000001D02*
X175175002Y-106000000D01*
X175175002Y-106000000D02*
X168750000Y-106000000D01*
X168750000Y-114750000D02*
X169500000Y-115500000D01*
X187075020Y-95372802D02*
X187075020Y-95424980D01*
X187075020Y-95424980D02*
X173800000Y-108700000D01*
X184850000Y-88150000D02*
X185550000Y-88150000D01*
X185550000Y-88150000D02*
X187075020Y-89675020D01*
X187075020Y-89675020D02*
X187075020Y-95372802D01*
X179750000Y-95500000D02*
X179750000Y-92600000D01*
X184850000Y-86880000D02*
X184150000Y-86880000D01*
X184150000Y-86880000D02*
X179750000Y-91280000D01*
X179750000Y-91280000D02*
X179750000Y-92600000D01*
X184850000Y-85610000D02*
X183090000Y-85610000D01*
X183090000Y-85610000D02*
X182500000Y-86200000D01*
X179750000Y-85750000D02*
X177545000Y-85750000D01*
X177545000Y-85750000D02*
X177450000Y-85845000D01*
X176750000Y-87115000D02*
X175400000Y-85765000D01*
X175400000Y-85765000D02*
X175400000Y-85680002D01*
X175400000Y-85680002D02*
X175400000Y-84800000D01*
X180250000Y-80500000D02*
X181750000Y-79000000D01*
X181750000Y-79000000D02*
X185250000Y-79000000D01*
X177450000Y-87115000D02*
X176750000Y-87115000D01*
X177565000Y-87000000D02*
X177450000Y-87115000D01*
X172750000Y-98500000D02*
X175889999Y-95360001D01*
X175889999Y-95360001D02*
X178710001Y-95360001D01*
X178710001Y-95360001D02*
X178775001Y-95295001D01*
X178775001Y-95295001D02*
X178775001Y-89010001D01*
X178775001Y-89010001D02*
X178150000Y-88385000D01*
X178150000Y-88385000D02*
X177450000Y-88385000D01*
X171000000Y-92250000D02*
X170374999Y-91624999D01*
X170374999Y-91624999D02*
X170374999Y-89199999D01*
X170699999Y-88874999D02*
X175969999Y-88874999D01*
X175969999Y-88874999D02*
X176750000Y-89655000D01*
X170374999Y-89199999D02*
X170699999Y-88874999D01*
X176750000Y-89655000D02*
X177450000Y-89655000D01*
X171000000Y-89500000D02*
X172425000Y-90925000D01*
X172425000Y-90925000D02*
X177450000Y-90925000D01*
X173750000Y-83500000D02*
X169825011Y-87424989D01*
X169825011Y-87424989D02*
X169825011Y-89764991D01*
X169825011Y-89764991D02*
X169375001Y-90215001D01*
X169825011Y-92000013D02*
X170699999Y-92875001D01*
X170699999Y-92875001D02*
X176069999Y-92875001D01*
X169375001Y-90215001D02*
X169375001Y-90913591D01*
X169375001Y-90913591D02*
X169825011Y-91363601D01*
X169825011Y-91363601D02*
X169825011Y-92000013D01*
X176069999Y-92875001D02*
X176750000Y-92195000D01*
X176750000Y-92195000D02*
X177450000Y-92195000D01*
X164500000Y-98000000D02*
X170250000Y-98000000D01*
X170250000Y-98000000D02*
X174785000Y-93465000D01*
X174785000Y-93465000D02*
X176200000Y-93465000D01*
X176200000Y-93465000D02*
X177450000Y-93465000D01*
X170750000Y-99000000D02*
X175015000Y-94735000D01*
X175015000Y-94735000D02*
X177450000Y-94735000D01*
X156000000Y-99000000D02*
X170750000Y-99000000D01*
X155000000Y-100000000D02*
X156000000Y-99000000D01*
X168050000Y-94735000D02*
X153985000Y-94735000D01*
X153985000Y-94735000D02*
X152750000Y-93500000D01*
X154000000Y-91750000D02*
X154000000Y-88500000D01*
X155715000Y-93465000D02*
X154000000Y-91750000D01*
X168050000Y-93465000D02*
X155715000Y-93465000D01*
X159250000Y-80750000D02*
X158214568Y-80750000D01*
X158214568Y-80750000D02*
X155874999Y-83089569D01*
X155874999Y-83089569D02*
X155874999Y-91410431D01*
X155874999Y-91410431D02*
X156659568Y-92195000D01*
X156659568Y-92195000D02*
X166800000Y-92195000D01*
X166800000Y-92195000D02*
X168050000Y-92195000D01*
X161500000Y-75750000D02*
X161500000Y-76828158D01*
X155424989Y-82903169D02*
X155424990Y-91596832D01*
X169375001Y-92755001D02*
X169375001Y-91550001D01*
X161500000Y-76828158D02*
X155424989Y-82903169D01*
X155424990Y-91596832D02*
X156648159Y-92820001D01*
X156648159Y-92820001D02*
X169310001Y-92820001D01*
X169310001Y-92820001D02*
X169375001Y-92755001D01*
X169375001Y-91550001D02*
X168750000Y-90925000D01*
X168750000Y-90925000D02*
X168050000Y-90925000D01*
X166750000Y-68000000D02*
X165000000Y-69750000D01*
X165000000Y-69750000D02*
X165000000Y-83410002D01*
X165000000Y-83410002D02*
X166809997Y-85219999D01*
X166809997Y-85219999D02*
X169310001Y-85219999D01*
X169310001Y-85219999D02*
X169375001Y-85284999D01*
X169375001Y-85284999D02*
X169375001Y-89029999D01*
X169375001Y-89029999D02*
X168750000Y-89655000D01*
X168750000Y-89655000D02*
X168050000Y-89655000D01*
X168050000Y-88385000D02*
X163164570Y-88385000D01*
X163164570Y-88385000D02*
X161299570Y-90250000D01*
X161299570Y-90250000D02*
X161000000Y-90250000D01*
X168050000Y-87115000D02*
X161135000Y-87115000D01*
X161135000Y-87115000D02*
X161000000Y-87250000D01*
X168050000Y-85845000D02*
X162894570Y-85845000D01*
X162894570Y-85845000D02*
X161299570Y-84250000D01*
X161299570Y-84250000D02*
X161000000Y-84250000D01*
X170750000Y-77500000D02*
X169500000Y-77500000D01*
X166724999Y-81409999D02*
X167350000Y-82035000D01*
X167350000Y-82035000D02*
X168050000Y-82035000D01*
X169500000Y-77500000D02*
X166724999Y-80275001D01*
X166724999Y-80275001D02*
X166724999Y-81409999D01*
X184850000Y-83070000D02*
X181706410Y-83070000D01*
X181706410Y-83070000D02*
X180671410Y-82035000D01*
X180671410Y-82035000D02*
X178700000Y-82035000D01*
X178700000Y-82035000D02*
X177450000Y-82035000D01*
X226300000Y-102300000D02*
X222900000Y-102300000D01*
X227550000Y-102300000D02*
X226300000Y-102300000D01*
X237630000Y-98400000D02*
X237630000Y-99300000D01*
X237630000Y-99300000D02*
X236580010Y-100349990D01*
X236580010Y-100349990D02*
X229500010Y-100349990D01*
X229500010Y-100349990D02*
X227550000Y-102300000D01*
X236700000Y-77100000D02*
X236700000Y-80060000D01*
X236700000Y-80060000D02*
X236360000Y-80400000D01*
X236360000Y-79500000D02*
X236360000Y-80400000D01*
X234100000Y-77100000D02*
X234100000Y-78510000D01*
X234100000Y-78510000D02*
X235090000Y-79500000D01*
X235090000Y-79500000D02*
X235090000Y-80400000D01*
X223660000Y-80400000D02*
X223060000Y-80400000D01*
X223060000Y-80400000D02*
X216200000Y-80400000D01*
D26*
G36*
X162940000Y-107385198D02*
X162337598Y-107987600D01*
X162172851Y-108234162D01*
X162114999Y-108525001D01*
X162114999Y-120800001D01*
X162172851Y-121090840D01*
X162337598Y-121337402D01*
X162912598Y-121912402D01*
X163159160Y-122077149D01*
X163449999Y-122135001D01*
X172174999Y-122135001D01*
X172465838Y-122077149D01*
X172712400Y-121912402D01*
X176377362Y-118247440D01*
X177450000Y-118247440D01*
X177685317Y-118203162D01*
X177849492Y-118097518D01*
X177890301Y-118138327D01*
X178123690Y-118235000D01*
X178714250Y-118235000D01*
X178873000Y-118076250D01*
X178873000Y-116727000D01*
X178853000Y-116727000D01*
X178853000Y-116473000D01*
X178873000Y-116473000D01*
X178873000Y-115123750D01*
X178714250Y-114965000D01*
X178123690Y-114965000D01*
X177890301Y-115061673D01*
X177848340Y-115103634D01*
X177701890Y-115003569D01*
X177460000Y-114954585D01*
X177460000Y-114714802D01*
X178139680Y-114035122D01*
X178185167Y-114035162D01*
X178528943Y-113893117D01*
X178792192Y-113630327D01*
X178900089Y-113370482D01*
X179006883Y-113628943D01*
X179269673Y-113892192D01*
X179613201Y-114034838D01*
X179985167Y-114035162D01*
X180328943Y-113893117D01*
X180592192Y-113630327D01*
X180734838Y-113286799D01*
X180735162Y-112914833D01*
X180593117Y-112571057D01*
X180560000Y-112537882D01*
X180560000Y-109814802D01*
X183617188Y-106757614D01*
X183497712Y-107260415D01*
X182866872Y-109603501D01*
X181981871Y-112450018D01*
X180843565Y-115545260D01*
X180385000Y-116564959D01*
X180385000Y-116472998D01*
X180226252Y-116472998D01*
X180385000Y-116314250D01*
X180385000Y-115473691D01*
X180288327Y-115240302D01*
X180109699Y-115061673D01*
X179876310Y-114965000D01*
X179285750Y-114965000D01*
X179127000Y-115123750D01*
X179127000Y-116473000D01*
X179147000Y-116473000D01*
X179147000Y-116727000D01*
X179127000Y-116727000D01*
X179127000Y-118076250D01*
X179285750Y-118235000D01*
X179633974Y-118235000D01*
X179455188Y-118632561D01*
X177825613Y-121452339D01*
X175976987Y-123743614D01*
X173901238Y-125302470D01*
X171177438Y-126596419D01*
X168759756Y-127500511D01*
X166631953Y-127991214D01*
X164719900Y-128076101D01*
X162928298Y-127760504D01*
X161152745Y-127028820D01*
X159387106Y-125902137D01*
X158541379Y-124684973D01*
X158215304Y-122722108D01*
X158366284Y-120122974D01*
X158906470Y-117155375D01*
X159714410Y-114055715D01*
X160662692Y-111044893D01*
X161622973Y-108337456D01*
X162466772Y-106145443D01*
X162940000Y-104987208D01*
X162940000Y-107385198D01*
X162940000Y-107385198D01*
G37*
X162940000Y-107385198D02*
X162337598Y-107987600D01*
X162172851Y-108234162D01*
X162114999Y-108525001D01*
X162114999Y-120800001D01*
X162172851Y-121090840D01*
X162337598Y-121337402D01*
X162912598Y-121912402D01*
X163159160Y-122077149D01*
X163449999Y-122135001D01*
X172174999Y-122135001D01*
X172465838Y-122077149D01*
X172712400Y-121912402D01*
X176377362Y-118247440D01*
X177450000Y-118247440D01*
X177685317Y-118203162D01*
X177849492Y-118097518D01*
X177890301Y-118138327D01*
X178123690Y-118235000D01*
X178714250Y-118235000D01*
X178873000Y-118076250D01*
X178873000Y-116727000D01*
X178853000Y-116727000D01*
X178853000Y-116473000D01*
X178873000Y-116473000D01*
X178873000Y-115123750D01*
X178714250Y-114965000D01*
X178123690Y-114965000D01*
X177890301Y-115061673D01*
X177848340Y-115103634D01*
X177701890Y-115003569D01*
X177460000Y-114954585D01*
X177460000Y-114714802D01*
X178139680Y-114035122D01*
X178185167Y-114035162D01*
X178528943Y-113893117D01*
X178792192Y-113630327D01*
X178900089Y-113370482D01*
X179006883Y-113628943D01*
X179269673Y-113892192D01*
X179613201Y-114034838D01*
X179985167Y-114035162D01*
X180328943Y-113893117D01*
X180592192Y-113630327D01*
X180734838Y-113286799D01*
X180735162Y-112914833D01*
X180593117Y-112571057D01*
X180560000Y-112537882D01*
X180560000Y-109814802D01*
X183617188Y-106757614D01*
X183497712Y-107260415D01*
X182866872Y-109603501D01*
X181981871Y-112450018D01*
X180843565Y-115545260D01*
X180385000Y-116564959D01*
X180385000Y-116472998D01*
X180226252Y-116472998D01*
X180385000Y-116314250D01*
X180385000Y-115473691D01*
X180288327Y-115240302D01*
X180109699Y-115061673D01*
X179876310Y-114965000D01*
X179285750Y-114965000D01*
X179127000Y-115123750D01*
X179127000Y-116473000D01*
X179147000Y-116473000D01*
X179147000Y-116727000D01*
X179127000Y-116727000D01*
X179127000Y-118076250D01*
X179285750Y-118235000D01*
X179633974Y-118235000D01*
X179455188Y-118632561D01*
X177825613Y-121452339D01*
X175976987Y-123743614D01*
X173901238Y-125302470D01*
X171177438Y-126596419D01*
X168759756Y-127500511D01*
X166631953Y-127991214D01*
X164719900Y-128076101D01*
X162928298Y-127760504D01*
X161152745Y-127028820D01*
X159387106Y-125902137D01*
X158541379Y-124684973D01*
X158215304Y-122722108D01*
X158366284Y-120122974D01*
X158906470Y-117155375D01*
X159714410Y-114055715D01*
X160662692Y-111044893D01*
X161622973Y-108337456D01*
X162466772Y-106145443D01*
X162940000Y-104987208D01*
X162940000Y-107385198D01*
G36*
X190164838Y-85285167D02*
X190306883Y-85628943D01*
X190340000Y-85662118D01*
X190340000Y-86970000D01*
X190397852Y-87260839D01*
X190562599Y-87507401D01*
X192602560Y-89547362D01*
X192602560Y-89720000D01*
X192646838Y-89955317D01*
X192710678Y-90054528D01*
X192685138Y-90091907D01*
X192685162Y-90064833D01*
X192543117Y-89721057D01*
X192280327Y-89457808D01*
X191936799Y-89315162D01*
X191564833Y-89314838D01*
X191221057Y-89456883D01*
X190957808Y-89719673D01*
X190815162Y-90063201D01*
X190814838Y-90435167D01*
X190956883Y-90778943D01*
X191219673Y-91042192D01*
X191563201Y-91184838D01*
X191610077Y-91184879D01*
X192602560Y-92177362D01*
X192602560Y-92260000D01*
X192642074Y-92470000D01*
X191270000Y-92470000D01*
X190979161Y-92527852D01*
X190732599Y-92692599D01*
X190110320Y-93314878D01*
X190064833Y-93314838D01*
X189721057Y-93456883D01*
X189457808Y-93719673D01*
X189315162Y-94063201D01*
X189314838Y-94435167D01*
X189456883Y-94778943D01*
X189719673Y-95042192D01*
X189835083Y-95090115D01*
X183360320Y-101564878D01*
X183314833Y-101564838D01*
X182971057Y-101706883D01*
X182707808Y-101969673D01*
X182565162Y-102313201D01*
X182564838Y-102685167D01*
X182706883Y-103028943D01*
X182969673Y-103292192D01*
X183313201Y-103434838D01*
X183685167Y-103435162D01*
X184028943Y-103293117D01*
X184292192Y-103030327D01*
X184434838Y-102686799D01*
X184434879Y-102639923D01*
X189802990Y-97271813D01*
X189802990Y-99099420D01*
X189847268Y-99334737D01*
X189986340Y-99550861D01*
X190198540Y-99695851D01*
X190450430Y-99746860D01*
X192449410Y-99746860D01*
X192684727Y-99702582D01*
X192900851Y-99563510D01*
X193045841Y-99351310D01*
X193096850Y-99099420D01*
X193096850Y-96600060D01*
X193052572Y-96364743D01*
X192913500Y-96148619D01*
X192701300Y-96003629D01*
X192449410Y-95952620D01*
X191122183Y-95952620D01*
X191814803Y-95260000D01*
X192798437Y-95260000D01*
X192998110Y-95396431D01*
X193250000Y-95447440D01*
X195250000Y-95447440D01*
X195485317Y-95403162D01*
X195701441Y-95264090D01*
X195846431Y-95051890D01*
X195897440Y-94800000D01*
X195897440Y-94200000D01*
X195853162Y-93964683D01*
X195789322Y-93865472D01*
X195846431Y-93781890D01*
X195897440Y-93530000D01*
X195897440Y-92930000D01*
X195853162Y-92694683D01*
X195789322Y-92595472D01*
X195846431Y-92511890D01*
X195897440Y-92260000D01*
X195897440Y-91660000D01*
X195853162Y-91424683D01*
X195789322Y-91325472D01*
X195846431Y-91241890D01*
X195897440Y-90990000D01*
X195897440Y-90817362D01*
X196640000Y-90074802D01*
X196640000Y-94400000D01*
X196697852Y-94690839D01*
X196752817Y-94773100D01*
X196671057Y-94806883D01*
X196407808Y-95069673D01*
X196265162Y-95413201D01*
X196264838Y-95785167D01*
X196342388Y-95972852D01*
X196294548Y-95981853D01*
X196150190Y-95952620D01*
X195649810Y-95952620D01*
X195509916Y-95978943D01*
X195476400Y-95965060D01*
X195383745Y-95965060D01*
X195238945Y-96109860D01*
X195198369Y-96135970D01*
X195099269Y-96281007D01*
X195014080Y-96148619D01*
X194968407Y-96117412D01*
X194816055Y-95965060D01*
X194723400Y-95965060D01*
X194686631Y-95980290D01*
X194549990Y-95952620D01*
X194049610Y-95952620D01*
X193814293Y-95996898D01*
X193598169Y-96135970D01*
X193453179Y-96348170D01*
X193402170Y-96600060D01*
X193402170Y-98901300D01*
X193446448Y-99136617D01*
X193528655Y-99264370D01*
X193485570Y-99264332D01*
X193086797Y-99429102D01*
X192781434Y-99733933D01*
X192615969Y-100132417D01*
X192615592Y-100563890D01*
X192780362Y-100962663D01*
X192831768Y-101014159D01*
X187525841Y-101014159D01*
X187235002Y-101072011D01*
X186988440Y-101236758D01*
X179262599Y-108962599D01*
X179198858Y-109057994D01*
X179064090Y-108848559D01*
X178851890Y-108703569D01*
X178600000Y-108652560D01*
X174922242Y-108652560D01*
X187612421Y-95962381D01*
X187777168Y-95715820D01*
X187835020Y-95424980D01*
X187835020Y-89675020D01*
X187777168Y-89384181D01*
X187612421Y-89137619D01*
X186497440Y-88022638D01*
X186497440Y-87850000D01*
X186453162Y-87614683D01*
X186389322Y-87515472D01*
X186446431Y-87431890D01*
X186497440Y-87180000D01*
X186497440Y-86995001D01*
X187944999Y-86995001D01*
X188235838Y-86937149D01*
X188482400Y-86772402D01*
X190154802Y-85100000D01*
X190164999Y-85100000D01*
X190164838Y-85285167D01*
X190164838Y-85285167D01*
G37*
X190164838Y-85285167D02*
X190306883Y-85628943D01*
X190340000Y-85662118D01*
X190340000Y-86970000D01*
X190397852Y-87260839D01*
X190562599Y-87507401D01*
X192602560Y-89547362D01*
X192602560Y-89720000D01*
X192646838Y-89955317D01*
X192710678Y-90054528D01*
X192685138Y-90091907D01*
X192685162Y-90064833D01*
X192543117Y-89721057D01*
X192280327Y-89457808D01*
X191936799Y-89315162D01*
X191564833Y-89314838D01*
X191221057Y-89456883D01*
X190957808Y-89719673D01*
X190815162Y-90063201D01*
X190814838Y-90435167D01*
X190956883Y-90778943D01*
X191219673Y-91042192D01*
X191563201Y-91184838D01*
X191610077Y-91184879D01*
X192602560Y-92177362D01*
X192602560Y-92260000D01*
X192642074Y-92470000D01*
X191270000Y-92470000D01*
X190979161Y-92527852D01*
X190732599Y-92692599D01*
X190110320Y-93314878D01*
X190064833Y-93314838D01*
X189721057Y-93456883D01*
X189457808Y-93719673D01*
X189315162Y-94063201D01*
X189314838Y-94435167D01*
X189456883Y-94778943D01*
X189719673Y-95042192D01*
X189835083Y-95090115D01*
X183360320Y-101564878D01*
X183314833Y-101564838D01*
X182971057Y-101706883D01*
X182707808Y-101969673D01*
X182565162Y-102313201D01*
X182564838Y-102685167D01*
X182706883Y-103028943D01*
X182969673Y-103292192D01*
X183313201Y-103434838D01*
X183685167Y-103435162D01*
X184028943Y-103293117D01*
X184292192Y-103030327D01*
X184434838Y-102686799D01*
X184434879Y-102639923D01*
X189802990Y-97271813D01*
X189802990Y-99099420D01*
X189847268Y-99334737D01*
X189986340Y-99550861D01*
X190198540Y-99695851D01*
X190450430Y-99746860D01*
X192449410Y-99746860D01*
X192684727Y-99702582D01*
X192900851Y-99563510D01*
X193045841Y-99351310D01*
X193096850Y-99099420D01*
X193096850Y-96600060D01*
X193052572Y-96364743D01*
X192913500Y-96148619D01*
X192701300Y-96003629D01*
X192449410Y-95952620D01*
X191122183Y-95952620D01*
X191814803Y-95260000D01*
X192798437Y-95260000D01*
X192998110Y-95396431D01*
X193250000Y-95447440D01*
X195250000Y-95447440D01*
X195485317Y-95403162D01*
X195701441Y-95264090D01*
X195846431Y-95051890D01*
X195897440Y-94800000D01*
X195897440Y-94200000D01*
X195853162Y-93964683D01*
X195789322Y-93865472D01*
X195846431Y-93781890D01*
X195897440Y-93530000D01*
X195897440Y-92930000D01*
X195853162Y-92694683D01*
X195789322Y-92595472D01*
X195846431Y-92511890D01*
X195897440Y-92260000D01*
X195897440Y-91660000D01*
X195853162Y-91424683D01*
X195789322Y-91325472D01*
X195846431Y-91241890D01*
X195897440Y-90990000D01*
X195897440Y-90817362D01*
X196640000Y-90074802D01*
X196640000Y-94400000D01*
X196697852Y-94690839D01*
X196752817Y-94773100D01*
X196671057Y-94806883D01*
X196407808Y-95069673D01*
X196265162Y-95413201D01*
X196264838Y-95785167D01*
X196342388Y-95972852D01*
X196294548Y-95981853D01*
X196150190Y-95952620D01*
X195649810Y-95952620D01*
X195509916Y-95978943D01*
X195476400Y-95965060D01*
X195383745Y-95965060D01*
X195238945Y-96109860D01*
X195198369Y-96135970D01*
X195099269Y-96281007D01*
X195014080Y-96148619D01*
X194968407Y-96117412D01*
X194816055Y-95965060D01*
X194723400Y-95965060D01*
X194686631Y-95980290D01*
X194549990Y-95952620D01*
X194049610Y-95952620D01*
X193814293Y-95996898D01*
X193598169Y-96135970D01*
X193453179Y-96348170D01*
X193402170Y-96600060D01*
X193402170Y-98901300D01*
X193446448Y-99136617D01*
X193528655Y-99264370D01*
X193485570Y-99264332D01*
X193086797Y-99429102D01*
X192781434Y-99733933D01*
X192615969Y-100132417D01*
X192615592Y-100563890D01*
X192780362Y-100962663D01*
X192831768Y-101014159D01*
X187525841Y-101014159D01*
X187235002Y-101072011D01*
X186988440Y-101236758D01*
X179262599Y-108962599D01*
X179198858Y-109057994D01*
X179064090Y-108848559D01*
X178851890Y-108703569D01*
X178600000Y-108652560D01*
X174922242Y-108652560D01*
X187612421Y-95962381D01*
X187777168Y-95715820D01*
X187835020Y-95424980D01*
X187835020Y-89675020D01*
X187777168Y-89384181D01*
X187612421Y-89137619D01*
X186497440Y-88022638D01*
X186497440Y-87850000D01*
X186453162Y-87614683D01*
X186389322Y-87515472D01*
X186446431Y-87431890D01*
X186497440Y-87180000D01*
X186497440Y-86995001D01*
X187944999Y-86995001D01*
X188235838Y-86937149D01*
X188482400Y-86772402D01*
X190154802Y-85100000D01*
X190164999Y-85100000D01*
X190164838Y-85285167D01*
G36*
X224093539Y-73393023D02*
X226995996Y-73493005D01*
X229739049Y-73672031D01*
X232296560Y-73937810D01*
X234641663Y-74297519D01*
X236746671Y-74757335D01*
X238572079Y-75318171D01*
X239801156Y-75899594D01*
X239727000Y-75973750D01*
X239727000Y-77073000D01*
X240826250Y-77073000D01*
X240985000Y-76914250D01*
X240985000Y-76708087D01*
X241500008Y-77128121D01*
X242401050Y-78443558D01*
X243031290Y-80186200D01*
X243419100Y-82455417D01*
X243592732Y-85317498D01*
X243592006Y-88829650D01*
X243487423Y-92093001D01*
X243264860Y-95094334D01*
X242872700Y-97766493D01*
X242265413Y-100043492D01*
X241409803Y-101862434D01*
X240282530Y-103186889D01*
X238827268Y-104024626D01*
X236878712Y-104368777D01*
X235621009Y-104393245D01*
X235161014Y-104398790D01*
X235924695Y-103635109D01*
X235985167Y-103635162D01*
X236304989Y-103503015D01*
X236440302Y-103638327D01*
X236673691Y-103735000D01*
X237514250Y-103735000D01*
X237673000Y-103576250D01*
X237673000Y-102427000D01*
X237927000Y-102427000D01*
X237927000Y-103576250D01*
X238085750Y-103735000D01*
X238926309Y-103735000D01*
X239159698Y-103638327D01*
X239338327Y-103459699D01*
X239435000Y-103226310D01*
X239435000Y-102585750D01*
X239276250Y-102427000D01*
X237927000Y-102427000D01*
X237673000Y-102427000D01*
X237653000Y-102427000D01*
X237653000Y-102173000D01*
X237673000Y-102173000D01*
X237673000Y-102153000D01*
X237927000Y-102153000D01*
X237927000Y-102173000D01*
X239276250Y-102173000D01*
X239435000Y-102014250D01*
X239435000Y-101373690D01*
X239338327Y-101140301D01*
X239159698Y-100961673D01*
X239056058Y-100918744D01*
X239437401Y-100537402D01*
X239584642Y-100317038D01*
X239602148Y-100290839D01*
X239635864Y-100121336D01*
X239891762Y-100244885D01*
X240043000Y-100116431D01*
X240043000Y-98527000D01*
X240297000Y-98527000D01*
X240297000Y-100116431D01*
X240448238Y-100244885D01*
X240776698Y-100086303D01*
X241031421Y-99794276D01*
X241155000Y-99427000D01*
X241155000Y-98527000D01*
X240297000Y-98527000D01*
X240043000Y-98527000D01*
X240023000Y-98527000D01*
X240023000Y-98273000D01*
X240043000Y-98273000D01*
X240043000Y-96683569D01*
X240297000Y-96683569D01*
X240297000Y-98273000D01*
X241155000Y-98273000D01*
X241155000Y-97373000D01*
X241031421Y-97005724D01*
X240776698Y-96713697D01*
X240448238Y-96555115D01*
X240297000Y-96683569D01*
X240043000Y-96683569D01*
X239891762Y-96555115D01*
X239563302Y-96713697D01*
X239546388Y-96733088D01*
X239276943Y-96553050D01*
X238900000Y-96478071D01*
X238523057Y-96553050D01*
X238265000Y-96725478D01*
X238006943Y-96553050D01*
X237630000Y-96478071D01*
X237588470Y-96486332D01*
X239039680Y-95035122D01*
X239085167Y-95035162D01*
X239428943Y-94893117D01*
X239692192Y-94630327D01*
X239834838Y-94286799D01*
X239835162Y-93914833D01*
X239693117Y-93571057D01*
X239430327Y-93307808D01*
X239086799Y-93165162D01*
X238714833Y-93164838D01*
X238371057Y-93306883D01*
X238107808Y-93569673D01*
X237965162Y-93913201D01*
X237965121Y-93960077D01*
X235985181Y-95940017D01*
X227159787Y-95940017D01*
X228937401Y-94162403D01*
X229102148Y-93915841D01*
X229160000Y-93625002D01*
X229160000Y-93258913D01*
X229343690Y-93335000D01*
X232184250Y-93335000D01*
X232343000Y-93176250D01*
X232343000Y-89827000D01*
X232597000Y-89827000D01*
X232597000Y-93176250D01*
X232755750Y-93335000D01*
X235596310Y-93335000D01*
X235829699Y-93238327D01*
X236008327Y-93059698D01*
X236105000Y-92826309D01*
X236105000Y-89985750D01*
X235946250Y-89827000D01*
X232597000Y-89827000D01*
X232343000Y-89827000D01*
X228993750Y-89827000D01*
X228835000Y-89985750D01*
X228835000Y-90768225D01*
X228586799Y-90665162D01*
X228214833Y-90664838D01*
X227871057Y-90806883D01*
X227607808Y-91069673D01*
X227465162Y-91413201D01*
X227464838Y-91785167D01*
X227606883Y-92128943D01*
X227640000Y-92162118D01*
X227640000Y-93310200D01*
X226186311Y-94763889D01*
X226130327Y-94707808D01*
X225786799Y-94565162D01*
X225414833Y-94564838D01*
X225071057Y-94706883D01*
X224807808Y-94969673D01*
X224778606Y-95039999D01*
X224055000Y-95039999D01*
X224055000Y-94987998D01*
X223886433Y-94987998D01*
X224014885Y-94836762D01*
X223856303Y-94508302D01*
X223836912Y-94491388D01*
X224016950Y-94221943D01*
X224091929Y-93845000D01*
X224016950Y-93468057D01*
X223844522Y-93210000D01*
X224016950Y-92951943D01*
X224091929Y-92575000D01*
X224016950Y-92198057D01*
X223844522Y-91940000D01*
X224016950Y-91681943D01*
X224091929Y-91305000D01*
X224016950Y-90928057D01*
X223844522Y-90670000D01*
X224016950Y-90411943D01*
X224091929Y-90035000D01*
X224016950Y-89658057D01*
X223844522Y-89400000D01*
X224016950Y-89141943D01*
X224091929Y-88765000D01*
X224016950Y-88388057D01*
X223803429Y-88068500D01*
X223483872Y-87854979D01*
X223106929Y-87780000D01*
X221233071Y-87780000D01*
X220856128Y-87854979D01*
X220536571Y-88068500D01*
X220323050Y-88388057D01*
X220248071Y-88765000D01*
X220323050Y-89141943D01*
X220495478Y-89400000D01*
X220323050Y-89658057D01*
X220248071Y-90035000D01*
X220323050Y-90411943D01*
X220495478Y-90670000D01*
X220323050Y-90928057D01*
X220248071Y-91305000D01*
X220323050Y-91681943D01*
X220495478Y-91940000D01*
X220323050Y-92198057D01*
X220248071Y-92575000D01*
X220323050Y-92951943D01*
X220495478Y-93210000D01*
X220323050Y-93468057D01*
X220248071Y-93845000D01*
X220323050Y-94221943D01*
X220503088Y-94491388D01*
X220483697Y-94508302D01*
X220325115Y-94836762D01*
X220453567Y-94987998D01*
X220285000Y-94987998D01*
X220285000Y-95039999D01*
X216139803Y-95039999D01*
X215169804Y-94070000D01*
X215990000Y-94070000D01*
X216280839Y-94012148D01*
X216527401Y-93847401D01*
X218539680Y-91835122D01*
X218585167Y-91835162D01*
X218928943Y-91693117D01*
X219192192Y-91430327D01*
X219334838Y-91086799D01*
X219335162Y-90714833D01*
X219193117Y-90371057D01*
X218930327Y-90107808D01*
X218586799Y-89965162D01*
X218246347Y-89964865D01*
X220501203Y-87710009D01*
X228249991Y-87710009D01*
X228540830Y-87652157D01*
X228787392Y-87487410D01*
X228835000Y-87439802D01*
X228835000Y-89414250D01*
X228993750Y-89573000D01*
X232343000Y-89573000D01*
X232343000Y-86223750D01*
X232597000Y-86223750D01*
X232597000Y-89573000D01*
X235946250Y-89573000D01*
X236105000Y-89414250D01*
X236105000Y-86573691D01*
X236008327Y-86340302D01*
X235829699Y-86161673D01*
X235596310Y-86065000D01*
X232755750Y-86065000D01*
X232597000Y-86223750D01*
X232343000Y-86223750D01*
X232184250Y-86065000D01*
X230209802Y-86065000D01*
X231039680Y-85235122D01*
X231085167Y-85235162D01*
X231428943Y-85093117D01*
X231692192Y-84830327D01*
X231834838Y-84486799D01*
X231835162Y-84114833D01*
X231693117Y-83771057D01*
X231430327Y-83507808D01*
X231086799Y-83365162D01*
X230714833Y-83364838D01*
X230371057Y-83506883D01*
X230107808Y-83769673D01*
X229965162Y-84113201D01*
X229965121Y-84160077D01*
X227935189Y-86190009D01*
X226084793Y-86190009D01*
X227639680Y-84635122D01*
X227685167Y-84635162D01*
X228028943Y-84493117D01*
X228292192Y-84230327D01*
X228434838Y-83886799D01*
X228435040Y-83655019D01*
X228700839Y-83602148D01*
X228947401Y-83437401D01*
X230076002Y-82308800D01*
X230386943Y-82246950D01*
X230645000Y-82074522D01*
X230903057Y-82246950D01*
X231280000Y-82321929D01*
X231656943Y-82246950D01*
X231915000Y-82074522D01*
X232173057Y-82246950D01*
X232550000Y-82321929D01*
X232926943Y-82246950D01*
X233185000Y-82074522D01*
X233443057Y-82246950D01*
X233820000Y-82321929D01*
X234196943Y-82246950D01*
X234455000Y-82074522D01*
X234713057Y-82246950D01*
X235090000Y-82321929D01*
X235466943Y-82246950D01*
X235725000Y-82074522D01*
X235983057Y-82246950D01*
X236360000Y-82321929D01*
X236736943Y-82246950D01*
X236995000Y-82074522D01*
X237253057Y-82246950D01*
X237630000Y-82321929D01*
X238006943Y-82246950D01*
X238265000Y-82074522D01*
X238523057Y-82246950D01*
X238900000Y-82321929D01*
X239276943Y-82246950D01*
X239546388Y-82066912D01*
X239563302Y-82086303D01*
X239891762Y-82244885D01*
X240043000Y-82116431D01*
X240043000Y-80527000D01*
X240297000Y-80527000D01*
X240297000Y-82116431D01*
X240448238Y-82244885D01*
X240776698Y-82086303D01*
X241031421Y-81794276D01*
X241155000Y-81427000D01*
X241155000Y-80527000D01*
X240297000Y-80527000D01*
X240043000Y-80527000D01*
X240023000Y-80527000D01*
X240023000Y-80273000D01*
X240043000Y-80273000D01*
X240043000Y-80253000D01*
X240297000Y-80253000D01*
X240297000Y-80273000D01*
X241155000Y-80273000D01*
X241155000Y-79373000D01*
X241031421Y-79005724D01*
X240776698Y-78713697D01*
X240494516Y-78577458D01*
X240709698Y-78488327D01*
X240888327Y-78309699D01*
X240985000Y-78076310D01*
X240985000Y-77485750D01*
X240826250Y-77327000D01*
X239727000Y-77327000D01*
X239727000Y-78426250D01*
X239867553Y-78566803D01*
X239563302Y-78713697D01*
X239546388Y-78733088D01*
X239318460Y-78580790D01*
X239473000Y-78426250D01*
X239473000Y-77327000D01*
X238373750Y-77327000D01*
X238215000Y-77485750D01*
X238215000Y-78076310D01*
X238311673Y-78309699D01*
X238490302Y-78488327D01*
X238606491Y-78536454D01*
X238523057Y-78553050D01*
X238265000Y-78725478D01*
X238006943Y-78553050D01*
X237630000Y-78478071D01*
X237460000Y-78511886D01*
X237460000Y-78284547D01*
X237483515Y-78274831D01*
X237873461Y-77885564D01*
X238084759Y-77376702D01*
X238085240Y-76825715D01*
X237877809Y-76323690D01*
X238215000Y-76323690D01*
X238215000Y-76914250D01*
X238373750Y-77073000D01*
X239473000Y-77073000D01*
X239473000Y-75973750D01*
X239314250Y-75815000D01*
X238723691Y-75815000D01*
X238490302Y-75911673D01*
X238311673Y-76090301D01*
X238215000Y-76323690D01*
X237877809Y-76323690D01*
X237874831Y-76316485D01*
X237485564Y-75926539D01*
X236976702Y-75715241D01*
X236425715Y-75714760D01*
X235916485Y-75925169D01*
X235526539Y-76314436D01*
X235399950Y-76619297D01*
X235274831Y-76316485D01*
X234885564Y-75926539D01*
X234376702Y-75715241D01*
X233825715Y-75714760D01*
X233316485Y-75925169D01*
X232981663Y-76259408D01*
X232830327Y-76107808D01*
X232486799Y-75965162D01*
X232114833Y-75964838D01*
X231771057Y-76106883D01*
X231507808Y-76369673D01*
X231365162Y-76713201D01*
X231365121Y-76760077D01*
X231134891Y-76990307D01*
X215060855Y-76990307D01*
X215028719Y-76958115D01*
X214685191Y-76815469D01*
X214313225Y-76815145D01*
X213969449Y-76957190D01*
X213706200Y-77219980D01*
X213563554Y-77563508D01*
X213563230Y-77935474D01*
X213656817Y-78161971D01*
X211903407Y-79915381D01*
X211759698Y-79771673D01*
X211526309Y-79675000D01*
X210685750Y-79675000D01*
X210527000Y-79833750D01*
X210527000Y-80475001D01*
X210273000Y-80475001D01*
X210273000Y-79833750D01*
X210114250Y-79675000D01*
X209273691Y-79675000D01*
X209040302Y-79771673D01*
X208861673Y-79950301D01*
X208765000Y-80183690D01*
X208765000Y-80324250D01*
X208923748Y-80482998D01*
X208765000Y-80482998D01*
X208765000Y-80602449D01*
X208622596Y-80697600D01*
X208537598Y-80782598D01*
X208372851Y-81029160D01*
X208314999Y-81319999D01*
X208314999Y-82390000D01*
X202883590Y-82390000D01*
X202592751Y-82447852D01*
X202579454Y-82456737D01*
X202596431Y-82431890D01*
X202647440Y-82180000D01*
X202647440Y-82007362D01*
X204137401Y-80517401D01*
X204302148Y-80270839D01*
X204360000Y-79980000D01*
X204360000Y-79197440D01*
X204600000Y-79197440D01*
X204835317Y-79153162D01*
X205044046Y-79018848D01*
X205664878Y-79639680D01*
X205664838Y-79685167D01*
X205806883Y-80028943D01*
X206069673Y-80292192D01*
X206413201Y-80434838D01*
X206785167Y-80435162D01*
X207128943Y-80293117D01*
X207392192Y-80030327D01*
X207534838Y-79686799D01*
X207535162Y-79314833D01*
X207432611Y-79066639D01*
X207473000Y-79026250D01*
X207473000Y-77827000D01*
X207727000Y-77827000D01*
X207727000Y-79026250D01*
X207885750Y-79185000D01*
X208726309Y-79185000D01*
X208959698Y-79088327D01*
X209138327Y-78909699D01*
X209235000Y-78676310D01*
X209235000Y-77985750D01*
X209076250Y-77827000D01*
X207727000Y-77827000D01*
X207473000Y-77827000D01*
X206123750Y-77827000D01*
X206062776Y-77887974D01*
X205685001Y-77510199D01*
X205685001Y-76723690D01*
X205965000Y-76723690D01*
X205965000Y-77414250D01*
X206123750Y-77573000D01*
X207473000Y-77573000D01*
X207473000Y-76373750D01*
X207727000Y-76373750D01*
X207727000Y-77573000D01*
X209076250Y-77573000D01*
X209235000Y-77414250D01*
X209235000Y-76723690D01*
X209138327Y-76490301D01*
X208959698Y-76311673D01*
X208726309Y-76215000D01*
X207885750Y-76215000D01*
X207727000Y-76373750D01*
X207473000Y-76373750D01*
X207314250Y-76215000D01*
X206473691Y-76215000D01*
X206240302Y-76311673D01*
X206061673Y-76490301D01*
X205965000Y-76723690D01*
X205685001Y-76723690D01*
X205685001Y-76589999D01*
X205627149Y-76299160D01*
X205462402Y-76052598D01*
X205397402Y-75987598D01*
X205150840Y-75822851D01*
X204860001Y-75764999D01*
X198775001Y-75764999D01*
X198484161Y-75822851D01*
X198237600Y-75987598D01*
X196060320Y-78164878D01*
X196014833Y-78164838D01*
X195671057Y-78306883D01*
X195407808Y-78569673D01*
X195265162Y-78913201D01*
X195264838Y-79285167D01*
X195396275Y-79603270D01*
X195376309Y-79595000D01*
X194535750Y-79595000D01*
X194377000Y-79753750D01*
X194377000Y-80400000D01*
X194123000Y-80400000D01*
X194123000Y-79753750D01*
X193964250Y-79595000D01*
X193123691Y-79595000D01*
X192890302Y-79691673D01*
X192711673Y-79870301D01*
X192615000Y-80103690D01*
X192615000Y-80244250D01*
X192770750Y-80400000D01*
X187750054Y-80400000D01*
X187760000Y-80350000D01*
X187760000Y-78497440D01*
X188000000Y-78497440D01*
X188235317Y-78453162D01*
X188451441Y-78314090D01*
X188596431Y-78101890D01*
X188647440Y-77850000D01*
X188647440Y-77285750D01*
X189365000Y-77285750D01*
X189365000Y-77976310D01*
X189461673Y-78209699D01*
X189640302Y-78388327D01*
X189873691Y-78485000D01*
X190714250Y-78485000D01*
X190873000Y-78326250D01*
X190873000Y-77127000D01*
X191127000Y-77127000D01*
X191127000Y-78326250D01*
X191285750Y-78485000D01*
X192126309Y-78485000D01*
X192359698Y-78388327D01*
X192538327Y-78209699D01*
X192635000Y-77976310D01*
X192635000Y-77285750D01*
X192476250Y-77127000D01*
X191127000Y-77127000D01*
X190873000Y-77127000D01*
X189523750Y-77127000D01*
X189365000Y-77285750D01*
X188647440Y-77285750D01*
X188647440Y-76150000D01*
X188623674Y-76023690D01*
X189365000Y-76023690D01*
X189365000Y-76714250D01*
X189523750Y-76873000D01*
X190873000Y-76873000D01*
X190873000Y-75673750D01*
X191127000Y-75673750D01*
X191127000Y-76873000D01*
X192476250Y-76873000D01*
X192635000Y-76714250D01*
X192635000Y-76023690D01*
X192538327Y-75790301D01*
X192359698Y-75611673D01*
X192126309Y-75515000D01*
X191285750Y-75515000D01*
X191127000Y-75673750D01*
X190873000Y-75673750D01*
X190714250Y-75515000D01*
X189873691Y-75515000D01*
X189640302Y-75611673D01*
X189461673Y-75790301D01*
X189365000Y-76023690D01*
X188623674Y-76023690D01*
X188603162Y-75914683D01*
X188464090Y-75698559D01*
X188251890Y-75553569D01*
X188000000Y-75502560D01*
X186000000Y-75502560D01*
X185764683Y-75546838D01*
X185548559Y-75685910D01*
X185403569Y-75898110D01*
X185352560Y-76150000D01*
X185352560Y-77850000D01*
X185393038Y-78065124D01*
X185064833Y-78064838D01*
X184721057Y-78206883D01*
X184687882Y-78240000D01*
X181750000Y-78240000D01*
X181459160Y-78297852D01*
X181212599Y-78462599D01*
X180110320Y-79564878D01*
X180064833Y-79564838D01*
X179721057Y-79706883D01*
X179457808Y-79969673D01*
X179315162Y-80313201D01*
X179314869Y-80649999D01*
X179085000Y-80649999D01*
X179085000Y-80637998D01*
X178926252Y-80637998D01*
X179085000Y-80479250D01*
X179085000Y-80338690D01*
X178988327Y-80105301D01*
X178809698Y-79926673D01*
X178576309Y-79830000D01*
X177735750Y-79830000D01*
X177577000Y-79988750D01*
X177577000Y-80638000D01*
X177597000Y-80638000D01*
X177597000Y-80649999D01*
X177303000Y-80649999D01*
X177303000Y-80638000D01*
X177323000Y-80638000D01*
X177323000Y-79988750D01*
X177164250Y-79830000D01*
X176323691Y-79830000D01*
X176090302Y-79926673D01*
X175911673Y-80105301D01*
X175815000Y-80338690D01*
X175815000Y-80479250D01*
X175973748Y-80637998D01*
X175815000Y-80637998D01*
X175815000Y-80649999D01*
X171109805Y-80649999D01*
X172612402Y-79147402D01*
X172777149Y-78900840D01*
X172835001Y-78610001D01*
X172835001Y-77785750D01*
X173115000Y-77785750D01*
X173115000Y-78476310D01*
X173211673Y-78709699D01*
X173390302Y-78888327D01*
X173623691Y-78985000D01*
X174464250Y-78985000D01*
X174623000Y-78826250D01*
X174623000Y-77627000D01*
X174877000Y-77627000D01*
X174877000Y-78826250D01*
X175035750Y-78985000D01*
X175876309Y-78985000D01*
X176109698Y-78888327D01*
X176288327Y-78709699D01*
X176385000Y-78476310D01*
X176385000Y-77785750D01*
X176226250Y-77627000D01*
X174877000Y-77627000D01*
X174623000Y-77627000D01*
X173273750Y-77627000D01*
X173115000Y-77785750D01*
X172835001Y-77785750D01*
X172835001Y-76523690D01*
X173115000Y-76523690D01*
X173115000Y-77214250D01*
X173273750Y-77373000D01*
X174623000Y-77373000D01*
X174623000Y-76173750D01*
X174877000Y-76173750D01*
X174877000Y-77373000D01*
X176226250Y-77373000D01*
X176385000Y-77214250D01*
X176385000Y-76523690D01*
X176288327Y-76290301D01*
X176109698Y-76111673D01*
X175876309Y-76015000D01*
X175035750Y-76015000D01*
X174877000Y-76173750D01*
X174623000Y-76173750D01*
X174464250Y-76015000D01*
X173623691Y-76015000D01*
X173390302Y-76111673D01*
X173211673Y-76290301D01*
X173115000Y-76523690D01*
X172835001Y-76523690D01*
X172835001Y-76475001D01*
X172777149Y-76184162D01*
X172612402Y-75937600D01*
X171816849Y-75142047D01*
X172957567Y-75645798D01*
X173077235Y-75672496D01*
X173195755Y-75703969D01*
X174675609Y-75797640D01*
X174693283Y-75795273D01*
X174710729Y-75798978D01*
X176480775Y-75821850D01*
X176492073Y-75819754D01*
X176503382Y-75821776D01*
X178538905Y-75782225D01*
X178546430Y-75780576D01*
X178554043Y-75781767D01*
X180830329Y-75688166D01*
X180835422Y-75686933D01*
X180840609Y-75687667D01*
X183332940Y-75548393D01*
X183336344Y-75547516D01*
X183339831Y-75547974D01*
X186023493Y-75371400D01*
X186025649Y-75370822D01*
X186027866Y-75371099D01*
X188878144Y-75165601D01*
X188879323Y-75165277D01*
X188880535Y-75165424D01*
X191872712Y-74939376D01*
X191873076Y-74939275D01*
X191873452Y-74939320D01*
X194982564Y-74701117D01*
X198183028Y-74459198D01*
X201449646Y-74221967D01*
X204758353Y-73997735D01*
X208083997Y-73794888D01*
X211401488Y-73621784D01*
X214686373Y-73486738D01*
X217913382Y-73398082D01*
X221057552Y-73364098D01*
X224093539Y-73393023D01*
X224093539Y-73393023D01*
G37*
X224093539Y-73393023D02*
X226995996Y-73493005D01*
X229739049Y-73672031D01*
X232296560Y-73937810D01*
X234641663Y-74297519D01*
X236746671Y-74757335D01*
X238572079Y-75318171D01*
X239801156Y-75899594D01*
X239727000Y-75973750D01*
X239727000Y-77073000D01*
X240826250Y-77073000D01*
X240985000Y-76914250D01*
X240985000Y-76708087D01*
X241500008Y-77128121D01*
X242401050Y-78443558D01*
X243031290Y-80186200D01*
X243419100Y-82455417D01*
X243592732Y-85317498D01*
X243592006Y-88829650D01*
X243487423Y-92093001D01*
X243264860Y-95094334D01*
X242872700Y-97766493D01*
X242265413Y-100043492D01*
X241409803Y-101862434D01*
X240282530Y-103186889D01*
X238827268Y-104024626D01*
X236878712Y-104368777D01*
X235621009Y-104393245D01*
X235161014Y-104398790D01*
X235924695Y-103635109D01*
X235985167Y-103635162D01*
X236304989Y-103503015D01*
X236440302Y-103638327D01*
X236673691Y-103735000D01*
X237514250Y-103735000D01*
X237673000Y-103576250D01*
X237673000Y-102427000D01*
X237927000Y-102427000D01*
X237927000Y-103576250D01*
X238085750Y-103735000D01*
X238926309Y-103735000D01*
X239159698Y-103638327D01*
X239338327Y-103459699D01*
X239435000Y-103226310D01*
X239435000Y-102585750D01*
X239276250Y-102427000D01*
X237927000Y-102427000D01*
X237673000Y-102427000D01*
X237653000Y-102427000D01*
X237653000Y-102173000D01*
X237673000Y-102173000D01*
X237673000Y-102153000D01*
X237927000Y-102153000D01*
X237927000Y-102173000D01*
X239276250Y-102173000D01*
X239435000Y-102014250D01*
X239435000Y-101373690D01*
X239338327Y-101140301D01*
X239159698Y-100961673D01*
X239056058Y-100918744D01*
X239437401Y-100537402D01*
X239584642Y-100317038D01*
X239602148Y-100290839D01*
X239635864Y-100121336D01*
X239891762Y-100244885D01*
X240043000Y-100116431D01*
X240043000Y-98527000D01*
X240297000Y-98527000D01*
X240297000Y-100116431D01*
X240448238Y-100244885D01*
X240776698Y-100086303D01*
X241031421Y-99794276D01*
X241155000Y-99427000D01*
X241155000Y-98527000D01*
X240297000Y-98527000D01*
X240043000Y-98527000D01*
X240023000Y-98527000D01*
X240023000Y-98273000D01*
X240043000Y-98273000D01*
X240043000Y-96683569D01*
X240297000Y-96683569D01*
X240297000Y-98273000D01*
X241155000Y-98273000D01*
X241155000Y-97373000D01*
X241031421Y-97005724D01*
X240776698Y-96713697D01*
X240448238Y-96555115D01*
X240297000Y-96683569D01*
X240043000Y-96683569D01*
X239891762Y-96555115D01*
X239563302Y-96713697D01*
X239546388Y-96733088D01*
X239276943Y-96553050D01*
X238900000Y-96478071D01*
X238523057Y-96553050D01*
X238265000Y-96725478D01*
X238006943Y-96553050D01*
X237630000Y-96478071D01*
X237588470Y-96486332D01*
X239039680Y-95035122D01*
X239085167Y-95035162D01*
X239428943Y-94893117D01*
X239692192Y-94630327D01*
X239834838Y-94286799D01*
X239835162Y-93914833D01*
X239693117Y-93571057D01*
X239430327Y-93307808D01*
X239086799Y-93165162D01*
X238714833Y-93164838D01*
X238371057Y-93306883D01*
X238107808Y-93569673D01*
X237965162Y-93913201D01*
X237965121Y-93960077D01*
X235985181Y-95940017D01*
X227159787Y-95940017D01*
X228937401Y-94162403D01*
X229102148Y-93915841D01*
X229160000Y-93625002D01*
X229160000Y-93258913D01*
X229343690Y-93335000D01*
X232184250Y-93335000D01*
X232343000Y-93176250D01*
X232343000Y-89827000D01*
X232597000Y-89827000D01*
X232597000Y-93176250D01*
X232755750Y-93335000D01*
X235596310Y-93335000D01*
X235829699Y-93238327D01*
X236008327Y-93059698D01*
X236105000Y-92826309D01*
X236105000Y-89985750D01*
X235946250Y-89827000D01*
X232597000Y-89827000D01*
X232343000Y-89827000D01*
X228993750Y-89827000D01*
X228835000Y-89985750D01*
X228835000Y-90768225D01*
X228586799Y-90665162D01*
X228214833Y-90664838D01*
X227871057Y-90806883D01*
X227607808Y-91069673D01*
X227465162Y-91413201D01*
X227464838Y-91785167D01*
X227606883Y-92128943D01*
X227640000Y-92162118D01*
X227640000Y-93310200D01*
X226186311Y-94763889D01*
X226130327Y-94707808D01*
X225786799Y-94565162D01*
X225414833Y-94564838D01*
X225071057Y-94706883D01*
X224807808Y-94969673D01*
X224778606Y-95039999D01*
X224055000Y-95039999D01*
X224055000Y-94987998D01*
X223886433Y-94987998D01*
X224014885Y-94836762D01*
X223856303Y-94508302D01*
X223836912Y-94491388D01*
X224016950Y-94221943D01*
X224091929Y-93845000D01*
X224016950Y-93468057D01*
X223844522Y-93210000D01*
X224016950Y-92951943D01*
X224091929Y-92575000D01*
X224016950Y-92198057D01*
X223844522Y-91940000D01*
X224016950Y-91681943D01*
X224091929Y-91305000D01*
X224016950Y-90928057D01*
X223844522Y-90670000D01*
X224016950Y-90411943D01*
X224091929Y-90035000D01*
X224016950Y-89658057D01*
X223844522Y-89400000D01*
X224016950Y-89141943D01*
X224091929Y-88765000D01*
X224016950Y-88388057D01*
X223803429Y-88068500D01*
X223483872Y-87854979D01*
X223106929Y-87780000D01*
X221233071Y-87780000D01*
X220856128Y-87854979D01*
X220536571Y-88068500D01*
X220323050Y-88388057D01*
X220248071Y-88765000D01*
X220323050Y-89141943D01*
X220495478Y-89400000D01*
X220323050Y-89658057D01*
X220248071Y-90035000D01*
X220323050Y-90411943D01*
X220495478Y-90670000D01*
X220323050Y-90928057D01*
X220248071Y-91305000D01*
X220323050Y-91681943D01*
X220495478Y-91940000D01*
X220323050Y-92198057D01*
X220248071Y-92575000D01*
X220323050Y-92951943D01*
X220495478Y-93210000D01*
X220323050Y-93468057D01*
X220248071Y-93845000D01*
X220323050Y-94221943D01*
X220503088Y-94491388D01*
X220483697Y-94508302D01*
X220325115Y-94836762D01*
X220453567Y-94987998D01*
X220285000Y-94987998D01*
X220285000Y-95039999D01*
X216139803Y-95039999D01*
X215169804Y-94070000D01*
X215990000Y-94070000D01*
X216280839Y-94012148D01*
X216527401Y-93847401D01*
X218539680Y-91835122D01*
X218585167Y-91835162D01*
X218928943Y-91693117D01*
X219192192Y-91430327D01*
X219334838Y-91086799D01*
X219335162Y-90714833D01*
X219193117Y-90371057D01*
X218930327Y-90107808D01*
X218586799Y-89965162D01*
X218246347Y-89964865D01*
X220501203Y-87710009D01*
X228249991Y-87710009D01*
X228540830Y-87652157D01*
X228787392Y-87487410D01*
X228835000Y-87439802D01*
X228835000Y-89414250D01*
X228993750Y-89573000D01*
X232343000Y-89573000D01*
X232343000Y-86223750D01*
X232597000Y-86223750D01*
X232597000Y-89573000D01*
X235946250Y-89573000D01*
X236105000Y-89414250D01*
X236105000Y-86573691D01*
X236008327Y-86340302D01*
X235829699Y-86161673D01*
X235596310Y-86065000D01*
X232755750Y-86065000D01*
X232597000Y-86223750D01*
X232343000Y-86223750D01*
X232184250Y-86065000D01*
X230209802Y-86065000D01*
X231039680Y-85235122D01*
X231085167Y-85235162D01*
X231428943Y-85093117D01*
X231692192Y-84830327D01*
X231834838Y-84486799D01*
X231835162Y-84114833D01*
X231693117Y-83771057D01*
X231430327Y-83507808D01*
X231086799Y-83365162D01*
X230714833Y-83364838D01*
X230371057Y-83506883D01*
X230107808Y-83769673D01*
X229965162Y-84113201D01*
X229965121Y-84160077D01*
X227935189Y-86190009D01*
X226084793Y-86190009D01*
X227639680Y-84635122D01*
X227685167Y-84635162D01*
X228028943Y-84493117D01*
X228292192Y-84230327D01*
X228434838Y-83886799D01*
X228435040Y-83655019D01*
X228700839Y-83602148D01*
X228947401Y-83437401D01*
X230076002Y-82308800D01*
X230386943Y-82246950D01*
X230645000Y-82074522D01*
X230903057Y-82246950D01*
X231280000Y-82321929D01*
X231656943Y-82246950D01*
X231915000Y-82074522D01*
X232173057Y-82246950D01*
X232550000Y-82321929D01*
X232926943Y-82246950D01*
X233185000Y-82074522D01*
X233443057Y-82246950D01*
X233820000Y-82321929D01*
X234196943Y-82246950D01*
X234455000Y-82074522D01*
X234713057Y-82246950D01*
X235090000Y-82321929D01*
X235466943Y-82246950D01*
X235725000Y-82074522D01*
X235983057Y-82246950D01*
X236360000Y-82321929D01*
X236736943Y-82246950D01*
X236995000Y-82074522D01*
X237253057Y-82246950D01*
X237630000Y-82321929D01*
X238006943Y-82246950D01*
X238265000Y-82074522D01*
X238523057Y-82246950D01*
X238900000Y-82321929D01*
X239276943Y-82246950D01*
X239546388Y-82066912D01*
X239563302Y-82086303D01*
X239891762Y-82244885D01*
X240043000Y-82116431D01*
X240043000Y-80527000D01*
X240297000Y-80527000D01*
X240297000Y-82116431D01*
X240448238Y-82244885D01*
X240776698Y-82086303D01*
X241031421Y-81794276D01*
X241155000Y-81427000D01*
X241155000Y-80527000D01*
X240297000Y-80527000D01*
X240043000Y-80527000D01*
X240023000Y-80527000D01*
X240023000Y-80273000D01*
X240043000Y-80273000D01*
X240043000Y-80253000D01*
X240297000Y-80253000D01*
X240297000Y-80273000D01*
X241155000Y-80273000D01*
X241155000Y-79373000D01*
X241031421Y-79005724D01*
X240776698Y-78713697D01*
X240494516Y-78577458D01*
X240709698Y-78488327D01*
X240888327Y-78309699D01*
X240985000Y-78076310D01*
X240985000Y-77485750D01*
X240826250Y-77327000D01*
X239727000Y-77327000D01*
X239727000Y-78426250D01*
X239867553Y-78566803D01*
X239563302Y-78713697D01*
X239546388Y-78733088D01*
X239318460Y-78580790D01*
X239473000Y-78426250D01*
X239473000Y-77327000D01*
X238373750Y-77327000D01*
X238215000Y-77485750D01*
X238215000Y-78076310D01*
X238311673Y-78309699D01*
X238490302Y-78488327D01*
X238606491Y-78536454D01*
X238523057Y-78553050D01*
X238265000Y-78725478D01*
X238006943Y-78553050D01*
X237630000Y-78478071D01*
X237460000Y-78511886D01*
X237460000Y-78284547D01*
X237483515Y-78274831D01*
X237873461Y-77885564D01*
X238084759Y-77376702D01*
X238085240Y-76825715D01*
X237877809Y-76323690D01*
X238215000Y-76323690D01*
X238215000Y-76914250D01*
X238373750Y-77073000D01*
X239473000Y-77073000D01*
X239473000Y-75973750D01*
X239314250Y-75815000D01*
X238723691Y-75815000D01*
X238490302Y-75911673D01*
X238311673Y-76090301D01*
X238215000Y-76323690D01*
X237877809Y-76323690D01*
X237874831Y-76316485D01*
X237485564Y-75926539D01*
X236976702Y-75715241D01*
X236425715Y-75714760D01*
X235916485Y-75925169D01*
X235526539Y-76314436D01*
X235399950Y-76619297D01*
X235274831Y-76316485D01*
X234885564Y-75926539D01*
X234376702Y-75715241D01*
X233825715Y-75714760D01*
X233316485Y-75925169D01*
X232981663Y-76259408D01*
X232830327Y-76107808D01*
X232486799Y-75965162D01*
X232114833Y-75964838D01*
X231771057Y-76106883D01*
X231507808Y-76369673D01*
X231365162Y-76713201D01*
X231365121Y-76760077D01*
X231134891Y-76990307D01*
X215060855Y-76990307D01*
X215028719Y-76958115D01*
X214685191Y-76815469D01*
X214313225Y-76815145D01*
X213969449Y-76957190D01*
X213706200Y-77219980D01*
X213563554Y-77563508D01*
X213563230Y-77935474D01*
X213656817Y-78161971D01*
X211903407Y-79915381D01*
X211759698Y-79771673D01*
X211526309Y-79675000D01*
X210685750Y-79675000D01*
X210527000Y-79833750D01*
X210527000Y-80475001D01*
X210273000Y-80475001D01*
X210273000Y-79833750D01*
X210114250Y-79675000D01*
X209273691Y-79675000D01*
X209040302Y-79771673D01*
X208861673Y-79950301D01*
X208765000Y-80183690D01*
X208765000Y-80324250D01*
X208923748Y-80482998D01*
X208765000Y-80482998D01*
X208765000Y-80602449D01*
X208622596Y-80697600D01*
X208537598Y-80782598D01*
X208372851Y-81029160D01*
X208314999Y-81319999D01*
X208314999Y-82390000D01*
X202883590Y-82390000D01*
X202592751Y-82447852D01*
X202579454Y-82456737D01*
X202596431Y-82431890D01*
X202647440Y-82180000D01*
X202647440Y-82007362D01*
X204137401Y-80517401D01*
X204302148Y-80270839D01*
X204360000Y-79980000D01*
X204360000Y-79197440D01*
X204600000Y-79197440D01*
X204835317Y-79153162D01*
X205044046Y-79018848D01*
X205664878Y-79639680D01*
X205664838Y-79685167D01*
X205806883Y-80028943D01*
X206069673Y-80292192D01*
X206413201Y-80434838D01*
X206785167Y-80435162D01*
X207128943Y-80293117D01*
X207392192Y-80030327D01*
X207534838Y-79686799D01*
X207535162Y-79314833D01*
X207432611Y-79066639D01*
X207473000Y-79026250D01*
X207473000Y-77827000D01*
X207727000Y-77827000D01*
X207727000Y-79026250D01*
X207885750Y-79185000D01*
X208726309Y-79185000D01*
X208959698Y-79088327D01*
X209138327Y-78909699D01*
X209235000Y-78676310D01*
X209235000Y-77985750D01*
X209076250Y-77827000D01*
X207727000Y-77827000D01*
X207473000Y-77827000D01*
X206123750Y-77827000D01*
X206062776Y-77887974D01*
X205685001Y-77510199D01*
X205685001Y-76723690D01*
X205965000Y-76723690D01*
X205965000Y-77414250D01*
X206123750Y-77573000D01*
X207473000Y-77573000D01*
X207473000Y-76373750D01*
X207727000Y-76373750D01*
X207727000Y-77573000D01*
X209076250Y-77573000D01*
X209235000Y-77414250D01*
X209235000Y-76723690D01*
X209138327Y-76490301D01*
X208959698Y-76311673D01*
X208726309Y-76215000D01*
X207885750Y-76215000D01*
X207727000Y-76373750D01*
X207473000Y-76373750D01*
X207314250Y-76215000D01*
X206473691Y-76215000D01*
X206240302Y-76311673D01*
X206061673Y-76490301D01*
X205965000Y-76723690D01*
X205685001Y-76723690D01*
X205685001Y-76589999D01*
X205627149Y-76299160D01*
X205462402Y-76052598D01*
X205397402Y-75987598D01*
X205150840Y-75822851D01*
X204860001Y-75764999D01*
X198775001Y-75764999D01*
X198484161Y-75822851D01*
X198237600Y-75987598D01*
X196060320Y-78164878D01*
X196014833Y-78164838D01*
X195671057Y-78306883D01*
X195407808Y-78569673D01*
X195265162Y-78913201D01*
X195264838Y-79285167D01*
X195396275Y-79603270D01*
X195376309Y-79595000D01*
X194535750Y-79595000D01*
X194377000Y-79753750D01*
X194377000Y-80400000D01*
X194123000Y-80400000D01*
X194123000Y-79753750D01*
X193964250Y-79595000D01*
X193123691Y-79595000D01*
X192890302Y-79691673D01*
X192711673Y-79870301D01*
X192615000Y-80103690D01*
X192615000Y-80244250D01*
X192770750Y-80400000D01*
X187750054Y-80400000D01*
X187760000Y-80350000D01*
X187760000Y-78497440D01*
X188000000Y-78497440D01*
X188235317Y-78453162D01*
X188451441Y-78314090D01*
X188596431Y-78101890D01*
X188647440Y-77850000D01*
X188647440Y-77285750D01*
X189365000Y-77285750D01*
X189365000Y-77976310D01*
X189461673Y-78209699D01*
X189640302Y-78388327D01*
X189873691Y-78485000D01*
X190714250Y-78485000D01*
X190873000Y-78326250D01*
X190873000Y-77127000D01*
X191127000Y-77127000D01*
X191127000Y-78326250D01*
X191285750Y-78485000D01*
X192126309Y-78485000D01*
X192359698Y-78388327D01*
X192538327Y-78209699D01*
X192635000Y-77976310D01*
X192635000Y-77285750D01*
X192476250Y-77127000D01*
X191127000Y-77127000D01*
X190873000Y-77127000D01*
X189523750Y-77127000D01*
X189365000Y-77285750D01*
X188647440Y-77285750D01*
X188647440Y-76150000D01*
X188623674Y-76023690D01*
X189365000Y-76023690D01*
X189365000Y-76714250D01*
X189523750Y-76873000D01*
X190873000Y-76873000D01*
X190873000Y-75673750D01*
X191127000Y-75673750D01*
X191127000Y-76873000D01*
X192476250Y-76873000D01*
X192635000Y-76714250D01*
X192635000Y-76023690D01*
X192538327Y-75790301D01*
X192359698Y-75611673D01*
X192126309Y-75515000D01*
X191285750Y-75515000D01*
X191127000Y-75673750D01*
X190873000Y-75673750D01*
X190714250Y-75515000D01*
X189873691Y-75515000D01*
X189640302Y-75611673D01*
X189461673Y-75790301D01*
X189365000Y-76023690D01*
X188623674Y-76023690D01*
X188603162Y-75914683D01*
X188464090Y-75698559D01*
X188251890Y-75553569D01*
X188000000Y-75502560D01*
X186000000Y-75502560D01*
X185764683Y-75546838D01*
X185548559Y-75685910D01*
X185403569Y-75898110D01*
X185352560Y-76150000D01*
X185352560Y-77850000D01*
X185393038Y-78065124D01*
X185064833Y-78064838D01*
X184721057Y-78206883D01*
X184687882Y-78240000D01*
X181750000Y-78240000D01*
X181459160Y-78297852D01*
X181212599Y-78462599D01*
X180110320Y-79564878D01*
X180064833Y-79564838D01*
X179721057Y-79706883D01*
X179457808Y-79969673D01*
X179315162Y-80313201D01*
X179314869Y-80649999D01*
X179085000Y-80649999D01*
X179085000Y-80637998D01*
X178926252Y-80637998D01*
X179085000Y-80479250D01*
X179085000Y-80338690D01*
X178988327Y-80105301D01*
X178809698Y-79926673D01*
X178576309Y-79830000D01*
X177735750Y-79830000D01*
X177577000Y-79988750D01*
X177577000Y-80638000D01*
X177597000Y-80638000D01*
X177597000Y-80649999D01*
X177303000Y-80649999D01*
X177303000Y-80638000D01*
X177323000Y-80638000D01*
X177323000Y-79988750D01*
X177164250Y-79830000D01*
X176323691Y-79830000D01*
X176090302Y-79926673D01*
X175911673Y-80105301D01*
X175815000Y-80338690D01*
X175815000Y-80479250D01*
X175973748Y-80637998D01*
X175815000Y-80637998D01*
X175815000Y-80649999D01*
X171109805Y-80649999D01*
X172612402Y-79147402D01*
X172777149Y-78900840D01*
X172835001Y-78610001D01*
X172835001Y-77785750D01*
X173115000Y-77785750D01*
X173115000Y-78476310D01*
X173211673Y-78709699D01*
X173390302Y-78888327D01*
X173623691Y-78985000D01*
X174464250Y-78985000D01*
X174623000Y-78826250D01*
X174623000Y-77627000D01*
X174877000Y-77627000D01*
X174877000Y-78826250D01*
X175035750Y-78985000D01*
X175876309Y-78985000D01*
X176109698Y-78888327D01*
X176288327Y-78709699D01*
X176385000Y-78476310D01*
X176385000Y-77785750D01*
X176226250Y-77627000D01*
X174877000Y-77627000D01*
X174623000Y-77627000D01*
X173273750Y-77627000D01*
X173115000Y-77785750D01*
X172835001Y-77785750D01*
X172835001Y-76523690D01*
X173115000Y-76523690D01*
X173115000Y-77214250D01*
X173273750Y-77373000D01*
X174623000Y-77373000D01*
X174623000Y-76173750D01*
X174877000Y-76173750D01*
X174877000Y-77373000D01*
X176226250Y-77373000D01*
X176385000Y-77214250D01*
X176385000Y-76523690D01*
X176288327Y-76290301D01*
X176109698Y-76111673D01*
X175876309Y-76015000D01*
X175035750Y-76015000D01*
X174877000Y-76173750D01*
X174623000Y-76173750D01*
X174464250Y-76015000D01*
X173623691Y-76015000D01*
X173390302Y-76111673D01*
X173211673Y-76290301D01*
X173115000Y-76523690D01*
X172835001Y-76523690D01*
X172835001Y-76475001D01*
X172777149Y-76184162D01*
X172612402Y-75937600D01*
X171816849Y-75142047D01*
X172957567Y-75645798D01*
X173077235Y-75672496D01*
X173195755Y-75703969D01*
X174675609Y-75797640D01*
X174693283Y-75795273D01*
X174710729Y-75798978D01*
X176480775Y-75821850D01*
X176492073Y-75819754D01*
X176503382Y-75821776D01*
X178538905Y-75782225D01*
X178546430Y-75780576D01*
X178554043Y-75781767D01*
X180830329Y-75688166D01*
X180835422Y-75686933D01*
X180840609Y-75687667D01*
X183332940Y-75548393D01*
X183336344Y-75547516D01*
X183339831Y-75547974D01*
X186023493Y-75371400D01*
X186025649Y-75370822D01*
X186027866Y-75371099D01*
X188878144Y-75165601D01*
X188879323Y-75165277D01*
X188880535Y-75165424D01*
X191872712Y-74939376D01*
X191873076Y-74939275D01*
X191873452Y-74939320D01*
X194982564Y-74701117D01*
X198183028Y-74459198D01*
X201449646Y-74221967D01*
X204758353Y-73997735D01*
X208083997Y-73794888D01*
X211401488Y-73621784D01*
X214686373Y-73486738D01*
X217913382Y-73398082D01*
X221057552Y-73364098D01*
X224093539Y-73393023D01*
G36*
X202040000Y-100337537D02*
X202007808Y-100369673D01*
X201865162Y-100713201D01*
X201864856Y-101064939D01*
X201609571Y-101014159D01*
X198968587Y-101014159D01*
X199018566Y-100964267D01*
X199184031Y-100565783D01*
X199184408Y-100134310D01*
X199019638Y-99735537D01*
X198714807Y-99430174D01*
X198316323Y-99264709D01*
X198270651Y-99264669D01*
X198346821Y-99153190D01*
X198397830Y-98901300D01*
X198397830Y-96600060D01*
X198367889Y-96440935D01*
X198609160Y-96602148D01*
X198703150Y-96620844D01*
X198703150Y-99099420D01*
X198747428Y-99334737D01*
X198886500Y-99550861D01*
X199098700Y-99695851D01*
X199350590Y-99746860D01*
X201349570Y-99746860D01*
X201584887Y-99702582D01*
X201801011Y-99563510D01*
X201946001Y-99351310D01*
X201997010Y-99099420D01*
X201997010Y-96600060D01*
X201969361Y-96453118D01*
X201992192Y-96430327D01*
X202040000Y-96315193D01*
X202040000Y-100337537D01*
X202040000Y-100337537D01*
G37*
X202040000Y-100337537D02*
X202007808Y-100369673D01*
X201865162Y-100713201D01*
X201864856Y-101064939D01*
X201609571Y-101014159D01*
X198968587Y-101014159D01*
X199018566Y-100964267D01*
X199184031Y-100565783D01*
X199184408Y-100134310D01*
X199019638Y-99735537D01*
X198714807Y-99430174D01*
X198316323Y-99264709D01*
X198270651Y-99264669D01*
X198346821Y-99153190D01*
X198397830Y-98901300D01*
X198397830Y-96600060D01*
X198367889Y-96440935D01*
X198609160Y-96602148D01*
X198703150Y-96620844D01*
X198703150Y-99099420D01*
X198747428Y-99334737D01*
X198886500Y-99550861D01*
X199098700Y-99695851D01*
X199350590Y-99746860D01*
X201349570Y-99746860D01*
X201584887Y-99702582D01*
X201801011Y-99563510D01*
X201946001Y-99351310D01*
X201997010Y-99099420D01*
X201997010Y-96600060D01*
X201969361Y-96453118D01*
X201992192Y-96430327D01*
X202040000Y-96315193D01*
X202040000Y-100337537D01*
G36*
X195185720Y-99352741D02*
X195231393Y-99383948D01*
X195383745Y-99536300D01*
X195476400Y-99536300D01*
X195513169Y-99521070D01*
X195649810Y-99548740D01*
X196150190Y-99548740D01*
X196305552Y-99519507D01*
X196449910Y-99548740D01*
X196950290Y-99548740D01*
X197105652Y-99519507D01*
X197250010Y-99548740D01*
X197366230Y-99548740D01*
X197180714Y-99733933D01*
X197015249Y-100132417D01*
X197014872Y-100563890D01*
X197179642Y-100962663D01*
X197231048Y-101014159D01*
X194569307Y-101014159D01*
X194619286Y-100964267D01*
X194784751Y-100565783D01*
X194785128Y-100134310D01*
X194620358Y-99735537D01*
X194433886Y-99548740D01*
X194549990Y-99548740D01*
X194689884Y-99522417D01*
X194723400Y-99536300D01*
X194816055Y-99536300D01*
X194960855Y-99391500D01*
X195001431Y-99365390D01*
X195100531Y-99220353D01*
X195185720Y-99352741D01*
X195185720Y-99352741D01*
G37*
X195185720Y-99352741D02*
X195231393Y-99383948D01*
X195383745Y-99536300D01*
X195476400Y-99536300D01*
X195513169Y-99521070D01*
X195649810Y-99548740D01*
X196150190Y-99548740D01*
X196305552Y-99519507D01*
X196449910Y-99548740D01*
X196950290Y-99548740D01*
X197105652Y-99519507D01*
X197250010Y-99548740D01*
X197366230Y-99548740D01*
X197180714Y-99733933D01*
X197015249Y-100132417D01*
X197014872Y-100563890D01*
X197179642Y-100962663D01*
X197231048Y-101014159D01*
X194569307Y-101014159D01*
X194619286Y-100964267D01*
X194784751Y-100565783D01*
X194785128Y-100134310D01*
X194620358Y-99735537D01*
X194433886Y-99548740D01*
X194549990Y-99548740D01*
X194689884Y-99522417D01*
X194723400Y-99536300D01*
X194816055Y-99536300D01*
X194960855Y-99391500D01*
X195001431Y-99365390D01*
X195100531Y-99220353D01*
X195185720Y-99352741D01*
M02*
